<?xml version="1.0" encoding="utf-8"?>
<!-- Generator: Adobe Illustrator 24.0.1, SVG Export Plug-In . SVG Version: 6.00 Build 0)  -->
<svg version="1.1" xmlns="http://www.w3.org/2000/svg" xmlns:xlink="http://www.w3.org/1999/xlink" x="0px" y="0px"
	 viewBox="0 0 756 147" style="enable-background:new 0 0 756 147;" xml:space="preserve">
<style type="text/css">
	.st0{display:none;}
	.st1{display:inline;}
	.st2{filter:url(#Adobe_OpacityMaskFilter);}
	.st3{fill:url(#SVGID_2_);}
	.st4{mask:url(#SVGID_1_);}
	.st5{fill:#FFFFFF;}
</style>
<g id="Capa_2" class="st0">
	<rect x="-83" y="-212" class="st1" width="891" height="460"/>
</g>
<g id="Capa_1">
	<defs>
		<filter id="Adobe_OpacityMaskFilter" filterUnits="userSpaceOnUse" x="8" y="12.6" width="740.6" height="132.8">
			<feColorMatrix  type="matrix" values="1 0 0 0 0  0 1 0 0 0  0 0 1 0 0  0 0 0 1 0"/>
		</filter>
	</defs>
	<mask maskUnits="userSpaceOnUse" x="8" y="12.6" width="740.6" height="132.8" id="SVGID_1_">
		<g class="st2">
			<linearGradient id="SVGID_2_" gradientUnits="userSpaceOnUse" x1="377.869" y1="133.9454" x2="377.869" y2="18.9206">
				<stop  offset="2.833283e-02" style="stop-color:#000000"/>
				<stop  offset="1" style="stop-color:#FFFFFF"/>
			</linearGradient>
			<rect x="-0.3" y="8" class="st3" width="756.3" height="139.1"/>
		</g>
	</mask>
	<g class="st4">
		<path class="st5" d="M16.5,44.8c5.7-10.1,13.5-18,23.3-23.7c9.8-5.7,20.8-8.5,32.8-8.5c14.1,0,26.4,3.4,37,10.2
			c10.5,6.8,18.2,16.5,23,29h-20.2c-3.6-7.8-8.8-13.8-15.5-18c-6.8-4.2-14.8-6.3-24.2-6.3c-9,0-17.2,2.1-24.3,6.3
			c-7.2,4.2-12.8,10.2-16.9,17.9c-4.1,7.7-6.1,16.8-6.1,27.2c0,10.3,2,19.3,6.1,27c4.1,7.7,9.7,13.7,16.9,17.9
			c7.2,4.2,15.3,6.3,24.3,6.3c9.4,0,17.5-2.1,24.2-6.2c6.7-4.1,11.9-10.1,15.5-17.9h20.2c-4.8,12.4-12.5,21.9-23,28.7
			c-10.5,6.8-22.8,10.1-37,10.1c-12,0-22.9-2.8-32.8-8.5c-9.8-5.6-17.6-13.5-23.3-23.5c-5.7-10-8.5-21.4-8.5-34S10.8,54.9,16.5,44.8
			z"/>
		<path class="st5" d="M176.2,138.9c-7.7-4.3-13.8-10.5-18.2-18.5c-4.4-8-6.6-17.2-6.6-27.8c0-10.4,2.3-19.6,6.8-27.6
			c4.5-8,10.7-14.1,18.5-18.4c7.8-4.3,16.5-6.4,26.2-6.4s18.4,2.1,26.2,6.4c7.8,4.3,14,10.4,18.5,18.3c4.5,7.9,6.8,17.2,6.8,27.7
			c0,10.5-2.3,19.8-7,27.8c-4.6,8-10.9,14.1-18.9,18.5c-7.9,4.3-16.7,6.5-26.4,6.5C192.6,145.4,183.9,143.2,176.2,138.9z
			 M219.2,126.2c5.3-2.8,9.6-7.1,12.9-12.8c3.3-5.7,4.9-12.6,4.9-20.8s-1.6-15.1-4.8-20.8c-3.2-5.7-7.4-9.9-12.6-12.7
			s-10.8-4.2-16.9-4.2c-6.2,0-11.9,1.4-17,4.2c-5.1,2.8-9.3,7-12.4,12.7c-3.1,5.7-4.6,12.6-4.6,20.8c0,8.3,1.5,15.3,4.6,21
			c3,5.7,7.1,9.9,12.2,12.7c5.1,2.8,10.7,4.2,16.7,4.2C208.2,130.5,213.9,129.1,219.2,126.2z"/>
		<path class="st5" d="M356.3,51.3c7.7,7.5,11.5,18.3,11.5,32.4v60h-16.7V86.1c0-10.2-2.5-17.9-7.6-23.3c-5.1-5.4-12-8.1-20.8-8.1
			c-8.9,0-16,2.8-21.3,8.4c-5.3,5.6-7.9,13.7-7.9,24.3v56.3h-16.9V41.9h16.9v14.5c3.3-5.2,7.9-9.2,13.7-12.1
			c5.8-2.8,12.1-4.3,19-4.3C338.6,40.1,348.6,43.8,356.3,51.3z"/>
		<path class="st5" d="M416.1,55.8v60c0,5,1,8.5,3.2,10.5c2.1,2,5.8,3.1,11,3.1h12.4v14.3h-15.2c-9.4,0-16.5-2.2-21.2-6.5
			c-4.7-4.3-7.1-11.5-7.1-21.4v-60H386V41.9h13.2V16.3h16.9v25.6h26.6v13.9H416.1z"/>
		<path class="st5" d="M463.1,65c4.2-7.9,10-14,17.4-18.3c7.4-4.3,15.6-6.5,24.6-6.5c8.9,0,16.7,1.9,23.2,5.8
			c6.6,3.8,11.5,8.7,14.7,14.5V41.9H560v101.8h-17.1v-18.9c-3.3,5.9-8.3,10.9-15,14.8c-6.6,3.9-14.3,5.9-23.1,5.9
			c-9,0-17.2-2.2-24.5-6.7c-7.3-4.5-13.1-10.7-17.3-18.8c-4.2-8-6.3-17.2-6.3-27.5C456.8,82,458.9,72.9,463.1,65z M538.3,72.6
			c-3.1-5.7-7.3-10.1-12.5-13.1c-5.3-3-11.1-4.6-17.4-4.6s-12.1,1.5-17.3,4.5c-5.2,3-9.4,7.3-12.4,13c-3.1,5.7-4.6,12.4-4.6,20.1
			c0,7.8,1.5,14.6,4.6,20.3c3.1,5.8,7.2,10.2,12.4,13.2c5.2,3,11,4.6,17.3,4.6s12.1-1.5,17.4-4.6c5.3-3,9.4-7.4,12.5-13.2
			c3.1-5.8,4.6-12.5,4.6-20.2C542.9,84.9,541.4,78.3,538.3,72.6z"/>
		<path class="st5" d="M588.6,65c4.2-7.9,10.1-14,17.6-18.3c7.5-4.3,16.1-6.5,25.7-6.5c12.5,0,22.8,3,30.9,9.1
			c8.1,6.1,13.5,14.5,16.1,25.3h-18.2c-1.7-6.2-5.1-11.1-10.1-14.7c-5-3.6-11.2-5.4-18.7-5.4c-9.7,0-17.5,3.3-23.4,9.9
			c-5.9,6.6-8.9,16-8.9,28.1c0,12.3,3,21.7,8.9,28.4c5.9,6.7,13.7,10,23.4,10c7.4,0,13.6-1.7,18.6-5.2c5-3.5,8.4-8.4,10.2-14.9h18.2
			c-2.7,10.4-8.2,18.7-16.3,25c-8.2,6.3-18.4,9.4-30.6,9.4c-9.7,0-18.2-2.2-25.7-6.5c-7.5-4.3-13.3-10.5-17.6-18.4
			c-4.2-7.9-6.3-17.2-6.3-27.9C582.3,82.1,584.4,72.9,588.6,65z"/>
		<path class="st5" d="M722,55.8v60c0,5,1,8.5,3.2,10.5c2.1,2,5.8,3.1,11,3.1h12.4v14.3h-15.2c-9.4,0-16.5-2.2-21.2-6.5
			c-4.7-4.3-7.1-11.5-7.1-21.4v-60h-13.2V41.9h13.2V16.3H722v25.6h26.6v13.9H722z"/>
	</g>
</g>
</svg>
