<svg width="279" height="205" viewBox="0 0 279 205" fill="none" xmlns="http://www.w3.org/2000/svg">
<path d="M40.5527 145.203V158H38.8828V145.203H40.5527ZM44.666 145.203V146.592H34.7783V145.203H44.666ZM49.3857 158.176C48.7236 158.176 48.123 158.064 47.584 157.842C47.0508 157.613 46.5908 157.294 46.2041 156.884C45.8232 156.474 45.5303 155.987 45.3252 155.425C45.1201 154.862 45.0176 154.247 45.0176 153.579V153.21C45.0176 152.437 45.1318 151.748 45.3604 151.145C45.5889 150.535 45.8994 150.02 46.292 149.598C46.6846 149.176 47.1299 148.856 47.6279 148.64C48.126 148.423 48.6416 148.314 49.1748 148.314C49.8545 148.314 50.4404 148.432 50.9326 148.666C51.4307 148.9 51.8379 149.229 52.1543 149.65C52.4707 150.066 52.7051 150.559 52.8574 151.127C53.0098 151.689 53.0859 152.305 53.0859 152.973V153.702H45.9844V152.375H51.46V152.252C51.4365 151.83 51.3486 151.42 51.1963 151.021C51.0498 150.623 50.8154 150.295 50.4932 150.037C50.1709 149.779 49.7314 149.65 49.1748 149.65C48.8057 149.65 48.4658 149.729 48.1553 149.888C47.8447 150.04 47.5781 150.269 47.3555 150.573C47.1328 150.878 46.96 151.25 46.8369 151.689C46.7139 152.129 46.6523 152.636 46.6523 153.21V153.579C46.6523 154.03 46.7139 154.455 46.8369 154.854C46.9658 155.246 47.1504 155.592 47.3906 155.891C47.6367 156.189 47.9326 156.424 48.2783 156.594C48.6299 156.764 49.0283 156.849 49.4736 156.849C50.0479 156.849 50.5342 156.731 50.9326 156.497C51.3311 156.263 51.6797 155.949 51.9785 155.557L52.9629 156.339C52.7578 156.649 52.4971 156.945 52.1807 157.227C51.8643 157.508 51.4746 157.736 51.0117 157.912C50.5547 158.088 50.0127 158.176 49.3857 158.176ZM60.5918 156.374V151.479C60.5918 151.104 60.5156 150.778 60.3633 150.503C60.2168 150.222 59.9941 150.005 59.6953 149.853C59.3965 149.7 59.0273 149.624 58.5879 149.624C58.1777 149.624 57.8174 149.694 57.5068 149.835C57.2021 149.976 56.9619 150.16 56.7861 150.389C56.6162 150.617 56.5312 150.863 56.5312 151.127H54.9053C54.9053 150.787 54.9932 150.45 55.1689 150.116C55.3447 149.782 55.5967 149.48 55.9248 149.211C56.2588 148.936 56.6572 148.719 57.1201 148.561C57.5889 148.396 58.1104 148.314 58.6846 148.314C59.376 148.314 59.9854 148.432 60.5127 148.666C61.0459 148.9 61.4619 149.255 61.7607 149.729C62.0654 150.198 62.2178 150.787 62.2178 151.496V155.926C62.2178 156.242 62.2441 156.579 62.2969 156.937C62.3555 157.294 62.4404 157.602 62.5518 157.859V158H60.8555C60.7734 157.812 60.709 157.563 60.6621 157.253C60.6152 156.937 60.5918 156.644 60.5918 156.374ZM60.873 152.234L60.8906 153.377H59.2471C58.7842 153.377 58.3711 153.415 58.0078 153.491C57.6445 153.562 57.3398 153.67 57.0938 153.816C56.8477 153.963 56.6602 154.147 56.5312 154.37C56.4023 154.587 56.3379 154.842 56.3379 155.135C56.3379 155.434 56.4053 155.706 56.54 155.952C56.6748 156.198 56.877 156.395 57.1465 156.541C57.4219 156.682 57.7588 156.752 58.1572 156.752C58.6553 156.752 59.0947 156.646 59.4756 156.436C59.8564 156.225 60.1582 155.967 60.3809 155.662C60.6094 155.357 60.7324 155.062 60.75 154.774L61.4443 155.557C61.4033 155.803 61.292 156.075 61.1104 156.374C60.9287 156.673 60.6855 156.96 60.3809 157.235C60.082 157.505 59.7246 157.73 59.3086 157.912C58.8984 158.088 58.4355 158.176 57.9199 158.176C57.2754 158.176 56.71 158.05 56.2236 157.798C55.7432 157.546 55.3682 157.209 55.0986 156.787C54.835 156.359 54.7031 155.882 54.7031 155.354C54.7031 154.845 54.8027 154.396 55.002 154.01C55.2012 153.617 55.4883 153.292 55.8633 153.034C56.2383 152.771 56.6895 152.571 57.2168 152.437C57.7441 152.302 58.333 152.234 58.9834 152.234H60.873ZM66.3926 150.38V158H64.7578V148.49H66.3047L66.3926 150.38ZM66.0586 152.885L65.3027 152.858C65.3086 152.208 65.3936 151.607 65.5576 151.057C65.7217 150.5 65.9648 150.017 66.2871 149.606C66.6094 149.196 67.0107 148.88 67.4912 148.657C67.9717 148.429 68.5283 148.314 69.1611 148.314C69.6064 148.314 70.0166 148.379 70.3916 148.508C70.7666 148.631 71.0918 148.827 71.3672 149.097C71.6426 149.366 71.8564 149.712 72.0088 150.134C72.1611 150.556 72.2373 151.065 72.2373 151.663V158H70.6113V151.742C70.6113 151.244 70.5264 150.846 70.3564 150.547C70.1924 150.248 69.958 150.031 69.6533 149.896C69.3486 149.756 68.9912 149.686 68.5811 149.686C68.1006 149.686 67.6992 149.771 67.377 149.94C67.0547 150.11 66.7969 150.345 66.6035 150.644C66.4102 150.942 66.2695 151.285 66.1816 151.672C66.0996 152.053 66.0586 152.457 66.0586 152.885ZM72.2197 151.988L71.1299 152.322C71.1357 151.801 71.2207 151.3 71.3848 150.819C71.5547 150.339 71.7979 149.911 72.1143 149.536C72.4365 149.161 72.832 148.865 73.3008 148.648C73.7695 148.426 74.3057 148.314 74.9092 148.314C75.4189 148.314 75.8701 148.382 76.2627 148.517C76.6611 148.651 76.9951 148.859 77.2646 149.141C77.54 149.416 77.748 149.771 77.8887 150.204C78.0293 150.638 78.0996 151.153 78.0996 151.751V158H76.4648V151.733C76.4648 151.2 76.3799 150.787 76.21 150.494C76.0459 150.195 75.8115 149.987 75.5068 149.87C75.208 149.747 74.8506 149.686 74.4346 149.686C74.0771 149.686 73.7607 149.747 73.4854 149.87C73.21 149.993 72.9785 150.163 72.791 150.38C72.6035 150.591 72.46 150.834 72.3604 151.109C72.2666 151.385 72.2197 151.678 72.2197 151.988ZM86.792 148.49V158H85.1572V148.49H86.792ZM85.0342 145.968C85.0342 145.704 85.1133 145.481 85.2715 145.3C85.4355 145.118 85.6758 145.027 85.9922 145.027C86.3027 145.027 86.54 145.118 86.7041 145.3C86.874 145.481 86.959 145.704 86.959 145.968C86.959 146.22 86.874 146.437 86.7041 146.618C86.54 146.794 86.3027 146.882 85.9922 146.882C85.6758 146.882 85.4355 146.794 85.2715 146.618C85.1133 146.437 85.0342 146.22 85.0342 145.968ZM91.0195 150.38V158H89.3848V148.49H90.9316L91.0195 150.38ZM90.6855 152.885L89.9297 152.858C89.9355 152.208 90.0205 151.607 90.1846 151.057C90.3486 150.5 90.5918 150.017 90.9141 149.606C91.2363 149.196 91.6377 148.88 92.1182 148.657C92.5986 148.429 93.1553 148.314 93.7881 148.314C94.2334 148.314 94.6436 148.379 95.0186 148.508C95.3936 148.631 95.7188 148.827 95.9941 149.097C96.2695 149.366 96.4834 149.712 96.6357 150.134C96.7881 150.556 96.8643 151.065 96.8643 151.663V158H95.2383V151.742C95.2383 151.244 95.1533 150.846 94.9834 150.547C94.8193 150.248 94.585 150.031 94.2803 149.896C93.9756 149.756 93.6182 149.686 93.208 149.686C92.7275 149.686 92.3262 149.771 92.0039 149.94C91.6816 150.11 91.4238 150.345 91.2305 150.644C91.0371 150.942 90.8965 151.285 90.8086 151.672C90.7266 152.053 90.6855 152.457 90.6855 152.885ZM96.8467 151.988L95.7568 152.322C95.7627 151.801 95.8477 151.3 96.0117 150.819C96.1816 150.339 96.4248 149.911 96.7412 149.536C97.0635 149.161 97.459 148.865 97.9277 148.648C98.3965 148.426 98.9326 148.314 99.5361 148.314C100.046 148.314 100.497 148.382 100.89 148.517C101.288 148.651 101.622 148.859 101.892 149.141C102.167 149.416 102.375 149.771 102.516 150.204C102.656 150.638 102.727 151.153 102.727 151.751V158H101.092V151.733C101.092 151.2 101.007 150.787 100.837 150.494C100.673 150.195 100.438 149.987 100.134 149.87C99.835 149.747 99.4775 149.686 99.0615 149.686C98.7041 149.686 98.3877 149.747 98.1123 149.87C97.8369 149.993 97.6055 150.163 97.418 150.38C97.2305 150.591 97.0869 150.834 96.9873 151.109C96.8936 151.385 96.8467 151.678 96.8467 151.988ZM106.813 150.318V161.656H105.179V148.49H106.673L106.813 150.318ZM113.221 153.166V153.351C113.221 154.042 113.139 154.684 112.975 155.275C112.811 155.861 112.57 156.371 112.254 156.805C111.943 157.238 111.56 157.575 111.103 157.815C110.646 158.056 110.121 158.176 109.529 158.176C108.926 158.176 108.393 158.076 107.93 157.877C107.467 157.678 107.074 157.388 106.752 157.007C106.43 156.626 106.172 156.169 105.979 155.636C105.791 155.103 105.662 154.502 105.592 153.834V152.85C105.662 152.146 105.794 151.517 105.987 150.96C106.181 150.403 106.436 149.929 106.752 149.536C107.074 149.138 107.464 148.836 107.921 148.631C108.378 148.42 108.905 148.314 109.503 148.314C110.101 148.314 110.631 148.432 111.094 148.666C111.557 148.895 111.946 149.223 112.263 149.65C112.579 150.078 112.816 150.591 112.975 151.188C113.139 151.78 113.221 152.439 113.221 153.166ZM111.586 153.351V153.166C111.586 152.691 111.536 152.246 111.437 151.83C111.337 151.408 111.182 151.039 110.971 150.723C110.766 150.4 110.502 150.148 110.18 149.967C109.857 149.779 109.474 149.686 109.028 149.686C108.618 149.686 108.261 149.756 107.956 149.896C107.657 150.037 107.402 150.228 107.191 150.468C106.98 150.702 106.808 150.972 106.673 151.276C106.544 151.575 106.447 151.886 106.383 152.208V154.484C106.5 154.895 106.664 155.281 106.875 155.645C107.086 156.002 107.367 156.292 107.719 156.515C108.07 156.731 108.513 156.84 109.046 156.84C109.485 156.84 109.863 156.749 110.18 156.567C110.502 156.38 110.766 156.125 110.971 155.803C111.182 155.48 111.337 155.111 111.437 154.695C111.536 154.273 111.586 153.825 111.586 153.351ZM117.062 144.5V158H115.427V144.5H117.062ZM123.618 158.176C122.956 158.176 122.355 158.064 121.816 157.842C121.283 157.613 120.823 157.294 120.437 156.884C120.056 156.474 119.763 155.987 119.558 155.425C119.353 154.862 119.25 154.247 119.25 153.579V153.21C119.25 152.437 119.364 151.748 119.593 151.145C119.821 150.535 120.132 150.02 120.524 149.598C120.917 149.176 121.362 148.856 121.86 148.64C122.358 148.423 122.874 148.314 123.407 148.314C124.087 148.314 124.673 148.432 125.165 148.666C125.663 148.9 126.07 149.229 126.387 149.65C126.703 150.066 126.938 150.559 127.09 151.127C127.242 151.689 127.318 152.305 127.318 152.973V153.702H120.217V152.375H125.692V152.252C125.669 151.83 125.581 151.42 125.429 151.021C125.282 150.623 125.048 150.295 124.726 150.037C124.403 149.779 123.964 149.65 123.407 149.65C123.038 149.65 122.698 149.729 122.388 149.888C122.077 150.04 121.811 150.269 121.588 150.573C121.365 150.878 121.192 151.25 121.069 151.689C120.946 152.129 120.885 152.636 120.885 153.21V153.579C120.885 154.03 120.946 154.455 121.069 154.854C121.198 155.246 121.383 155.592 121.623 155.891C121.869 156.189 122.165 156.424 122.511 156.594C122.862 156.764 123.261 156.849 123.706 156.849C124.28 156.849 124.767 156.731 125.165 156.497C125.563 156.263 125.912 155.949 126.211 155.557L127.195 156.339C126.99 156.649 126.729 156.945 126.413 157.227C126.097 157.508 125.707 157.736 125.244 157.912C124.787 158.088 124.245 158.176 123.618 158.176ZM130.834 150.38V158H129.199V148.49H130.746L130.834 150.38ZM130.5 152.885L129.744 152.858C129.75 152.208 129.835 151.607 129.999 151.057C130.163 150.5 130.406 150.017 130.729 149.606C131.051 149.196 131.452 148.88 131.933 148.657C132.413 148.429 132.97 148.314 133.603 148.314C134.048 148.314 134.458 148.379 134.833 148.508C135.208 148.631 135.533 148.827 135.809 149.097C136.084 149.366 136.298 149.712 136.45 150.134C136.603 150.556 136.679 151.065 136.679 151.663V158H135.053V151.742C135.053 151.244 134.968 150.846 134.798 150.547C134.634 150.248 134.399 150.031 134.095 149.896C133.79 149.756 133.433 149.686 133.022 149.686C132.542 149.686 132.141 149.771 131.818 149.94C131.496 150.11 131.238 150.345 131.045 150.644C130.852 150.942 130.711 151.285 130.623 151.672C130.541 152.053 130.5 152.457 130.5 152.885ZM136.661 151.988L135.571 152.322C135.577 151.801 135.662 151.3 135.826 150.819C135.996 150.339 136.239 149.911 136.556 149.536C136.878 149.161 137.273 148.865 137.742 148.648C138.211 148.426 138.747 148.314 139.351 148.314C139.86 148.314 140.312 148.382 140.704 148.517C141.103 148.651 141.437 148.859 141.706 149.141C141.981 149.416 142.189 149.771 142.33 150.204C142.471 150.638 142.541 151.153 142.541 151.751V158H140.906V151.733C140.906 151.2 140.821 150.787 140.651 150.494C140.487 150.195 140.253 149.987 139.948 149.87C139.649 149.747 139.292 149.686 138.876 149.686C138.519 149.686 138.202 149.747 137.927 149.87C137.651 149.993 137.42 150.163 137.232 150.38C137.045 150.591 136.901 150.834 136.802 151.109C136.708 151.385 136.661 151.678 136.661 151.988ZM148.948 158.176C148.286 158.176 147.686 158.064 147.146 157.842C146.613 157.613 146.153 157.294 145.767 156.884C145.386 156.474 145.093 155.987 144.888 155.425C144.683 154.862 144.58 154.247 144.58 153.579V153.21C144.58 152.437 144.694 151.748 144.923 151.145C145.151 150.535 145.462 150.02 145.854 149.598C146.247 149.176 146.692 148.856 147.19 148.64C147.688 148.423 148.204 148.314 148.737 148.314C149.417 148.314 150.003 148.432 150.495 148.666C150.993 148.9 151.4 149.229 151.717 149.65C152.033 150.066 152.268 150.559 152.42 151.127C152.572 151.689 152.648 152.305 152.648 152.973V153.702H145.547V152.375H151.022V152.252C150.999 151.83 150.911 151.42 150.759 151.021C150.612 150.623 150.378 150.295 150.056 150.037C149.733 149.779 149.294 149.65 148.737 149.65C148.368 149.65 148.028 149.729 147.718 149.888C147.407 150.04 147.141 150.269 146.918 150.573C146.695 150.878 146.522 151.25 146.399 151.689C146.276 152.129 146.215 152.636 146.215 153.21V153.579C146.215 154.03 146.276 154.455 146.399 154.854C146.528 155.246 146.713 155.592 146.953 155.891C147.199 156.189 147.495 156.424 147.841 156.594C148.192 156.764 148.591 156.849 149.036 156.849C149.61 156.849 150.097 156.731 150.495 156.497C150.894 156.263 151.242 155.949 151.541 155.557L152.525 156.339C152.32 156.649 152.06 156.945 151.743 157.227C151.427 157.508 151.037 157.736 150.574 157.912C150.117 158.088 149.575 158.176 148.948 158.176ZM156.173 150.521V158H154.547V148.49H156.085L156.173 150.521ZM155.786 152.885L155.109 152.858C155.115 152.208 155.212 151.607 155.399 151.057C155.587 150.5 155.851 150.017 156.19 149.606C156.53 149.196 156.935 148.88 157.403 148.657C157.878 148.429 158.402 148.314 158.977 148.314C159.445 148.314 159.867 148.379 160.242 148.508C160.617 148.631 160.937 148.83 161.2 149.105C161.47 149.381 161.675 149.738 161.815 150.178C161.956 150.611 162.026 151.142 162.026 151.769V158H160.392V151.751C160.392 151.253 160.318 150.854 160.172 150.556C160.025 150.251 159.812 150.031 159.53 149.896C159.249 149.756 158.903 149.686 158.493 149.686C158.089 149.686 157.72 149.771 157.386 149.94C157.058 150.11 156.773 150.345 156.533 150.644C156.299 150.942 156.114 151.285 155.979 151.672C155.851 152.053 155.786 152.457 155.786 152.885ZM168.478 148.49V149.738H163.336V148.49H168.478ZM165.076 146.179H166.702V155.645C166.702 155.967 166.752 156.21 166.852 156.374C166.951 156.538 167.08 156.646 167.238 156.699C167.396 156.752 167.566 156.778 167.748 156.778C167.883 156.778 168.023 156.767 168.17 156.743C168.322 156.714 168.437 156.69 168.513 156.673L168.521 158C168.393 158.041 168.223 158.079 168.012 158.114C167.807 158.155 167.558 158.176 167.265 158.176C166.866 158.176 166.5 158.097 166.166 157.938C165.832 157.78 165.565 157.517 165.366 157.147C165.173 156.772 165.076 156.269 165.076 155.636V146.179ZM175.992 156.374V151.479C175.992 151.104 175.916 150.778 175.764 150.503C175.617 150.222 175.395 150.005 175.096 149.853C174.797 149.7 174.428 149.624 173.988 149.624C173.578 149.624 173.218 149.694 172.907 149.835C172.603 149.976 172.362 150.16 172.187 150.389C172.017 150.617 171.932 150.863 171.932 151.127H170.306C170.306 150.787 170.394 150.45 170.569 150.116C170.745 149.782 170.997 149.48 171.325 149.211C171.659 148.936 172.058 148.719 172.521 148.561C172.989 148.396 173.511 148.314 174.085 148.314C174.776 148.314 175.386 148.432 175.913 148.666C176.446 148.9 176.862 149.255 177.161 149.729C177.466 150.198 177.618 150.787 177.618 151.496V155.926C177.618 156.242 177.645 156.579 177.697 156.937C177.756 157.294 177.841 157.602 177.952 157.859V158H176.256C176.174 157.812 176.109 157.563 176.062 157.253C176.016 156.937 175.992 156.644 175.992 156.374ZM176.273 152.234L176.291 153.377H174.647C174.185 153.377 173.771 153.415 173.408 153.491C173.045 153.562 172.74 153.67 172.494 153.816C172.248 153.963 172.061 154.147 171.932 154.37C171.803 154.587 171.738 154.842 171.738 155.135C171.738 155.434 171.806 155.706 171.94 155.952C172.075 156.198 172.277 156.395 172.547 156.541C172.822 156.682 173.159 156.752 173.558 156.752C174.056 156.752 174.495 156.646 174.876 156.436C175.257 156.225 175.559 155.967 175.781 155.662C176.01 155.357 176.133 155.062 176.15 154.774L176.845 155.557C176.804 155.803 176.692 156.075 176.511 156.374C176.329 156.673 176.086 156.96 175.781 157.235C175.482 157.505 175.125 157.73 174.709 157.912C174.299 158.088 173.836 158.176 173.32 158.176C172.676 158.176 172.11 158.05 171.624 157.798C171.144 157.546 170.769 157.209 170.499 156.787C170.235 156.359 170.104 155.882 170.104 155.354C170.104 154.845 170.203 154.396 170.402 154.01C170.602 153.617 170.889 153.292 171.264 153.034C171.639 152.771 172.09 152.571 172.617 152.437C173.145 152.302 173.733 152.234 174.384 152.234H176.273ZM184.157 148.49V149.738H179.016V148.49H184.157ZM180.756 146.179H182.382V155.645C182.382 155.967 182.432 156.21 182.531 156.374C182.631 156.538 182.76 156.646 182.918 156.699C183.076 156.752 183.246 156.778 183.428 156.778C183.562 156.778 183.703 156.767 183.85 156.743C184.002 156.714 184.116 156.69 184.192 156.673L184.201 158C184.072 158.041 183.902 158.079 183.691 158.114C183.486 158.155 183.237 158.176 182.944 158.176C182.546 158.176 182.18 158.097 181.846 157.938C181.512 157.78 181.245 157.517 181.046 157.147C180.853 156.772 180.756 156.269 180.756 155.636V146.179ZM187.831 148.49V158H186.196V148.49H187.831ZM186.073 145.968C186.073 145.704 186.152 145.481 186.311 145.3C186.475 145.118 186.715 145.027 187.031 145.027C187.342 145.027 187.579 145.118 187.743 145.3C187.913 145.481 187.998 145.704 187.998 145.968C187.998 146.22 187.913 146.437 187.743 146.618C187.579 146.794 187.342 146.882 187.031 146.882C186.715 146.882 186.475 146.794 186.311 146.618C186.152 146.437 186.073 146.22 186.073 145.968ZM190.011 153.351V153.148C190.011 152.463 190.11 151.827 190.31 151.241C190.509 150.649 190.796 150.137 191.171 149.703C191.546 149.264 192 148.924 192.533 148.684C193.066 148.438 193.664 148.314 194.326 148.314C194.994 148.314 195.595 148.438 196.128 148.684C196.667 148.924 197.124 149.264 197.499 149.703C197.88 150.137 198.17 150.649 198.369 151.241C198.568 151.827 198.668 152.463 198.668 153.148V153.351C198.668 154.036 198.568 154.672 198.369 155.258C198.17 155.844 197.88 156.356 197.499 156.796C197.124 157.229 196.67 157.569 196.137 157.815C195.609 158.056 195.012 158.176 194.344 158.176C193.676 158.176 193.075 158.056 192.542 157.815C192.009 157.569 191.552 157.229 191.171 156.796C190.796 156.356 190.509 155.844 190.31 155.258C190.11 154.672 190.011 154.036 190.011 153.351ZM191.637 153.148V153.351C191.637 153.825 191.692 154.273 191.804 154.695C191.915 155.111 192.082 155.48 192.305 155.803C192.533 156.125 192.817 156.38 193.157 156.567C193.497 156.749 193.893 156.84 194.344 156.84C194.789 156.84 195.179 156.749 195.513 156.567C195.853 156.38 196.134 156.125 196.356 155.803C196.579 155.48 196.746 155.111 196.857 154.695C196.975 154.273 197.033 153.825 197.033 153.351V153.148C197.033 152.68 196.975 152.237 196.857 151.821C196.746 151.399 196.576 151.027 196.348 150.705C196.125 150.377 195.844 150.119 195.504 149.932C195.17 149.744 194.777 149.65 194.326 149.65C193.881 149.65 193.488 149.744 193.148 149.932C192.814 150.119 192.533 150.377 192.305 150.705C192.082 151.027 191.915 151.399 191.804 151.821C191.692 152.237 191.637 152.68 191.637 153.148ZM202.333 150.521V158H200.707V148.49H202.245L202.333 150.521ZM201.946 152.885L201.27 152.858C201.275 152.208 201.372 151.607 201.56 151.057C201.747 150.5 202.011 150.017 202.351 149.606C202.69 149.196 203.095 148.88 203.563 148.657C204.038 148.429 204.562 148.314 205.137 148.314C205.605 148.314 206.027 148.379 206.402 148.508C206.777 148.631 207.097 148.83 207.36 149.105C207.63 149.381 207.835 149.738 207.976 150.178C208.116 150.611 208.187 151.142 208.187 151.769V158H206.552V151.751C206.552 151.253 206.479 150.854 206.332 150.556C206.186 150.251 205.972 150.031 205.69 149.896C205.409 149.756 205.063 149.686 204.653 149.686C204.249 149.686 203.88 149.771 203.546 149.94C203.218 150.11 202.934 150.345 202.693 150.644C202.459 150.942 202.274 151.285 202.14 151.672C202.011 152.053 201.946 152.457 201.946 152.885ZM214.69 153.351V153.148C214.69 152.463 214.79 151.827 214.989 151.241C215.188 150.649 215.476 150.137 215.851 149.703C216.226 149.264 216.68 148.924 217.213 148.684C217.746 148.438 218.344 148.314 219.006 148.314C219.674 148.314 220.274 148.438 220.808 148.684C221.347 148.924 221.804 149.264 222.179 149.703C222.56 150.137 222.85 150.649 223.049 151.241C223.248 151.827 223.348 152.463 223.348 153.148V153.351C223.348 154.036 223.248 154.672 223.049 155.258C222.85 155.844 222.56 156.356 222.179 156.796C221.804 157.229 221.35 157.569 220.816 157.815C220.289 158.056 219.691 158.176 219.023 158.176C218.355 158.176 217.755 158.056 217.222 157.815C216.688 157.569 216.231 157.229 215.851 156.796C215.476 156.356 215.188 155.844 214.989 155.258C214.79 154.672 214.69 154.036 214.69 153.351ZM216.316 153.148V153.351C216.316 153.825 216.372 154.273 216.483 154.695C216.595 155.111 216.762 155.48 216.984 155.803C217.213 156.125 217.497 156.38 217.837 156.567C218.177 156.749 218.572 156.84 219.023 156.84C219.469 156.84 219.858 156.749 220.192 156.567C220.532 156.38 220.813 156.125 221.036 155.803C221.259 155.48 221.426 155.111 221.537 154.695C221.654 154.273 221.713 153.825 221.713 153.351V153.148C221.713 152.68 221.654 152.237 221.537 151.821C221.426 151.399 221.256 151.027 221.027 150.705C220.805 150.377 220.523 150.119 220.184 149.932C219.85 149.744 219.457 149.65 219.006 149.65C218.561 149.65 218.168 149.744 217.828 149.932C217.494 150.119 217.213 150.377 216.984 150.705C216.762 151.027 216.595 151.399 216.483 151.821C216.372 152.237 216.316 152.68 216.316 153.148ZM227.812 158H226.187V147.488C226.187 146.803 226.31 146.226 226.556 145.757C226.808 145.282 227.168 144.925 227.637 144.685C228.105 144.438 228.662 144.315 229.307 144.315C229.494 144.315 229.682 144.327 229.869 144.351C230.062 144.374 230.25 144.409 230.432 144.456L230.344 145.783C230.221 145.754 230.08 145.733 229.922 145.722C229.77 145.71 229.617 145.704 229.465 145.704C229.119 145.704 228.82 145.774 228.568 145.915C228.322 146.05 228.135 146.249 228.006 146.513C227.877 146.776 227.812 147.102 227.812 147.488V158ZM229.834 148.49V149.738H224.684V148.49H229.834ZM241.717 156.374V151.479C241.717 151.104 241.641 150.778 241.488 150.503C241.342 150.222 241.119 150.005 240.82 149.853C240.521 149.7 240.152 149.624 239.713 149.624C239.303 149.624 238.942 149.694 238.632 149.835C238.327 149.976 238.087 150.16 237.911 150.389C237.741 150.617 237.656 150.863 237.656 151.127H236.03C236.03 150.787 236.118 150.45 236.294 150.116C236.47 149.782 236.722 149.48 237.05 149.211C237.384 148.936 237.782 148.719 238.245 148.561C238.714 148.396 239.235 148.314 239.81 148.314C240.501 148.314 241.11 148.432 241.638 148.666C242.171 148.9 242.587 149.255 242.886 149.729C243.19 150.198 243.343 150.787 243.343 151.496V155.926C243.343 156.242 243.369 156.579 243.422 156.937C243.48 157.294 243.565 157.602 243.677 157.859V158H241.98C241.898 157.812 241.834 157.563 241.787 157.253C241.74 156.937 241.717 156.644 241.717 156.374ZM241.998 152.234L242.016 153.377H240.372C239.909 153.377 239.496 153.415 239.133 153.491C238.77 153.562 238.465 153.67 238.219 153.816C237.973 153.963 237.785 154.147 237.656 154.37C237.527 154.587 237.463 154.842 237.463 155.135C237.463 155.434 237.53 155.706 237.665 155.952C237.8 156.198 238.002 156.395 238.271 156.541C238.547 156.682 238.884 156.752 239.282 156.752C239.78 156.752 240.22 156.646 240.601 156.436C240.981 156.225 241.283 155.967 241.506 155.662C241.734 155.357 241.857 155.062 241.875 154.774L242.569 155.557C242.528 155.803 242.417 156.075 242.235 156.374C242.054 156.673 241.811 156.96 241.506 157.235C241.207 157.505 240.85 157.73 240.434 157.912C240.023 158.088 239.561 158.176 239.045 158.176C238.4 158.176 237.835 158.05 237.349 157.798C236.868 157.546 236.493 157.209 236.224 156.787C235.96 156.359 235.828 155.882 235.828 155.354C235.828 154.845 235.928 154.396 236.127 154.01C236.326 153.617 236.613 153.292 236.988 153.034C237.363 152.771 237.814 152.571 238.342 152.437C238.869 152.302 239.458 152.234 240.108 152.234H241.998ZM13.4473 167.964L13.79 168.966C13.0928 169.183 12.6123 169.572 12.3486 170.135C12.085 170.691 11.9531 171.33 11.9531 172.051V173.87C11.9531 174.456 11.833 174.989 11.5928 175.47C11.3584 175.944 10.9834 176.322 10.4678 176.604C9.95801 176.885 9.28711 177.025 8.45508 177.025V175.953C9.11719 175.953 9.5918 175.766 9.87891 175.391C10.1719 175.016 10.3184 174.509 10.3184 173.87V172.051C10.3184 171.436 10.4121 170.861 10.5996 170.328C10.793 169.789 11.1152 169.317 11.5664 168.913C12.0234 168.503 12.6504 168.187 13.4473 167.964ZM13.79 184.206L13.4473 185.217C12.6504 184.988 12.0234 184.672 11.5664 184.268C11.1152 183.863 10.793 183.392 10.5996 182.853C10.4121 182.319 10.3184 181.745 10.3184 181.13V179.319C10.3184 178.892 10.2539 178.522 10.125 178.212C9.99609 177.901 9.79395 177.661 9.51855 177.491C9.24902 177.315 8.89453 177.228 8.45508 177.228V176.155C9.28711 176.155 9.95801 176.296 10.4678 176.577C10.9834 176.858 11.3584 177.239 11.5928 177.72C11.833 178.194 11.9531 178.728 11.9531 179.319V181.13C11.9531 181.61 12.0088 182.056 12.1201 182.466C12.2373 182.876 12.4277 183.23 12.6914 183.529C12.9609 183.834 13.3271 184.06 13.79 184.206ZM19.2129 172.49V173.738H14.0713V172.49H19.2129ZM15.8115 170.179H17.4375V179.645C17.4375 179.967 17.4873 180.21 17.5869 180.374C17.6865 180.538 17.8154 180.646 17.9736 180.699C18.1318 180.752 18.3018 180.778 18.4834 180.778C18.6182 180.778 18.7588 180.767 18.9053 180.743C19.0576 180.714 19.1719 180.69 19.248 180.673L19.2568 182C19.1279 182.041 18.958 182.079 18.7471 182.114C18.542 182.155 18.293 182.176 18 182.176C17.6016 182.176 17.2354 182.097 16.9014 181.938C16.5674 181.78 16.3008 181.517 16.1016 181.147C15.9082 180.772 15.8115 180.269 15.8115 179.636V170.179ZM20.5137 177.351V177.148C20.5137 176.463 20.6133 175.827 20.8125 175.241C21.0117 174.649 21.2988 174.137 21.6738 173.703C22.0488 173.264 22.5029 172.924 23.0361 172.684C23.5693 172.438 24.167 172.314 24.8291 172.314C25.4971 172.314 26.0977 172.438 26.6309 172.684C27.1699 172.924 27.627 173.264 28.002 173.703C28.3828 174.137 28.6729 174.649 28.8721 175.241C29.0713 175.827 29.1709 176.463 29.1709 177.148V177.351C29.1709 178.036 29.0713 178.672 28.8721 179.258C28.6729 179.844 28.3828 180.356 28.002 180.796C27.627 181.229 27.1729 181.569 26.6396 181.815C26.1123 182.056 25.5146 182.176 24.8467 182.176C24.1787 182.176 23.5781 182.056 23.0449 181.815C22.5117 181.569 22.0547 181.229 21.6738 180.796C21.2988 180.356 21.0117 179.844 20.8125 179.258C20.6133 178.672 20.5137 178.036 20.5137 177.351ZM22.1396 177.148V177.351C22.1396 177.825 22.1953 178.273 22.3066 178.695C22.418 179.111 22.585 179.48 22.8076 179.803C23.0361 180.125 23.3203 180.38 23.6602 180.567C24 180.749 24.3955 180.84 24.8467 180.84C25.292 180.84 25.6816 180.749 26.0156 180.567C26.3555 180.38 26.6367 180.125 26.8594 179.803C27.082 179.48 27.249 179.111 27.3604 178.695C27.4775 178.273 27.5361 177.825 27.5361 177.351V177.148C27.5361 176.68 27.4775 176.237 27.3604 175.821C27.249 175.399 27.0791 175.027 26.8506 174.705C26.6279 174.377 26.3467 174.119 26.0068 173.932C25.6729 173.744 25.2803 173.65 24.8291 173.65C24.3838 173.65 23.9912 173.744 23.6514 173.932C23.3174 174.119 23.0361 174.377 22.8076 174.705C22.585 175.027 22.418 175.399 22.3066 175.821C22.1953 176.237 22.1396 176.68 22.1396 177.148ZM34.9189 182H32.2471L32.2646 180.62H34.9189C35.833 180.62 36.5947 180.43 37.2041 180.049C37.8135 179.662 38.2705 179.123 38.5752 178.432C38.8857 177.734 39.041 176.92 39.041 175.988V175.206C39.041 174.474 38.9531 173.823 38.7773 173.255C38.6016 172.681 38.3438 172.197 38.0039 171.805C37.6641 171.406 37.248 171.104 36.7559 170.899C36.2695 170.694 35.71 170.592 35.0771 170.592H32.1943V169.203H35.0771C35.915 169.203 36.6797 169.344 37.3711 169.625C38.0625 169.9 38.6572 170.302 39.1553 170.829C39.6592 171.351 40.0459 171.983 40.3154 172.728C40.585 173.466 40.7197 174.298 40.7197 175.224V175.988C40.7197 176.914 40.585 177.749 40.3154 178.493C40.0459 179.231 39.6562 179.861 39.1465 180.383C38.6426 180.904 38.0332 181.306 37.3184 181.587C36.6094 181.862 35.8096 182 34.9189 182ZM33.1523 169.203V182H31.4561V169.203H33.1523ZM42.5918 177.351V177.148C42.5918 176.463 42.6914 175.827 42.8906 175.241C43.0898 174.649 43.377 174.137 43.752 173.703C44.127 173.264 44.5811 172.924 45.1143 172.684C45.6475 172.438 46.2451 172.314 46.9072 172.314C47.5752 172.314 48.1758 172.438 48.709 172.684C49.248 172.924 49.7051 173.264 50.0801 173.703C50.4609 174.137 50.751 174.649 50.9502 175.241C51.1494 175.827 51.249 176.463 51.249 177.148V177.351C51.249 178.036 51.1494 178.672 50.9502 179.258C50.751 179.844 50.4609 180.356 50.0801 180.796C49.7051 181.229 49.251 181.569 48.7178 181.815C48.1904 182.056 47.5928 182.176 46.9248 182.176C46.2568 182.176 45.6562 182.056 45.123 181.815C44.5898 181.569 44.1328 181.229 43.752 180.796C43.377 180.356 43.0898 179.844 42.8906 179.258C42.6914 178.672 42.5918 178.036 42.5918 177.351ZM44.2178 177.148V177.351C44.2178 177.825 44.2734 178.273 44.3848 178.695C44.4961 179.111 44.6631 179.48 44.8857 179.803C45.1143 180.125 45.3984 180.38 45.7383 180.567C46.0781 180.749 46.4736 180.84 46.9248 180.84C47.3701 180.84 47.7598 180.749 48.0938 180.567C48.4336 180.38 48.7148 180.125 48.9375 179.803C49.1602 179.48 49.3271 179.111 49.4385 178.695C49.5557 178.273 49.6143 177.825 49.6143 177.351V177.148C49.6143 176.68 49.5557 176.237 49.4385 175.821C49.3271 175.399 49.1572 175.027 48.9287 174.705C48.7061 174.377 48.4248 174.119 48.085 173.932C47.751 173.744 47.3584 173.65 46.9072 173.65C46.4619 173.65 46.0693 173.744 45.7295 173.932C45.3955 174.119 45.1143 174.377 44.8857 174.705C44.6631 175.027 44.4961 175.399 44.3848 175.821C44.2734 176.237 44.2178 176.68 44.2178 177.148ZM58.2715 170.337L54.0352 182H52.3037L57.1816 169.203H58.2979L58.2715 170.337ZM61.8223 182L57.5771 170.337L57.5508 169.203H58.667L63.5625 182H61.8223ZM61.6025 177.263V178.651H54.4131V177.263H61.6025ZM66.6562 174.318V185.656H65.0215V172.49H66.5156L66.6562 174.318ZM73.0635 177.166V177.351C73.0635 178.042 72.9814 178.684 72.8174 179.275C72.6533 179.861 72.4131 180.371 72.0967 180.805C71.7861 181.238 71.4023 181.575 70.9453 181.815C70.4883 182.056 69.9639 182.176 69.3721 182.176C68.7686 182.176 68.2354 182.076 67.7725 181.877C67.3096 181.678 66.917 181.388 66.5947 181.007C66.2725 180.626 66.0146 180.169 65.8213 179.636C65.6338 179.103 65.5049 178.502 65.4346 177.834V176.85C65.5049 176.146 65.6367 175.517 65.8301 174.96C66.0234 174.403 66.2783 173.929 66.5947 173.536C66.917 173.138 67.3066 172.836 67.7637 172.631C68.2207 172.42 68.748 172.314 69.3457 172.314C69.9434 172.314 70.4736 172.432 70.9365 172.666C71.3994 172.895 71.7891 173.223 72.1055 173.65C72.4219 174.078 72.6592 174.591 72.8174 175.188C72.9814 175.78 73.0635 176.439 73.0635 177.166ZM71.4287 177.351V177.166C71.4287 176.691 71.3789 176.246 71.2793 175.83C71.1797 175.408 71.0244 175.039 70.8135 174.723C70.6084 174.4 70.3447 174.148 70.0225 173.967C69.7002 173.779 69.3164 173.686 68.8711 173.686C68.4609 173.686 68.1035 173.756 67.7988 173.896C67.5 174.037 67.2451 174.228 67.0342 174.468C66.8232 174.702 66.6504 174.972 66.5156 175.276C66.3867 175.575 66.29 175.886 66.2256 176.208V178.484C66.3428 178.895 66.5068 179.281 66.7178 179.645C66.9287 180.002 67.21 180.292 67.5615 180.515C67.9131 180.731 68.3555 180.84 68.8887 180.84C69.3281 180.84 69.7061 180.749 70.0225 180.567C70.3447 180.38 70.6084 180.125 70.8135 179.803C71.0244 179.48 71.1797 179.111 71.2793 178.695C71.3789 178.273 71.4287 177.825 71.4287 177.351ZM76.7637 174.318V185.656H75.1289V172.49H76.623L76.7637 174.318ZM83.1709 177.166V177.351C83.1709 178.042 83.0889 178.684 82.9248 179.275C82.7607 179.861 82.5205 180.371 82.2041 180.805C81.8936 181.238 81.5098 181.575 81.0527 181.815C80.5957 182.056 80.0713 182.176 79.4795 182.176C78.876 182.176 78.3428 182.076 77.8799 181.877C77.417 181.678 77.0244 181.388 76.7021 181.007C76.3799 180.626 76.1221 180.169 75.9287 179.636C75.7412 179.103 75.6123 178.502 75.542 177.834V176.85C75.6123 176.146 75.7441 175.517 75.9375 174.96C76.1309 174.403 76.3857 173.929 76.7021 173.536C77.0244 173.138 77.4141 172.836 77.8711 172.631C78.3281 172.42 78.8555 172.314 79.4531 172.314C80.0508 172.314 80.5811 172.432 81.0439 172.666C81.5068 172.895 81.8965 173.223 82.2129 173.65C82.5293 174.078 82.7666 174.591 82.9248 175.188C83.0889 175.78 83.1709 176.439 83.1709 177.166ZM81.5361 177.351V177.166C81.5361 176.691 81.4863 176.246 81.3867 175.83C81.2871 175.408 81.1318 175.039 80.9209 174.723C80.7158 174.4 80.4521 174.148 80.1299 173.967C79.8076 173.779 79.4238 173.686 78.9785 173.686C78.5684 173.686 78.2109 173.756 77.9062 173.896C77.6074 174.037 77.3525 174.228 77.1416 174.468C76.9307 174.702 76.7578 174.972 76.623 175.276C76.4941 175.575 76.3975 175.886 76.333 176.208V178.484C76.4502 178.895 76.6143 179.281 76.8252 179.645C77.0361 180.002 77.3174 180.292 77.6689 180.515C78.0205 180.731 78.4629 180.84 78.9961 180.84C79.4355 180.84 79.8135 180.749 80.1299 180.567C80.4521 180.38 80.7158 180.125 80.9209 179.803C81.1318 179.48 81.2871 179.111 81.3867 178.695C81.4863 178.273 81.5361 177.825 81.5361 177.351ZM84.1816 168.966L84.5244 167.964C85.3271 168.187 85.9541 168.503 86.4053 168.913C86.8623 169.317 87.1846 169.789 87.3721 170.328C87.5596 170.861 87.6533 171.436 87.6533 172.051V173.87C87.6533 174.292 87.7178 174.661 87.8467 174.978C87.9756 175.288 88.1748 175.528 88.4443 175.698C88.7197 175.868 89.0771 175.953 89.5166 175.953V176.946C88.6904 176.946 88.0195 176.814 87.5039 176.551C86.9883 176.281 86.6104 175.915 86.3701 175.452C86.1357 174.983 86.0186 174.456 86.0186 173.87V172.051C86.0186 171.57 85.9629 171.125 85.8516 170.715C85.7402 170.299 85.5498 169.941 85.2803 169.643C85.0166 169.338 84.6504 169.112 84.1816 168.966ZM84.5244 185.217L84.1816 184.206C84.6445 184.06 85.0078 183.834 85.2715 183.529C85.541 183.23 85.7314 182.876 85.8428 182.466C85.96 182.056 86.0186 181.61 86.0186 181.13V179.319C86.0186 178.728 86.1357 178.2 86.3701 177.737C86.6104 177.274 86.9883 176.911 87.5039 176.647C88.0195 176.378 88.6904 176.243 89.5166 176.243V177.228C88.8604 177.228 88.3857 177.418 88.0928 177.799C87.7998 178.174 87.6533 178.681 87.6533 179.319V181.13C87.6533 181.745 87.5596 182.319 87.3721 182.853C87.1846 183.392 86.8623 183.863 86.4053 184.268C85.9541 184.672 85.3271 184.988 84.5244 185.217ZM98.2354 182H96.6094V171.488C96.6094 170.803 96.7324 170.226 96.9785 169.757C97.2305 169.282 97.5908 168.925 98.0596 168.685C98.5283 168.438 99.085 168.315 99.7295 168.315C99.917 168.315 100.104 168.327 100.292 168.351C100.485 168.374 100.673 168.409 100.854 168.456L100.767 169.783C100.644 169.754 100.503 169.733 100.345 169.722C100.192 169.71 100.04 169.704 99.8877 169.704C99.542 169.704 99.2432 169.774 98.9912 169.915C98.7451 170.05 98.5576 170.249 98.4287 170.513C98.2998 170.776 98.2354 171.102 98.2354 171.488V182ZM100.257 172.49V173.738H95.1064V172.49H100.257ZM101.637 177.351V177.148C101.637 176.463 101.736 175.827 101.936 175.241C102.135 174.649 102.422 174.137 102.797 173.703C103.172 173.264 103.626 172.924 104.159 172.684C104.692 172.438 105.29 172.314 105.952 172.314C106.62 172.314 107.221 172.438 107.754 172.684C108.293 172.924 108.75 173.264 109.125 173.703C109.506 174.137 109.796 174.649 109.995 175.241C110.194 175.827 110.294 176.463 110.294 177.148V177.351C110.294 178.036 110.194 178.672 109.995 179.258C109.796 179.844 109.506 180.356 109.125 180.796C108.75 181.229 108.296 181.569 107.763 181.815C107.235 182.056 106.638 182.176 105.97 182.176C105.302 182.176 104.701 182.056 104.168 181.815C103.635 181.569 103.178 181.229 102.797 180.796C102.422 180.356 102.135 179.844 101.936 179.258C101.736 178.672 101.637 178.036 101.637 177.351ZM103.263 177.148V177.351C103.263 177.825 103.318 178.273 103.43 178.695C103.541 179.111 103.708 179.48 103.931 179.803C104.159 180.125 104.443 180.38 104.783 180.567C105.123 180.749 105.519 180.84 105.97 180.84C106.415 180.84 106.805 180.749 107.139 180.567C107.479 180.38 107.76 180.125 107.982 179.803C108.205 179.48 108.372 179.111 108.483 178.695C108.601 178.273 108.659 177.825 108.659 177.351V177.148C108.659 176.68 108.601 176.237 108.483 175.821C108.372 175.399 108.202 175.027 107.974 174.705C107.751 174.377 107.47 174.119 107.13 173.932C106.796 173.744 106.403 173.65 105.952 173.65C105.507 173.65 105.114 173.744 104.774 173.932C104.44 174.119 104.159 174.377 103.931 174.705C103.708 175.027 103.541 175.399 103.43 175.821C103.318 176.237 103.263 176.68 103.263 177.148ZM113.959 173.984V182H112.333V172.49H113.915L113.959 173.984ZM116.93 172.438L116.921 173.949C116.786 173.92 116.657 173.902 116.534 173.896C116.417 173.885 116.282 173.879 116.13 173.879C115.755 173.879 115.424 173.938 115.137 174.055C114.85 174.172 114.606 174.336 114.407 174.547C114.208 174.758 114.05 175.01 113.933 175.303C113.821 175.59 113.748 175.906 113.713 176.252L113.256 176.516C113.256 175.941 113.312 175.402 113.423 174.898C113.54 174.395 113.719 173.949 113.959 173.562C114.199 173.17 114.504 172.865 114.873 172.648C115.248 172.426 115.693 172.314 116.209 172.314C116.326 172.314 116.461 172.329 116.613 172.358C116.766 172.382 116.871 172.408 116.93 172.438ZM126.879 172.49V173.738H121.737V172.49H126.879ZM123.478 170.179H125.104V179.645C125.104 179.967 125.153 180.21 125.253 180.374C125.353 180.538 125.481 180.646 125.64 180.699C125.798 180.752 125.968 180.778 126.149 180.778C126.284 180.778 126.425 180.767 126.571 180.743C126.724 180.714 126.838 180.69 126.914 180.673L126.923 182C126.794 182.041 126.624 182.079 126.413 182.114C126.208 182.155 125.959 182.176 125.666 182.176C125.268 182.176 124.901 182.097 124.567 181.938C124.233 181.78 123.967 181.517 123.768 181.147C123.574 180.772 123.478 180.269 123.478 179.636V170.179ZM134.394 180.374V175.479C134.394 175.104 134.317 174.778 134.165 174.503C134.019 174.222 133.796 174.005 133.497 173.853C133.198 173.7 132.829 173.624 132.39 173.624C131.979 173.624 131.619 173.694 131.309 173.835C131.004 173.976 130.764 174.16 130.588 174.389C130.418 174.617 130.333 174.863 130.333 175.127H128.707C128.707 174.787 128.795 174.45 128.971 174.116C129.146 173.782 129.398 173.48 129.727 173.211C130.061 172.936 130.459 172.719 130.922 172.561C131.391 172.396 131.912 172.314 132.486 172.314C133.178 172.314 133.787 172.432 134.314 172.666C134.848 172.9 135.264 173.255 135.562 173.729C135.867 174.198 136.02 174.787 136.02 175.496V179.926C136.02 180.242 136.046 180.579 136.099 180.937C136.157 181.294 136.242 181.602 136.354 181.859V182H134.657C134.575 181.812 134.511 181.563 134.464 181.253C134.417 180.937 134.394 180.644 134.394 180.374ZM134.675 176.234L134.692 177.377H133.049C132.586 177.377 132.173 177.415 131.81 177.491C131.446 177.562 131.142 177.67 130.896 177.816C130.649 177.963 130.462 178.147 130.333 178.37C130.204 178.587 130.14 178.842 130.14 179.135C130.14 179.434 130.207 179.706 130.342 179.952C130.477 180.198 130.679 180.395 130.948 180.541C131.224 180.682 131.561 180.752 131.959 180.752C132.457 180.752 132.896 180.646 133.277 180.436C133.658 180.225 133.96 179.967 134.183 179.662C134.411 179.357 134.534 179.062 134.552 178.774L135.246 179.557C135.205 179.803 135.094 180.075 134.912 180.374C134.73 180.673 134.487 180.96 134.183 181.235C133.884 181.505 133.526 181.73 133.11 181.912C132.7 182.088 132.237 182.176 131.722 182.176C131.077 182.176 130.512 182.05 130.025 181.798C129.545 181.546 129.17 181.209 128.9 180.787C128.637 180.359 128.505 179.882 128.505 179.354C128.505 178.845 128.604 178.396 128.804 178.01C129.003 177.617 129.29 177.292 129.665 177.034C130.04 176.771 130.491 176.571 131.019 176.437C131.546 176.302 132.135 176.234 132.785 176.234H134.675ZM144.114 179.478C144.114 179.243 144.062 179.026 143.956 178.827C143.856 178.622 143.648 178.438 143.332 178.273C143.021 178.104 142.553 177.957 141.926 177.834C141.398 177.723 140.921 177.591 140.493 177.438C140.071 177.286 139.711 177.102 139.412 176.885C139.119 176.668 138.894 176.413 138.735 176.12C138.577 175.827 138.498 175.484 138.498 175.092C138.498 174.717 138.58 174.362 138.744 174.028C138.914 173.694 139.151 173.398 139.456 173.141C139.767 172.883 140.139 172.681 140.572 172.534C141.006 172.388 141.489 172.314 142.022 172.314C142.784 172.314 143.435 172.449 143.974 172.719C144.513 172.988 144.926 173.349 145.213 173.8C145.5 174.245 145.644 174.74 145.644 175.285H144.018C144.018 175.021 143.938 174.767 143.78 174.521C143.628 174.269 143.402 174.061 143.104 173.896C142.811 173.732 142.45 173.65 142.022 173.65C141.571 173.65 141.205 173.721 140.924 173.861C140.648 173.996 140.446 174.169 140.317 174.38C140.194 174.591 140.133 174.813 140.133 175.048C140.133 175.224 140.162 175.382 140.221 175.522C140.285 175.657 140.396 175.783 140.555 175.9C140.713 176.012 140.936 176.117 141.223 176.217C141.51 176.316 141.876 176.416 142.321 176.516C143.101 176.691 143.742 176.902 144.246 177.148C144.75 177.395 145.125 177.696 145.371 178.054C145.617 178.411 145.74 178.845 145.74 179.354C145.74 179.771 145.652 180.151 145.477 180.497C145.307 180.843 145.058 181.142 144.729 181.394C144.407 181.64 144.021 181.833 143.569 181.974C143.124 182.108 142.623 182.176 142.066 182.176C141.229 182.176 140.52 182.026 139.939 181.728C139.359 181.429 138.92 181.042 138.621 180.567C138.322 180.093 138.173 179.592 138.173 179.064H139.808C139.831 179.51 139.96 179.864 140.194 180.128C140.429 180.386 140.716 180.57 141.056 180.682C141.396 180.787 141.732 180.84 142.066 180.84C142.512 180.84 142.884 180.781 143.183 180.664C143.487 180.547 143.719 180.386 143.877 180.181C144.035 179.976 144.114 179.741 144.114 179.478ZM149.511 168.5V182H147.876V168.5H149.511ZM155.32 172.49L151.172 176.929L148.852 179.337L148.72 177.605L150.381 175.619L153.334 172.49H155.32ZM153.835 182L150.442 177.465L151.286 176.015L155.751 182H153.835ZM163.081 174.38V182H161.446V172.49H162.993L163.081 174.38ZM162.747 176.885L161.991 176.858C161.997 176.208 162.082 175.607 162.246 175.057C162.41 174.5 162.653 174.017 162.976 173.606C163.298 173.196 163.699 172.88 164.18 172.657C164.66 172.429 165.217 172.314 165.85 172.314C166.295 172.314 166.705 172.379 167.08 172.508C167.455 172.631 167.78 172.827 168.056 173.097C168.331 173.366 168.545 173.712 168.697 174.134C168.85 174.556 168.926 175.065 168.926 175.663V182H167.3V175.742C167.3 175.244 167.215 174.846 167.045 174.547C166.881 174.248 166.646 174.031 166.342 173.896C166.037 173.756 165.68 173.686 165.27 173.686C164.789 173.686 164.388 173.771 164.065 173.94C163.743 174.11 163.485 174.345 163.292 174.644C163.099 174.942 162.958 175.285 162.87 175.672C162.788 176.053 162.747 176.457 162.747 176.885ZM168.908 175.988L167.818 176.322C167.824 175.801 167.909 175.3 168.073 174.819C168.243 174.339 168.486 173.911 168.803 173.536C169.125 173.161 169.521 172.865 169.989 172.648C170.458 172.426 170.994 172.314 171.598 172.314C172.107 172.314 172.559 172.382 172.951 172.517C173.35 172.651 173.684 172.859 173.953 173.141C174.229 173.416 174.437 173.771 174.577 174.204C174.718 174.638 174.788 175.153 174.788 175.751V182H173.153V175.733C173.153 175.2 173.068 174.787 172.898 174.494C172.734 174.195 172.5 173.987 172.195 173.87C171.896 173.747 171.539 173.686 171.123 173.686C170.766 173.686 170.449 173.747 170.174 173.87C169.898 173.993 169.667 174.163 169.479 174.38C169.292 174.591 169.148 174.834 169.049 175.109C168.955 175.385 168.908 175.678 168.908 175.988ZM182.856 180.374V175.479C182.856 175.104 182.78 174.778 182.628 174.503C182.481 174.222 182.259 174.005 181.96 173.853C181.661 173.7 181.292 173.624 180.853 173.624C180.442 173.624 180.082 173.694 179.771 173.835C179.467 173.976 179.227 174.16 179.051 174.389C178.881 174.617 178.796 174.863 178.796 175.127H177.17C177.17 174.787 177.258 174.45 177.434 174.116C177.609 173.782 177.861 173.48 178.189 173.211C178.523 172.936 178.922 172.719 179.385 172.561C179.854 172.396 180.375 172.314 180.949 172.314C181.641 172.314 182.25 172.432 182.777 172.666C183.311 172.9 183.727 173.255 184.025 173.729C184.33 174.198 184.482 174.787 184.482 175.496V179.926C184.482 180.242 184.509 180.579 184.562 180.937C184.62 181.294 184.705 181.602 184.816 181.859V182H183.12C183.038 181.812 182.974 181.563 182.927 181.253C182.88 180.937 182.856 180.644 182.856 180.374ZM183.138 176.234L183.155 177.377H181.512C181.049 177.377 180.636 177.415 180.272 177.491C179.909 177.562 179.604 177.67 179.358 177.816C179.112 177.963 178.925 178.147 178.796 178.37C178.667 178.587 178.603 178.842 178.603 179.135C178.603 179.434 178.67 179.706 178.805 179.952C178.939 180.198 179.142 180.395 179.411 180.541C179.687 180.682 180.023 180.752 180.422 180.752C180.92 180.752 181.359 180.646 181.74 180.436C182.121 180.225 182.423 179.967 182.646 179.662C182.874 179.357 182.997 179.062 183.015 178.774L183.709 179.557C183.668 179.803 183.557 180.075 183.375 180.374C183.193 180.673 182.95 180.96 182.646 181.235C182.347 181.505 181.989 181.73 181.573 181.912C181.163 182.088 180.7 182.176 180.185 182.176C179.54 182.176 178.975 182.05 178.488 181.798C178.008 181.546 177.633 181.209 177.363 180.787C177.1 180.359 176.968 179.882 176.968 179.354C176.968 178.845 177.067 178.396 177.267 178.01C177.466 177.617 177.753 177.292 178.128 177.034C178.503 176.771 178.954 176.571 179.481 176.437C180.009 176.302 180.598 176.234 181.248 176.234H183.138ZM188.666 174.521V182H187.04V172.49H188.578L188.666 174.521ZM188.279 176.885L187.603 176.858C187.608 176.208 187.705 175.607 187.893 175.057C188.08 174.5 188.344 174.017 188.684 173.606C189.023 173.196 189.428 172.88 189.896 172.657C190.371 172.429 190.896 172.314 191.47 172.314C191.938 172.314 192.36 172.379 192.735 172.508C193.11 172.631 193.43 172.83 193.693 173.105C193.963 173.381 194.168 173.738 194.309 174.178C194.449 174.611 194.52 175.142 194.52 175.769V182H192.885V175.751C192.885 175.253 192.812 174.854 192.665 174.556C192.519 174.251 192.305 174.031 192.023 173.896C191.742 173.756 191.396 173.686 190.986 173.686C190.582 173.686 190.213 173.771 189.879 173.94C189.551 174.11 189.267 174.345 189.026 174.644C188.792 174.942 188.607 175.285 188.473 175.672C188.344 176.053 188.279 176.457 188.279 176.885ZM202.597 180.374V175.479C202.597 175.104 202.521 174.778 202.368 174.503C202.222 174.222 201.999 174.005 201.7 173.853C201.401 173.7 201.032 173.624 200.593 173.624C200.183 173.624 199.822 173.694 199.512 173.835C199.207 173.976 198.967 174.16 198.791 174.389C198.621 174.617 198.536 174.863 198.536 175.127H196.91C196.91 174.787 196.998 174.45 197.174 174.116C197.35 173.782 197.602 173.48 197.93 173.211C198.264 172.936 198.662 172.719 199.125 172.561C199.594 172.396 200.115 172.314 200.689 172.314C201.381 172.314 201.99 172.432 202.518 172.666C203.051 172.9 203.467 173.255 203.766 173.729C204.07 174.198 204.223 174.787 204.223 175.496V179.926C204.223 180.242 204.249 180.579 204.302 180.937C204.36 181.294 204.445 181.602 204.557 181.859V182H202.86C202.778 181.812 202.714 181.563 202.667 181.253C202.62 180.937 202.597 180.644 202.597 180.374ZM202.878 176.234L202.896 177.377H201.252C200.789 177.377 200.376 177.415 200.013 177.491C199.649 177.562 199.345 177.67 199.099 177.816C198.853 177.963 198.665 178.147 198.536 178.37C198.407 178.587 198.343 178.842 198.343 179.135C198.343 179.434 198.41 179.706 198.545 179.952C198.68 180.198 198.882 180.395 199.151 180.541C199.427 180.682 199.764 180.752 200.162 180.752C200.66 180.752 201.1 180.646 201.48 180.436C201.861 180.225 202.163 179.967 202.386 179.662C202.614 179.357 202.737 179.062 202.755 178.774L203.449 179.557C203.408 179.803 203.297 180.075 203.115 180.374C202.934 180.673 202.69 180.96 202.386 181.235C202.087 181.505 201.729 181.73 201.313 181.912C200.903 182.088 200.44 182.176 199.925 182.176C199.28 182.176 198.715 182.05 198.229 181.798C197.748 181.546 197.373 181.209 197.104 180.787C196.84 180.359 196.708 179.882 196.708 179.354C196.708 178.845 196.808 178.396 197.007 178.01C197.206 177.617 197.493 177.292 197.868 177.034C198.243 176.771 198.694 176.571 199.222 176.437C199.749 176.302 200.338 176.234 200.988 176.234H202.878ZM212.941 172.49H214.418V181.798C214.418 182.636 214.248 183.351 213.908 183.942C213.568 184.534 213.094 184.982 212.484 185.287C211.881 185.598 211.184 185.753 210.393 185.753C210.064 185.753 209.678 185.7 209.232 185.595C208.793 185.495 208.359 185.322 207.932 185.076C207.51 184.836 207.155 184.511 206.868 184.101L207.721 183.134C208.119 183.614 208.535 183.948 208.969 184.136C209.408 184.323 209.842 184.417 210.27 184.417C210.785 184.417 211.23 184.32 211.605 184.127C211.98 183.934 212.271 183.646 212.476 183.266C212.687 182.891 212.792 182.428 212.792 181.877V174.582L212.941 172.49ZM206.394 177.351V177.166C206.394 176.439 206.479 175.78 206.648 175.188C206.824 174.591 207.073 174.078 207.396 173.65C207.724 173.223 208.119 172.895 208.582 172.666C209.045 172.432 209.566 172.314 210.146 172.314C210.744 172.314 211.266 172.42 211.711 172.631C212.162 172.836 212.543 173.138 212.854 173.536C213.17 173.929 213.419 174.403 213.601 174.96C213.782 175.517 213.908 176.146 213.979 176.85V177.658C213.914 178.355 213.788 178.982 213.601 179.539C213.419 180.096 213.17 180.57 212.854 180.963C212.543 181.355 212.162 181.657 211.711 181.868C211.26 182.073 210.732 182.176 210.129 182.176C209.561 182.176 209.045 182.056 208.582 181.815C208.125 181.575 207.732 181.238 207.404 180.805C207.076 180.371 206.824 179.861 206.648 179.275C206.479 178.684 206.394 178.042 206.394 177.351ZM208.02 177.166V177.351C208.02 177.825 208.066 178.271 208.16 178.687C208.26 179.103 208.409 179.469 208.608 179.785C208.813 180.102 209.074 180.351 209.391 180.532C209.707 180.708 210.085 180.796 210.524 180.796C211.063 180.796 211.509 180.682 211.86 180.453C212.212 180.225 212.49 179.923 212.695 179.548C212.906 179.173 213.07 178.766 213.188 178.326V176.208C213.123 175.886 213.023 175.575 212.889 175.276C212.76 174.972 212.59 174.702 212.379 174.468C212.174 174.228 211.919 174.037 211.614 173.896C211.31 173.756 210.952 173.686 210.542 173.686C210.097 173.686 209.713 173.779 209.391 173.967C209.074 174.148 208.813 174.4 208.608 174.723C208.409 175.039 208.26 175.408 208.16 175.83C208.066 176.246 208.02 176.691 208.02 177.166ZM220.834 182.176C220.172 182.176 219.571 182.064 219.032 181.842C218.499 181.613 218.039 181.294 217.652 180.884C217.271 180.474 216.979 179.987 216.773 179.425C216.568 178.862 216.466 178.247 216.466 177.579V177.21C216.466 176.437 216.58 175.748 216.809 175.145C217.037 174.535 217.348 174.02 217.74 173.598C218.133 173.176 218.578 172.856 219.076 172.64C219.574 172.423 220.09 172.314 220.623 172.314C221.303 172.314 221.889 172.432 222.381 172.666C222.879 172.9 223.286 173.229 223.603 173.65C223.919 174.066 224.153 174.559 224.306 175.127C224.458 175.689 224.534 176.305 224.534 176.973V177.702H217.433V176.375H222.908V176.252C222.885 175.83 222.797 175.42 222.645 175.021C222.498 174.623 222.264 174.295 221.941 174.037C221.619 173.779 221.18 173.65 220.623 173.65C220.254 173.65 219.914 173.729 219.604 173.888C219.293 174.04 219.026 174.269 218.804 174.573C218.581 174.878 218.408 175.25 218.285 175.689C218.162 176.129 218.101 176.636 218.101 177.21V177.579C218.101 178.03 218.162 178.455 218.285 178.854C218.414 179.246 218.599 179.592 218.839 179.891C219.085 180.189 219.381 180.424 219.727 180.594C220.078 180.764 220.477 180.849 220.922 180.849C221.496 180.849 221.982 180.731 222.381 180.497C222.779 180.263 223.128 179.949 223.427 179.557L224.411 180.339C224.206 180.649 223.945 180.945 223.629 181.227C223.312 181.508 222.923 181.736 222.46 181.912C222.003 182.088 221.461 182.176 220.834 182.176ZM228.05 174.38V182H226.415V172.49H227.962L228.05 174.38ZM227.716 176.885L226.96 176.858C226.966 176.208 227.051 175.607 227.215 175.057C227.379 174.5 227.622 174.017 227.944 173.606C228.267 173.196 228.668 172.88 229.148 172.657C229.629 172.429 230.186 172.314 230.818 172.314C231.264 172.314 231.674 172.379 232.049 172.508C232.424 172.631 232.749 172.827 233.024 173.097C233.3 173.366 233.514 173.712 233.666 174.134C233.818 174.556 233.895 175.065 233.895 175.663V182H232.269V175.742C232.269 175.244 232.184 174.846 232.014 174.547C231.85 174.248 231.615 174.031 231.311 173.896C231.006 173.756 230.648 173.686 230.238 173.686C229.758 173.686 229.356 173.771 229.034 173.94C228.712 174.11 228.454 174.345 228.261 174.644C228.067 174.942 227.927 175.285 227.839 175.672C227.757 176.053 227.716 176.457 227.716 176.885ZM233.877 175.988L232.787 176.322C232.793 175.801 232.878 175.3 233.042 174.819C233.212 174.339 233.455 173.911 233.771 173.536C234.094 173.161 234.489 172.865 234.958 172.648C235.427 172.426 235.963 172.314 236.566 172.314C237.076 172.314 237.527 172.382 237.92 172.517C238.318 172.651 238.652 172.859 238.922 173.141C239.197 173.416 239.405 173.771 239.546 174.204C239.687 174.638 239.757 175.153 239.757 175.751V182H238.122V175.733C238.122 175.2 238.037 174.787 237.867 174.494C237.703 174.195 237.469 173.987 237.164 173.87C236.865 173.747 236.508 173.686 236.092 173.686C235.734 173.686 235.418 173.747 235.143 173.87C234.867 173.993 234.636 174.163 234.448 174.38C234.261 174.591 234.117 174.834 234.018 175.109C233.924 175.385 233.877 175.678 233.877 175.988ZM246.164 182.176C245.502 182.176 244.901 182.064 244.362 181.842C243.829 181.613 243.369 181.294 242.982 180.884C242.602 180.474 242.309 179.987 242.104 179.425C241.898 178.862 241.796 178.247 241.796 177.579V177.21C241.796 176.437 241.91 175.748 242.139 175.145C242.367 174.535 242.678 174.02 243.07 173.598C243.463 173.176 243.908 172.856 244.406 172.64C244.904 172.423 245.42 172.314 245.953 172.314C246.633 172.314 247.219 172.432 247.711 172.666C248.209 172.9 248.616 173.229 248.933 173.65C249.249 174.066 249.483 174.559 249.636 175.127C249.788 175.689 249.864 176.305 249.864 176.973V177.702H242.763V176.375H248.238V176.252C248.215 175.83 248.127 175.42 247.975 175.021C247.828 174.623 247.594 174.295 247.271 174.037C246.949 173.779 246.51 173.65 245.953 173.65C245.584 173.65 245.244 173.729 244.934 173.888C244.623 174.04 244.356 174.269 244.134 174.573C243.911 174.878 243.738 175.25 243.615 175.689C243.492 176.129 243.431 176.636 243.431 177.21V177.579C243.431 178.03 243.492 178.455 243.615 178.854C243.744 179.246 243.929 179.592 244.169 179.891C244.415 180.189 244.711 180.424 245.057 180.594C245.408 180.764 245.807 180.849 246.252 180.849C246.826 180.849 247.312 180.731 247.711 180.497C248.109 180.263 248.458 179.949 248.757 179.557L249.741 180.339C249.536 180.649 249.275 180.945 248.959 181.227C248.643 181.508 248.253 181.736 247.79 181.912C247.333 182.088 246.791 182.176 246.164 182.176ZM253.389 174.521V182H251.763V172.49H253.301L253.389 174.521ZM253.002 176.885L252.325 176.858C252.331 176.208 252.428 175.607 252.615 175.057C252.803 174.5 253.066 174.017 253.406 173.606C253.746 173.196 254.15 172.88 254.619 172.657C255.094 172.429 255.618 172.314 256.192 172.314C256.661 172.314 257.083 172.379 257.458 172.508C257.833 172.631 258.152 172.83 258.416 173.105C258.686 173.381 258.891 173.738 259.031 174.178C259.172 174.611 259.242 175.142 259.242 175.769V182H257.607V175.751C257.607 175.253 257.534 174.854 257.388 174.556C257.241 174.251 257.027 174.031 256.746 173.896C256.465 173.756 256.119 173.686 255.709 173.686C255.305 173.686 254.936 173.771 254.602 173.94C254.273 174.11 253.989 174.345 253.749 174.644C253.515 174.942 253.33 175.285 253.195 175.672C253.066 176.053 253.002 176.457 253.002 176.885ZM265.693 172.49V173.738H260.552V172.49H265.693ZM262.292 170.179H263.918V179.645C263.918 179.967 263.968 180.21 264.067 180.374C264.167 180.538 264.296 180.646 264.454 180.699C264.612 180.752 264.782 180.778 264.964 180.778C265.099 180.778 265.239 180.767 265.386 180.743C265.538 180.714 265.652 180.69 265.729 180.673L265.737 182C265.608 182.041 265.438 182.079 265.228 182.114C265.022 182.155 264.773 182.176 264.48 182.176C264.082 182.176 263.716 182.097 263.382 181.938C263.048 181.78 262.781 181.517 262.582 181.147C262.389 180.772 262.292 180.269 262.292 179.636V170.179ZM267.627 181.139C267.627 180.863 267.712 180.632 267.882 180.444C268.058 180.251 268.31 180.154 268.638 180.154C268.966 180.154 269.215 180.251 269.385 180.444C269.561 180.632 269.648 180.863 269.648 181.139C269.648 181.408 269.561 181.637 269.385 181.824C269.215 182.012 268.966 182.105 268.638 182.105C268.31 182.105 268.058 182.012 267.882 181.824C267.712 181.637 267.627 181.408 267.627 181.139Z" fill="white"/>
<g opacity="0.6" clip-path="url(#clip0_27_184)">
<path d="M81.648 65.6667H76.4041L72.5801 72.2001L69.3029 65.6667H57.2841L72.5801 93.6667L87.8761 65.6667H81.648ZM61.1081 68.0001H64.8224L72.5801 82.4667L80.3377 68.0001H84.0521L72.5801 89.0001L61.1081 68.0001Z" fill="white"/>
</g>
<path opacity="0.6" d="M104.736 89C103.505 89 102.458 88.562 101.595 87.686C100.732 86.81 100.302 85.748 100.304 84.5V81.5H104.736V84.5H109.169V71H113.601V84.5C113.601 85.75 113.17 86.813 112.307 87.689C111.444 88.565 110.398 89.002 109.169 89H104.736ZM120.988 89C120.151 89 119.449 88.712 118.881 88.136C118.314 87.56 118.031 86.848 118.033 86V83H122.466V84.5H128.376V81.5H120.988C120.151 81.5 119.449 81.212 118.881 80.636C118.314 80.06 118.031 79.348 118.033 78.5V74C118.033 73.15 118.317 72.437 118.884 71.861C119.452 71.285 120.153 70.998 120.988 71H129.853C130.69 71 131.393 71.288 131.96 71.864C132.527 72.44 132.81 73.152 132.808 74V77H128.376V75.5H122.466V78.5H129.853C130.69 78.5 131.393 78.788 131.96 79.364C132.527 79.94 132.81 80.652 132.808 81.5V86C132.808 86.85 132.524 87.563 131.957 88.139C131.39 88.715 130.688 89.002 129.853 89H120.988Z" fill="white"/>
<g opacity="0.6">
<path d="M165.312 89.0243L158.687 87.088L158.217 81.6243H161.472L161.698 84.4672L165.312 85.4955L168.926 84.4672L169.299 80.0488H158.085L157.174 69.7535H173.45L173.124 73.1606H160.755L161.047 76.6386H172.83L171.936 87.088L165.312 89.0243ZM152.406 64.0833H178.218L175.891 91.8333L165.312 94.9166L154.733 91.8333L152.406 64.0833ZM155.544 67.1666L157.411 89.419L165.312 91.7223L173.213 89.419L175.08 67.1666H155.544Z" fill="white"/>
</g>
<g opacity="0.6">
<path d="M215.548 94.0589V89.8608C215.596 89.1633 215.514 88.4621 215.309 87.8038C215.104 87.1456 214.779 86.5453 214.358 86.043C218.335 85.531 222.514 83.7903 222.514 75.8036C222.514 73.7613 221.834 71.7974 220.615 70.3182C221.192 68.5315 221.151 66.5565 220.501 64.8036C220.501 64.8036 219.006 64.2916 215.548 66.9685C212.645 66.0599 209.585 66.0599 206.682 66.9685C203.224 64.2916 201.73 64.8036 201.73 64.8036C201.079 66.5565 201.038 68.5315 201.616 70.3182C200.387 71.8083 199.706 73.79 199.716 75.8475C199.716 83.7757 203.896 85.5164 207.873 86.0868C207.456 86.5841 207.135 87.1772 206.929 87.8274C206.724 88.4776 206.64 89.1704 206.682 89.8608V94.0589" stroke="white" stroke-width="3" stroke-linecap="round" stroke-linejoin="round"/>
<path d="M206.682 91.1332C202.882 92.5564 199.716 91.1332 197.816 86.7449" stroke="white" stroke-width="3" stroke-linecap="round" stroke-linejoin="round"/>
</g>
<path d="M90.9266 20.0938V23.75H80.7391V20.0938H90.9266ZM82.8798 15.8906H88.1454V31.4844C88.1454 31.9323 88.1975 32.2812 88.3016 32.5312C88.4058 32.7708 88.5829 32.9427 88.8329 33.0469C89.0933 33.1406 89.4371 33.1875 89.8641 33.1875C90.1662 33.1875 90.4162 33.1823 90.6141 33.1719C90.8121 33.151 90.9996 33.125 91.1766 33.0938V36.8594C90.7287 37.0052 90.26 37.1146 89.7704 37.1875C89.2808 37.2708 88.76 37.3125 88.2079 37.3125C87.0829 37.3125 86.1193 37.1354 85.3173 36.7812C84.5256 36.4271 83.9214 35.8698 83.5048 35.1094C83.0881 34.349 82.8798 33.3594 82.8798 32.1406V15.8906ZM91.8954 28.7188V28.3906C91.8954 27.151 92.0725 26.0104 92.4266 24.9688C92.7808 23.9167 93.3016 23.0052 93.9891 22.2344C94.6766 21.4635 95.5256 20.8646 96.536 20.4375C97.5464 20 98.7131 19.7812 100.036 19.7812C101.369 19.7812 102.541 20 103.552 20.4375C104.572 20.8646 105.427 21.4635 106.114 22.2344C106.802 23.0052 107.322 23.9167 107.677 24.9688C108.031 26.0104 108.208 27.151 108.208 28.3906V28.7188C108.208 29.9479 108.031 31.0885 107.677 32.1406C107.322 33.1823 106.802 34.0938 106.114 34.875C105.427 35.6458 104.578 36.2448 103.567 36.6719C102.557 37.099 101.39 37.3125 100.067 37.3125C98.7443 37.3125 97.5725 37.099 96.5516 36.6719C95.5308 36.2448 94.6766 35.6458 93.9891 34.875C93.3016 34.0938 92.7808 33.1823 92.4266 32.1406C92.0725 31.0885 91.8954 29.9479 91.8954 28.7188ZM97.161 28.3906V28.7188C97.161 29.3542 97.2079 29.9479 97.3016 30.5C97.3954 31.0521 97.5516 31.5365 97.7704 31.9531C97.9891 32.3594 98.286 32.6771 98.661 32.9062C99.036 33.1354 99.5048 33.25 100.067 33.25C100.619 33.25 101.078 33.1354 101.442 32.9062C101.817 32.6771 102.114 32.3594 102.333 31.9531C102.552 31.5365 102.708 31.0521 102.802 30.5C102.895 29.9479 102.942 29.3542 102.942 28.7188V28.3906C102.942 27.776 102.895 27.1979 102.802 26.6562C102.708 26.1042 102.552 25.6198 102.333 25.2031C102.114 24.776 101.817 24.4427 101.442 24.2031C101.067 23.9635 100.599 23.8438 100.036 23.8438C99.4839 23.8438 99.0204 23.9635 98.6454 24.2031C98.2808 24.4427 97.9891 24.776 97.7704 25.2031C97.5516 25.6198 97.3954 26.1042 97.3016 26.6562C97.2079 27.1979 97.161 27.776 97.161 28.3906ZM118.192 37H113.145L113.177 32.7812H118.192C119.234 32.7812 120.114 32.5312 120.833 32.0312C121.562 31.5312 122.114 30.7865 122.489 29.7969C122.875 28.7969 123.067 27.5677 123.067 26.1094V25.125C123.067 24.0312 122.958 23.0729 122.739 22.25C122.531 21.4167 122.218 20.724 121.802 20.1719C121.385 19.6094 120.864 19.1875 120.239 18.9062C119.625 18.625 118.916 18.4844 118.114 18.4844H113.052V14.25H118.114C119.656 14.25 121.067 14.5156 122.349 15.0469C123.64 15.5677 124.755 16.3177 125.692 17.2969C126.64 18.2656 127.369 19.4167 127.88 20.75C128.401 22.0729 128.661 23.5417 128.661 25.1562V26.1094C128.661 27.7135 128.401 29.1823 127.88 30.5156C127.369 31.849 126.645 33 125.708 33.9688C124.77 34.9375 123.661 35.6875 122.38 36.2188C121.109 36.7396 119.713 37 118.192 37ZM116.286 14.25V37H110.802V14.25H116.286ZM130.614 28.7188V28.3906C130.614 27.151 130.791 26.0104 131.145 24.9688C131.5 23.9167 132.02 23.0052 132.708 22.2344C133.395 21.4635 134.244 20.8646 135.255 20.4375C136.265 20 137.432 19.7812 138.755 19.7812C140.088 19.7812 141.26 20 142.27 20.4375C143.291 20.8646 144.145 21.4635 144.833 22.2344C145.52 23.0052 146.041 23.9167 146.395 24.9688C146.75 26.0104 146.927 27.151 146.927 28.3906V28.7188C146.927 29.9479 146.75 31.0885 146.395 32.1406C146.041 33.1823 145.52 34.0938 144.833 34.875C144.145 35.6458 143.296 36.2448 142.286 36.6719C141.276 37.099 140.109 37.3125 138.786 37.3125C137.463 37.3125 136.291 37.099 135.27 36.6719C134.25 36.2448 133.395 35.6458 132.708 34.875C132.02 34.0938 131.5 33.1823 131.145 32.1406C130.791 31.0885 130.614 29.9479 130.614 28.7188ZM135.88 28.3906V28.7188C135.88 29.3542 135.927 29.9479 136.02 30.5C136.114 31.0521 136.27 31.5365 136.489 31.9531C136.708 32.3594 137.005 32.6771 137.38 32.9062C137.755 33.1354 138.224 33.25 138.786 33.25C139.338 33.25 139.796 33.1354 140.161 32.9062C140.536 32.6771 140.833 32.3594 141.052 31.9531C141.27 31.5365 141.427 31.0521 141.52 30.5C141.614 29.9479 141.661 29.3542 141.661 28.7188V28.3906C141.661 27.776 141.614 27.1979 141.52 26.6562C141.427 26.1042 141.27 25.6198 141.052 25.2031C140.833 24.776 140.536 24.4427 140.161 24.2031C139.786 23.9635 139.317 23.8438 138.755 23.8438C138.203 23.8438 137.739 23.9635 137.364 24.2031C137 24.4427 136.708 24.776 136.489 25.2031C136.27 25.6198 136.114 26.1042 136.02 26.6562C135.927 27.1979 135.88 27.776 135.88 28.3906ZM159.161 19.0312L153.614 37H147.724L156.083 14.25H159.817L159.161 19.0312ZM163.755 37L158.192 19.0312L157.474 14.25H161.255L169.661 37H163.755ZM163.536 28.5156V32.75H151.864V28.5156H163.536ZM175.645 23.3438V43.5H170.38V20.0938H175.286L175.645 23.3438ZM186.02 28.3438V28.6719C186.02 29.901 185.88 31.0417 185.599 32.0938C185.317 33.1458 184.901 34.0625 184.349 34.8438C183.796 35.625 183.109 36.2344 182.286 36.6719C181.474 37.099 180.531 37.3125 179.458 37.3125C178.447 37.3125 177.578 37.0885 176.849 36.6406C176.119 36.1927 175.51 35.5729 175.02 34.7812C174.531 33.9896 174.135 33.0833 173.833 32.0625C173.531 31.0417 173.291 29.9635 173.114 28.8281V28.4062C173.291 27.1875 173.531 26.0573 173.833 25.0156C174.135 23.9635 174.531 23.0469 175.02 22.2656C175.51 21.4844 176.114 20.875 176.833 20.4375C177.562 20 178.432 19.7812 179.442 19.7812C180.515 19.7812 181.458 19.9844 182.27 20.3906C183.093 20.7969 183.781 21.3802 184.333 22.1406C184.895 22.8906 185.317 23.7917 185.599 24.8438C185.88 25.8958 186.02 27.0625 186.02 28.3438ZM180.755 28.6719V28.3438C180.755 27.6875 180.708 27.0885 180.614 26.5469C180.52 25.9948 180.369 25.5156 180.161 25.1094C179.963 24.7031 179.697 24.3906 179.364 24.1719C179.031 23.9531 178.619 23.8438 178.13 23.8438C177.567 23.8438 177.093 23.9323 176.708 24.1094C176.333 24.276 176.031 24.5365 175.802 24.8906C175.583 25.2344 175.427 25.6667 175.333 26.1875C175.25 26.6979 175.213 27.2969 175.224 27.9844V29.2656C175.203 30.0573 175.281 30.7552 175.458 31.3594C175.635 31.9531 175.942 32.4167 176.38 32.75C176.817 33.0833 177.411 33.25 178.161 33.25C178.661 33.25 179.078 33.1354 179.411 32.9062C179.744 32.6667 180.01 32.3385 180.208 31.9219C180.406 31.4948 180.546 31.0052 180.63 30.4531C180.713 29.901 180.755 29.3073 180.755 28.6719ZM193.677 23.3438V43.5H188.411V20.0938H193.317L193.677 23.3438ZM204.052 28.3438V28.6719C204.052 29.901 203.911 31.0417 203.63 32.0938C203.349 33.1458 202.932 34.0625 202.38 34.8438C201.828 35.625 201.14 36.2344 200.317 36.6719C199.505 37.099 198.562 37.3125 197.489 37.3125C196.479 37.3125 195.609 37.0885 194.88 36.6406C194.151 36.1927 193.541 35.5729 193.052 34.7812C192.562 33.9896 192.166 33.0833 191.864 32.0625C191.562 31.0417 191.322 29.9635 191.145 28.8281V28.4062C191.322 27.1875 191.562 26.0573 191.864 25.0156C192.166 23.9635 192.562 23.0469 193.052 22.2656C193.541 21.4844 194.145 20.875 194.864 20.4375C195.593 20 196.463 19.7812 197.474 19.7812C198.546 19.7812 199.489 19.9844 200.302 20.3906C201.125 20.7969 201.812 21.3802 202.364 22.1406C202.927 22.8906 203.349 23.7917 203.63 24.8438C203.911 25.8958 204.052 27.0625 204.052 28.3438ZM198.786 28.6719V28.3438C198.786 27.6875 198.739 27.0885 198.645 26.5469C198.552 25.9948 198.401 25.5156 198.192 25.1094C197.994 24.7031 197.729 24.3906 197.395 24.1719C197.062 23.9531 196.651 23.8438 196.161 23.8438C195.599 23.8438 195.125 23.9323 194.739 24.1094C194.364 24.276 194.062 24.5365 193.833 24.8906C193.614 25.2344 193.458 25.6667 193.364 26.1875C193.281 26.6979 193.244 27.2969 193.255 27.9844V29.2656C193.234 30.0573 193.312 30.7552 193.489 31.3594C193.666 31.9531 193.974 32.4167 194.411 32.75C194.849 33.0833 195.442 33.25 196.192 33.25C196.692 33.25 197.109 33.1354 197.442 32.9062C197.776 32.6667 198.041 32.3385 198.239 31.9219C198.437 31.4948 198.578 31.0052 198.661 30.4531C198.744 29.901 198.786 29.3073 198.786 28.6719Z" fill="white"/>
<defs>
<clipPath id="clip0_27_184">
<rect width="30.592" height="32" fill="white" transform="translate(57.2841 63)"/>
</clipPath>
</defs>
</svg>
