<svg width="268" height="205" viewBox="0 0 268 205" fill="none" xmlns="http://www.w3.org/2000/svg">
<path d="M17.6152 144.523V157.32H15.9189V144.523H17.6152ZM22.9766 150.28V151.669H17.2461V150.28H22.9766ZM23.8467 144.523V145.912H17.2461V144.523H23.8467ZM27.3887 147.811V157.32H25.7539V147.811H27.3887ZM25.6309 145.288C25.6309 145.024 25.71 144.802 25.8682 144.62C26.0322 144.438 26.2725 144.348 26.5889 144.348C26.8994 144.348 27.1367 144.438 27.3008 144.62C27.4707 144.802 27.5557 145.024 27.5557 145.288C27.5557 145.54 27.4707 145.757 27.3008 145.938C27.1367 146.114 26.8994 146.202 26.5889 146.202C26.2725 146.202 26.0322 146.114 25.8682 145.938C25.71 145.757 25.6309 145.54 25.6309 145.288ZM36.1602 147.811H37.6367V157.118C37.6367 157.956 37.4668 158.671 37.127 159.263C36.7871 159.854 36.3125 160.303 35.7031 160.607C35.0996 160.918 34.4023 161.073 33.6113 161.073C33.2832 161.073 32.8965 161.021 32.4512 160.915C32.0117 160.815 31.5781 160.643 31.1504 160.396C30.7285 160.156 30.374 159.831 30.0869 159.421L30.9395 158.454C31.3379 158.935 31.7539 159.269 32.1875 159.456C32.627 159.644 33.0605 159.737 33.4883 159.737C34.0039 159.737 34.4492 159.641 34.8242 159.447C35.1992 159.254 35.4893 158.967 35.6943 158.586C35.9053 158.211 36.0107 157.748 36.0107 157.197V149.902L36.1602 147.811ZM29.6123 152.671V152.486C29.6123 151.76 29.6973 151.101 29.8672 150.509C30.043 149.911 30.292 149.398 30.6143 148.971C30.9424 148.543 31.3379 148.215 31.8008 147.986C32.2637 147.752 32.7852 147.635 33.3652 147.635C33.9629 147.635 34.4844 147.74 34.9297 147.951C35.3809 148.156 35.7617 148.458 36.0723 148.856C36.3887 149.249 36.6377 149.724 36.8193 150.28C37.001 150.837 37.127 151.467 37.1973 152.17V152.979C37.1328 153.676 37.0068 154.303 36.8193 154.859C36.6377 155.416 36.3887 155.891 36.0723 156.283C35.7617 156.676 35.3809 156.978 34.9297 157.188C34.4785 157.394 33.9512 157.496 33.3477 157.496C32.7793 157.496 32.2637 157.376 31.8008 157.136C31.3438 156.896 30.9512 156.559 30.623 156.125C30.2949 155.691 30.043 155.182 29.8672 154.596C29.6973 154.004 29.6123 153.362 29.6123 152.671ZM31.2383 152.486V152.671C31.2383 153.146 31.2852 153.591 31.3789 154.007C31.4785 154.423 31.6279 154.789 31.8271 155.105C32.0322 155.422 32.293 155.671 32.6094 155.853C32.9258 156.028 33.3037 156.116 33.7432 156.116C34.2822 156.116 34.7275 156.002 35.0791 155.773C35.4307 155.545 35.709 155.243 35.9141 154.868C36.125 154.493 36.2891 154.086 36.4062 153.646V151.528C36.3418 151.206 36.2422 150.896 36.1074 150.597C35.9785 150.292 35.8086 150.022 35.5977 149.788C35.3926 149.548 35.1377 149.357 34.833 149.217C34.5283 149.076 34.1709 149.006 33.7607 149.006C33.3154 149.006 32.9316 149.1 32.6094 149.287C32.293 149.469 32.0322 149.721 31.8271 150.043C31.6279 150.359 31.4785 150.729 31.3789 151.15C31.2852 151.566 31.2383 152.012 31.2383 152.486ZM41.7236 149.7V157.32H40.0889V147.811H41.6357L41.7236 149.7ZM41.3896 152.205L40.6338 152.179C40.6396 151.528 40.7246 150.928 40.8887 150.377C41.0527 149.82 41.2959 149.337 41.6182 148.927C41.9404 148.517 42.3418 148.2 42.8223 147.978C43.3027 147.749 43.8594 147.635 44.4922 147.635C44.9375 147.635 45.3477 147.699 45.7227 147.828C46.0977 147.951 46.4229 148.147 46.6982 148.417C46.9736 148.687 47.1875 149.032 47.3398 149.454C47.4922 149.876 47.5684 150.386 47.5684 150.983V157.32H45.9424V151.062C45.9424 150.564 45.8574 150.166 45.6875 149.867C45.5234 149.568 45.2891 149.352 44.9844 149.217C44.6797 149.076 44.3223 149.006 43.9121 149.006C43.4316 149.006 43.0303 149.091 42.708 149.261C42.3857 149.431 42.1279 149.665 41.9346 149.964C41.7412 150.263 41.6006 150.605 41.5127 150.992C41.4307 151.373 41.3896 151.777 41.3896 152.205ZM47.5508 151.309L46.4609 151.643C46.4668 151.121 46.5518 150.62 46.7158 150.14C46.8857 149.659 47.1289 149.231 47.4453 148.856C47.7676 148.481 48.1631 148.186 48.6318 147.969C49.1006 147.746 49.6367 147.635 50.2402 147.635C50.75 147.635 51.2012 147.702 51.5938 147.837C51.9922 147.972 52.3262 148.18 52.5957 148.461C52.8711 148.736 53.0791 149.091 53.2197 149.524C53.3604 149.958 53.4307 150.474 53.4307 151.071V157.32H51.7959V151.054C51.7959 150.521 51.7109 150.107 51.541 149.814C51.377 149.516 51.1426 149.308 50.8379 149.19C50.5391 149.067 50.1816 149.006 49.7656 149.006C49.4082 149.006 49.0918 149.067 48.8164 149.19C48.541 149.313 48.3096 149.483 48.1221 149.7C47.9346 149.911 47.791 150.154 47.6914 150.43C47.5977 150.705 47.5508 150.998 47.5508 151.309ZM61.499 155.694V150.799C61.499 150.424 61.4229 150.099 61.2705 149.823C61.124 149.542 60.9014 149.325 60.6025 149.173C60.3037 149.021 59.9346 148.944 59.4951 148.944C59.085 148.944 58.7246 149.015 58.4141 149.155C58.1094 149.296 57.8691 149.48 57.6934 149.709C57.5234 149.938 57.4385 150.184 57.4385 150.447H55.8125C55.8125 150.107 55.9004 149.771 56.0762 149.437C56.252 149.103 56.5039 148.801 56.832 148.531C57.166 148.256 57.5645 148.039 58.0273 147.881C58.4961 147.717 59.0176 147.635 59.5918 147.635C60.2832 147.635 60.8926 147.752 61.4199 147.986C61.9531 148.221 62.3691 148.575 62.668 149.05C62.9727 149.519 63.125 150.107 63.125 150.816V155.246C63.125 155.562 63.1514 155.899 63.2041 156.257C63.2627 156.614 63.3477 156.922 63.459 157.18V157.32H61.7627C61.6807 157.133 61.6162 156.884 61.5693 156.573C61.5225 156.257 61.499 155.964 61.499 155.694ZM61.7803 151.555L61.7979 152.697H60.1543C59.6914 152.697 59.2783 152.735 58.915 152.812C58.5518 152.882 58.2471 152.99 58.001 153.137C57.7549 153.283 57.5674 153.468 57.4385 153.69C57.3096 153.907 57.2451 154.162 57.2451 154.455C57.2451 154.754 57.3125 155.026 57.4473 155.272C57.582 155.519 57.7842 155.715 58.0537 155.861C58.3291 156.002 58.666 156.072 59.0645 156.072C59.5625 156.072 60.002 155.967 60.3828 155.756C60.7637 155.545 61.0654 155.287 61.2881 154.982C61.5166 154.678 61.6396 154.382 61.6572 154.095L62.3516 154.877C62.3105 155.123 62.1992 155.396 62.0176 155.694C61.8359 155.993 61.5928 156.28 61.2881 156.556C60.9893 156.825 60.6318 157.051 60.2158 157.232C59.8057 157.408 59.3428 157.496 58.8271 157.496C58.1826 157.496 57.6172 157.37 57.1309 157.118C56.6504 156.866 56.2754 156.529 56.0059 156.107C55.7422 155.68 55.6104 155.202 55.6104 154.675C55.6104 154.165 55.71 153.717 55.9092 153.33C56.1084 152.938 56.3955 152.612 56.7705 152.354C57.1455 152.091 57.5967 151.892 58.124 151.757C58.6514 151.622 59.2402 151.555 59.8906 151.555H61.7803ZM71.7734 149.639V160.977H70.1387V147.811H71.6328L71.7734 149.639ZM78.1807 152.486V152.671C78.1807 153.362 78.0986 154.004 77.9346 154.596C77.7705 155.182 77.5303 155.691 77.2139 156.125C76.9033 156.559 76.5195 156.896 76.0625 157.136C75.6055 157.376 75.0811 157.496 74.4893 157.496C73.8857 157.496 73.3525 157.396 72.8896 157.197C72.4268 156.998 72.0342 156.708 71.7119 156.327C71.3896 155.946 71.1318 155.489 70.9385 154.956C70.751 154.423 70.6221 153.822 70.5518 153.154V152.17C70.6221 151.467 70.7539 150.837 70.9473 150.28C71.1406 149.724 71.3955 149.249 71.7119 148.856C72.0342 148.458 72.4238 148.156 72.8809 147.951C73.3379 147.74 73.8652 147.635 74.4629 147.635C75.0605 147.635 75.5908 147.752 76.0537 147.986C76.5166 148.215 76.9062 148.543 77.2227 148.971C77.5391 149.398 77.7764 149.911 77.9346 150.509C78.0986 151.101 78.1807 151.76 78.1807 152.486ZM76.5459 152.671V152.486C76.5459 152.012 76.4961 151.566 76.3965 151.15C76.2969 150.729 76.1416 150.359 75.9307 150.043C75.7256 149.721 75.4619 149.469 75.1396 149.287C74.8174 149.1 74.4336 149.006 73.9883 149.006C73.5781 149.006 73.2207 149.076 72.916 149.217C72.6172 149.357 72.3623 149.548 72.1514 149.788C71.9404 150.022 71.7676 150.292 71.6328 150.597C71.5039 150.896 71.4072 151.206 71.3428 151.528V153.805C71.46 154.215 71.624 154.602 71.835 154.965C72.0459 155.322 72.3271 155.612 72.6787 155.835C73.0303 156.052 73.4727 156.16 74.0059 156.16C74.4453 156.16 74.8232 156.069 75.1396 155.888C75.4619 155.7 75.7256 155.445 75.9307 155.123C76.1416 154.801 76.2969 154.432 76.3965 154.016C76.4961 153.594 76.5459 153.146 76.5459 152.671ZM81.8809 149.305V157.32H80.2549V147.811H81.8369L81.8809 149.305ZM84.8516 147.758L84.8428 149.27C84.708 149.24 84.5791 149.223 84.4561 149.217C84.3389 149.205 84.2041 149.199 84.0518 149.199C83.6768 149.199 83.3457 149.258 83.0586 149.375C82.7715 149.492 82.5283 149.656 82.3291 149.867C82.1299 150.078 81.9717 150.33 81.8545 150.623C81.7432 150.91 81.6699 151.227 81.6348 151.572L81.1777 151.836C81.1777 151.262 81.2334 150.723 81.3447 150.219C81.4619 149.715 81.6406 149.27 81.8809 148.883C82.1211 148.49 82.4258 148.186 82.7949 147.969C83.1699 147.746 83.6152 147.635 84.1309 147.635C84.248 147.635 84.3828 147.649 84.5352 147.679C84.6875 147.702 84.793 147.729 84.8516 147.758ZM85.748 152.671V152.469C85.748 151.783 85.8477 151.147 86.0469 150.562C86.2461 149.97 86.5332 149.457 86.9082 149.023C87.2832 148.584 87.7373 148.244 88.2705 148.004C88.8037 147.758 89.4014 147.635 90.0635 147.635C90.7314 147.635 91.332 147.758 91.8652 148.004C92.4043 148.244 92.8613 148.584 93.2363 149.023C93.6172 149.457 93.9072 149.97 94.1064 150.562C94.3057 151.147 94.4053 151.783 94.4053 152.469V152.671C94.4053 153.356 94.3057 153.992 94.1064 154.578C93.9072 155.164 93.6172 155.677 93.2363 156.116C92.8613 156.55 92.4072 156.89 91.874 157.136C91.3467 157.376 90.749 157.496 90.0811 157.496C89.4131 157.496 88.8125 157.376 88.2793 157.136C87.7461 156.89 87.2891 156.55 86.9082 156.116C86.5332 155.677 86.2461 155.164 86.0469 154.578C85.8477 153.992 85.748 153.356 85.748 152.671ZM87.374 152.469V152.671C87.374 153.146 87.4297 153.594 87.541 154.016C87.6523 154.432 87.8193 154.801 88.042 155.123C88.2705 155.445 88.5547 155.7 88.8945 155.888C89.2344 156.069 89.6299 156.16 90.0811 156.16C90.5264 156.16 90.916 156.069 91.25 155.888C91.5898 155.7 91.8711 155.445 92.0938 155.123C92.3164 154.801 92.4834 154.432 92.5947 154.016C92.7119 153.594 92.7705 153.146 92.7705 152.671V152.469C92.7705 152 92.7119 151.558 92.5947 151.142C92.4834 150.72 92.3135 150.348 92.085 150.025C91.8623 149.697 91.5811 149.439 91.2412 149.252C90.9072 149.064 90.5146 148.971 90.0635 148.971C89.6182 148.971 89.2256 149.064 88.8857 149.252C88.5518 149.439 88.2705 149.697 88.042 150.025C87.8193 150.348 87.6523 150.72 87.541 151.142C87.4297 151.558 87.374 152 87.374 152.469ZM96.4883 147.811H98.123V158.454C98.123 159.034 98.0293 159.526 97.8418 159.931C97.6602 160.335 97.3848 160.64 97.0156 160.845C96.6523 161.056 96.1924 161.161 95.6357 161.161C95.4893 161.161 95.3193 161.146 95.126 161.117C94.9268 161.088 94.7598 161.053 94.625 161.012L94.6338 159.702C94.7451 159.726 94.8711 159.743 95.0117 159.755C95.1523 159.772 95.2754 159.781 95.3809 159.781C95.6211 159.781 95.8232 159.737 95.9873 159.649C96.1514 159.562 96.2744 159.421 96.3564 159.228C96.4443 159.034 96.4883 158.776 96.4883 158.454V147.811ZM96.3213 145.288C96.3213 145.024 96.4033 144.802 96.5674 144.62C96.7314 144.438 96.9688 144.348 97.2793 144.348C97.5957 144.348 97.8359 144.438 98 144.62C98.1641 144.802 98.2461 145.024 98.2461 145.288C98.2461 145.54 98.1641 145.757 98 145.938C97.8359 146.114 97.5957 146.202 97.2793 146.202C96.9688 146.202 96.7314 146.114 96.5674 145.938C96.4033 145.757 96.3213 145.54 96.3213 145.288ZM104.697 157.496C104.035 157.496 103.435 157.385 102.896 157.162C102.362 156.934 101.902 156.614 101.516 156.204C101.135 155.794 100.842 155.308 100.637 154.745C100.432 154.183 100.329 153.567 100.329 152.899V152.53C100.329 151.757 100.443 151.068 100.672 150.465C100.9 149.855 101.211 149.34 101.604 148.918C101.996 148.496 102.441 148.177 102.939 147.96C103.438 147.743 103.953 147.635 104.486 147.635C105.166 147.635 105.752 147.752 106.244 147.986C106.742 148.221 107.149 148.549 107.466 148.971C107.782 149.387 108.017 149.879 108.169 150.447C108.321 151.01 108.397 151.625 108.397 152.293V153.022H101.296V151.695H106.771V151.572C106.748 151.15 106.66 150.74 106.508 150.342C106.361 149.943 106.127 149.615 105.805 149.357C105.482 149.1 105.043 148.971 104.486 148.971C104.117 148.971 103.777 149.05 103.467 149.208C103.156 149.36 102.89 149.589 102.667 149.894C102.444 150.198 102.271 150.57 102.148 151.01C102.025 151.449 101.964 151.956 101.964 152.53V152.899C101.964 153.351 102.025 153.775 102.148 154.174C102.277 154.566 102.462 154.912 102.702 155.211C102.948 155.51 103.244 155.744 103.59 155.914C103.941 156.084 104.34 156.169 104.785 156.169C105.359 156.169 105.846 156.052 106.244 155.817C106.643 155.583 106.991 155.27 107.29 154.877L108.274 155.659C108.069 155.97 107.809 156.266 107.492 156.547C107.176 156.828 106.786 157.057 106.323 157.232C105.866 157.408 105.324 157.496 104.697 157.496ZM114.102 156.16C114.488 156.16 114.846 156.081 115.174 155.923C115.502 155.765 115.771 155.548 115.982 155.272C116.193 154.991 116.313 154.672 116.343 154.314H117.89C117.86 154.877 117.67 155.401 117.318 155.888C116.973 156.368 116.519 156.758 115.956 157.057C115.394 157.35 114.775 157.496 114.102 157.496C113.387 157.496 112.763 157.37 112.229 157.118C111.702 156.866 111.263 156.521 110.911 156.081C110.565 155.642 110.305 155.138 110.129 154.569C109.959 153.995 109.874 153.389 109.874 152.75V152.381C109.874 151.742 109.959 151.139 110.129 150.57C110.305 149.996 110.565 149.489 110.911 149.05C111.263 148.61 111.702 148.265 112.229 148.013C112.763 147.761 113.387 147.635 114.102 147.635C114.846 147.635 115.496 147.787 116.053 148.092C116.609 148.391 117.046 148.801 117.362 149.322C117.685 149.838 117.86 150.424 117.89 151.08H116.343C116.313 150.688 116.202 150.333 116.009 150.017C115.821 149.7 115.563 149.448 115.235 149.261C114.913 149.067 114.535 148.971 114.102 148.971C113.604 148.971 113.185 149.07 112.845 149.27C112.511 149.463 112.244 149.727 112.045 150.061C111.852 150.389 111.711 150.755 111.623 151.159C111.541 151.558 111.5 151.965 111.5 152.381V152.75C111.5 153.166 111.541 153.576 111.623 153.98C111.705 154.385 111.843 154.751 112.036 155.079C112.235 155.407 112.502 155.671 112.836 155.87C113.176 156.063 113.598 156.16 114.102 156.16ZM123.699 147.811V149.059H118.558V147.811H123.699ZM120.298 145.499H121.924V154.965C121.924 155.287 121.974 155.53 122.073 155.694C122.173 155.858 122.302 155.967 122.46 156.02C122.618 156.072 122.788 156.099 122.97 156.099C123.104 156.099 123.245 156.087 123.392 156.063C123.544 156.034 123.658 156.011 123.734 155.993L123.743 157.32C123.614 157.361 123.444 157.399 123.233 157.435C123.028 157.476 122.779 157.496 122.486 157.496C122.088 157.496 121.722 157.417 121.388 157.259C121.054 157.101 120.787 156.837 120.588 156.468C120.395 156.093 120.298 155.589 120.298 154.956V145.499ZM132.497 157.32H130.871V146.809C130.871 146.123 130.994 145.546 131.24 145.077C131.492 144.603 131.853 144.245 132.321 144.005C132.79 143.759 133.347 143.636 133.991 143.636C134.179 143.636 134.366 143.647 134.554 143.671C134.747 143.694 134.935 143.729 135.116 143.776L135.028 145.104C134.905 145.074 134.765 145.054 134.606 145.042C134.454 145.03 134.302 145.024 134.149 145.024C133.804 145.024 133.505 145.095 133.253 145.235C133.007 145.37 132.819 145.569 132.69 145.833C132.562 146.097 132.497 146.422 132.497 146.809V157.32ZM134.519 147.811V149.059H129.368V147.811H134.519ZM135.898 152.671V152.469C135.898 151.783 135.998 151.147 136.197 150.562C136.396 149.97 136.684 149.457 137.059 149.023C137.434 148.584 137.888 148.244 138.421 148.004C138.954 147.758 139.552 147.635 140.214 147.635C140.882 147.635 141.482 147.758 142.016 148.004C142.555 148.244 143.012 148.584 143.387 149.023C143.768 149.457 144.058 149.97 144.257 150.562C144.456 151.147 144.556 151.783 144.556 152.469V152.671C144.556 153.356 144.456 153.992 144.257 154.578C144.058 155.164 143.768 155.677 143.387 156.116C143.012 156.55 142.558 156.89 142.024 157.136C141.497 157.376 140.899 157.496 140.231 157.496C139.563 157.496 138.963 157.376 138.43 157.136C137.896 156.89 137.439 156.55 137.059 156.116C136.684 155.677 136.396 155.164 136.197 154.578C135.998 153.992 135.898 153.356 135.898 152.671ZM137.524 152.469V152.671C137.524 153.146 137.58 153.594 137.691 154.016C137.803 154.432 137.97 154.801 138.192 155.123C138.421 155.445 138.705 155.7 139.045 155.888C139.385 156.069 139.78 156.16 140.231 156.16C140.677 156.16 141.066 156.069 141.4 155.888C141.74 155.7 142.021 155.445 142.244 155.123C142.467 154.801 142.634 154.432 142.745 154.016C142.862 153.594 142.921 153.146 142.921 152.671V152.469C142.921 152 142.862 151.558 142.745 151.142C142.634 150.72 142.464 150.348 142.235 150.025C142.013 149.697 141.731 149.439 141.392 149.252C141.058 149.064 140.665 148.971 140.214 148.971C139.769 148.971 139.376 149.064 139.036 149.252C138.702 149.439 138.421 149.697 138.192 150.025C137.97 150.348 137.803 150.72 137.691 151.142C137.58 151.558 137.524 152 137.524 152.469ZM148.221 149.305V157.32H146.595V147.811H148.177L148.221 149.305ZM151.191 147.758L151.183 149.27C151.048 149.24 150.919 149.223 150.796 149.217C150.679 149.205 150.544 149.199 150.392 149.199C150.017 149.199 149.686 149.258 149.398 149.375C149.111 149.492 148.868 149.656 148.669 149.867C148.47 150.078 148.312 150.33 148.194 150.623C148.083 150.91 148.01 151.227 147.975 151.572L147.518 151.836C147.518 151.262 147.573 150.723 147.685 150.219C147.802 149.715 147.98 149.27 148.221 148.883C148.461 148.49 148.766 148.186 149.135 147.969C149.51 147.746 149.955 147.635 150.471 147.635C150.588 147.635 150.723 147.649 150.875 147.679C151.027 147.702 151.133 147.729 151.191 147.758ZM162.767 155.694V150.799C162.767 150.424 162.69 150.099 162.538 149.823C162.392 149.542 162.169 149.325 161.87 149.173C161.571 149.021 161.202 148.944 160.763 148.944C160.353 148.944 159.992 149.015 159.682 149.155C159.377 149.296 159.137 149.48 158.961 149.709C158.791 149.938 158.706 150.184 158.706 150.447H157.08C157.08 150.107 157.168 149.771 157.344 149.437C157.52 149.103 157.771 148.801 158.1 148.531C158.434 148.256 158.832 148.039 159.295 147.881C159.764 147.717 160.285 147.635 160.859 147.635C161.551 147.635 162.16 147.752 162.688 147.986C163.221 148.221 163.637 148.575 163.936 149.05C164.24 149.519 164.393 150.107 164.393 150.816V155.246C164.393 155.562 164.419 155.899 164.472 156.257C164.53 156.614 164.615 156.922 164.727 157.18V157.32H163.03C162.948 157.133 162.884 156.884 162.837 156.573C162.79 156.257 162.767 155.964 162.767 155.694ZM163.048 151.555L163.065 152.697H161.422C160.959 152.697 160.546 152.735 160.183 152.812C159.819 152.882 159.515 152.99 159.269 153.137C159.022 153.283 158.835 153.468 158.706 153.69C158.577 153.907 158.513 154.162 158.513 154.455C158.513 154.754 158.58 155.026 158.715 155.272C158.85 155.519 159.052 155.715 159.321 155.861C159.597 156.002 159.934 156.072 160.332 156.072C160.83 156.072 161.27 155.967 161.65 155.756C162.031 155.545 162.333 155.287 162.556 154.982C162.784 154.678 162.907 154.382 162.925 154.095L163.619 154.877C163.578 155.123 163.467 155.396 163.285 155.694C163.104 155.993 162.86 156.28 162.556 156.556C162.257 156.825 161.899 157.051 161.483 157.232C161.073 157.408 160.61 157.496 160.095 157.496C159.45 157.496 158.885 157.37 158.398 157.118C157.918 156.866 157.543 156.529 157.273 156.107C157.01 155.68 156.878 155.202 156.878 154.675C156.878 154.165 156.978 153.717 157.177 153.33C157.376 152.938 157.663 152.612 158.038 152.354C158.413 152.091 158.864 151.892 159.392 151.757C159.919 151.622 160.508 151.555 161.158 151.555H163.048ZM173.041 149.305V157.32H171.415V147.811H172.997L173.041 149.305ZM176.012 147.758L176.003 149.27C175.868 149.24 175.739 149.223 175.616 149.217C175.499 149.205 175.364 149.199 175.212 149.199C174.837 149.199 174.506 149.258 174.219 149.375C173.932 149.492 173.688 149.656 173.489 149.867C173.29 150.078 173.132 150.33 173.015 150.623C172.903 150.91 172.83 151.227 172.795 151.572L172.338 151.836C172.338 151.262 172.394 150.723 172.505 150.219C172.622 149.715 172.801 149.27 173.041 148.883C173.281 148.49 173.586 148.186 173.955 147.969C174.33 147.746 174.775 147.635 175.291 147.635C175.408 147.635 175.543 147.649 175.695 147.679C175.848 147.702 175.953 147.729 176.012 147.758ZM181.285 157.496C180.623 157.496 180.022 157.385 179.483 157.162C178.95 156.934 178.49 156.614 178.104 156.204C177.723 155.794 177.43 155.308 177.225 154.745C177.02 154.183 176.917 153.567 176.917 152.899V152.53C176.917 151.757 177.031 151.068 177.26 150.465C177.488 149.855 177.799 149.34 178.191 148.918C178.584 148.496 179.029 148.177 179.527 147.96C180.025 147.743 180.541 147.635 181.074 147.635C181.754 147.635 182.34 147.752 182.832 147.986C183.33 148.221 183.737 148.549 184.054 148.971C184.37 149.387 184.604 149.879 184.757 150.447C184.909 151.01 184.985 151.625 184.985 152.293V153.022H177.884V151.695H183.359V151.572C183.336 151.15 183.248 150.74 183.096 150.342C182.949 149.943 182.715 149.615 182.393 149.357C182.07 149.1 181.631 148.971 181.074 148.971C180.705 148.971 180.365 149.05 180.055 149.208C179.744 149.36 179.478 149.589 179.255 149.894C179.032 150.198 178.859 150.57 178.736 151.01C178.613 151.449 178.552 151.956 178.552 152.53V152.899C178.552 153.351 178.613 153.775 178.736 154.174C178.865 154.566 179.05 154.912 179.29 155.211C179.536 155.51 179.832 155.744 180.178 155.914C180.529 156.084 180.928 156.169 181.373 156.169C181.947 156.169 182.434 156.052 182.832 155.817C183.23 155.583 183.579 155.27 183.878 154.877L184.862 155.659C184.657 155.97 184.396 156.266 184.08 156.547C183.764 156.828 183.374 157.057 182.911 157.232C182.454 157.408 181.912 157.496 181.285 157.496ZM190.689 156.16C191.076 156.16 191.434 156.081 191.762 155.923C192.09 155.765 192.359 155.548 192.57 155.272C192.781 154.991 192.901 154.672 192.931 154.314H194.478C194.448 154.877 194.258 155.401 193.906 155.888C193.561 156.368 193.106 156.758 192.544 157.057C191.981 157.35 191.363 157.496 190.689 157.496C189.975 157.496 189.351 157.37 188.817 157.118C188.29 156.866 187.851 156.521 187.499 156.081C187.153 155.642 186.893 155.138 186.717 154.569C186.547 153.995 186.462 153.389 186.462 152.75V152.381C186.462 151.742 186.547 151.139 186.717 150.57C186.893 149.996 187.153 149.489 187.499 149.05C187.851 148.61 188.29 148.265 188.817 148.013C189.351 147.761 189.975 147.635 190.689 147.635C191.434 147.635 192.084 147.787 192.641 148.092C193.197 148.391 193.634 148.801 193.95 149.322C194.272 149.838 194.448 150.424 194.478 151.08H192.931C192.901 150.688 192.79 150.333 192.597 150.017C192.409 149.7 192.151 149.448 191.823 149.261C191.501 149.067 191.123 148.971 190.689 148.971C190.191 148.971 189.772 149.07 189.433 149.27C189.099 149.463 188.832 149.727 188.633 150.061C188.439 150.389 188.299 150.755 188.211 151.159C188.129 151.558 188.088 151.965 188.088 152.381V152.75C188.088 153.166 188.129 153.576 188.211 153.98C188.293 154.385 188.431 154.751 188.624 155.079C188.823 155.407 189.09 155.671 189.424 155.87C189.764 156.063 190.186 156.16 190.689 156.16ZM198.072 147.811V157.32H196.438V147.811H198.072ZM196.314 145.288C196.314 145.024 196.394 144.802 196.552 144.62C196.716 144.438 196.956 144.348 197.272 144.348C197.583 144.348 197.82 144.438 197.984 144.62C198.154 144.802 198.239 145.024 198.239 145.288C198.239 145.54 198.154 145.757 197.984 145.938C197.82 146.114 197.583 146.202 197.272 146.202C196.956 146.202 196.716 146.114 196.552 145.938C196.394 145.757 196.314 145.54 196.314 145.288ZM202.309 149.639V160.977H200.674V147.811H202.168L202.309 149.639ZM208.716 152.486V152.671C208.716 153.362 208.634 154.004 208.47 154.596C208.306 155.182 208.065 155.691 207.749 156.125C207.438 156.559 207.055 156.896 206.598 157.136C206.141 157.376 205.616 157.496 205.024 157.496C204.421 157.496 203.888 157.396 203.425 157.197C202.962 156.998 202.569 156.708 202.247 156.327C201.925 155.946 201.667 155.489 201.474 154.956C201.286 154.423 201.157 153.822 201.087 153.154V152.17C201.157 151.467 201.289 150.837 201.482 150.28C201.676 149.724 201.931 149.249 202.247 148.856C202.569 148.458 202.959 148.156 203.416 147.951C203.873 147.74 204.4 147.635 204.998 147.635C205.596 147.635 206.126 147.752 206.589 147.986C207.052 148.215 207.441 148.543 207.758 148.971C208.074 149.398 208.312 149.911 208.47 150.509C208.634 151.101 208.716 151.76 208.716 152.486ZM207.081 152.671V152.486C207.081 152.012 207.031 151.566 206.932 151.15C206.832 150.729 206.677 150.359 206.466 150.043C206.261 149.721 205.997 149.469 205.675 149.287C205.353 149.1 204.969 149.006 204.523 149.006C204.113 149.006 203.756 149.076 203.451 149.217C203.152 149.357 202.897 149.548 202.687 149.788C202.476 150.022 202.303 150.292 202.168 150.597C202.039 150.896 201.942 151.206 201.878 151.528V153.805C201.995 154.215 202.159 154.602 202.37 154.965C202.581 155.322 202.862 155.612 203.214 155.835C203.565 156.052 204.008 156.16 204.541 156.16C204.98 156.16 205.358 156.069 205.675 155.888C205.997 155.7 206.261 155.445 206.466 155.123C206.677 154.801 206.832 154.432 206.932 154.016C207.031 153.594 207.081 153.146 207.081 152.671ZM214.736 157.496C214.074 157.496 213.474 157.385 212.935 157.162C212.401 156.934 211.941 156.614 211.555 156.204C211.174 155.794 210.881 155.308 210.676 154.745C210.471 154.183 210.368 153.567 210.368 152.899V152.53C210.368 151.757 210.482 151.068 210.711 150.465C210.939 149.855 211.25 149.34 211.643 148.918C212.035 148.496 212.48 148.177 212.979 147.96C213.477 147.743 213.992 147.635 214.525 147.635C215.205 147.635 215.791 147.752 216.283 147.986C216.781 148.221 217.188 148.549 217.505 148.971C217.821 149.387 218.056 149.879 218.208 150.447C218.36 151.01 218.437 151.625 218.437 152.293V153.022H211.335V151.695H216.811V151.572C216.787 151.15 216.699 150.74 216.547 150.342C216.4 149.943 216.166 149.615 215.844 149.357C215.521 149.1 215.082 148.971 214.525 148.971C214.156 148.971 213.816 149.05 213.506 149.208C213.195 149.36 212.929 149.589 212.706 149.894C212.483 150.198 212.311 150.57 212.188 151.01C212.064 151.449 212.003 151.956 212.003 152.53V152.899C212.003 153.351 212.064 153.775 212.188 154.174C212.316 154.566 212.501 154.912 212.741 155.211C212.987 155.51 213.283 155.744 213.629 155.914C213.98 156.084 214.379 156.169 214.824 156.169C215.398 156.169 215.885 156.052 216.283 155.817C216.682 155.583 217.03 155.27 217.329 154.877L218.313 155.659C218.108 155.97 217.848 156.266 217.531 156.547C217.215 156.828 216.825 157.057 216.362 157.232C215.905 157.408 215.363 157.496 214.736 157.496ZM230.407 155.694V150.799C230.407 150.424 230.331 150.099 230.179 149.823C230.032 149.542 229.81 149.325 229.511 149.173C229.212 149.021 228.843 148.944 228.403 148.944C227.993 148.944 227.633 149.015 227.322 149.155C227.018 149.296 226.777 149.48 226.602 149.709C226.432 149.938 226.347 150.184 226.347 150.447H224.721C224.721 150.107 224.809 149.771 224.984 149.437C225.16 149.103 225.412 148.801 225.74 148.531C226.074 148.256 226.473 148.039 226.936 147.881C227.404 147.717 227.926 147.635 228.5 147.635C229.191 147.635 229.801 147.752 230.328 147.986C230.861 148.221 231.277 148.575 231.576 149.05C231.881 149.519 232.033 150.107 232.033 150.816V155.246C232.033 155.562 232.06 155.899 232.112 156.257C232.171 156.614 232.256 156.922 232.367 157.18V157.32H230.671C230.589 157.133 230.524 156.884 230.478 156.573C230.431 156.257 230.407 155.964 230.407 155.694ZM230.688 151.555L230.706 152.697H229.062C228.6 152.697 228.187 152.735 227.823 152.812C227.46 152.882 227.155 152.99 226.909 153.137C226.663 153.283 226.476 153.468 226.347 153.69C226.218 153.907 226.153 154.162 226.153 154.455C226.153 154.754 226.221 155.026 226.355 155.272C226.49 155.519 226.692 155.715 226.962 155.861C227.237 156.002 227.574 156.072 227.973 156.072C228.471 156.072 228.91 155.967 229.291 155.756C229.672 155.545 229.974 155.287 230.196 154.982C230.425 154.678 230.548 154.382 230.565 154.095L231.26 154.877C231.219 155.123 231.107 155.396 230.926 155.694C230.744 155.993 230.501 156.28 230.196 156.556C229.897 156.825 229.54 157.051 229.124 157.232C228.714 157.408 228.251 157.496 227.735 157.496C227.091 157.496 226.525 157.37 226.039 157.118C225.559 156.866 225.184 156.529 224.914 156.107C224.65 155.68 224.519 155.202 224.519 154.675C224.519 154.165 224.618 153.717 224.817 153.33C225.017 152.938 225.304 152.612 225.679 152.354C226.054 152.091 226.505 151.892 227.032 151.757C227.56 151.622 228.148 151.555 228.799 151.555H230.688ZM236.217 149.639V160.977H234.582V147.811H236.076L236.217 149.639ZM242.624 152.486V152.671C242.624 153.362 242.542 154.004 242.378 154.596C242.214 155.182 241.974 155.691 241.657 156.125C241.347 156.559 240.963 156.896 240.506 157.136C240.049 157.376 239.524 157.496 238.933 157.496C238.329 157.496 237.796 157.396 237.333 157.197C236.87 156.998 236.478 156.708 236.155 156.327C235.833 155.946 235.575 155.489 235.382 154.956C235.194 154.423 235.065 153.822 234.995 153.154V152.17C235.065 151.467 235.197 150.837 235.391 150.28C235.584 149.724 235.839 149.249 236.155 148.856C236.478 148.458 236.867 148.156 237.324 147.951C237.781 147.74 238.309 147.635 238.906 147.635C239.504 147.635 240.034 147.752 240.497 147.986C240.96 148.215 241.35 148.543 241.666 148.971C241.982 149.398 242.22 149.911 242.378 150.509C242.542 151.101 242.624 151.76 242.624 152.486ZM240.989 152.671V152.486C240.989 152.012 240.939 151.566 240.84 151.15C240.74 150.729 240.585 150.359 240.374 150.043C240.169 149.721 239.905 149.469 239.583 149.287C239.261 149.1 238.877 149.006 238.432 149.006C238.021 149.006 237.664 149.076 237.359 149.217C237.061 149.357 236.806 149.548 236.595 149.788C236.384 150.022 236.211 150.292 236.076 150.597C235.947 150.896 235.851 151.206 235.786 151.528V153.805C235.903 154.215 236.067 154.602 236.278 154.965C236.489 155.322 236.771 155.612 237.122 155.835C237.474 156.052 237.916 156.16 238.449 156.16C238.889 156.16 239.267 156.069 239.583 155.888C239.905 155.7 240.169 155.445 240.374 155.123C240.585 154.801 240.74 154.432 240.84 154.016C240.939 153.594 240.989 153.146 240.989 152.671ZM246.324 149.639V160.977H244.689V147.811H246.184L246.324 149.639ZM252.731 152.486V152.671C252.731 153.362 252.649 154.004 252.485 154.596C252.321 155.182 252.081 155.691 251.765 156.125C251.454 156.559 251.07 156.896 250.613 157.136C250.156 157.376 249.632 157.496 249.04 157.496C248.437 157.496 247.903 157.396 247.44 157.197C246.978 156.998 246.585 156.708 246.263 156.327C245.94 155.946 245.683 155.489 245.489 154.956C245.302 154.423 245.173 153.822 245.103 153.154V152.17C245.173 151.467 245.305 150.837 245.498 150.28C245.691 149.724 245.946 149.249 246.263 148.856C246.585 148.458 246.975 148.156 247.432 147.951C247.889 147.74 248.416 147.635 249.014 147.635C249.611 147.635 250.142 147.752 250.604 147.986C251.067 148.215 251.457 148.543 251.773 148.971C252.09 149.398 252.327 149.911 252.485 150.509C252.649 151.101 252.731 151.76 252.731 152.486ZM251.097 152.671V152.486C251.097 152.012 251.047 151.566 250.947 151.15C250.848 150.729 250.692 150.359 250.481 150.043C250.276 149.721 250.013 149.469 249.69 149.287C249.368 149.1 248.984 149.006 248.539 149.006C248.129 149.006 247.771 149.076 247.467 149.217C247.168 149.357 246.913 149.548 246.702 149.788C246.491 150.022 246.318 150.292 246.184 150.597C246.055 150.896 245.958 151.206 245.894 151.528V153.805C246.011 154.215 246.175 154.602 246.386 154.965C246.597 155.322 246.878 155.612 247.229 155.835C247.581 156.052 248.023 156.16 248.557 156.16C248.996 156.16 249.374 156.069 249.69 155.888C250.013 155.7 250.276 155.445 250.481 155.123C250.692 154.801 250.848 154.432 250.947 154.016C251.047 153.594 251.097 153.146 251.097 152.671Z" fill="white"/>
<path d="M78.1094 20.0938H82.8906V36.3438C82.8906 37.9062 82.5312 39.2292 81.8125 40.3125C81.0938 41.4062 80.0885 42.2344 78.7969 42.7969C77.5156 43.3698 76.0156 43.6562 74.2969 43.6562C73.5365 43.6562 72.7604 43.5573 71.9688 43.3594C71.1771 43.1719 70.4375 42.8906 69.75 42.5156C69.0625 42.1406 68.4844 41.6771 68.0156 41.125L70.2188 38.0312C70.6458 38.5104 71.1823 38.9167 71.8281 39.25C72.474 39.5938 73.2344 39.7656 74.1094 39.7656C74.8698 39.7656 75.5052 39.6302 76.0156 39.3594C76.5365 39.0885 76.9323 38.6927 77.2031 38.1719C77.474 37.6615 77.6094 37.0417 77.6094 36.3125V24.0938L78.1094 20.0938ZM66.875 28.75V28.4219C66.875 27.1406 67.0312 25.974 67.3438 24.9219C67.6667 23.8594 68.125 22.9479 68.7188 22.1875C69.3229 21.4167 70.0521 20.8229 70.9062 20.4062C71.7604 19.9896 72.724 19.7812 73.7969 19.7812C74.9531 19.7812 75.901 20.0052 76.6406 20.4531C77.3906 20.8906 77.9896 21.5052 78.4375 22.2969C78.8958 23.0885 79.25 24.0156 79.5 25.0781C79.7604 26.1302 79.9792 27.2656 80.1562 28.4844V28.875C79.9792 30.0208 79.7344 31.1042 79.4219 32.125C79.1198 33.1354 78.724 34.0312 78.2344 34.8125C77.7448 35.5938 77.1302 36.2083 76.3906 36.6562C75.6615 37.0938 74.7865 37.3125 73.7656 37.3125C72.7031 37.3125 71.7448 37.099 70.8906 36.6719C70.0469 36.2448 69.3229 35.6458 68.7188 34.875C68.125 34.1042 67.6667 33.1979 67.3438 32.1562C67.0312 31.1146 66.875 29.9792 66.875 28.75ZM72.1406 28.4219V28.75C72.1406 29.3854 72.1979 29.974 72.3125 30.5156C72.4375 31.0573 72.625 31.5365 72.875 31.9531C73.125 32.3594 73.4323 32.6771 73.7969 32.9062C74.1719 33.1354 74.6094 33.25 75.1094 33.25C75.8698 33.25 76.4844 33.0885 76.9531 32.7656C77.4219 32.4427 77.7604 31.9844 77.9688 31.3906C78.1771 30.7969 78.2656 30.099 78.2344 29.2969V28.0625C78.2552 27.375 78.2083 26.7708 78.0938 26.25C77.9792 25.7188 77.7969 25.276 77.5469 24.9219C77.3073 24.5677 76.9844 24.3021 76.5781 24.125C76.1823 23.9375 75.7031 23.8438 75.1406 23.8438C74.651 23.8438 74.2188 23.9583 73.8438 24.1875C73.4688 24.4167 73.1562 24.7396 72.9062 25.1562C72.6562 25.5625 72.4635 26.0469 72.3281 26.6094C72.2031 27.1615 72.1406 27.7656 72.1406 28.4219ZM95.7969 32.8906V20.0938H101.078V37H96.1406L95.7969 32.8906ZM96.2969 29.4531L97.6719 29.4219C97.6719 30.5573 97.5365 31.6094 97.2656 32.5781C96.9948 33.5365 96.5938 34.3698 96.0625 35.0781C95.5417 35.7865 94.8958 36.3385 94.125 36.7344C93.3646 37.1198 92.4844 37.3125 91.4844 37.3125C90.651 37.3125 89.8854 37.1979 89.1875 36.9688C88.5 36.7292 87.9062 36.3594 87.4062 35.8594C86.9062 35.349 86.5156 34.6979 86.2344 33.9062C85.9635 33.1042 85.8281 32.1458 85.8281 31.0312V20.0938H91.0938V31.0625C91.0938 31.4375 91.1406 31.7604 91.2344 32.0312C91.3281 32.3021 91.4635 32.5312 91.6406 32.7188C91.8177 32.8958 92.0365 33.0312 92.2969 33.125C92.5677 33.2083 92.875 33.25 93.2188 33.25C94.0104 33.25 94.6302 33.0833 95.0781 32.75C95.526 32.4167 95.8385 31.9635 96.0156 31.3906C96.2031 30.8177 96.2969 30.1719 96.2969 29.4531ZM109.297 24.2812V37H104.031V20.0938H108.953L109.297 24.2812ZM114.297 19.9688L114.203 24.8594C113.995 24.8385 113.714 24.8125 113.359 24.7812C113.005 24.75 112.708 24.7344 112.469 24.7344C111.854 24.7344 111.323 24.8073 110.875 24.9531C110.438 25.0885 110.073 25.2969 109.781 25.5781C109.5 25.849 109.292 26.1927 109.156 26.6094C109.031 27.026 108.974 27.5104 108.984 28.0625L108.031 27.4375C108.031 26.3021 108.141 25.2708 108.359 24.3438C108.589 23.4062 108.911 22.599 109.328 21.9219C109.745 21.2344 110.25 20.7083 110.844 20.3438C111.438 19.9688 112.104 19.7812 112.844 19.7812C113.104 19.7812 113.359 19.7969 113.609 19.8281C113.87 19.8594 114.099 19.9062 114.297 19.9688ZM125.984 32.8906V20.0938H131.266V37H126.328L125.984 32.8906ZM126.484 29.4531L127.859 29.4219C127.859 30.5573 127.724 31.6094 127.453 32.5781C127.182 33.5365 126.781 34.3698 126.25 35.0781C125.729 35.7865 125.083 36.3385 124.312 36.7344C123.552 37.1198 122.672 37.3125 121.672 37.3125C120.839 37.3125 120.073 37.1979 119.375 36.9688C118.688 36.7292 118.094 36.3594 117.594 35.8594C117.094 35.349 116.703 34.6979 116.422 33.9062C116.151 33.1042 116.016 32.1458 116.016 31.0312V20.0938H121.281V31.0625C121.281 31.4375 121.328 31.7604 121.422 32.0312C121.516 32.3021 121.651 32.5312 121.828 32.7188C122.005 32.8958 122.224 33.0312 122.484 33.125C122.755 33.2083 123.062 33.25 123.406 33.25C124.198 33.25 124.818 33.0833 125.266 32.75C125.714 32.4167 126.026 31.9635 126.203 31.3906C126.391 30.8177 126.484 30.1719 126.484 29.4531ZM137.141 14.25H141.609L146.688 30.0781L151.766 14.25H156.234L148.5 37H144.875L137.141 14.25ZM134.422 14.25H139.047L139.906 31.6875V37H134.422V14.25ZM154.328 14.25H158.969V37H153.469V31.6875L154.328 14.25ZM170.422 37.3125C169.047 37.3125 167.818 37.099 166.734 36.6719C165.651 36.2344 164.734 35.6354 163.984 34.875C163.245 34.1146 162.677 33.2396 162.281 32.25C161.896 31.2604 161.703 30.2135 161.703 29.1094V28.5156C161.703 27.276 161.875 26.1302 162.219 25.0781C162.562 24.0156 163.073 23.0885 163.75 22.2969C164.427 21.5052 165.276 20.8906 166.297 20.4531C167.318 20.0052 168.505 19.7812 169.859 19.7812C171.057 19.7812 172.13 19.974 173.078 20.3594C174.026 20.7448 174.828 21.2969 175.484 22.0156C176.151 22.7344 176.656 23.6042 177 24.625C177.354 25.6458 177.531 26.7917 177.531 28.0625V30.2031H163.719V26.9062H172.391V26.5C172.401 25.9375 172.302 25.4583 172.094 25.0625C171.896 24.6667 171.604 24.3646 171.219 24.1562C170.833 23.9479 170.365 23.8438 169.812 23.8438C169.24 23.8438 168.766 23.9688 168.391 24.2188C168.026 24.4688 167.74 24.8125 167.531 25.25C167.333 25.6771 167.193 26.1719 167.109 26.7344C167.026 27.2969 166.984 27.8906 166.984 28.5156V29.1094C166.984 29.7344 167.068 30.3021 167.234 30.8125C167.411 31.3229 167.661 31.7604 167.984 32.125C168.318 32.4792 168.714 32.7552 169.172 32.9531C169.641 33.151 170.172 33.25 170.766 33.25C171.484 33.25 172.193 33.1146 172.891 32.8438C173.589 32.5729 174.188 32.125 174.688 31.5L177.078 34.3438C176.734 34.8333 176.245 35.3073 175.609 35.7656C174.984 36.224 174.234 36.599 173.359 36.8906C172.484 37.1719 171.505 37.3125 170.422 37.3125ZM188.578 20.0938V23.75H178.391V20.0938H188.578ZM180.531 15.8906H185.797V31.4844C185.797 31.9323 185.849 32.2812 185.953 32.5312C186.057 32.7708 186.234 32.9427 186.484 33.0469C186.745 33.1406 187.089 33.1875 187.516 33.1875C187.818 33.1875 188.068 33.1823 188.266 33.1719C188.464 33.151 188.651 33.125 188.828 33.0938V36.8594C188.38 37.0052 187.911 37.1146 187.422 37.1875C186.932 37.2708 186.411 37.3125 185.859 37.3125C184.734 37.3125 183.771 37.1354 182.969 36.7812C182.177 36.4271 181.573 35.8698 181.156 35.1094C180.74 34.349 180.531 33.3594 180.531 32.1406V15.8906Z" fill="white"/>
<g opacity="0.6">
<path d="M87.1781 73.9278V83.2482H85.0182V73.9278H87.1781ZM84.8978 71.325C84.8978 70.5977 85.384 70.0427 86.0981 70.0427C86.8313 70.0427 87.2826 70.5977 87.3016 71.325C87.3016 72.0331 86.8297 72.5881 86.0823 72.5881C85.3681 72.5881 84.8978 72.0331 84.8978 71.325Z" fill="white"/>
<path fill-rule="evenodd" clip-rule="evenodd" d="M81.9556 83.2481L80.893 79.5927H77.1654L76.1551 83.2481H73.9429L77.7054 70.3489H80.4401L84.2549 83.2481H81.9556ZM78.4195 74.6359L77.5137 77.8128H80.5272L79.604 74.6359C79.4203 74.0008 79.2604 73.3031 79.1131 72.6646C79.0796 72.5178 79.0458 72.3711 79.0118 72.2244H78.9769C78.9168 72.4802 78.8582 72.7533 78.7964 73.0335C78.6792 73.5728 78.5573 74.133 78.4195 74.6359Z" fill="white"/>
<path fill-rule="evenodd" clip-rule="evenodd" d="M89.2779 61.2094C83.7441 60.5354 78.1593 60.5354 72.6255 61.2094C69.4394 61.6008 66.8661 64.3585 66.4924 67.8765C65.8359 74.0435 65.8359 80.2736 66.4924 86.4406C66.8661 89.9586 69.4378 92.7163 72.6255 93.1077C78.1594 93.7811 83.744 93.7811 89.2779 93.1077C92.464 92.7163 95.0373 89.9586 95.411 86.4406C96.0675 80.2736 96.0675 74.0435 95.411 67.8765C95.0373 64.3585 92.4656 61.6008 89.2779 61.2094ZM72.8883 63.8017C78.2475 63.1491 83.6559 63.1491 89.0151 63.8017C91.1212 64.0627 92.8076 65.8878 93.0531 68.1809C93.688 74.1457 93.688 80.1714 93.0531 86.1362C92.9261 87.2584 92.4585 88.3009 91.7258 89.0952C90.9931 89.8895 90.0381 90.3892 89.0151 90.5136C83.6559 91.1663 78.2475 91.1663 72.8883 90.5136C71.8653 90.3892 70.9102 89.8895 70.1775 89.0952C69.4449 88.3009 68.9773 87.2584 68.8503 86.1362C68.2154 80.1714 68.2154 74.1457 68.8503 68.1809C68.9773 67.0587 69.4449 66.0162 70.1775 65.2219C70.9102 64.4276 71.8653 63.9262 72.8883 63.8017Z" fill="white"/>
</g>
<g opacity="0.6">
<path fill-rule="evenodd" clip-rule="evenodd" d="M122.15 83.1676H120.072V70.7234C120.821 70.5737 121.86 70.4614 123.274 70.4614C124.807 70.4614 125.931 70.817 126.665 71.4906C127.346 72.1082 127.787 73.1 127.787 74.2789C127.787 75.4765 127.447 76.4683 126.799 77.142C125.965 78.0589 124.653 78.4893 123.172 78.4893C122.78 78.4893 122.422 78.4706 122.15 78.4145V83.1676ZM123.359 72.2204C122.78 72.2204 122.371 72.2766 122.151 72.3327V76.5993C122.405 76.6741 122.746 76.6929 123.173 76.6929C124.738 76.6929 125.692 75.8508 125.692 74.3724C125.692 72.969 124.807 72.2204 123.359 72.2204Z" fill="white"/>
<path d="M130.464 83.3731C129.458 83.3731 128.557 83.0924 127.943 82.7181L128.352 81.0527C128.829 81.3708 129.73 81.7076 130.481 81.7076C131.401 81.7076 131.81 81.2959 131.81 80.6971C131.81 80.0796 131.469 79.7615 130.447 79.3685C128.829 78.751 128.148 77.7779 128.165 76.7112C128.165 75.1019 129.373 73.8481 131.299 73.8481C132.218 73.8481 133.017 74.1101 133.496 74.3908L133.087 76.0189C132.551 75.6877 131.948 75.5077 131.333 75.4949C130.583 75.4949 130.175 75.8879 130.175 76.4493C130.175 77.0294 130.566 77.3101 131.622 77.7217C133.121 78.3206 133.819 79.1626 133.836 80.51C133.836 82.1567 132.66 83.3731 130.464 83.3731Z" fill="white"/>
<path fill-rule="evenodd" clip-rule="evenodd" d="M134.789 61.6186C129.378 60.9595 123.917 60.9595 118.506 61.6186C115.391 62.0013 112.875 64.6977 112.51 68.1375C111.868 74.1675 111.868 80.2591 112.51 86.2891C112.875 89.7289 115.39 92.4253 118.506 92.8081C123.917 93.4664 129.378 93.4664 134.789 92.8081C137.904 92.4253 140.42 89.7289 140.786 86.2891C141.428 80.2591 141.428 74.1675 140.786 68.1375C140.42 64.6977 137.906 62.0013 134.789 61.6186ZM118.763 64.1533C124.004 63.5152 129.292 63.5152 134.532 64.1533C136.591 64.4085 138.24 66.193 138.48 68.4352C139.101 74.2674 139.101 80.1592 138.48 85.9914C138.356 87.0888 137.899 88.1081 137.182 88.8847C136.466 89.6613 135.532 90.15 134.532 90.2716C129.292 90.9098 124.004 90.9098 118.763 90.2716C117.763 90.15 116.829 89.6613 116.113 88.8847C115.396 88.1081 114.939 87.0888 114.815 85.9914C114.194 80.1592 114.194 74.2674 114.815 68.4352C114.939 67.3379 115.396 66.3185 116.113 65.5419C116.829 64.7653 117.763 64.275 118.763 64.1533Z" fill="white"/>
</g>
<g opacity="0.6">
<path opacity="0.5" d="M169.105 66.167H163.159C161.582 66.167 160.069 66.8554 158.954 68.0809C157.838 69.3063 157.212 70.9683 157.212 72.7013C157.212 74.4344 157.838 76.0964 158.954 77.3218C160.069 78.5472 161.582 79.2357 163.159 79.2357H169.105V66.167Z" stroke="white" stroke-width="4"/>
<path d="M169.105 79.2339H163.159C161.582 79.2339 160.069 79.9223 158.954 81.1478C157.838 82.3732 157.212 84.0352 157.212 85.7682C157.212 87.5012 157.838 89.1633 158.954 90.3887C160.069 91.6141 161.582 92.3026 163.159 92.3026H169.105V79.2339Z" stroke="white" stroke-width="4"/>
<path opacity="0.5" d="M181 85.769C181 87.502 180.373 89.164 179.258 90.3894C178.143 91.6149 176.63 92.3033 175.053 92.3033C173.475 92.3033 171.963 91.6149 170.847 90.3894C169.732 89.164 169.105 87.502 169.105 85.769C169.105 84.0359 169.732 82.3739 170.847 81.1485C171.963 79.9231 173.475 79.2346 175.053 79.2346C176.63 79.2346 178.143 79.9231 179.258 81.1485C180.373 82.3739 181 84.0359 181 85.769ZM163.159 92.3043H169.105V98.8377C169.105 100.13 168.756 101.393 168.102 102.467C167.449 103.541 166.52 104.378 165.433 104.872C164.347 105.366 163.151 105.496 161.998 105.243C160.844 104.991 159.785 104.369 158.954 103.455C158.122 102.541 157.556 101.377 157.327 100.11C157.097 98.8423 157.215 97.5287 157.665 96.335C158.115 95.1413 158.878 94.1211 159.855 93.4033C160.833 92.6855 161.983 92.3043 163.159 92.3043Z" stroke="white" stroke-width="4"/>
<path d="M169.105 66.167H175.052C176.629 66.167 178.142 66.8554 179.257 68.0809C180.372 69.3063 180.999 70.9683 180.999 72.7013C180.999 74.4344 180.372 76.0964 179.257 77.3218C178.142 78.5472 176.629 79.2357 175.052 79.2357H169.105V66.167Z" stroke="white" stroke-width="4"/>
</g>
</svg>
