<svg width="248" height="185" viewBox="0 0 248 185" fill="none" xmlns="http://www.w3.org/2000/svg">
<path d="M4.55469 144.625V156H3.04688V144.625H4.55469ZM9.32031 149.742V150.977H4.22656V149.742H9.32031ZM10.0938 144.625V145.859H4.22656V144.625H10.0938ZM13.2422 147.547V156H11.7891V147.547H13.2422ZM11.6797 145.305C11.6797 145.07 11.75 144.872 11.8906 144.711C12.0365 144.549 12.25 144.469 12.5312 144.469C12.8073 144.469 13.0182 144.549 13.1641 144.711C13.3151 144.872 13.3906 145.07 13.3906 145.305C13.3906 145.529 13.3151 145.721 13.1641 145.883C13.0182 146.039 12.8073 146.117 12.5312 146.117C12.25 146.117 12.0365 146.039 11.8906 145.883C11.75 145.721 11.6797 145.529 11.6797 145.305ZM21.0391 147.547H22.3516V155.82C22.3516 156.565 22.2005 157.201 21.8984 157.727C21.5964 158.253 21.1745 158.651 20.6328 158.922C20.0964 159.198 19.4766 159.336 18.7734 159.336C18.4818 159.336 18.138 159.289 17.7422 159.195C17.3516 159.107 16.9661 158.953 16.5859 158.734C16.2109 158.521 15.8958 158.232 15.6406 157.867L16.3984 157.008C16.7526 157.435 17.1224 157.732 17.5078 157.898C17.8984 158.065 18.2839 158.148 18.6641 158.148C19.1224 158.148 19.5182 158.062 19.8516 157.891C20.1849 157.719 20.4427 157.464 20.625 157.125C20.8125 156.792 20.9062 156.38 20.9062 155.891V149.406L21.0391 147.547ZM15.2188 151.867V151.703C15.2188 151.057 15.2943 150.471 15.4453 149.945C15.6016 149.414 15.8229 148.958 16.1094 148.578C16.401 148.198 16.7526 147.906 17.1641 147.703C17.5755 147.495 18.0391 147.391 18.5547 147.391C19.0859 147.391 19.5495 147.484 19.9453 147.672C20.3464 147.854 20.6849 148.122 20.9609 148.477C21.2422 148.826 21.4635 149.247 21.625 149.742C21.7865 150.237 21.8984 150.797 21.9609 151.422V152.141C21.9036 152.76 21.7917 153.318 21.625 153.812C21.4635 154.307 21.2422 154.729 20.9609 155.078C20.6849 155.427 20.3464 155.695 19.9453 155.883C19.5443 156.065 19.0755 156.156 18.5391 156.156C18.0339 156.156 17.5755 156.049 17.1641 155.836C16.7578 155.622 16.4089 155.323 16.1172 154.938C15.8255 154.552 15.6016 154.099 15.4453 153.578C15.2943 153.052 15.2188 152.482 15.2188 151.867ZM16.6641 151.703V151.867C16.6641 152.289 16.7057 152.685 16.7891 153.055C16.8776 153.424 17.0104 153.75 17.1875 154.031C17.3698 154.312 17.6016 154.534 17.8828 154.695C18.1641 154.852 18.5 154.93 18.8906 154.93C19.3698 154.93 19.7656 154.828 20.0781 154.625C20.3906 154.422 20.638 154.154 20.8203 153.82C21.0078 153.487 21.1536 153.125 21.2578 152.734V150.852C21.2005 150.565 21.112 150.289 20.9922 150.023C20.8776 149.753 20.7266 149.513 20.5391 149.305C20.3568 149.091 20.1302 148.922 19.8594 148.797C19.5885 148.672 19.2708 148.609 18.9062 148.609C18.5104 148.609 18.1693 148.693 17.8828 148.859C17.6016 149.021 17.3698 149.245 17.1875 149.531C17.0104 149.812 16.8776 150.141 16.7891 150.516C16.7057 150.885 16.6641 151.281 16.6641 151.703ZM25.9844 149.227V156H24.5312V147.547H25.9062L25.9844 149.227ZM25.6875 151.453L25.0156 151.43C25.0208 150.852 25.0964 150.318 25.2422 149.828C25.388 149.333 25.6042 148.904 25.8906 148.539C26.1771 148.174 26.5339 147.893 26.9609 147.695C27.388 147.492 27.8828 147.391 28.4453 147.391C28.8411 147.391 29.2057 147.448 29.5391 147.562C29.8724 147.672 30.1615 147.846 30.4062 148.086C30.651 148.326 30.8411 148.633 30.9766 149.008C31.112 149.383 31.1797 149.836 31.1797 150.367V156H29.7344V150.438C29.7344 149.995 29.6589 149.641 29.5078 149.375C29.362 149.109 29.1536 148.917 28.8828 148.797C28.612 148.672 28.2943 148.609 27.9297 148.609C27.5026 148.609 27.1458 148.685 26.8594 148.836C26.5729 148.987 26.3438 149.195 26.1719 149.461C26 149.727 25.875 150.031 25.7969 150.375C25.724 150.714 25.6875 151.073 25.6875 151.453ZM31.1641 150.656L30.1953 150.953C30.2005 150.49 30.276 150.044 30.4219 149.617C30.5729 149.19 30.7891 148.81 31.0703 148.477C31.3568 148.143 31.7083 147.88 32.125 147.688C32.5417 147.49 33.0182 147.391 33.5547 147.391C34.0078 147.391 34.4089 147.451 34.7578 147.57C35.112 147.69 35.4089 147.875 35.6484 148.125C35.8932 148.37 36.0781 148.685 36.2031 149.07C36.3281 149.456 36.3906 149.914 36.3906 150.445V156H34.9375V150.43C34.9375 149.956 34.862 149.589 34.7109 149.328C34.5651 149.062 34.3568 148.878 34.0859 148.773C33.8203 148.664 33.5026 148.609 33.1328 148.609C32.8151 148.609 32.5339 148.664 32.2891 148.773C32.0443 148.883 31.8385 149.034 31.6719 149.227C31.5052 149.414 31.3776 149.63 31.2891 149.875C31.2057 150.12 31.1641 150.38 31.1641 150.656ZM43.5625 154.555V150.203C43.5625 149.87 43.4948 149.581 43.3594 149.336C43.2292 149.086 43.0312 148.893 42.7656 148.758C42.5 148.622 42.1719 148.555 41.7812 148.555C41.4167 148.555 41.0964 148.617 40.8203 148.742C40.5495 148.867 40.3359 149.031 40.1797 149.234C40.0286 149.438 39.9531 149.656 39.9531 149.891H38.5078C38.5078 149.589 38.5859 149.289 38.7422 148.992C38.8984 148.695 39.1224 148.427 39.4141 148.188C39.7109 147.943 40.0651 147.75 40.4766 147.609C40.8932 147.464 41.3568 147.391 41.8672 147.391C42.4818 147.391 43.0234 147.495 43.4922 147.703C43.9661 147.911 44.3359 148.227 44.6016 148.648C44.8724 149.065 45.0078 149.589 45.0078 150.219V154.156C45.0078 154.438 45.0312 154.737 45.0781 155.055C45.1302 155.372 45.2057 155.646 45.3047 155.875V156H43.7969C43.724 155.833 43.6667 155.612 43.625 155.336C43.5833 155.055 43.5625 154.794 43.5625 154.555ZM43.8125 150.875L43.8281 151.891H42.3672C41.9557 151.891 41.5885 151.924 41.2656 151.992C40.9427 152.055 40.6719 152.151 40.4531 152.281C40.2344 152.411 40.0677 152.576 39.9531 152.773C39.8385 152.966 39.7812 153.193 39.7812 153.453C39.7812 153.719 39.8411 153.961 39.9609 154.18C40.0807 154.398 40.2604 154.573 40.5 154.703C40.7448 154.828 41.0443 154.891 41.3984 154.891C41.8411 154.891 42.2318 154.797 42.5703 154.609C42.9089 154.422 43.1771 154.193 43.375 153.922C43.5781 153.651 43.6875 153.388 43.7031 153.133L44.3203 153.828C44.2839 154.047 44.1849 154.289 44.0234 154.555C43.862 154.82 43.6458 155.076 43.375 155.32C43.1094 155.56 42.7917 155.76 42.4219 155.922C42.0573 156.078 41.6458 156.156 41.1875 156.156C40.6146 156.156 40.112 156.044 39.6797 155.82C39.2526 155.596 38.9193 155.297 38.6797 154.922C38.4453 154.542 38.3281 154.117 38.3281 153.648C38.3281 153.195 38.4167 152.797 38.5938 152.453C38.7708 152.104 39.026 151.815 39.3594 151.586C39.6927 151.352 40.0938 151.174 40.5625 151.055C41.0312 150.935 41.5547 150.875 42.1328 150.875H43.8125ZM52.6953 149.172V159.25H51.2422V147.547H52.5703L52.6953 149.172ZM58.3906 151.703V151.867C58.3906 152.482 58.3177 153.052 58.1719 153.578C58.026 154.099 57.8125 154.552 57.5312 154.938C57.2552 155.323 56.9141 155.622 56.5078 155.836C56.1016 156.049 55.6354 156.156 55.1094 156.156C54.5729 156.156 54.099 156.068 53.6875 155.891C53.276 155.714 52.9271 155.456 52.6406 155.117C52.3542 154.779 52.125 154.372 51.9531 153.898C51.7865 153.424 51.6719 152.891 51.6094 152.297V151.422C51.6719 150.797 51.7891 150.237 51.9609 149.742C52.1328 149.247 52.3594 148.826 52.6406 148.477C52.9271 148.122 53.2734 147.854 53.6797 147.672C54.0859 147.484 54.5547 147.391 55.0859 147.391C55.6172 147.391 56.0885 147.495 56.5 147.703C56.9115 147.906 57.2578 148.198 57.5391 148.578C57.8203 148.958 58.0312 149.414 58.1719 149.945C58.3177 150.471 58.3906 151.057 58.3906 151.703ZM56.9375 151.867V151.703C56.9375 151.281 56.8932 150.885 56.8047 150.516C56.7161 150.141 56.5781 149.812 56.3906 149.531C56.2083 149.245 55.974 149.021 55.6875 148.859C55.401 148.693 55.0599 148.609 54.6641 148.609C54.2995 148.609 53.9818 148.672 53.7109 148.797C53.4453 148.922 53.2188 149.091 53.0312 149.305C52.8438 149.513 52.6901 149.753 52.5703 150.023C52.4557 150.289 52.3698 150.565 52.3125 150.852V152.875C52.4167 153.24 52.5625 153.583 52.75 153.906C52.9375 154.224 53.1875 154.482 53.5 154.68C53.8125 154.872 54.2057 154.969 54.6797 154.969C55.0703 154.969 55.4062 154.888 55.6875 154.727C55.974 154.56 56.2083 154.333 56.3906 154.047C56.5781 153.76 56.7161 153.432 56.8047 153.062C56.8932 152.688 56.9375 152.289 56.9375 151.867ZM61.6797 148.875V156H60.2344V147.547H61.6406L61.6797 148.875ZM64.3203 147.5L64.3125 148.844C64.1927 148.818 64.0781 148.802 63.9688 148.797C63.8646 148.786 63.7448 148.781 63.6094 148.781C63.276 148.781 62.9818 148.833 62.7266 148.938C62.4714 149.042 62.2552 149.188 62.0781 149.375C61.901 149.562 61.7604 149.786 61.6562 150.047C61.5573 150.302 61.4922 150.583 61.4609 150.891L61.0547 151.125C61.0547 150.615 61.1042 150.135 61.2031 149.688C61.3073 149.24 61.4661 148.844 61.6797 148.5C61.8932 148.151 62.1641 147.88 62.4922 147.688C62.8255 147.49 63.2214 147.391 63.6797 147.391C63.7839 147.391 63.9036 147.404 64.0391 147.43C64.1745 147.451 64.2682 147.474 64.3203 147.5ZM65.1172 151.867V151.688C65.1172 151.078 65.2057 150.513 65.3828 149.992C65.5599 149.466 65.8151 149.01 66.1484 148.625C66.4818 148.234 66.8854 147.932 67.3594 147.719C67.8333 147.5 68.3646 147.391 68.9531 147.391C69.5469 147.391 70.0807 147.5 70.5547 147.719C71.0339 147.932 71.4401 148.234 71.7734 148.625C72.112 149.01 72.3698 149.466 72.5469 149.992C72.724 150.513 72.8125 151.078 72.8125 151.688V151.867C72.8125 152.477 72.724 153.042 72.5469 153.562C72.3698 154.083 72.112 154.539 71.7734 154.93C71.4401 155.315 71.0365 155.617 70.5625 155.836C70.0938 156.049 69.5625 156.156 68.9688 156.156C68.375 156.156 67.8411 156.049 67.3672 155.836C66.8932 155.617 66.487 155.315 66.1484 154.93C65.8151 154.539 65.5599 154.083 65.3828 153.562C65.2057 153.042 65.1172 152.477 65.1172 151.867ZM66.5625 151.688V151.867C66.5625 152.289 66.612 152.688 66.7109 153.062C66.8099 153.432 66.9583 153.76 67.1562 154.047C67.3594 154.333 67.612 154.56 67.9141 154.727C68.2161 154.888 68.5677 154.969 68.9688 154.969C69.3646 154.969 69.7109 154.888 70.0078 154.727C70.3099 154.56 70.5599 154.333 70.7578 154.047C70.9557 153.76 71.1042 153.432 71.2031 153.062C71.3073 152.688 71.3594 152.289 71.3594 151.867V151.688C71.3594 151.271 71.3073 150.878 71.2031 150.508C71.1042 150.133 70.9531 149.802 70.75 149.516C70.5521 149.224 70.3021 148.995 70 148.828C69.7031 148.661 69.3542 148.578 68.9531 148.578C68.5573 148.578 68.2083 148.661 67.9062 148.828C67.6094 148.995 67.3594 149.224 67.1562 149.516C66.9583 149.802 66.8099 150.133 66.7109 150.508C66.612 150.878 66.5625 151.271 66.5625 151.688ZM74.6641 147.547H76.1172V157.008C76.1172 157.523 76.0339 157.961 75.8672 158.32C75.7057 158.68 75.4609 158.951 75.1328 159.133C74.8099 159.32 74.401 159.414 73.9062 159.414C73.776 159.414 73.625 159.401 73.4531 159.375C73.276 159.349 73.1276 159.318 73.0078 159.281L73.0156 158.117C73.1146 158.138 73.2266 158.154 73.3516 158.164C73.4766 158.18 73.5859 158.188 73.6797 158.188C73.8932 158.188 74.0729 158.148 74.2188 158.07C74.3646 157.992 74.474 157.867 74.5469 157.695C74.625 157.523 74.6641 157.294 74.6641 157.008V147.547ZM74.5156 145.305C74.5156 145.07 74.5885 144.872 74.7344 144.711C74.8802 144.549 75.0911 144.469 75.3672 144.469C75.6484 144.469 75.862 144.549 76.0078 144.711C76.1536 144.872 76.2266 145.07 76.2266 145.305C76.2266 145.529 76.1536 145.721 76.0078 145.883C75.862 146.039 75.6484 146.117 75.3672 146.117C75.0911 146.117 74.8802 146.039 74.7344 145.883C74.5885 145.721 74.5156 145.529 74.5156 145.305ZM81.9609 156.156C81.3724 156.156 80.8385 156.057 80.3594 155.859C79.8854 155.656 79.4766 155.372 79.1328 155.008C78.7943 154.643 78.5339 154.211 78.3516 153.711C78.1693 153.211 78.0781 152.664 78.0781 152.07V151.742C78.0781 151.055 78.1797 150.443 78.3828 149.906C78.5859 149.365 78.862 148.906 79.2109 148.531C79.5599 148.156 79.9557 147.872 80.3984 147.68C80.8411 147.487 81.2995 147.391 81.7734 147.391C82.3776 147.391 82.8984 147.495 83.3359 147.703C83.7786 147.911 84.1406 148.203 84.4219 148.578C84.7031 148.948 84.9115 149.385 85.0469 149.891C85.1823 150.391 85.25 150.938 85.25 151.531V152.18H78.9375V151H83.8047V150.891C83.7839 150.516 83.7057 150.151 83.5703 149.797C83.4401 149.443 83.2318 149.151 82.9453 148.922C82.6589 148.693 82.2682 148.578 81.7734 148.578C81.4453 148.578 81.1432 148.648 80.8672 148.789C80.5911 148.924 80.3542 149.128 80.1562 149.398C79.9583 149.669 79.8047 150 79.6953 150.391C79.5859 150.781 79.5312 151.232 79.5312 151.742V152.07C79.5312 152.471 79.5859 152.849 79.6953 153.203C79.8099 153.552 79.974 153.859 80.1875 154.125C80.4062 154.391 80.6693 154.599 80.9766 154.75C81.2891 154.901 81.6432 154.977 82.0391 154.977C82.5495 154.977 82.9818 154.872 83.3359 154.664C83.6901 154.456 84 154.177 84.2656 153.828L85.1406 154.523C84.9583 154.799 84.7266 155.062 84.4453 155.312C84.1641 155.562 83.8177 155.766 83.4062 155.922C83 156.078 82.5182 156.156 81.9609 156.156ZM90.3203 154.969C90.6641 154.969 90.9818 154.898 91.2734 154.758C91.5651 154.617 91.8047 154.424 91.9922 154.18C92.1797 153.93 92.2865 153.646 92.3125 153.328H93.6875C93.6615 153.828 93.4922 154.294 93.1797 154.727C92.8724 155.154 92.4688 155.5 91.9688 155.766C91.4688 156.026 90.9193 156.156 90.3203 156.156C89.6849 156.156 89.1302 156.044 88.6562 155.82C88.1875 155.596 87.7969 155.289 87.4844 154.898C87.1771 154.508 86.9453 154.06 86.7891 153.555C86.638 153.044 86.5625 152.505 86.5625 151.938V151.609C86.5625 151.042 86.638 150.505 86.7891 150C86.9453 149.49 87.1771 149.039 87.4844 148.648C87.7969 148.258 88.1875 147.951 88.6562 147.727C89.1302 147.503 89.6849 147.391 90.3203 147.391C90.9818 147.391 91.5599 147.526 92.0547 147.797C92.5495 148.062 92.9375 148.427 93.2188 148.891C93.5052 149.349 93.6615 149.87 93.6875 150.453H92.3125C92.2865 150.104 92.1875 149.789 92.0156 149.508C91.849 149.227 91.6198 149.003 91.3281 148.836C91.0417 148.664 90.7057 148.578 90.3203 148.578C89.8776 148.578 89.5052 148.667 89.2031 148.844C88.9062 149.016 88.6693 149.25 88.4922 149.547C88.3203 149.839 88.1953 150.164 88.1172 150.523C88.0443 150.878 88.0078 151.24 88.0078 151.609V151.938C88.0078 152.307 88.0443 152.672 88.1172 153.031C88.1901 153.391 88.3125 153.716 88.4844 154.008C88.6615 154.299 88.8984 154.534 89.1953 154.711C89.4974 154.883 89.8724 154.969 90.3203 154.969ZM98.8516 147.547V148.656H94.2812V147.547H98.8516ZM95.8281 145.492H97.2734V153.906C97.2734 154.193 97.3177 154.409 97.4062 154.555C97.4948 154.701 97.6094 154.797 97.75 154.844C97.8906 154.891 98.0417 154.914 98.2031 154.914C98.3229 154.914 98.4479 154.904 98.5781 154.883C98.7135 154.857 98.8151 154.836 98.8828 154.82L98.8906 156C98.776 156.036 98.625 156.07 98.4375 156.102C98.2552 156.138 98.0339 156.156 97.7734 156.156C97.4193 156.156 97.0938 156.086 96.7969 155.945C96.5 155.805 96.263 155.57 96.0859 155.242C95.9141 154.909 95.8281 154.461 95.8281 153.898V145.492ZM106.672 156H105.227V146.656C105.227 146.047 105.336 145.534 105.555 145.117C105.779 144.695 106.099 144.378 106.516 144.164C106.932 143.945 107.427 143.836 108 143.836C108.167 143.836 108.333 143.846 108.5 143.867C108.672 143.888 108.839 143.919 109 143.961L108.922 145.141C108.812 145.115 108.688 145.096 108.547 145.086C108.411 145.076 108.276 145.07 108.141 145.07C107.833 145.07 107.568 145.133 107.344 145.258C107.125 145.378 106.958 145.555 106.844 145.789C106.729 146.023 106.672 146.312 106.672 146.656V156ZM108.469 147.547V148.656H103.891V147.547H108.469ZM109.695 151.867V151.688C109.695 151.078 109.784 150.513 109.961 149.992C110.138 149.466 110.393 149.01 110.727 148.625C111.06 148.234 111.464 147.932 111.938 147.719C112.411 147.5 112.943 147.391 113.531 147.391C114.125 147.391 114.659 147.5 115.133 147.719C115.612 147.932 116.018 148.234 116.352 148.625C116.69 149.01 116.948 149.466 117.125 149.992C117.302 150.513 117.391 151.078 117.391 151.688V151.867C117.391 152.477 117.302 153.042 117.125 153.562C116.948 154.083 116.69 154.539 116.352 154.93C116.018 155.315 115.615 155.617 115.141 155.836C114.672 156.049 114.141 156.156 113.547 156.156C112.953 156.156 112.419 156.049 111.945 155.836C111.471 155.617 111.065 155.315 110.727 154.93C110.393 154.539 110.138 154.083 109.961 153.562C109.784 153.042 109.695 152.477 109.695 151.867ZM111.141 151.688V151.867C111.141 152.289 111.19 152.688 111.289 153.062C111.388 153.432 111.536 153.76 111.734 154.047C111.938 154.333 112.19 154.56 112.492 154.727C112.794 154.888 113.146 154.969 113.547 154.969C113.943 154.969 114.289 154.888 114.586 154.727C114.888 154.56 115.138 154.333 115.336 154.047C115.534 153.76 115.682 153.432 115.781 153.062C115.885 152.688 115.938 152.289 115.938 151.867V151.688C115.938 151.271 115.885 150.878 115.781 150.508C115.682 150.133 115.531 149.802 115.328 149.516C115.13 149.224 114.88 148.995 114.578 148.828C114.281 148.661 113.932 148.578 113.531 148.578C113.135 148.578 112.786 148.661 112.484 148.828C112.188 148.995 111.938 149.224 111.734 149.516C111.536 149.802 111.388 150.133 111.289 150.508C111.19 150.878 111.141 151.271 111.141 151.688ZM120.648 148.875V156H119.203V147.547H120.609L120.648 148.875ZM123.289 147.5L123.281 148.844C123.161 148.818 123.047 148.802 122.938 148.797C122.833 148.786 122.714 148.781 122.578 148.781C122.245 148.781 121.951 148.833 121.695 148.938C121.44 149.042 121.224 149.188 121.047 149.375C120.87 149.562 120.729 149.786 120.625 150.047C120.526 150.302 120.461 150.583 120.43 150.891L120.023 151.125C120.023 150.615 120.073 150.135 120.172 149.688C120.276 149.24 120.435 148.844 120.648 148.5C120.862 148.151 121.133 147.88 121.461 147.688C121.794 147.49 122.19 147.391 122.648 147.391C122.753 147.391 122.872 147.404 123.008 147.43C123.143 147.451 123.237 147.474 123.289 147.5ZM133.578 154.555V150.203C133.578 149.87 133.51 149.581 133.375 149.336C133.245 149.086 133.047 148.893 132.781 148.758C132.516 148.622 132.188 148.555 131.797 148.555C131.432 148.555 131.112 148.617 130.836 148.742C130.565 148.867 130.352 149.031 130.195 149.234C130.044 149.438 129.969 149.656 129.969 149.891H128.523C128.523 149.589 128.602 149.289 128.758 148.992C128.914 148.695 129.138 148.427 129.43 148.188C129.727 147.943 130.081 147.75 130.492 147.609C130.909 147.464 131.372 147.391 131.883 147.391C132.497 147.391 133.039 147.495 133.508 147.703C133.982 147.911 134.352 148.227 134.617 148.648C134.888 149.065 135.023 149.589 135.023 150.219V154.156C135.023 154.438 135.047 154.737 135.094 155.055C135.146 155.372 135.221 155.646 135.32 155.875V156H133.812C133.74 155.833 133.682 155.612 133.641 155.336C133.599 155.055 133.578 154.794 133.578 154.555ZM133.828 150.875L133.844 151.891H132.383C131.971 151.891 131.604 151.924 131.281 151.992C130.958 152.055 130.688 152.151 130.469 152.281C130.25 152.411 130.083 152.576 129.969 152.773C129.854 152.966 129.797 153.193 129.797 153.453C129.797 153.719 129.857 153.961 129.977 154.18C130.096 154.398 130.276 154.573 130.516 154.703C130.76 154.828 131.06 154.891 131.414 154.891C131.857 154.891 132.247 154.797 132.586 154.609C132.924 154.422 133.193 154.193 133.391 153.922C133.594 153.651 133.703 153.388 133.719 153.133L134.336 153.828C134.299 154.047 134.201 154.289 134.039 154.555C133.878 154.82 133.661 155.076 133.391 155.32C133.125 155.56 132.807 155.76 132.438 155.922C132.073 156.078 131.661 156.156 131.203 156.156C130.63 156.156 130.128 156.044 129.695 155.82C129.268 155.596 128.935 155.297 128.695 154.922C128.461 154.542 128.344 154.117 128.344 153.648C128.344 153.195 128.432 152.797 128.609 152.453C128.786 152.104 129.042 151.815 129.375 151.586C129.708 151.352 130.109 151.174 130.578 151.055C131.047 150.935 131.57 150.875 132.148 150.875H133.828ZM146.258 152.68V144.625H147.758V152.68C147.758 153.43 147.604 154.062 147.297 154.578C146.99 155.094 146.565 155.487 146.023 155.758C145.487 156.023 144.87 156.156 144.172 156.156C143.474 156.156 142.854 156.036 142.312 155.797C141.771 155.557 141.346 155.193 141.039 154.703C140.732 154.214 140.578 153.596 140.578 152.852H142.086C142.086 153.331 142.174 153.724 142.352 154.031C142.529 154.339 142.773 154.565 143.086 154.711C143.404 154.857 143.766 154.93 144.172 154.93C144.568 154.93 144.922 154.846 145.234 154.68C145.552 154.508 145.802 154.255 145.984 153.922C146.167 153.583 146.258 153.169 146.258 152.68ZM155.078 154.555V150.203C155.078 149.87 155.01 149.581 154.875 149.336C154.745 149.086 154.547 148.893 154.281 148.758C154.016 148.622 153.688 148.555 153.297 148.555C152.932 148.555 152.612 148.617 152.336 148.742C152.065 148.867 151.852 149.031 151.695 149.234C151.544 149.438 151.469 149.656 151.469 149.891H150.023C150.023 149.589 150.102 149.289 150.258 148.992C150.414 148.695 150.638 148.427 150.93 148.188C151.227 147.943 151.581 147.75 151.992 147.609C152.409 147.464 152.872 147.391 153.383 147.391C153.997 147.391 154.539 147.495 155.008 147.703C155.482 147.911 155.852 148.227 156.117 148.648C156.388 149.065 156.523 149.589 156.523 150.219V154.156C156.523 154.438 156.547 154.737 156.594 155.055C156.646 155.372 156.721 155.646 156.82 155.875V156H155.312C155.24 155.833 155.182 155.612 155.141 155.336C155.099 155.055 155.078 154.794 155.078 154.555ZM155.328 150.875L155.344 151.891H153.883C153.471 151.891 153.104 151.924 152.781 151.992C152.458 152.055 152.188 152.151 151.969 152.281C151.75 152.411 151.583 152.576 151.469 152.773C151.354 152.966 151.297 153.193 151.297 153.453C151.297 153.719 151.357 153.961 151.477 154.18C151.596 154.398 151.776 154.573 152.016 154.703C152.26 154.828 152.56 154.891 152.914 154.891C153.357 154.891 153.747 154.797 154.086 154.609C154.424 154.422 154.693 154.193 154.891 153.922C155.094 153.651 155.203 153.388 155.219 153.133L155.836 153.828C155.799 154.047 155.701 154.289 155.539 154.555C155.378 154.82 155.161 155.076 154.891 155.32C154.625 155.56 154.307 155.76 153.938 155.922C153.573 156.078 153.161 156.156 152.703 156.156C152.13 156.156 151.628 156.044 151.195 155.82C150.768 155.596 150.435 155.297 150.195 154.922C149.961 154.542 149.844 154.117 149.844 153.648C149.844 153.195 149.932 152.797 150.109 152.453C150.286 152.104 150.542 151.815 150.875 151.586C151.208 151.352 151.609 151.174 152.078 151.055C152.547 150.935 153.07 150.875 153.648 150.875H155.328ZM160.242 149.172V159.25H158.789V147.547H160.117L160.242 149.172ZM165.938 151.703V151.867C165.938 152.482 165.865 153.052 165.719 153.578C165.573 154.099 165.359 154.552 165.078 154.938C164.802 155.323 164.461 155.622 164.055 155.836C163.648 156.049 163.182 156.156 162.656 156.156C162.12 156.156 161.646 156.068 161.234 155.891C160.823 155.714 160.474 155.456 160.188 155.117C159.901 154.779 159.672 154.372 159.5 153.898C159.333 153.424 159.219 152.891 159.156 152.297V151.422C159.219 150.797 159.336 150.237 159.508 149.742C159.68 149.247 159.906 148.826 160.188 148.477C160.474 148.122 160.82 147.854 161.227 147.672C161.633 147.484 162.102 147.391 162.633 147.391C163.164 147.391 163.635 147.495 164.047 147.703C164.458 147.906 164.805 148.198 165.086 148.578C165.367 148.958 165.578 149.414 165.719 149.945C165.865 150.471 165.938 151.057 165.938 151.703ZM164.484 151.867V151.703C164.484 151.281 164.44 150.885 164.352 150.516C164.263 150.141 164.125 149.812 163.938 149.531C163.755 149.245 163.521 149.021 163.234 148.859C162.948 148.693 162.607 148.609 162.211 148.609C161.846 148.609 161.529 148.672 161.258 148.797C160.992 148.922 160.766 149.091 160.578 149.305C160.391 149.513 160.237 149.753 160.117 150.023C160.003 150.289 159.917 150.565 159.859 150.852V152.875C159.964 153.24 160.109 153.583 160.297 153.906C160.484 154.224 160.734 154.482 161.047 154.68C161.359 154.872 161.753 154.969 162.227 154.969C162.617 154.969 162.953 154.888 163.234 154.727C163.521 154.56 163.755 154.333 163.938 154.047C164.125 153.76 164.263 153.432 164.352 153.062C164.44 152.688 164.484 152.289 164.484 151.867ZM172.766 154.555V150.203C172.766 149.87 172.698 149.581 172.562 149.336C172.432 149.086 172.234 148.893 171.969 148.758C171.703 148.622 171.375 148.555 170.984 148.555C170.62 148.555 170.299 148.617 170.023 148.742C169.753 148.867 169.539 149.031 169.383 149.234C169.232 149.438 169.156 149.656 169.156 149.891H167.711C167.711 149.589 167.789 149.289 167.945 148.992C168.102 148.695 168.326 148.427 168.617 148.188C168.914 147.943 169.268 147.75 169.68 147.609C170.096 147.464 170.56 147.391 171.07 147.391C171.685 147.391 172.227 147.495 172.695 147.703C173.169 147.911 173.539 148.227 173.805 148.648C174.076 149.065 174.211 149.589 174.211 150.219V154.156C174.211 154.438 174.234 154.737 174.281 155.055C174.333 155.372 174.409 155.646 174.508 155.875V156H173C172.927 155.833 172.87 155.612 172.828 155.336C172.786 155.055 172.766 154.794 172.766 154.555ZM173.016 150.875L173.031 151.891H171.57C171.159 151.891 170.792 151.924 170.469 151.992C170.146 152.055 169.875 152.151 169.656 152.281C169.438 152.411 169.271 152.576 169.156 152.773C169.042 152.966 168.984 153.193 168.984 153.453C168.984 153.719 169.044 153.961 169.164 154.18C169.284 154.398 169.464 154.573 169.703 154.703C169.948 154.828 170.247 154.891 170.602 154.891C171.044 154.891 171.435 154.797 171.773 154.609C172.112 154.422 172.38 154.193 172.578 153.922C172.781 153.651 172.891 153.388 172.906 153.133L173.523 153.828C173.487 154.047 173.388 154.289 173.227 154.555C173.065 154.82 172.849 155.076 172.578 155.32C172.312 155.56 171.995 155.76 171.625 155.922C171.26 156.078 170.849 156.156 170.391 156.156C169.818 156.156 169.315 156.044 168.883 155.82C168.456 155.596 168.122 155.297 167.883 154.922C167.648 154.542 167.531 154.117 167.531 153.648C167.531 153.195 167.62 152.797 167.797 152.453C167.974 152.104 168.229 151.815 168.562 151.586C168.896 151.352 169.297 151.174 169.766 151.055C170.234 150.935 170.758 150.875 171.336 150.875H173.016ZM177.93 149.352V156H176.484V147.547H177.852L177.93 149.352ZM177.586 151.453L176.984 151.43C176.99 150.852 177.076 150.318 177.242 149.828C177.409 149.333 177.643 148.904 177.945 148.539C178.247 148.174 178.607 147.893 179.023 147.695C179.445 147.492 179.911 147.391 180.422 147.391C180.839 147.391 181.214 147.448 181.547 147.562C181.88 147.672 182.164 147.849 182.398 148.094C182.638 148.339 182.82 148.656 182.945 149.047C183.07 149.432 183.133 149.904 183.133 150.461V156H181.68V150.445C181.68 150.003 181.615 149.648 181.484 149.383C181.354 149.112 181.164 148.917 180.914 148.797C180.664 148.672 180.357 148.609 179.992 148.609C179.633 148.609 179.305 148.685 179.008 148.836C178.716 148.987 178.464 149.195 178.25 149.461C178.042 149.727 177.878 150.031 177.758 150.375C177.643 150.714 177.586 151.073 177.586 151.453ZM188.836 156.156C188.247 156.156 187.714 156.057 187.234 155.859C186.76 155.656 186.352 155.372 186.008 155.008C185.669 154.643 185.409 154.211 185.227 153.711C185.044 153.211 184.953 152.664 184.953 152.07V151.742C184.953 151.055 185.055 150.443 185.258 149.906C185.461 149.365 185.737 148.906 186.086 148.531C186.435 148.156 186.831 147.872 187.273 147.68C187.716 147.487 188.174 147.391 188.648 147.391C189.253 147.391 189.773 147.495 190.211 147.703C190.654 147.911 191.016 148.203 191.297 148.578C191.578 148.948 191.786 149.385 191.922 149.891C192.057 150.391 192.125 150.938 192.125 151.531V152.18H185.812V151H190.68V150.891C190.659 150.516 190.581 150.151 190.445 149.797C190.315 149.443 190.107 149.151 189.82 148.922C189.534 148.693 189.143 148.578 188.648 148.578C188.32 148.578 188.018 148.648 187.742 148.789C187.466 148.924 187.229 149.128 187.031 149.398C186.833 149.669 186.68 150 186.57 150.391C186.461 150.781 186.406 151.232 186.406 151.742V152.07C186.406 152.471 186.461 152.849 186.57 153.203C186.685 153.552 186.849 153.859 187.062 154.125C187.281 154.391 187.544 154.599 187.852 154.75C188.164 154.901 188.518 154.977 188.914 154.977C189.424 154.977 189.857 154.872 190.211 154.664C190.565 154.456 190.875 154.177 191.141 153.828L192.016 154.523C191.833 154.799 191.602 155.062 191.32 155.312C191.039 155.562 190.693 155.766 190.281 155.922C189.875 156.078 189.393 156.156 188.836 156.156ZM198.734 153.758C198.734 153.549 198.688 153.357 198.594 153.18C198.505 152.997 198.32 152.833 198.039 152.688C197.763 152.536 197.346 152.406 196.789 152.297C196.32 152.198 195.896 152.081 195.516 151.945C195.141 151.81 194.82 151.646 194.555 151.453C194.294 151.26 194.094 151.034 193.953 150.773C193.812 150.513 193.742 150.208 193.742 149.859C193.742 149.526 193.815 149.211 193.961 148.914C194.112 148.617 194.323 148.354 194.594 148.125C194.87 147.896 195.201 147.716 195.586 147.586C195.971 147.456 196.401 147.391 196.875 147.391C197.552 147.391 198.13 147.51 198.609 147.75C199.089 147.99 199.456 148.31 199.711 148.711C199.966 149.107 200.094 149.547 200.094 150.031H198.648C198.648 149.797 198.578 149.57 198.438 149.352C198.302 149.128 198.102 148.943 197.836 148.797C197.576 148.651 197.255 148.578 196.875 148.578C196.474 148.578 196.148 148.641 195.898 148.766C195.654 148.885 195.474 149.039 195.359 149.227C195.25 149.414 195.195 149.612 195.195 149.82C195.195 149.977 195.221 150.117 195.273 150.242C195.331 150.362 195.43 150.474 195.57 150.578C195.711 150.677 195.909 150.771 196.164 150.859C196.419 150.948 196.745 151.036 197.141 151.125C197.833 151.281 198.404 151.469 198.852 151.688C199.299 151.906 199.633 152.174 199.852 152.492C200.07 152.81 200.18 153.195 200.18 153.648C200.18 154.018 200.102 154.357 199.945 154.664C199.794 154.971 199.573 155.237 199.281 155.461C198.995 155.68 198.651 155.852 198.25 155.977C197.854 156.096 197.409 156.156 196.914 156.156C196.169 156.156 195.539 156.023 195.023 155.758C194.508 155.492 194.117 155.148 193.852 154.727C193.586 154.305 193.453 153.859 193.453 153.391H194.906C194.927 153.786 195.042 154.102 195.25 154.336C195.458 154.565 195.714 154.729 196.016 154.828C196.318 154.922 196.617 154.969 196.914 154.969C197.31 154.969 197.641 154.917 197.906 154.812C198.177 154.708 198.383 154.565 198.523 154.383C198.664 154.201 198.734 153.992 198.734 153.758ZM205.586 156.156C204.997 156.156 204.464 156.057 203.984 155.859C203.51 155.656 203.102 155.372 202.758 155.008C202.419 154.643 202.159 154.211 201.977 153.711C201.794 153.211 201.703 152.664 201.703 152.07V151.742C201.703 151.055 201.805 150.443 202.008 149.906C202.211 149.365 202.487 148.906 202.836 148.531C203.185 148.156 203.581 147.872 204.023 147.68C204.466 147.487 204.924 147.391 205.398 147.391C206.003 147.391 206.523 147.495 206.961 147.703C207.404 147.911 207.766 148.203 208.047 148.578C208.328 148.948 208.536 149.385 208.672 149.891C208.807 150.391 208.875 150.938 208.875 151.531V152.18H202.562V151H207.43V150.891C207.409 150.516 207.331 150.151 207.195 149.797C207.065 149.443 206.857 149.151 206.57 148.922C206.284 148.693 205.893 148.578 205.398 148.578C205.07 148.578 204.768 148.648 204.492 148.789C204.216 148.924 203.979 149.128 203.781 149.398C203.583 149.669 203.43 150 203.32 150.391C203.211 150.781 203.156 151.232 203.156 151.742V152.07C203.156 152.471 203.211 152.849 203.32 153.203C203.435 153.552 203.599 153.859 203.812 154.125C204.031 154.391 204.294 154.599 204.602 154.75C204.914 154.901 205.268 154.977 205.664 154.977C206.174 154.977 206.607 154.872 206.961 154.664C207.315 154.456 207.625 154.177 207.891 153.828L208.766 154.523C208.583 154.799 208.352 155.062 208.07 155.312C207.789 155.562 207.443 155.766 207.031 155.922C206.625 156.078 206.143 156.156 205.586 156.156ZM216.688 156H215.242V146.656C215.242 146.047 215.352 145.534 215.57 145.117C215.794 144.695 216.115 144.378 216.531 144.164C216.948 143.945 217.443 143.836 218.016 143.836C218.182 143.836 218.349 143.846 218.516 143.867C218.688 143.888 218.854 143.919 219.016 143.961L218.938 145.141C218.828 145.115 218.703 145.096 218.562 145.086C218.427 145.076 218.292 145.07 218.156 145.07C217.849 145.07 217.583 145.133 217.359 145.258C217.141 145.378 216.974 145.555 216.859 145.789C216.745 146.023 216.688 146.312 216.688 146.656V156ZM218.484 147.547V148.656H213.906V147.547H218.484ZM219.711 151.867V151.688C219.711 151.078 219.799 150.513 219.977 149.992C220.154 149.466 220.409 149.01 220.742 148.625C221.076 148.234 221.479 147.932 221.953 147.719C222.427 147.5 222.958 147.391 223.547 147.391C224.141 147.391 224.674 147.5 225.148 147.719C225.628 147.932 226.034 148.234 226.367 148.625C226.706 149.01 226.964 149.466 227.141 149.992C227.318 150.513 227.406 151.078 227.406 151.688V151.867C227.406 152.477 227.318 153.042 227.141 153.562C226.964 154.083 226.706 154.539 226.367 154.93C226.034 155.315 225.63 155.617 225.156 155.836C224.688 156.049 224.156 156.156 223.562 156.156C222.969 156.156 222.435 156.049 221.961 155.836C221.487 155.617 221.081 155.315 220.742 154.93C220.409 154.539 220.154 154.083 219.977 153.562C219.799 153.042 219.711 152.477 219.711 151.867ZM221.156 151.688V151.867C221.156 152.289 221.206 152.688 221.305 153.062C221.404 153.432 221.552 153.76 221.75 154.047C221.953 154.333 222.206 154.56 222.508 154.727C222.81 154.888 223.161 154.969 223.562 154.969C223.958 154.969 224.305 154.888 224.602 154.727C224.904 154.56 225.154 154.333 225.352 154.047C225.549 153.76 225.698 153.432 225.797 153.062C225.901 152.688 225.953 152.289 225.953 151.867V151.688C225.953 151.271 225.901 150.878 225.797 150.508C225.698 150.133 225.547 149.802 225.344 149.516C225.146 149.224 224.896 148.995 224.594 148.828C224.297 148.661 223.948 148.578 223.547 148.578C223.151 148.578 222.802 148.661 222.5 148.828C222.203 148.995 221.953 149.224 221.75 149.516C221.552 149.802 221.404 150.133 221.305 150.508C221.206 150.878 221.156 151.271 221.156 151.688ZM228.836 151.867V151.688C228.836 151.078 228.924 150.513 229.102 149.992C229.279 149.466 229.534 149.01 229.867 148.625C230.201 148.234 230.604 147.932 231.078 147.719C231.552 147.5 232.083 147.391 232.672 147.391C233.266 147.391 233.799 147.5 234.273 147.719C234.753 147.932 235.159 148.234 235.492 148.625C235.831 149.01 236.089 149.466 236.266 149.992C236.443 150.513 236.531 151.078 236.531 151.688V151.867C236.531 152.477 236.443 153.042 236.266 153.562C236.089 154.083 235.831 154.539 235.492 154.93C235.159 155.315 234.755 155.617 234.281 155.836C233.812 156.049 233.281 156.156 232.688 156.156C232.094 156.156 231.56 156.049 231.086 155.836C230.612 155.617 230.206 155.315 229.867 154.93C229.534 154.539 229.279 154.083 229.102 153.562C228.924 153.042 228.836 152.477 228.836 151.867ZM230.281 151.688V151.867C230.281 152.289 230.331 152.688 230.43 153.062C230.529 153.432 230.677 153.76 230.875 154.047C231.078 154.333 231.331 154.56 231.633 154.727C231.935 154.888 232.286 154.969 232.688 154.969C233.083 154.969 233.43 154.888 233.727 154.727C234.029 154.56 234.279 154.333 234.477 154.047C234.674 153.76 234.823 153.432 234.922 153.062C235.026 152.688 235.078 152.289 235.078 151.867V151.688C235.078 151.271 235.026 150.878 234.922 150.508C234.823 150.133 234.672 149.802 234.469 149.516C234.271 149.224 234.021 148.995 233.719 148.828C233.422 148.661 233.073 148.578 232.672 148.578C232.276 148.578 231.927 148.661 231.625 148.828C231.328 148.995 231.078 149.224 230.875 149.516C230.677 149.802 230.529 150.133 230.43 150.508C230.331 150.878 230.281 151.271 230.281 151.688ZM243.672 154.359V144H245.125V156H243.797L243.672 154.359ZM237.984 151.867V151.703C237.984 151.057 238.062 150.471 238.219 149.945C238.38 149.414 238.607 148.958 238.898 148.578C239.195 148.198 239.547 147.906 239.953 147.703C240.365 147.495 240.823 147.391 241.328 147.391C241.859 147.391 242.323 147.484 242.719 147.672C243.12 147.854 243.458 148.122 243.734 148.477C244.016 148.826 244.237 149.247 244.398 149.742C244.56 150.237 244.672 150.797 244.734 151.422V152.141C244.677 152.76 244.565 153.318 244.398 153.812C244.237 154.307 244.016 154.729 243.734 155.078C243.458 155.427 243.12 155.695 242.719 155.883C242.318 156.065 241.849 156.156 241.312 156.156C240.818 156.156 240.365 156.049 239.953 155.836C239.547 155.622 239.195 155.323 238.898 154.938C238.607 154.552 238.38 154.099 238.219 153.578C238.062 153.052 237.984 152.482 237.984 151.867ZM239.438 151.703V151.867C239.438 152.289 239.479 152.685 239.562 153.055C239.651 153.424 239.786 153.75 239.969 154.031C240.151 154.312 240.383 154.534 240.664 154.695C240.945 154.852 241.281 154.93 241.672 154.93C242.151 154.93 242.544 154.828 242.852 154.625C243.164 154.422 243.414 154.154 243.602 153.82C243.789 153.487 243.935 153.125 244.039 152.734V150.852C243.977 150.565 243.885 150.289 243.766 150.023C243.651 149.753 243.5 149.513 243.312 149.305C243.13 149.091 242.904 148.922 242.633 148.797C242.367 148.672 242.052 148.609 241.688 148.609C241.292 148.609 240.951 148.693 240.664 148.859C240.383 149.021 240.151 149.245 239.969 149.531C239.786 149.812 239.651 150.141 239.562 150.516C239.479 150.885 239.438 151.281 239.438 151.703ZM87.8281 175.359V165H89.2812V177H87.9531L87.8281 175.359ZM82.1406 172.867V172.703C82.1406 172.057 82.2188 171.471 82.375 170.945C82.5365 170.414 82.763 169.958 83.0547 169.578C83.3516 169.198 83.7031 168.906 84.1094 168.703C84.5208 168.495 84.9792 168.391 85.4844 168.391C86.0156 168.391 86.4792 168.484 86.875 168.672C87.276 168.854 87.6146 169.122 87.8906 169.477C88.1719 169.826 88.3932 170.247 88.5547 170.742C88.7161 171.237 88.8281 171.797 88.8906 172.422V173.141C88.8333 173.76 88.7214 174.318 88.5547 174.812C88.3932 175.307 88.1719 175.729 87.8906 176.078C87.6146 176.427 87.276 176.695 86.875 176.883C86.474 177.065 86.0052 177.156 85.4688 177.156C84.974 177.156 84.5208 177.049 84.1094 176.836C83.7031 176.622 83.3516 176.323 83.0547 175.938C82.763 175.552 82.5365 175.099 82.375 174.578C82.2188 174.052 82.1406 173.482 82.1406 172.867ZM83.5938 172.703V172.867C83.5938 173.289 83.6354 173.685 83.7188 174.055C83.8073 174.424 83.9427 174.75 84.125 175.031C84.3073 175.312 84.5391 175.534 84.8203 175.695C85.1016 175.852 85.4375 175.93 85.8281 175.93C86.3073 175.93 86.7005 175.828 87.0078 175.625C87.3203 175.422 87.5703 175.154 87.7578 174.82C87.9453 174.487 88.0911 174.125 88.1953 173.734V171.852C88.1328 171.565 88.0417 171.289 87.9219 171.023C87.8073 170.753 87.6562 170.513 87.4688 170.305C87.2865 170.091 87.0599 169.922 86.7891 169.797C86.5234 169.672 86.2083 169.609 85.8438 169.609C85.4479 169.609 85.1068 169.693 84.8203 169.859C84.5391 170.021 84.3073 170.245 84.125 170.531C83.9427 170.812 83.8073 171.141 83.7188 171.516C83.6354 171.885 83.5938 172.281 83.5938 172.703ZM95.0391 177.156C94.4505 177.156 93.9167 177.057 93.4375 176.859C92.9635 176.656 92.5547 176.372 92.2109 176.008C91.8724 175.643 91.612 175.211 91.4297 174.711C91.2474 174.211 91.1562 173.664 91.1562 173.07V172.742C91.1562 172.055 91.2578 171.443 91.4609 170.906C91.6641 170.365 91.9401 169.906 92.2891 169.531C92.638 169.156 93.0339 168.872 93.4766 168.68C93.9193 168.487 94.3776 168.391 94.8516 168.391C95.4557 168.391 95.9766 168.495 96.4141 168.703C96.8568 168.911 97.2188 169.203 97.5 169.578C97.7812 169.948 97.9896 170.385 98.125 170.891C98.2604 171.391 98.3281 171.938 98.3281 172.531V173.18H92.0156V172H96.8828V171.891C96.862 171.516 96.7839 171.151 96.6484 170.797C96.5182 170.443 96.3099 170.151 96.0234 169.922C95.737 169.693 95.3464 169.578 94.8516 169.578C94.5234 169.578 94.2214 169.648 93.9453 169.789C93.6693 169.924 93.4323 170.128 93.2344 170.398C93.0365 170.669 92.8828 171 92.7734 171.391C92.6641 171.781 92.6094 172.232 92.6094 172.742V173.07C92.6094 173.471 92.6641 173.849 92.7734 174.203C92.888 174.552 93.0521 174.859 93.2656 175.125C93.4844 175.391 93.7474 175.599 94.0547 175.75C94.3672 175.901 94.7214 175.977 95.1172 175.977C95.6276 175.977 96.0599 175.872 96.4141 175.664C96.7682 175.456 97.0781 175.177 97.3438 174.828L98.2188 175.523C98.0365 175.799 97.8047 176.062 97.5234 176.312C97.2422 176.562 96.8958 176.766 96.4844 176.922C96.0781 177.078 95.5964 177.156 95.0391 177.156ZM101.586 165V177H100.133V165H101.586ZM105.477 168.547V177H104.023V168.547H105.477ZM103.914 166.305C103.914 166.07 103.984 165.872 104.125 165.711C104.271 165.549 104.484 165.469 104.766 165.469C105.042 165.469 105.253 165.549 105.398 165.711C105.549 165.872 105.625 166.07 105.625 166.305C105.625 166.529 105.549 166.721 105.398 166.883C105.253 167.039 105.042 167.117 104.766 167.117C104.484 167.117 104.271 167.039 104.125 166.883C103.984 166.721 103.914 166.529 103.914 166.305ZM110.367 175.695L112.68 168.547H114.156L111.117 177H110.148L110.367 175.695ZM108.438 168.547L110.82 175.734L110.984 177H110.016L106.953 168.547H108.438ZM118.945 177.156C118.357 177.156 117.823 177.057 117.344 176.859C116.87 176.656 116.461 176.372 116.117 176.008C115.779 175.643 115.518 175.211 115.336 174.711C115.154 174.211 115.062 173.664 115.062 173.07V172.742C115.062 172.055 115.164 171.443 115.367 170.906C115.57 170.365 115.846 169.906 116.195 169.531C116.544 169.156 116.94 168.872 117.383 168.68C117.826 168.487 118.284 168.391 118.758 168.391C119.362 168.391 119.883 168.495 120.32 168.703C120.763 168.911 121.125 169.203 121.406 169.578C121.688 169.948 121.896 170.385 122.031 170.891C122.167 171.391 122.234 171.938 122.234 172.531V173.18H115.922V172H120.789V171.891C120.768 171.516 120.69 171.151 120.555 170.797C120.424 170.443 120.216 170.151 119.93 169.922C119.643 169.693 119.253 169.578 118.758 169.578C118.43 169.578 118.128 169.648 117.852 169.789C117.576 169.924 117.339 170.128 117.141 170.398C116.943 170.669 116.789 171 116.68 171.391C116.57 171.781 116.516 172.232 116.516 172.742V173.07C116.516 173.471 116.57 173.849 116.68 174.203C116.794 174.552 116.958 174.859 117.172 175.125C117.391 175.391 117.654 175.599 117.961 175.75C118.273 175.901 118.628 175.977 119.023 175.977C119.534 175.977 119.966 175.872 120.32 175.664C120.674 175.456 120.984 175.177 121.25 174.828L122.125 175.523C121.943 175.799 121.711 176.062 121.43 176.312C121.148 176.562 120.802 176.766 120.391 176.922C119.984 177.078 119.503 177.156 118.945 177.156ZM125.367 169.875V177H123.922V168.547H125.328L125.367 169.875ZM128.008 168.5L128 169.844C127.88 169.818 127.766 169.802 127.656 169.797C127.552 169.786 127.432 169.781 127.297 169.781C126.964 169.781 126.669 169.833 126.414 169.938C126.159 170.042 125.943 170.188 125.766 170.375C125.589 170.562 125.448 170.786 125.344 171.047C125.245 171.302 125.18 171.583 125.148 171.891L124.742 172.125C124.742 171.615 124.792 171.135 124.891 170.688C124.995 170.24 125.154 169.844 125.367 169.5C125.581 169.151 125.852 168.88 126.18 168.688C126.513 168.49 126.909 168.391 127.367 168.391C127.471 168.391 127.591 168.404 127.727 168.43C127.862 168.451 127.956 168.474 128.008 168.5ZM131.859 176.125L134.211 168.547H135.758L132.367 178.305C132.289 178.513 132.185 178.737 132.055 178.977C131.93 179.221 131.768 179.453 131.57 179.672C131.372 179.891 131.133 180.068 130.852 180.203C130.576 180.344 130.245 180.414 129.859 180.414C129.745 180.414 129.599 180.398 129.422 180.367C129.245 180.336 129.12 180.31 129.047 180.289L129.039 179.117C129.081 179.122 129.146 179.128 129.234 179.133C129.328 179.143 129.393 179.148 129.43 179.148C129.758 179.148 130.036 179.104 130.266 179.016C130.495 178.932 130.688 178.789 130.844 178.586C131.005 178.388 131.143 178.115 131.258 177.766L131.859 176.125ZM130.133 168.547L132.328 175.109L132.703 176.633L131.664 177.164L128.555 168.547H130.133ZM146.016 175.555V171.203C146.016 170.87 145.948 170.581 145.812 170.336C145.682 170.086 145.484 169.893 145.219 169.758C144.953 169.622 144.625 169.555 144.234 169.555C143.87 169.555 143.549 169.617 143.273 169.742C143.003 169.867 142.789 170.031 142.633 170.234C142.482 170.438 142.406 170.656 142.406 170.891H140.961C140.961 170.589 141.039 170.289 141.195 169.992C141.352 169.695 141.576 169.427 141.867 169.188C142.164 168.943 142.518 168.75 142.93 168.609C143.346 168.464 143.81 168.391 144.32 168.391C144.935 168.391 145.477 168.495 145.945 168.703C146.419 168.911 146.789 169.227 147.055 169.648C147.326 170.065 147.461 170.589 147.461 171.219V175.156C147.461 175.438 147.484 175.737 147.531 176.055C147.583 176.372 147.659 176.646 147.758 176.875V177H146.25C146.177 176.833 146.12 176.612 146.078 176.336C146.036 176.055 146.016 175.794 146.016 175.555ZM146.266 171.875L146.281 172.891H144.82C144.409 172.891 144.042 172.924 143.719 172.992C143.396 173.055 143.125 173.151 142.906 173.281C142.688 173.411 142.521 173.576 142.406 173.773C142.292 173.966 142.234 174.193 142.234 174.453C142.234 174.719 142.294 174.961 142.414 175.18C142.534 175.398 142.714 175.573 142.953 175.703C143.198 175.828 143.497 175.891 143.852 175.891C144.294 175.891 144.685 175.797 145.023 175.609C145.362 175.422 145.63 175.193 145.828 174.922C146.031 174.651 146.141 174.388 146.156 174.133L146.773 174.828C146.737 175.047 146.638 175.289 146.477 175.555C146.315 175.82 146.099 176.076 145.828 176.32C145.562 176.56 145.245 176.76 144.875 176.922C144.51 177.078 144.099 177.156 143.641 177.156C143.068 177.156 142.565 177.044 142.133 176.82C141.706 176.596 141.372 176.297 141.133 175.922C140.898 175.542 140.781 175.117 140.781 174.648C140.781 174.195 140.87 173.797 141.047 173.453C141.224 173.104 141.479 172.815 141.812 172.586C142.146 172.352 142.547 172.174 143.016 172.055C143.484 171.935 144.008 171.875 144.586 171.875H146.266ZM151.18 170.172V180.25H149.727V168.547H151.055L151.18 170.172ZM156.875 172.703V172.867C156.875 173.482 156.802 174.052 156.656 174.578C156.51 175.099 156.297 175.552 156.016 175.938C155.74 176.323 155.398 176.622 154.992 176.836C154.586 177.049 154.12 177.156 153.594 177.156C153.057 177.156 152.583 177.068 152.172 176.891C151.76 176.714 151.411 176.456 151.125 176.117C150.839 175.779 150.609 175.372 150.438 174.898C150.271 174.424 150.156 173.891 150.094 173.297V172.422C150.156 171.797 150.273 171.237 150.445 170.742C150.617 170.247 150.844 169.826 151.125 169.477C151.411 169.122 151.758 168.854 152.164 168.672C152.57 168.484 153.039 168.391 153.57 168.391C154.102 168.391 154.573 168.495 154.984 168.703C155.396 168.906 155.742 169.198 156.023 169.578C156.305 169.958 156.516 170.414 156.656 170.945C156.802 171.471 156.875 172.057 156.875 172.703ZM155.422 172.867V172.703C155.422 172.281 155.378 171.885 155.289 171.516C155.201 171.141 155.062 170.812 154.875 170.531C154.693 170.245 154.458 170.021 154.172 169.859C153.885 169.693 153.544 169.609 153.148 169.609C152.784 169.609 152.466 169.672 152.195 169.797C151.93 169.922 151.703 170.091 151.516 170.305C151.328 170.513 151.174 170.753 151.055 171.023C150.94 171.289 150.854 171.565 150.797 171.852V173.875C150.901 174.24 151.047 174.583 151.234 174.906C151.422 175.224 151.672 175.482 151.984 175.68C152.297 175.872 152.69 175.969 153.164 175.969C153.555 175.969 153.891 175.888 154.172 175.727C154.458 175.56 154.693 175.333 154.875 175.047C155.062 174.76 155.201 174.432 155.289 174.062C155.378 173.688 155.422 173.289 155.422 172.867ZM160.164 170.172V180.25H158.711V168.547H160.039L160.164 170.172ZM165.859 172.703V172.867C165.859 173.482 165.786 174.052 165.641 174.578C165.495 175.099 165.281 175.552 165 175.938C164.724 176.323 164.383 176.622 163.977 176.836C163.57 177.049 163.104 177.156 162.578 177.156C162.042 177.156 161.568 177.068 161.156 176.891C160.745 176.714 160.396 176.456 160.109 176.117C159.823 175.779 159.594 175.372 159.422 174.898C159.255 174.424 159.141 173.891 159.078 173.297V172.422C159.141 171.797 159.258 171.237 159.43 170.742C159.602 170.247 159.828 169.826 160.109 169.477C160.396 169.122 160.742 168.854 161.148 168.672C161.555 168.484 162.023 168.391 162.555 168.391C163.086 168.391 163.557 168.495 163.969 168.703C164.38 168.906 164.727 169.198 165.008 169.578C165.289 169.958 165.5 170.414 165.641 170.945C165.786 171.471 165.859 172.057 165.859 172.703ZM164.406 172.867V172.703C164.406 172.281 164.362 171.885 164.273 171.516C164.185 171.141 164.047 170.812 163.859 170.531C163.677 170.245 163.443 170.021 163.156 169.859C162.87 169.693 162.529 169.609 162.133 169.609C161.768 169.609 161.451 169.672 161.18 169.797C160.914 169.922 160.688 170.091 160.5 170.305C160.312 170.513 160.159 170.753 160.039 171.023C159.924 171.289 159.839 171.565 159.781 171.852V173.875C159.885 174.24 160.031 174.583 160.219 174.906C160.406 175.224 160.656 175.482 160.969 175.68C161.281 175.872 161.674 175.969 162.148 175.969C162.539 175.969 162.875 175.888 163.156 175.727C163.443 175.56 163.677 175.333 163.859 175.047C164.047 174.76 164.185 174.432 164.273 174.062C164.362 173.688 164.406 173.289 164.406 172.867Z" fill="white"/>
<path d="M68.6562 23.7031V37H63.3906V20.0938H68.3281L68.6562 23.7031ZM68.0312 27.9688L66.7969 28C66.7969 26.7083 66.9531 25.5573 67.2656 24.5469C67.5781 23.526 68.0208 22.6615 68.5938 21.9531C69.1667 21.2448 69.849 20.7083 70.6406 20.3438C71.4427 19.9688 72.3333 19.7812 73.3125 19.7812C74.0938 19.7812 74.8073 19.8958 75.4531 20.125C76.1094 20.3542 76.6719 20.724 77.1406 21.2344C77.6198 21.7448 77.9844 22.4219 78.2344 23.2656C78.4948 24.099 78.625 25.1302 78.625 26.3594V37H73.3281V26.3438C73.3281 25.6667 73.2344 25.151 73.0469 24.7969C72.8594 24.4323 72.5885 24.1823 72.2344 24.0469C71.8802 23.9115 71.4479 23.8438 70.9375 23.8438C70.3958 23.8438 69.9375 23.9479 69.5625 24.1562C69.1875 24.3646 68.8854 24.6562 68.6562 25.0312C68.4375 25.3958 68.276 25.8281 68.1719 26.3281C68.0781 26.8281 68.0312 27.375 68.0312 27.9688ZM87.1094 20.0938V37H81.8281V20.0938H87.1094ZM81.5156 15.7344C81.5156 14.9844 81.7865 14.3698 82.3281 13.8906C82.8698 13.4115 83.5729 13.1719 84.4375 13.1719C85.3021 13.1719 86.0052 13.4115 86.5469 13.8906C87.0885 14.3698 87.3594 14.9844 87.3594 15.7344C87.3594 16.4844 87.0885 17.099 86.5469 17.5781C86.0052 18.0573 85.3021 18.2969 84.4375 18.2969C83.5729 18.2969 82.8698 18.0573 82.3281 17.5781C81.7865 17.099 81.5156 16.4844 81.5156 15.7344ZM95.5312 23.7031V37H90.2656V20.0938H95.2031L95.5312 23.7031ZM94.9062 27.9688L93.6719 28C93.6719 26.7083 93.8281 25.5573 94.1406 24.5469C94.4531 23.526 94.8958 22.6615 95.4688 21.9531C96.0417 21.2448 96.724 20.7083 97.5156 20.3438C98.3177 19.9688 99.2083 19.7812 100.188 19.7812C100.969 19.7812 101.682 19.8958 102.328 20.125C102.984 20.3542 103.547 20.724 104.016 21.2344C104.495 21.7448 104.859 22.4219 105.109 23.2656C105.37 24.099 105.5 25.1302 105.5 26.3594V37H100.203V26.3438C100.203 25.6667 100.109 25.151 99.9219 24.7969C99.7344 24.4323 99.4635 24.1823 99.1094 24.0469C98.7552 23.9115 98.3229 23.8438 97.8125 23.8438C97.2708 23.8438 96.8125 23.9479 96.4375 24.1562C96.0625 24.3646 95.7604 24.6562 95.5312 25.0312C95.3125 25.3958 95.151 25.8281 95.0469 26.3281C94.9531 26.8281 94.9062 27.375 94.9062 27.9688ZM108.812 20.0938H114.094V37.5469C114.094 38.901 113.833 40.0417 113.312 40.9688C112.792 41.9062 112.047 42.6146 111.078 43.0938C110.109 43.5833 108.953 43.8281 107.609 43.8281C107.161 43.8281 106.75 43.8073 106.375 43.7656C105.99 43.7344 105.568 43.6667 105.109 43.5625V39.5781C105.38 39.6198 105.63 39.651 105.859 39.6719C106.089 39.7031 106.339 39.7188 106.609 39.7188C107.089 39.7188 107.49 39.6406 107.812 39.4844C108.135 39.3281 108.38 39.0885 108.547 38.7656C108.724 38.4427 108.812 38.0365 108.812 37.5469V20.0938ZM108.422 15.7344C108.422 14.9844 108.693 14.3698 109.234 13.8906C109.776 13.4115 110.479 13.1719 111.344 13.1719C112.208 13.1719 112.911 13.4115 113.453 13.8906C113.995 14.3698 114.266 14.9844 114.266 15.7344C114.266 16.4844 113.995 17.099 113.453 17.5781C112.911 18.0573 112.208 18.2969 111.344 18.2969C110.479 18.2969 109.776 18.0573 109.234 17.5781C108.693 17.099 108.422 16.4844 108.422 15.7344ZM125.859 32.75V25.7812C125.859 25.3021 125.792 24.8906 125.656 24.5469C125.521 24.2031 125.307 23.9375 125.016 23.75C124.724 23.5521 124.333 23.4531 123.844 23.4531C123.448 23.4531 123.109 23.5208 122.828 23.6562C122.547 23.7917 122.333 23.9948 122.188 24.2656C122.042 24.5365 121.969 24.8802 121.969 25.2969H116.703C116.703 24.5156 116.875 23.7917 117.219 23.125C117.573 22.4479 118.073 21.8594 118.719 21.3594C119.375 20.8594 120.156 20.474 121.062 20.2031C121.979 19.9219 123 19.7812 124.125 19.7812C125.469 19.7812 126.667 20.0052 127.719 20.4531C128.781 20.901 129.62 21.5729 130.234 22.4688C130.849 23.3542 131.156 24.4688 131.156 25.8125V32.7344C131.156 33.8385 131.219 34.6771 131.344 35.25C131.469 35.8125 131.646 36.3073 131.875 36.7344V37H126.594C126.344 36.4792 126.156 35.8438 126.031 35.0938C125.917 34.3333 125.859 33.5521 125.859 32.75ZM126.5 26.6719L126.531 29.4844H124.203C123.714 29.4844 123.297 29.5521 122.953 29.6875C122.62 29.8229 122.349 30.0104 122.141 30.25C121.943 30.4792 121.797 30.7396 121.703 31.0312C121.62 31.3229 121.578 31.6302 121.578 31.9531C121.578 32.2656 121.651 32.5469 121.797 32.7969C121.953 33.0365 122.161 33.224 122.422 33.3594C122.682 33.4948 122.974 33.5625 123.297 33.5625C123.88 33.5625 124.375 33.4531 124.781 33.2344C125.198 33.0052 125.516 32.7292 125.734 32.4062C125.953 32.0833 126.062 31.7812 126.062 31.5L127.219 33.6562C127.01 34.0729 126.771 34.4948 126.5 34.9219C126.24 35.349 125.911 35.7448 125.516 36.1094C125.13 36.4635 124.656 36.7552 124.094 36.9844C123.531 37.2031 122.849 37.3125 122.047 37.3125C121.005 37.3125 120.047 37.099 119.172 36.6719C118.307 36.2448 117.615 35.651 117.094 34.8906C116.573 34.1198 116.312 33.2344 116.312 32.2344C116.312 31.3594 116.469 30.5781 116.781 29.8906C117.104 29.2031 117.589 28.6198 118.234 28.1406C118.88 27.6615 119.703 27.2969 120.703 27.0469C121.703 26.7969 122.88 26.6719 124.234 26.6719H126.5ZM134.328 14.25H143.281C145.031 14.25 146.552 14.5104 147.844 15.0312C149.135 15.5521 150.13 16.3229 150.828 17.3438C151.536 18.3646 151.891 19.625 151.891 21.125C151.891 22.4271 151.688 23.5156 151.281 24.3906C150.875 25.2656 150.307 25.9896 149.578 26.5625C148.859 27.125 148.021 27.5885 147.062 27.9531L145.266 28.9688H137.75L137.719 24.7344H143.281C143.979 24.7344 144.557 24.6094 145.016 24.3594C145.474 24.1094 145.818 23.7552 146.047 23.2969C146.286 22.8281 146.406 22.2708 146.406 21.625C146.406 20.9688 146.286 20.4062 146.047 19.9375C145.807 19.4688 145.453 19.1094 144.984 18.8594C144.526 18.6094 143.958 18.4844 143.281 18.4844H139.812V37H134.328V14.25ZM146.781 37L141.75 26.9375L147.562 26.9062L152.656 36.7656V37H146.781ZM154.297 28.7188V28.3906C154.297 27.151 154.474 26.0104 154.828 24.9688C155.182 23.9167 155.703 23.0052 156.391 22.2344C157.078 21.4635 157.927 20.8646 158.938 20.4375C159.948 20 161.115 19.7812 162.438 19.7812C163.771 19.7812 164.943 20 165.953 20.4375C166.974 20.8646 167.828 21.4635 168.516 22.2344C169.203 23.0052 169.724 23.9167 170.078 24.9688C170.432 26.0104 170.609 27.151 170.609 28.3906V28.7188C170.609 29.9479 170.432 31.0885 170.078 32.1406C169.724 33.1823 169.203 34.0938 168.516 34.875C167.828 35.6458 166.979 36.2448 165.969 36.6719C164.958 37.099 163.792 37.3125 162.469 37.3125C161.146 37.3125 159.974 37.099 158.953 36.6719C157.932 36.2448 157.078 35.6458 156.391 34.875C155.703 34.0938 155.182 33.1823 154.828 32.1406C154.474 31.0885 154.297 29.9479 154.297 28.7188ZM159.562 28.3906V28.7188C159.562 29.3542 159.609 29.9479 159.703 30.5C159.797 31.0521 159.953 31.5365 160.172 31.9531C160.391 32.3594 160.688 32.6771 161.062 32.9062C161.438 33.1354 161.906 33.25 162.469 33.25C163.021 33.25 163.479 33.1354 163.844 32.9062C164.219 32.6771 164.516 32.3594 164.734 31.9531C164.953 31.5365 165.109 31.0521 165.203 30.5C165.297 29.9479 165.344 29.3542 165.344 28.7188V28.3906C165.344 27.776 165.297 27.1979 165.203 26.6562C165.109 26.1042 164.953 25.6198 164.734 25.2031C164.516 24.776 164.219 24.4427 163.844 24.2031C163.469 23.9635 163 23.8438 162.438 23.8438C161.885 23.8438 161.422 23.9635 161.047 24.2031C160.682 24.4427 160.391 24.776 160.172 25.2031C159.953 25.6198 159.797 26.1042 159.703 26.6562C159.609 27.1979 159.562 27.776 159.562 28.3906ZM178.516 13V37H173.234V13H178.516ZM187.328 13V37H182.047V13H187.328Z" fill="white"/>
<g opacity="0.6">
<path d="M83.178 74.2883V83.6541H81.0181V74.2883H83.178ZM80.8977 71.6728C80.8977 70.942 81.3839 70.3843 82.098 70.3843C82.8312 70.3843 83.2825 70.942 83.3015 71.6728C83.3015 72.3844 82.8296 72.9421 82.0822 72.9421C81.368 72.9421 80.8977 72.3844 80.8977 71.6728Z" fill="white"/>
<path fill-rule="evenodd" clip-rule="evenodd" d="M77.9556 83.6543L76.893 79.981H73.1654L72.1551 83.6543H69.9429L73.7054 70.6921H76.4401L80.2549 83.6543H77.9556ZM74.4195 75L73.5137 78.1925H76.5272L75.604 75C75.4203 74.3619 75.2604 73.6608 75.1131 73.0192C75.0796 72.8716 75.0458 72.7242 75.0118 72.5768H74.9769C74.9168 72.8338 74.8582 73.1083 74.7964 73.3898C74.6792 73.9318 74.5573 74.4948 74.4195 75Z" fill="white"/>
<path fill-rule="evenodd" clip-rule="evenodd" d="M85.2779 61.508C79.7441 60.8307 74.1593 60.8307 68.6255 61.508C65.4394 61.9014 62.8661 64.6725 62.4924 68.2076C61.8359 74.4047 61.8359 80.6652 62.4924 86.8623C62.8661 90.3975 65.4378 93.1686 68.6255 93.5619C74.1594 94.2386 79.744 94.2386 85.2779 93.5619C88.464 93.1686 91.0373 90.3975 91.411 86.8623C92.0675 80.6652 92.0675 74.4047 91.411 68.2076C91.0373 64.6725 88.4656 61.9014 85.2779 61.508ZM68.8883 64.113C74.2475 63.4572 79.6559 63.4572 85.0151 64.113C87.1212 64.3753 88.8076 66.2093 89.0531 68.5136C89.688 74.5074 89.688 80.5625 89.0531 86.5564C88.9261 87.6841 88.4585 88.7317 87.7258 89.5298C86.9931 90.328 86.0381 90.8302 85.0151 90.9552C79.6559 91.6111 74.2475 91.6111 68.8883 90.9552C67.8653 90.8302 66.9102 90.328 66.1775 89.5298C65.4449 88.7317 64.9773 87.6841 64.8503 86.5564C64.2154 80.5625 64.2154 74.5074 64.8503 68.5136C64.9773 67.3858 65.4449 66.3382 66.1775 65.5401C66.9102 64.7419 67.8653 64.238 68.8883 64.113Z" fill="white"/>
</g>
<g opacity="0.6">
<path fill-rule="evenodd" clip-rule="evenodd" d="M118.15 83.5733H116.072V71.0684C116.821 70.918 117.86 70.8052 119.274 70.8052C120.807 70.8052 121.931 71.1625 122.665 71.8394C123.346 72.46 123.787 73.4566 123.787 74.6413C123.787 75.8447 123.447 76.8414 122.799 77.5183C121.965 78.4397 120.653 78.8722 119.172 78.8722C118.78 78.8722 118.422 78.8534 118.15 78.797V83.5733ZM119.359 72.5728C118.78 72.5728 118.371 72.6292 118.151 72.6856V76.973C118.405 77.0482 118.746 77.067 119.173 77.067C120.738 77.067 121.692 76.2208 121.692 74.7353C121.692 73.325 120.807 72.5728 119.359 72.5728Z" fill="white"/>
<path d="M126.464 83.7799C125.458 83.7799 124.557 83.4978 123.944 83.1217L124.352 81.4482C124.829 81.7678 125.73 82.1063 126.481 82.1063C127.401 82.1063 127.81 81.6926 127.81 81.0909C127.81 80.4703 127.469 80.1507 126.447 79.7558C124.829 79.1352 124.148 78.1574 124.165 77.0856C124.165 75.4684 125.373 74.2085 127.299 74.2085C128.219 74.2085 129.018 74.4718 129.496 74.7538L129.087 76.3898C128.551 76.057 127.948 75.8761 127.333 75.8633C126.584 75.8633 126.175 76.2582 126.175 76.8223C126.175 77.4052 126.567 77.6873 127.622 78.101C129.121 78.7027 129.82 79.5489 129.837 80.9028C129.837 82.5576 128.66 83.7799 126.464 83.7799Z" fill="white"/>
<path fill-rule="evenodd" clip-rule="evenodd" d="M130.789 61.9191C125.378 61.2568 119.917 61.2568 114.507 61.9191C111.391 62.3037 108.875 65.0132 108.51 68.4698C107.868 74.5292 107.868 80.6506 108.51 86.71C108.875 90.1665 111.39 92.8761 114.507 93.2607C119.917 93.9223 125.378 93.9223 130.789 93.2607C133.904 92.8761 136.42 90.1665 136.786 86.71C137.428 80.6506 137.428 74.5292 136.786 68.4698C136.42 65.0132 133.906 62.3037 130.789 61.9191ZM114.764 64.4662C120.004 63.8249 125.292 63.8249 130.532 64.4662C132.591 64.7226 134.24 66.5159 134.48 68.769C135.101 74.6296 135.101 80.5502 134.48 86.4108C134.356 87.5135 133.899 88.5378 133.182 89.3182C132.466 90.0986 131.532 90.5896 130.532 90.7119C125.292 91.3532 120.004 91.3532 114.764 90.7119C113.763 90.5896 112.829 90.0986 112.113 89.3182C111.397 88.5378 110.939 87.5135 110.815 86.4108C110.194 80.5502 110.194 74.6296 110.815 68.769C110.939 67.6663 111.397 66.642 112.113 65.8616C112.829 65.0811 113.763 64.5884 114.764 64.4662Z" fill="white"/>
</g>
<g opacity="0.6">
<path opacity="0.5" d="M165.105 66.4897H159.159C157.582 66.4897 156.069 67.1815 154.954 68.4129C153.838 69.6444 153.212 71.3145 153.212 73.056C153.212 74.7974 153.838 76.4676 154.954 77.699C156.069 78.9304 157.582 79.6222 159.159 79.6222H165.105V66.4897Z" stroke="white" stroke-width="4"/>
<path d="M165.105 79.6204H159.159C157.582 79.6204 156.069 80.3122 154.954 81.5436C153.838 82.775 153.212 84.4451 153.212 86.1866C153.212 87.9281 153.838 89.5982 154.954 90.8296C156.069 92.061 157.582 92.7528 159.159 92.7528H165.105V79.6204Z" stroke="white" stroke-width="4"/>
<path opacity="0.5" d="M177 86.1873C177 87.9288 176.373 89.5989 175.258 90.8303C174.143 92.0617 172.63 92.7535 171.053 92.7535C169.475 92.7535 167.962 92.0617 166.847 90.8303C165.732 89.5989 165.105 87.9288 165.105 86.1873C165.105 84.4458 165.732 82.7757 166.847 81.5443C167.962 80.3129 169.475 79.6211 171.053 79.6211C172.63 79.6211 174.143 80.3129 175.258 81.5443C176.373 82.7757 177 84.4458 177 86.1873ZM159.159 92.7545H165.105V99.3198C165.105 100.618 164.756 101.887 164.102 102.967C163.449 104.046 162.52 104.887 161.433 105.384C160.347 105.88 159.151 106.01 157.998 105.757C156.844 105.503 155.785 104.878 154.953 103.959C154.122 103.041 153.556 101.871 153.327 100.598C153.097 99.3244 153.215 98.0045 153.665 96.8049C154.115 95.6054 154.878 94.5802 155.855 93.8589C156.833 93.1375 157.983 92.7545 159.159 92.7545Z" stroke="white" stroke-width="4"/>
<path d="M165.105 66.4897H171.052C172.629 66.4897 174.142 67.1815 175.257 68.4129C176.373 69.6444 176.999 71.3145 176.999 73.056C176.999 74.7974 176.373 76.4676 175.257 77.699C174.142 78.9304 172.629 79.6222 171.052 79.6222H165.105V66.4897Z" stroke="white" stroke-width="4"/>
</g>
</svg>
