<svg width="239" height="185" viewBox="0 0 239 185" fill="none" xmlns="http://www.w3.org/2000/svg">
<path d="M31.5469 144.625V156H30.0625V144.625H31.5469ZM35.2031 144.625V145.859H26.4141V144.625H35.2031ZM39.3984 156.156C38.8099 156.156 38.276 156.057 37.7969 155.859C37.3229 155.656 36.9141 155.372 36.5703 155.008C36.2318 154.643 35.9714 154.211 35.7891 153.711C35.6068 153.211 35.5156 152.664 35.5156 152.07V151.742C35.5156 151.055 35.6172 150.443 35.8203 149.906C36.0234 149.365 36.2995 148.906 36.6484 148.531C36.9974 148.156 37.3932 147.872 37.8359 147.68C38.2786 147.487 38.737 147.391 39.2109 147.391C39.8151 147.391 40.3359 147.495 40.7734 147.703C41.2161 147.911 41.5781 148.203 41.8594 148.578C42.1406 148.948 42.349 149.385 42.4844 149.891C42.6198 150.391 42.6875 150.938 42.6875 151.531V152.18H36.375V151H41.2422V150.891C41.2214 150.516 41.1432 150.151 41.0078 149.797C40.8776 149.443 40.6693 149.151 40.3828 148.922C40.0964 148.693 39.7057 148.578 39.2109 148.578C38.8828 148.578 38.5807 148.648 38.3047 148.789C38.0286 148.924 37.7917 149.128 37.5938 149.398C37.3958 149.669 37.2422 150 37.1328 150.391C37.0234 150.781 36.9688 151.232 36.9688 151.742V152.07C36.9688 152.471 37.0234 152.849 37.1328 153.203C37.2474 153.552 37.4115 153.859 37.625 154.125C37.8438 154.391 38.1068 154.599 38.4141 154.75C38.7266 154.901 39.0807 154.977 39.4766 154.977C39.987 154.977 40.4193 154.872 40.7734 154.664C41.1276 154.456 41.4375 154.177 41.7031 153.828L42.5781 154.523C42.3958 154.799 42.1641 155.062 41.8828 155.312C41.6016 155.562 41.2552 155.766 40.8438 155.922C40.4375 156.078 39.9557 156.156 39.3984 156.156ZM49.3594 154.555V150.203C49.3594 149.87 49.2917 149.581 49.1562 149.336C49.026 149.086 48.8281 148.893 48.5625 148.758C48.2969 148.622 47.9688 148.555 47.5781 148.555C47.2135 148.555 46.8932 148.617 46.6172 148.742C46.3464 148.867 46.1328 149.031 45.9766 149.234C45.8255 149.438 45.75 149.656 45.75 149.891H44.3047C44.3047 149.589 44.3828 149.289 44.5391 148.992C44.6953 148.695 44.9193 148.427 45.2109 148.188C45.5078 147.943 45.862 147.75 46.2734 147.609C46.6901 147.464 47.1536 147.391 47.6641 147.391C48.2786 147.391 48.8203 147.495 49.2891 147.703C49.763 147.911 50.1328 148.227 50.3984 148.648C50.6693 149.065 50.8047 149.589 50.8047 150.219V154.156C50.8047 154.438 50.8281 154.737 50.875 155.055C50.9271 155.372 51.0026 155.646 51.1016 155.875V156H49.5938C49.5208 155.833 49.4635 155.612 49.4219 155.336C49.3802 155.055 49.3594 154.794 49.3594 154.555ZM49.6094 150.875L49.625 151.891H48.1641C47.7526 151.891 47.3854 151.924 47.0625 151.992C46.7396 152.055 46.4688 152.151 46.25 152.281C46.0312 152.411 45.8646 152.576 45.75 152.773C45.6354 152.966 45.5781 153.193 45.5781 153.453C45.5781 153.719 45.638 153.961 45.7578 154.18C45.8776 154.398 46.0573 154.573 46.2969 154.703C46.5417 154.828 46.8411 154.891 47.1953 154.891C47.638 154.891 48.0286 154.797 48.3672 154.609C48.7057 154.422 48.974 154.193 49.1719 153.922C49.375 153.651 49.4844 153.388 49.5 153.133L50.1172 153.828C50.0807 154.047 49.9818 154.289 49.8203 154.555C49.6589 154.82 49.4427 155.076 49.1719 155.32C48.9062 155.56 48.5885 155.76 48.2188 155.922C47.8542 156.078 47.4427 156.156 46.9844 156.156C46.4115 156.156 45.9089 156.044 45.4766 155.82C45.0495 155.596 44.7161 155.297 44.4766 154.922C44.2422 154.542 44.125 154.117 44.125 153.648C44.125 153.195 44.2135 152.797 44.3906 152.453C44.5677 152.104 44.8229 151.815 45.1562 151.586C45.4896 151.352 45.8906 151.174 46.3594 151.055C46.8281 150.935 47.3516 150.875 47.9297 150.875H49.6094ZM54.5156 149.227V156H53.0625V147.547H54.4375L54.5156 149.227ZM54.2188 151.453L53.5469 151.43C53.5521 150.852 53.6276 150.318 53.7734 149.828C53.9193 149.333 54.1354 148.904 54.4219 148.539C54.7083 148.174 55.0651 147.893 55.4922 147.695C55.9193 147.492 56.4141 147.391 56.9766 147.391C57.3724 147.391 57.737 147.448 58.0703 147.562C58.4036 147.672 58.6927 147.846 58.9375 148.086C59.1823 148.326 59.3724 148.633 59.5078 149.008C59.6432 149.383 59.7109 149.836 59.7109 150.367V156H58.2656V150.438C58.2656 149.995 58.1901 149.641 58.0391 149.375C57.8932 149.109 57.6849 148.917 57.4141 148.797C57.1432 148.672 56.8255 148.609 56.4609 148.609C56.0339 148.609 55.6771 148.685 55.3906 148.836C55.1042 148.987 54.875 149.195 54.7031 149.461C54.5312 149.727 54.4062 150.031 54.3281 150.375C54.2552 150.714 54.2188 151.073 54.2188 151.453ZM59.6953 150.656L58.7266 150.953C58.7318 150.49 58.8073 150.044 58.9531 149.617C59.1042 149.19 59.3203 148.81 59.6016 148.477C59.888 148.143 60.2396 147.88 60.6562 147.688C61.0729 147.49 61.5495 147.391 62.0859 147.391C62.5391 147.391 62.9401 147.451 63.2891 147.57C63.6432 147.69 63.9401 147.875 64.1797 148.125C64.4245 148.37 64.6094 148.685 64.7344 149.07C64.8594 149.456 64.9219 149.914 64.9219 150.445V156H63.4688V150.43C63.4688 149.956 63.3932 149.589 63.2422 149.328C63.0964 149.062 62.888 148.878 62.6172 148.773C62.3516 148.664 62.0339 148.609 61.6641 148.609C61.3464 148.609 61.0651 148.664 60.8203 148.773C60.5755 148.883 60.3698 149.034 60.2031 149.227C60.0365 149.414 59.9089 149.63 59.8203 149.875C59.737 150.12 59.6953 150.38 59.6953 150.656ZM72.6484 147.547V156H71.1953V147.547H72.6484ZM71.0859 145.305C71.0859 145.07 71.1562 144.872 71.2969 144.711C71.4427 144.549 71.6562 144.469 71.9375 144.469C72.2135 144.469 72.4245 144.549 72.5703 144.711C72.7214 144.872 72.7969 145.07 72.7969 145.305C72.7969 145.529 72.7214 145.721 72.5703 145.883C72.4245 146.039 72.2135 146.117 71.9375 146.117C71.6562 146.117 71.4427 146.039 71.2969 145.883C71.1562 145.721 71.0859 145.529 71.0859 145.305ZM76.4062 149.227V156H74.9531V147.547H76.3281L76.4062 149.227ZM76.1094 151.453L75.4375 151.43C75.4427 150.852 75.5182 150.318 75.6641 149.828C75.8099 149.333 76.026 148.904 76.3125 148.539C76.599 148.174 76.9557 147.893 77.3828 147.695C77.8099 147.492 78.3047 147.391 78.8672 147.391C79.263 147.391 79.6276 147.448 79.9609 147.562C80.2943 147.672 80.5833 147.846 80.8281 148.086C81.0729 148.326 81.263 148.633 81.3984 149.008C81.5339 149.383 81.6016 149.836 81.6016 150.367V156H80.1562V150.438C80.1562 149.995 80.0807 149.641 79.9297 149.375C79.7839 149.109 79.5755 148.917 79.3047 148.797C79.0339 148.672 78.7161 148.609 78.3516 148.609C77.9245 148.609 77.5677 148.685 77.2812 148.836C76.9948 148.987 76.7656 149.195 76.5938 149.461C76.4219 149.727 76.2969 150.031 76.2188 150.375C76.1458 150.714 76.1094 151.073 76.1094 151.453ZM81.5859 150.656L80.6172 150.953C80.6224 150.49 80.6979 150.044 80.8438 149.617C80.9948 149.19 81.2109 148.81 81.4922 148.477C81.7786 148.143 82.1302 147.88 82.5469 147.688C82.9635 147.49 83.4401 147.391 83.9766 147.391C84.4297 147.391 84.8307 147.451 85.1797 147.57C85.5339 147.69 85.8307 147.875 86.0703 148.125C86.3151 148.37 86.5 148.685 86.625 149.07C86.75 149.456 86.8125 149.914 86.8125 150.445V156H85.3594V150.43C85.3594 149.956 85.2839 149.589 85.1328 149.328C84.987 149.062 84.7786 148.878 84.5078 148.773C84.2422 148.664 83.9245 148.609 83.5547 148.609C83.237 148.609 82.9557 148.664 82.7109 148.773C82.4661 148.883 82.2604 149.034 82.0938 149.227C81.9271 149.414 81.7995 149.63 81.7109 149.875C81.6276 150.12 81.5859 150.38 81.5859 150.656ZM90.4453 149.172V159.25H88.9922V147.547H90.3203L90.4453 149.172ZM96.1406 151.703V151.867C96.1406 152.482 96.0677 153.052 95.9219 153.578C95.776 154.099 95.5625 154.552 95.2812 154.938C95.0052 155.323 94.6641 155.622 94.2578 155.836C93.8516 156.049 93.3854 156.156 92.8594 156.156C92.3229 156.156 91.849 156.068 91.4375 155.891C91.026 155.714 90.6771 155.456 90.3906 155.117C90.1042 154.779 89.875 154.372 89.7031 153.898C89.5365 153.424 89.4219 152.891 89.3594 152.297V151.422C89.4219 150.797 89.5391 150.237 89.7109 149.742C89.8828 149.247 90.1094 148.826 90.3906 148.477C90.6771 148.122 91.0234 147.854 91.4297 147.672C91.8359 147.484 92.3047 147.391 92.8359 147.391C93.3672 147.391 93.8385 147.495 94.25 147.703C94.6615 147.906 95.0078 148.198 95.2891 148.578C95.5703 148.958 95.7812 149.414 95.9219 149.945C96.0677 150.471 96.1406 151.057 96.1406 151.703ZM94.6875 151.867V151.703C94.6875 151.281 94.6432 150.885 94.5547 150.516C94.4661 150.141 94.3281 149.812 94.1406 149.531C93.9583 149.245 93.724 149.021 93.4375 148.859C93.151 148.693 92.8099 148.609 92.4141 148.609C92.0495 148.609 91.7318 148.672 91.4609 148.797C91.1953 148.922 90.9688 149.091 90.7812 149.305C90.5938 149.513 90.4401 149.753 90.3203 150.023C90.2057 150.289 90.1198 150.565 90.0625 150.852V152.875C90.1667 153.24 90.3125 153.583 90.5 153.906C90.6875 154.224 90.9375 154.482 91.25 154.68C91.5625 154.872 91.9557 154.969 92.4297 154.969C92.8203 154.969 93.1562 154.888 93.4375 154.727C93.724 154.56 93.9583 154.333 94.1406 154.047C94.3281 153.76 94.4661 153.432 94.5547 153.062C94.6432 152.688 94.6875 152.289 94.6875 151.867ZM99.5547 144V156H98.1016V144H99.5547ZM105.383 156.156C104.794 156.156 104.26 156.057 103.781 155.859C103.307 155.656 102.898 155.372 102.555 155.008C102.216 154.643 101.956 154.211 101.773 153.711C101.591 153.211 101.5 152.664 101.5 152.07V151.742C101.5 151.055 101.602 150.443 101.805 149.906C102.008 149.365 102.284 148.906 102.633 148.531C102.982 148.156 103.378 147.872 103.82 147.68C104.263 147.487 104.721 147.391 105.195 147.391C105.799 147.391 106.32 147.495 106.758 147.703C107.201 147.911 107.562 148.203 107.844 148.578C108.125 148.948 108.333 149.385 108.469 149.891C108.604 150.391 108.672 150.938 108.672 151.531V152.18H102.359V151H107.227V150.891C107.206 150.516 107.128 150.151 106.992 149.797C106.862 149.443 106.654 149.151 106.367 148.922C106.081 148.693 105.69 148.578 105.195 148.578C104.867 148.578 104.565 148.648 104.289 148.789C104.013 148.924 103.776 149.128 103.578 149.398C103.38 149.669 103.227 150 103.117 150.391C103.008 150.781 102.953 151.232 102.953 151.742V152.07C102.953 152.471 103.008 152.849 103.117 153.203C103.232 153.552 103.396 153.859 103.609 154.125C103.828 154.391 104.091 154.599 104.398 154.75C104.711 154.901 105.065 154.977 105.461 154.977C105.971 154.977 106.404 154.872 106.758 154.664C107.112 154.456 107.422 154.177 107.688 153.828L108.562 154.523C108.38 154.799 108.148 155.062 107.867 155.312C107.586 155.562 107.24 155.766 106.828 155.922C106.422 156.078 105.94 156.156 105.383 156.156ZM111.797 149.227V156H110.344V147.547H111.719L111.797 149.227ZM111.5 151.453L110.828 151.43C110.833 150.852 110.909 150.318 111.055 149.828C111.201 149.333 111.417 148.904 111.703 148.539C111.99 148.174 112.346 147.893 112.773 147.695C113.201 147.492 113.695 147.391 114.258 147.391C114.654 147.391 115.018 147.448 115.352 147.562C115.685 147.672 115.974 147.846 116.219 148.086C116.464 148.326 116.654 148.633 116.789 149.008C116.924 149.383 116.992 149.836 116.992 150.367V156H115.547V150.438C115.547 149.995 115.471 149.641 115.32 149.375C115.174 149.109 114.966 148.917 114.695 148.797C114.424 148.672 114.107 148.609 113.742 148.609C113.315 148.609 112.958 148.685 112.672 148.836C112.385 148.987 112.156 149.195 111.984 149.461C111.812 149.727 111.688 150.031 111.609 150.375C111.536 150.714 111.5 151.073 111.5 151.453ZM116.977 150.656L116.008 150.953C116.013 150.49 116.089 150.044 116.234 149.617C116.385 149.19 116.602 148.81 116.883 148.477C117.169 148.143 117.521 147.88 117.938 147.688C118.354 147.49 118.831 147.391 119.367 147.391C119.82 147.391 120.221 147.451 120.57 147.57C120.924 147.69 121.221 147.875 121.461 148.125C121.706 148.37 121.891 148.685 122.016 149.07C122.141 149.456 122.203 149.914 122.203 150.445V156H120.75V150.43C120.75 149.956 120.674 149.589 120.523 149.328C120.378 149.062 120.169 148.878 119.898 148.773C119.633 148.664 119.315 148.609 118.945 148.609C118.628 148.609 118.346 148.664 118.102 148.773C117.857 148.883 117.651 149.034 117.484 149.227C117.318 149.414 117.19 149.63 117.102 149.875C117.018 150.12 116.977 150.38 116.977 150.656ZM127.898 156.156C127.31 156.156 126.776 156.057 126.297 155.859C125.823 155.656 125.414 155.372 125.07 155.008C124.732 154.643 124.471 154.211 124.289 153.711C124.107 153.211 124.016 152.664 124.016 152.07V151.742C124.016 151.055 124.117 150.443 124.32 149.906C124.523 149.365 124.799 148.906 125.148 148.531C125.497 148.156 125.893 147.872 126.336 147.68C126.779 147.487 127.237 147.391 127.711 147.391C128.315 147.391 128.836 147.495 129.273 147.703C129.716 147.911 130.078 148.203 130.359 148.578C130.641 148.948 130.849 149.385 130.984 149.891C131.12 150.391 131.188 150.938 131.188 151.531V152.18H124.875V151H129.742V150.891C129.721 150.516 129.643 150.151 129.508 149.797C129.378 149.443 129.169 149.151 128.883 148.922C128.596 148.693 128.206 148.578 127.711 148.578C127.383 148.578 127.081 148.648 126.805 148.789C126.529 148.924 126.292 149.128 126.094 149.398C125.896 149.669 125.742 150 125.633 150.391C125.523 150.781 125.469 151.232 125.469 151.742V152.07C125.469 152.471 125.523 152.849 125.633 153.203C125.747 153.552 125.911 153.859 126.125 154.125C126.344 154.391 126.607 154.599 126.914 154.75C127.227 154.901 127.581 154.977 127.977 154.977C128.487 154.977 128.919 154.872 129.273 154.664C129.628 154.456 129.938 154.177 130.203 153.828L131.078 154.523C130.896 154.799 130.664 155.062 130.383 155.312C130.102 155.562 129.755 155.766 129.344 155.922C128.938 156.078 128.456 156.156 127.898 156.156ZM134.32 149.352V156H132.875V147.547H134.242L134.32 149.352ZM133.977 151.453L133.375 151.43C133.38 150.852 133.466 150.318 133.633 149.828C133.799 149.333 134.034 148.904 134.336 148.539C134.638 148.174 134.997 147.893 135.414 147.695C135.836 147.492 136.302 147.391 136.812 147.391C137.229 147.391 137.604 147.448 137.938 147.562C138.271 147.672 138.555 147.849 138.789 148.094C139.029 148.339 139.211 148.656 139.336 149.047C139.461 149.432 139.523 149.904 139.523 150.461V156H138.07V150.445C138.07 150.003 138.005 149.648 137.875 149.383C137.745 149.112 137.555 148.917 137.305 148.797C137.055 148.672 136.747 148.609 136.383 148.609C136.023 148.609 135.695 148.685 135.398 148.836C135.107 148.987 134.854 149.195 134.641 149.461C134.432 149.727 134.268 150.031 134.148 150.375C134.034 150.714 133.977 151.073 133.977 151.453ZM145.258 147.547V148.656H140.688V147.547H145.258ZM142.234 145.492H143.68V153.906C143.68 154.193 143.724 154.409 143.812 154.555C143.901 154.701 144.016 154.797 144.156 154.844C144.297 154.891 144.448 154.914 144.609 154.914C144.729 154.914 144.854 154.904 144.984 154.883C145.12 154.857 145.221 154.836 145.289 154.82L145.297 156C145.182 156.036 145.031 156.07 144.844 156.102C144.661 156.138 144.44 156.156 144.18 156.156C143.826 156.156 143.5 156.086 143.203 155.945C142.906 155.805 142.669 155.57 142.492 155.242C142.32 154.909 142.234 154.461 142.234 153.898V145.492ZM151.938 154.555V150.203C151.938 149.87 151.87 149.581 151.734 149.336C151.604 149.086 151.406 148.893 151.141 148.758C150.875 148.622 150.547 148.555 150.156 148.555C149.792 148.555 149.471 148.617 149.195 148.742C148.924 148.867 148.711 149.031 148.555 149.234C148.404 149.438 148.328 149.656 148.328 149.891H146.883C146.883 149.589 146.961 149.289 147.117 148.992C147.273 148.695 147.497 148.427 147.789 148.188C148.086 147.943 148.44 147.75 148.852 147.609C149.268 147.464 149.732 147.391 150.242 147.391C150.857 147.391 151.398 147.495 151.867 147.703C152.341 147.911 152.711 148.227 152.977 148.648C153.247 149.065 153.383 149.589 153.383 150.219V154.156C153.383 154.438 153.406 154.737 153.453 155.055C153.505 155.372 153.581 155.646 153.68 155.875V156H152.172C152.099 155.833 152.042 155.612 152 155.336C151.958 155.055 151.938 154.794 151.938 154.555ZM152.188 150.875L152.203 151.891H150.742C150.331 151.891 149.964 151.924 149.641 151.992C149.318 152.055 149.047 152.151 148.828 152.281C148.609 152.411 148.443 152.576 148.328 152.773C148.214 152.966 148.156 153.193 148.156 153.453C148.156 153.719 148.216 153.961 148.336 154.18C148.456 154.398 148.635 154.573 148.875 154.703C149.12 154.828 149.419 154.891 149.773 154.891C150.216 154.891 150.607 154.797 150.945 154.609C151.284 154.422 151.552 154.193 151.75 153.922C151.953 153.651 152.062 153.388 152.078 153.133L152.695 153.828C152.659 154.047 152.56 154.289 152.398 154.555C152.237 154.82 152.021 155.076 151.75 155.32C151.484 155.56 151.167 155.76 150.797 155.922C150.432 156.078 150.021 156.156 149.562 156.156C148.99 156.156 148.487 156.044 148.055 155.82C147.628 155.596 147.294 155.297 147.055 154.922C146.82 154.542 146.703 154.117 146.703 153.648C146.703 153.195 146.792 152.797 146.969 152.453C147.146 152.104 147.401 151.815 147.734 151.586C148.068 151.352 148.469 151.174 148.938 151.055C149.406 150.935 149.93 150.875 150.508 150.875H152.188ZM159.195 147.547V148.656H154.625V147.547H159.195ZM156.172 145.492H157.617V153.906C157.617 154.193 157.661 154.409 157.75 154.555C157.839 154.701 157.953 154.797 158.094 154.844C158.234 154.891 158.385 154.914 158.547 154.914C158.667 154.914 158.792 154.904 158.922 154.883C159.057 154.857 159.159 154.836 159.227 154.82L159.234 156C159.12 156.036 158.969 156.07 158.781 156.102C158.599 156.138 158.378 156.156 158.117 156.156C157.763 156.156 157.438 156.086 157.141 155.945C156.844 155.805 156.607 155.57 156.43 155.242C156.258 154.909 156.172 154.461 156.172 153.898V145.492ZM162.461 147.547V156H161.008V147.547H162.461ZM160.898 145.305C160.898 145.07 160.969 144.872 161.109 144.711C161.255 144.549 161.469 144.469 161.75 144.469C162.026 144.469 162.237 144.549 162.383 144.711C162.534 144.872 162.609 145.07 162.609 145.305C162.609 145.529 162.534 145.721 162.383 145.883C162.237 146.039 162.026 146.117 161.75 146.117C161.469 146.117 161.255 146.039 161.109 145.883C160.969 145.721 160.898 145.529 160.898 145.305ZM164.398 151.867V151.688C164.398 151.078 164.487 150.513 164.664 149.992C164.841 149.466 165.096 149.01 165.43 148.625C165.763 148.234 166.167 147.932 166.641 147.719C167.115 147.5 167.646 147.391 168.234 147.391C168.828 147.391 169.362 147.5 169.836 147.719C170.315 147.932 170.721 148.234 171.055 148.625C171.393 149.01 171.651 149.466 171.828 149.992C172.005 150.513 172.094 151.078 172.094 151.688V151.867C172.094 152.477 172.005 153.042 171.828 153.562C171.651 154.083 171.393 154.539 171.055 154.93C170.721 155.315 170.318 155.617 169.844 155.836C169.375 156.049 168.844 156.156 168.25 156.156C167.656 156.156 167.122 156.049 166.648 155.836C166.174 155.617 165.768 155.315 165.43 154.93C165.096 154.539 164.841 154.083 164.664 153.562C164.487 153.042 164.398 152.477 164.398 151.867ZM165.844 151.688V151.867C165.844 152.289 165.893 152.688 165.992 153.062C166.091 153.432 166.24 153.76 166.438 154.047C166.641 154.333 166.893 154.56 167.195 154.727C167.497 154.888 167.849 154.969 168.25 154.969C168.646 154.969 168.992 154.888 169.289 154.727C169.591 154.56 169.841 154.333 170.039 154.047C170.237 153.76 170.385 153.432 170.484 153.062C170.589 152.688 170.641 152.289 170.641 151.867V151.688C170.641 151.271 170.589 150.878 170.484 150.508C170.385 150.133 170.234 149.802 170.031 149.516C169.833 149.224 169.583 148.995 169.281 148.828C168.984 148.661 168.635 148.578 168.234 148.578C167.839 148.578 167.49 148.661 167.188 148.828C166.891 148.995 166.641 149.224 166.438 149.516C166.24 149.802 166.091 150.133 165.992 150.508C165.893 150.878 165.844 151.271 165.844 151.688ZM175.352 149.352V156H173.906V147.547H175.273L175.352 149.352ZM175.008 151.453L174.406 151.43C174.411 150.852 174.497 150.318 174.664 149.828C174.831 149.333 175.065 148.904 175.367 148.539C175.669 148.174 176.029 147.893 176.445 147.695C176.867 147.492 177.333 147.391 177.844 147.391C178.26 147.391 178.635 147.448 178.969 147.562C179.302 147.672 179.586 147.849 179.82 148.094C180.06 148.339 180.242 148.656 180.367 149.047C180.492 149.432 180.555 149.904 180.555 150.461V156H179.102V150.445C179.102 150.003 179.036 149.648 178.906 149.383C178.776 149.112 178.586 148.917 178.336 148.797C178.086 148.672 177.779 148.609 177.414 148.609C177.055 148.609 176.727 148.685 176.43 148.836C176.138 148.987 175.885 149.195 175.672 149.461C175.464 149.727 175.299 150.031 175.18 150.375C175.065 150.714 175.008 151.073 175.008 151.453ZM186.336 151.867V151.688C186.336 151.078 186.424 150.513 186.602 149.992C186.779 149.466 187.034 149.01 187.367 148.625C187.701 148.234 188.104 147.932 188.578 147.719C189.052 147.5 189.583 147.391 190.172 147.391C190.766 147.391 191.299 147.5 191.773 147.719C192.253 147.932 192.659 148.234 192.992 148.625C193.331 149.01 193.589 149.466 193.766 149.992C193.943 150.513 194.031 151.078 194.031 151.688V151.867C194.031 152.477 193.943 153.042 193.766 153.562C193.589 154.083 193.331 154.539 192.992 154.93C192.659 155.315 192.255 155.617 191.781 155.836C191.312 156.049 190.781 156.156 190.188 156.156C189.594 156.156 189.06 156.049 188.586 155.836C188.112 155.617 187.706 155.315 187.367 154.93C187.034 154.539 186.779 154.083 186.602 153.562C186.424 153.042 186.336 152.477 186.336 151.867ZM187.781 151.688V151.867C187.781 152.289 187.831 152.688 187.93 153.062C188.029 153.432 188.177 153.76 188.375 154.047C188.578 154.333 188.831 154.56 189.133 154.727C189.435 154.888 189.786 154.969 190.188 154.969C190.583 154.969 190.93 154.888 191.227 154.727C191.529 154.56 191.779 154.333 191.977 154.047C192.174 153.76 192.323 153.432 192.422 153.062C192.526 152.688 192.578 152.289 192.578 151.867V151.688C192.578 151.271 192.526 150.878 192.422 150.508C192.323 150.133 192.172 149.802 191.969 149.516C191.771 149.224 191.521 148.995 191.219 148.828C190.922 148.661 190.573 148.578 190.172 148.578C189.776 148.578 189.427 148.661 189.125 148.828C188.828 148.995 188.578 149.224 188.375 149.516C188.177 149.802 188.029 150.133 187.93 150.508C187.831 150.878 187.781 151.271 187.781 151.688ZM198 156H196.555V146.656C196.555 146.047 196.664 145.534 196.883 145.117C197.107 144.695 197.427 144.378 197.844 144.164C198.26 143.945 198.755 143.836 199.328 143.836C199.495 143.836 199.661 143.846 199.828 143.867C200 143.888 200.167 143.919 200.328 143.961L200.25 145.141C200.141 145.115 200.016 145.096 199.875 145.086C199.74 145.076 199.604 145.07 199.469 145.07C199.161 145.07 198.896 145.133 198.672 145.258C198.453 145.378 198.286 145.555 198.172 145.789C198.057 146.023 198 146.312 198 146.656V156ZM199.797 147.547V148.656H195.219V147.547H199.797ZM210.359 154.555V150.203C210.359 149.87 210.292 149.581 210.156 149.336C210.026 149.086 209.828 148.893 209.562 148.758C209.297 148.622 208.969 148.555 208.578 148.555C208.214 148.555 207.893 148.617 207.617 148.742C207.346 148.867 207.133 149.031 206.977 149.234C206.826 149.438 206.75 149.656 206.75 149.891H205.305C205.305 149.589 205.383 149.289 205.539 148.992C205.695 148.695 205.919 148.427 206.211 148.188C206.508 147.943 206.862 147.75 207.273 147.609C207.69 147.464 208.154 147.391 208.664 147.391C209.279 147.391 209.82 147.495 210.289 147.703C210.763 147.911 211.133 148.227 211.398 148.648C211.669 149.065 211.805 149.589 211.805 150.219V154.156C211.805 154.438 211.828 154.737 211.875 155.055C211.927 155.372 212.003 155.646 212.102 155.875V156H210.594C210.521 155.833 210.464 155.612 210.422 155.336C210.38 155.055 210.359 154.794 210.359 154.555ZM210.609 150.875L210.625 151.891H209.164C208.753 151.891 208.385 151.924 208.062 151.992C207.74 152.055 207.469 152.151 207.25 152.281C207.031 152.411 206.865 152.576 206.75 152.773C206.635 152.966 206.578 153.193 206.578 153.453C206.578 153.719 206.638 153.961 206.758 154.18C206.878 154.398 207.057 154.573 207.297 154.703C207.542 154.828 207.841 154.891 208.195 154.891C208.638 154.891 209.029 154.797 209.367 154.609C209.706 154.422 209.974 154.193 210.172 153.922C210.375 153.651 210.484 153.388 210.5 153.133L211.117 153.828C211.081 154.047 210.982 154.289 210.82 154.555C210.659 154.82 210.443 155.076 210.172 155.32C209.906 155.56 209.589 155.76 209.219 155.922C208.854 156.078 208.443 156.156 207.984 156.156C207.411 156.156 206.909 156.044 206.477 155.82C206.049 155.596 205.716 155.297 205.477 154.922C205.242 154.542 205.125 154.117 205.125 153.648C205.125 153.195 205.214 152.797 205.391 152.453C205.568 152.104 205.823 151.815 206.156 151.586C206.49 151.352 206.891 151.174 207.359 151.055C207.828 150.935 208.352 150.875 208.93 150.875H210.609ZM7.45312 164.523L7.75781 165.414C7.13802 165.607 6.71094 165.953 6.47656 166.453C6.24219 166.948 6.125 167.516 6.125 168.156V169.773C6.125 170.294 6.01823 170.768 5.80469 171.195C5.59635 171.617 5.26302 171.953 4.80469 172.203C4.35156 172.453 3.75521 172.578 3.01562 172.578V171.625C3.60417 171.625 4.02604 171.458 4.28125 171.125C4.54167 170.792 4.67188 170.341 4.67188 169.773V168.156C4.67188 167.609 4.75521 167.099 4.92188 166.625C5.09375 166.146 5.38021 165.727 5.78125 165.367C6.1875 165.003 6.74479 164.721 7.45312 164.523ZM7.75781 178.961L7.45312 179.859C6.74479 179.656 6.1875 179.375 5.78125 179.016C5.38021 178.656 5.09375 178.237 4.92188 177.758C4.75521 177.284 4.67188 176.773 4.67188 176.227V174.617C4.67188 174.237 4.61458 173.909 4.5 173.633C4.38542 173.357 4.20573 173.143 3.96094 172.992C3.72135 172.836 3.40625 172.758 3.01562 172.758V171.805C3.75521 171.805 4.35156 171.93 4.80469 172.18C5.26302 172.43 5.59635 172.768 5.80469 173.195C6.01823 173.617 6.125 174.091 6.125 174.617V176.227C6.125 176.654 6.17448 177.049 6.27344 177.414C6.3776 177.779 6.54688 178.094 6.78125 178.359C7.02083 178.63 7.34635 178.831 7.75781 178.961ZM12.5781 168.547V169.656H8.00781V168.547H12.5781ZM9.55469 166.492H11V174.906C11 175.193 11.0443 175.409 11.1328 175.555C11.2214 175.701 11.3359 175.797 11.4766 175.844C11.6172 175.891 11.7682 175.914 11.9297 175.914C12.0495 175.914 12.1745 175.904 12.3047 175.883C12.4401 175.857 12.5417 175.836 12.6094 175.82L12.6172 177C12.5026 177.036 12.3516 177.07 12.1641 177.102C11.9818 177.138 11.7604 177.156 11.5 177.156C11.1458 177.156 10.8203 177.086 10.5234 176.945C10.2266 176.805 9.98958 176.57 9.8125 176.242C9.64062 175.909 9.55469 175.461 9.55469 174.898V166.492ZM13.7344 172.867V172.688C13.7344 172.078 13.8229 171.513 14 170.992C14.1771 170.466 14.4323 170.01 14.7656 169.625C15.099 169.234 15.5026 168.932 15.9766 168.719C16.4505 168.5 16.9818 168.391 17.5703 168.391C18.1641 168.391 18.6979 168.5 19.1719 168.719C19.651 168.932 20.0573 169.234 20.3906 169.625C20.7292 170.01 20.987 170.466 21.1641 170.992C21.3411 171.513 21.4297 172.078 21.4297 172.688V172.867C21.4297 173.477 21.3411 174.042 21.1641 174.562C20.987 175.083 20.7292 175.539 20.3906 175.93C20.0573 176.315 19.6536 176.617 19.1797 176.836C18.7109 177.049 18.1797 177.156 17.5859 177.156C16.9922 177.156 16.4583 177.049 15.9844 176.836C15.5104 176.617 15.1042 176.315 14.7656 175.93C14.4323 175.539 14.1771 175.083 14 174.562C13.8229 174.042 13.7344 173.477 13.7344 172.867ZM15.1797 172.688V172.867C15.1797 173.289 15.2292 173.688 15.3281 174.062C15.4271 174.432 15.5755 174.76 15.7734 175.047C15.9766 175.333 16.2292 175.56 16.5312 175.727C16.8333 175.888 17.1849 175.969 17.5859 175.969C17.9818 175.969 18.3281 175.888 18.625 175.727C18.9271 175.56 19.1771 175.333 19.375 175.047C19.5729 174.76 19.7214 174.432 19.8203 174.062C19.9245 173.688 19.9766 173.289 19.9766 172.867V172.688C19.9766 172.271 19.9245 171.878 19.8203 171.508C19.7214 171.133 19.5703 170.802 19.3672 170.516C19.1693 170.224 18.9193 169.995 18.6172 169.828C18.3203 169.661 17.9714 169.578 17.5703 169.578C17.1745 169.578 16.8255 169.661 16.5234 169.828C16.2266 169.995 15.9766 170.224 15.7734 170.516C15.5755 170.802 15.4271 171.133 15.3281 171.508C15.2292 171.878 15.1797 172.271 15.1797 172.688ZM26.5391 177H24.1641L24.1797 175.773H26.5391C27.3516 175.773 28.0286 175.604 28.5703 175.266C29.112 174.922 29.5182 174.443 29.7891 173.828C30.0651 173.208 30.2031 172.484 30.2031 171.656V170.961C30.2031 170.31 30.125 169.732 29.9688 169.227C29.8125 168.716 29.5833 168.286 29.2812 167.938C28.9792 167.583 28.6094 167.315 28.1719 167.133C27.7396 166.951 27.2422 166.859 26.6797 166.859H24.1172V165.625H26.6797C27.4245 165.625 28.1042 165.75 28.7188 166C29.3333 166.245 29.862 166.602 30.3047 167.07C30.7526 167.534 31.0964 168.096 31.3359 168.758C31.5755 169.414 31.6953 170.154 31.6953 170.977V171.656C31.6953 172.479 31.5755 173.221 31.3359 173.883C31.0964 174.539 30.75 175.099 30.2969 175.562C29.849 176.026 29.3073 176.383 28.6719 176.633C28.0417 176.878 27.3307 177 26.5391 177ZM24.9688 165.625V177H23.4609V165.625H24.9688ZM33.3594 172.867V172.688C33.3594 172.078 33.4479 171.513 33.625 170.992C33.8021 170.466 34.0573 170.01 34.3906 169.625C34.724 169.234 35.1276 168.932 35.6016 168.719C36.0755 168.5 36.6068 168.391 37.1953 168.391C37.7891 168.391 38.3229 168.5 38.7969 168.719C39.276 168.932 39.6823 169.234 40.0156 169.625C40.3542 170.01 40.612 170.466 40.7891 170.992C40.9661 171.513 41.0547 172.078 41.0547 172.688V172.867C41.0547 173.477 40.9661 174.042 40.7891 174.562C40.612 175.083 40.3542 175.539 40.0156 175.93C39.6823 176.315 39.2786 176.617 38.8047 176.836C38.3359 177.049 37.8047 177.156 37.2109 177.156C36.6172 177.156 36.0833 177.049 35.6094 176.836C35.1354 176.617 34.7292 176.315 34.3906 175.93C34.0573 175.539 33.8021 175.083 33.625 174.562C33.4479 174.042 33.3594 173.477 33.3594 172.867ZM34.8047 172.688V172.867C34.8047 173.289 34.8542 173.688 34.9531 174.062C35.0521 174.432 35.2005 174.76 35.3984 175.047C35.6016 175.333 35.8542 175.56 36.1562 175.727C36.4583 175.888 36.8099 175.969 37.2109 175.969C37.6068 175.969 37.9531 175.888 38.25 175.727C38.5521 175.56 38.8021 175.333 39 175.047C39.1979 174.76 39.3464 174.432 39.4453 174.062C39.5495 173.688 39.6016 173.289 39.6016 172.867V172.688C39.6016 172.271 39.5495 171.878 39.4453 171.508C39.3464 171.133 39.1953 170.802 38.9922 170.516C38.7943 170.224 38.5443 169.995 38.2422 169.828C37.9453 169.661 37.5964 169.578 37.1953 169.578C36.7995 169.578 36.4505 169.661 36.1484 169.828C35.8516 169.995 35.6016 170.224 35.3984 170.516C35.2005 170.802 35.0521 171.133 34.9531 171.508C34.8542 171.878 34.8047 172.271 34.8047 172.688ZM47.2969 166.633L43.5312 177H41.9922L46.3281 165.625H47.3203L47.2969 166.633ZM50.4531 177L46.6797 166.633L46.6562 165.625H47.6484L52 177H50.4531ZM50.2578 172.789V174.023H43.8672V172.789H50.2578ZM54.75 170.172V180.25H53.2969V168.547H54.625L54.75 170.172ZM60.4453 172.703V172.867C60.4453 173.482 60.3724 174.052 60.2266 174.578C60.0807 175.099 59.8672 175.552 59.5859 175.938C59.3099 176.323 58.9688 176.622 58.5625 176.836C58.1562 177.049 57.6901 177.156 57.1641 177.156C56.6276 177.156 56.1536 177.068 55.7422 176.891C55.3307 176.714 54.9818 176.456 54.6953 176.117C54.4089 175.779 54.1797 175.372 54.0078 174.898C53.8411 174.424 53.7266 173.891 53.6641 173.297V172.422C53.7266 171.797 53.8438 171.237 54.0156 170.742C54.1875 170.247 54.4141 169.826 54.6953 169.477C54.9818 169.122 55.3281 168.854 55.7344 168.672C56.1406 168.484 56.6094 168.391 57.1406 168.391C57.6719 168.391 58.1432 168.495 58.5547 168.703C58.9661 168.906 59.3125 169.198 59.5938 169.578C59.875 169.958 60.0859 170.414 60.2266 170.945C60.3724 171.471 60.4453 172.057 60.4453 172.703ZM58.9922 172.867V172.703C58.9922 172.281 58.9479 171.885 58.8594 171.516C58.7708 171.141 58.6328 170.812 58.4453 170.531C58.263 170.245 58.0286 170.021 57.7422 169.859C57.4557 169.693 57.1146 169.609 56.7188 169.609C56.3542 169.609 56.0365 169.672 55.7656 169.797C55.5 169.922 55.2734 170.091 55.0859 170.305C54.8984 170.513 54.7448 170.753 54.625 171.023C54.5104 171.289 54.4245 171.565 54.3672 171.852V173.875C54.4714 174.24 54.6172 174.583 54.8047 174.906C54.9922 175.224 55.2422 175.482 55.5547 175.68C55.8672 175.872 56.2604 175.969 56.7344 175.969C57.125 175.969 57.4609 175.888 57.7422 175.727C58.0286 175.56 58.263 175.333 58.4453 175.047C58.6328 174.76 58.7708 174.432 58.8594 174.062C58.9479 173.688 58.9922 173.289 58.9922 172.867ZM63.7344 170.172V180.25H62.2812V168.547H63.6094L63.7344 170.172ZM69.4297 172.703V172.867C69.4297 173.482 69.3568 174.052 69.2109 174.578C69.0651 175.099 68.8516 175.552 68.5703 175.938C68.2943 176.323 67.9531 176.622 67.5469 176.836C67.1406 177.049 66.6745 177.156 66.1484 177.156C65.612 177.156 65.138 177.068 64.7266 176.891C64.3151 176.714 63.9661 176.456 63.6797 176.117C63.3932 175.779 63.1641 175.372 62.9922 174.898C62.8255 174.424 62.7109 173.891 62.6484 173.297V172.422C62.7109 171.797 62.8281 171.237 63 170.742C63.1719 170.247 63.3984 169.826 63.6797 169.477C63.9661 169.122 64.3125 168.854 64.7188 168.672C65.125 168.484 65.5938 168.391 66.125 168.391C66.6562 168.391 67.1276 168.495 67.5391 168.703C67.9505 168.906 68.2969 169.198 68.5781 169.578C68.8594 169.958 69.0703 170.414 69.2109 170.945C69.3568 171.471 69.4297 172.057 69.4297 172.703ZM67.9766 172.867V172.703C67.9766 172.281 67.9323 171.885 67.8438 171.516C67.7552 171.141 67.6172 170.812 67.4297 170.531C67.2474 170.245 67.013 170.021 66.7266 169.859C66.4401 169.693 66.099 169.609 65.7031 169.609C65.3385 169.609 65.0208 169.672 64.75 169.797C64.4844 169.922 64.2578 170.091 64.0703 170.305C63.8828 170.513 63.7292 170.753 63.6094 171.023C63.4948 171.289 63.4089 171.565 63.3516 171.852V173.875C63.4557 174.24 63.6016 174.583 63.7891 174.906C63.9766 175.224 64.2266 175.482 64.5391 175.68C64.8516 175.872 65.2448 175.969 65.7188 175.969C66.1094 175.969 66.4453 175.888 66.7266 175.727C67.013 175.56 67.2474 175.333 67.4297 175.047C67.6172 174.76 67.7552 174.432 67.8438 174.062C67.9323 173.688 67.9766 173.289 67.9766 172.867ZM70.3281 165.414L70.6328 164.523C71.3464 164.721 71.9036 165.003 72.3047 165.367C72.7109 165.727 72.9974 166.146 73.1641 166.625C73.3307 167.099 73.4141 167.609 73.4141 168.156V169.773C73.4141 170.148 73.4714 170.477 73.5859 170.758C73.7005 171.034 73.8776 171.247 74.1172 171.398C74.362 171.549 74.6797 171.625 75.0703 171.625V172.508C74.3359 172.508 73.7396 172.391 73.2812 172.156C72.8229 171.917 72.487 171.591 72.2734 171.18C72.0651 170.763 71.9609 170.294 71.9609 169.773V168.156C71.9609 167.729 71.9115 167.333 71.8125 166.969C71.7135 166.599 71.5443 166.281 71.3047 166.016C71.0703 165.745 70.7448 165.544 70.3281 165.414ZM70.6328 179.859L70.3281 178.961C70.7396 178.831 71.0625 178.63 71.2969 178.359C71.5365 178.094 71.7057 177.779 71.8047 177.414C71.9089 177.049 71.9609 176.654 71.9609 176.227V174.617C71.9609 174.091 72.0651 173.622 72.2734 173.211C72.487 172.799 72.8229 172.477 73.2812 172.242C73.7396 172.003 74.3359 171.883 75.0703 171.883V172.758C74.487 172.758 74.0651 172.927 73.8047 173.266C73.5443 173.599 73.4141 174.049 73.4141 174.617V176.227C73.4141 176.773 73.3307 177.284 73.1641 177.758C72.9974 178.237 72.7109 178.656 72.3047 179.016C71.9036 179.375 71.3464 179.656 70.6328 179.859ZM82.8203 177H81.375V167.656C81.375 167.047 81.4844 166.534 81.7031 166.117C81.9271 165.695 82.2474 165.378 82.6641 165.164C83.0807 164.945 83.5755 164.836 84.1484 164.836C84.3151 164.836 84.4818 164.846 84.6484 164.867C84.8203 164.888 84.987 164.919 85.1484 164.961L85.0703 166.141C84.9609 166.115 84.8359 166.096 84.6953 166.086C84.5599 166.076 84.4245 166.07 84.2891 166.07C83.9818 166.07 83.7161 166.133 83.4922 166.258C83.2734 166.378 83.1068 166.555 82.9922 166.789C82.8776 167.023 82.8203 167.312 82.8203 167.656V177ZM84.6172 168.547V169.656H80.0391V168.547H84.6172ZM85.8438 172.867V172.688C85.8438 172.078 85.9323 171.513 86.1094 170.992C86.2865 170.466 86.5417 170.01 86.875 169.625C87.2083 169.234 87.612 168.932 88.0859 168.719C88.5599 168.5 89.0911 168.391 89.6797 168.391C90.2734 168.391 90.8073 168.5 91.2812 168.719C91.7604 168.932 92.1667 169.234 92.5 169.625C92.8385 170.01 93.0964 170.466 93.2734 170.992C93.4505 171.513 93.5391 172.078 93.5391 172.688V172.867C93.5391 173.477 93.4505 174.042 93.2734 174.562C93.0964 175.083 92.8385 175.539 92.5 175.93C92.1667 176.315 91.763 176.617 91.2891 176.836C90.8203 177.049 90.2891 177.156 89.6953 177.156C89.1016 177.156 88.5677 177.049 88.0938 176.836C87.6198 176.617 87.2135 176.315 86.875 175.93C86.5417 175.539 86.2865 175.083 86.1094 174.562C85.9323 174.042 85.8438 173.477 85.8438 172.867ZM87.2891 172.688V172.867C87.2891 173.289 87.3385 173.688 87.4375 174.062C87.5365 174.432 87.6849 174.76 87.8828 175.047C88.0859 175.333 88.3385 175.56 88.6406 175.727C88.9427 175.888 89.2943 175.969 89.6953 175.969C90.0911 175.969 90.4375 175.888 90.7344 175.727C91.0365 175.56 91.2865 175.333 91.4844 175.047C91.6823 174.76 91.8307 174.432 91.9297 174.062C92.0339 173.688 92.0859 173.289 92.0859 172.867V172.688C92.0859 172.271 92.0339 171.878 91.9297 171.508C91.8307 171.133 91.6797 170.802 91.4766 170.516C91.2786 170.224 91.0286 169.995 90.7266 169.828C90.4297 169.661 90.0807 169.578 89.6797 169.578C89.2839 169.578 88.9349 169.661 88.6328 169.828C88.3359 169.995 88.0859 170.224 87.8828 170.516C87.6849 170.802 87.5365 171.133 87.4375 171.508C87.3385 171.878 87.2891 172.271 87.2891 172.688ZM96.7969 169.875V177H95.3516V168.547H96.7578L96.7969 169.875ZM99.4375 168.5L99.4297 169.844C99.3099 169.818 99.1953 169.802 99.0859 169.797C98.9818 169.786 98.862 169.781 98.7266 169.781C98.3932 169.781 98.099 169.833 97.8438 169.938C97.5885 170.042 97.3724 170.188 97.1953 170.375C97.0182 170.562 96.8776 170.786 96.7734 171.047C96.6745 171.302 96.6094 171.583 96.5781 171.891L96.1719 172.125C96.1719 171.615 96.2214 171.135 96.3203 170.688C96.4245 170.24 96.5833 169.844 96.7969 169.5C97.0104 169.151 97.2812 168.88 97.6094 168.688C97.9427 168.49 98.3385 168.391 98.7969 168.391C98.901 168.391 99.0208 168.404 99.1562 168.43C99.2917 168.451 99.3854 168.474 99.4375 168.5ZM108.281 168.547V169.656H103.711V168.547H108.281ZM105.258 166.492H106.703V174.906C106.703 175.193 106.747 175.409 106.836 175.555C106.924 175.701 107.039 175.797 107.18 175.844C107.32 175.891 107.471 175.914 107.633 175.914C107.753 175.914 107.878 175.904 108.008 175.883C108.143 175.857 108.245 175.836 108.312 175.82L108.32 177C108.206 177.036 108.055 177.07 107.867 177.102C107.685 177.138 107.464 177.156 107.203 177.156C106.849 177.156 106.523 177.086 106.227 176.945C105.93 176.805 105.693 176.57 105.516 176.242C105.344 175.909 105.258 175.461 105.258 174.898V166.492ZM114.961 175.555V171.203C114.961 170.87 114.893 170.581 114.758 170.336C114.628 170.086 114.43 169.893 114.164 169.758C113.898 169.622 113.57 169.555 113.18 169.555C112.815 169.555 112.495 169.617 112.219 169.742C111.948 169.867 111.734 170.031 111.578 170.234C111.427 170.438 111.352 170.656 111.352 170.891H109.906C109.906 170.589 109.984 170.289 110.141 169.992C110.297 169.695 110.521 169.427 110.812 169.188C111.109 168.943 111.464 168.75 111.875 168.609C112.292 168.464 112.755 168.391 113.266 168.391C113.88 168.391 114.422 168.495 114.891 168.703C115.365 168.911 115.734 169.227 116 169.648C116.271 170.065 116.406 170.589 116.406 171.219V175.156C116.406 175.438 116.43 175.737 116.477 176.055C116.529 176.372 116.604 176.646 116.703 176.875V177H115.195C115.122 176.833 115.065 176.612 115.023 176.336C114.982 176.055 114.961 175.794 114.961 175.555ZM115.211 171.875L115.227 172.891H113.766C113.354 172.891 112.987 172.924 112.664 172.992C112.341 173.055 112.07 173.151 111.852 173.281C111.633 173.411 111.466 173.576 111.352 173.773C111.237 173.966 111.18 174.193 111.18 174.453C111.18 174.719 111.24 174.961 111.359 175.18C111.479 175.398 111.659 175.573 111.898 175.703C112.143 175.828 112.443 175.891 112.797 175.891C113.24 175.891 113.63 175.797 113.969 175.609C114.307 175.422 114.576 175.193 114.773 174.922C114.977 174.651 115.086 174.388 115.102 174.133L115.719 174.828C115.682 175.047 115.583 175.289 115.422 175.555C115.26 175.82 115.044 176.076 114.773 176.32C114.508 176.56 114.19 176.76 113.82 176.922C113.456 177.078 113.044 177.156 112.586 177.156C112.013 177.156 111.51 177.044 111.078 176.82C110.651 176.596 110.318 176.297 110.078 175.922C109.844 175.542 109.727 175.117 109.727 174.648C109.727 174.195 109.815 173.797 109.992 173.453C110.169 173.104 110.424 172.815 110.758 172.586C111.091 172.352 111.492 172.174 111.961 172.055C112.43 171.935 112.953 171.875 113.531 171.875H115.211ZM123.602 174.758C123.602 174.549 123.555 174.357 123.461 174.18C123.372 173.997 123.188 173.833 122.906 173.688C122.63 173.536 122.214 173.406 121.656 173.297C121.188 173.198 120.763 173.081 120.383 172.945C120.008 172.81 119.688 172.646 119.422 172.453C119.161 172.26 118.961 172.034 118.82 171.773C118.68 171.513 118.609 171.208 118.609 170.859C118.609 170.526 118.682 170.211 118.828 169.914C118.979 169.617 119.19 169.354 119.461 169.125C119.737 168.896 120.068 168.716 120.453 168.586C120.839 168.456 121.268 168.391 121.742 168.391C122.419 168.391 122.997 168.51 123.477 168.75C123.956 168.99 124.323 169.31 124.578 169.711C124.833 170.107 124.961 170.547 124.961 171.031H123.516C123.516 170.797 123.445 170.57 123.305 170.352C123.169 170.128 122.969 169.943 122.703 169.797C122.443 169.651 122.122 169.578 121.742 169.578C121.341 169.578 121.016 169.641 120.766 169.766C120.521 169.885 120.341 170.039 120.227 170.227C120.117 170.414 120.062 170.612 120.062 170.82C120.062 170.977 120.089 171.117 120.141 171.242C120.198 171.362 120.297 171.474 120.438 171.578C120.578 171.677 120.776 171.771 121.031 171.859C121.286 171.948 121.612 172.036 122.008 172.125C122.701 172.281 123.271 172.469 123.719 172.688C124.167 172.906 124.5 173.174 124.719 173.492C124.938 173.81 125.047 174.195 125.047 174.648C125.047 175.018 124.969 175.357 124.812 175.664C124.661 175.971 124.44 176.237 124.148 176.461C123.862 176.68 123.518 176.852 123.117 176.977C122.721 177.096 122.276 177.156 121.781 177.156C121.036 177.156 120.406 177.023 119.891 176.758C119.375 176.492 118.984 176.148 118.719 175.727C118.453 175.305 118.32 174.859 118.32 174.391H119.773C119.794 174.786 119.909 175.102 120.117 175.336C120.326 175.565 120.581 175.729 120.883 175.828C121.185 175.922 121.484 175.969 121.781 175.969C122.177 175.969 122.508 175.917 122.773 175.812C123.044 175.708 123.25 175.565 123.391 175.383C123.531 175.201 123.602 174.992 123.602 174.758ZM128.398 165V177H126.945V165H128.398ZM133.562 168.547L129.875 172.492L127.812 174.633L127.695 173.094L129.172 171.328L131.797 168.547H133.562ZM132.242 177L129.227 172.969L129.977 171.68L133.945 177H132.242ZM140.461 170.227V177H139.008V168.547H140.383L140.461 170.227ZM140.164 172.453L139.492 172.43C139.497 171.852 139.573 171.318 139.719 170.828C139.865 170.333 140.081 169.904 140.367 169.539C140.654 169.174 141.01 168.893 141.438 168.695C141.865 168.492 142.359 168.391 142.922 168.391C143.318 168.391 143.682 168.448 144.016 168.562C144.349 168.672 144.638 168.846 144.883 169.086C145.128 169.326 145.318 169.633 145.453 170.008C145.589 170.383 145.656 170.836 145.656 171.367V177H144.211V171.438C144.211 170.995 144.135 170.641 143.984 170.375C143.839 170.109 143.63 169.917 143.359 169.797C143.089 169.672 142.771 169.609 142.406 169.609C141.979 169.609 141.622 169.685 141.336 169.836C141.049 169.987 140.82 170.195 140.648 170.461C140.477 170.727 140.352 171.031 140.273 171.375C140.201 171.714 140.164 172.073 140.164 172.453ZM145.641 171.656L144.672 171.953C144.677 171.49 144.753 171.044 144.898 170.617C145.049 170.19 145.266 169.81 145.547 169.477C145.833 169.143 146.185 168.88 146.602 168.688C147.018 168.49 147.495 168.391 148.031 168.391C148.484 168.391 148.885 168.451 149.234 168.57C149.589 168.69 149.885 168.875 150.125 169.125C150.37 169.37 150.555 169.685 150.68 170.07C150.805 170.456 150.867 170.914 150.867 171.445V177H149.414V171.43C149.414 170.956 149.339 170.589 149.188 170.328C149.042 170.062 148.833 169.878 148.562 169.773C148.297 169.664 147.979 169.609 147.609 169.609C147.292 169.609 147.01 169.664 146.766 169.773C146.521 169.883 146.315 170.034 146.148 170.227C145.982 170.414 145.854 170.63 145.766 170.875C145.682 171.12 145.641 171.38 145.641 171.656ZM158.039 175.555V171.203C158.039 170.87 157.971 170.581 157.836 170.336C157.706 170.086 157.508 169.893 157.242 169.758C156.977 169.622 156.648 169.555 156.258 169.555C155.893 169.555 155.573 169.617 155.297 169.742C155.026 169.867 154.812 170.031 154.656 170.234C154.505 170.438 154.43 170.656 154.43 170.891H152.984C152.984 170.589 153.062 170.289 153.219 169.992C153.375 169.695 153.599 169.427 153.891 169.188C154.188 168.943 154.542 168.75 154.953 168.609C155.37 168.464 155.833 168.391 156.344 168.391C156.958 168.391 157.5 168.495 157.969 168.703C158.443 168.911 158.812 169.227 159.078 169.648C159.349 170.065 159.484 170.589 159.484 171.219V175.156C159.484 175.438 159.508 175.737 159.555 176.055C159.607 176.372 159.682 176.646 159.781 176.875V177H158.273C158.201 176.833 158.143 176.612 158.102 176.336C158.06 176.055 158.039 175.794 158.039 175.555ZM158.289 171.875L158.305 172.891H156.844C156.432 172.891 156.065 172.924 155.742 172.992C155.419 173.055 155.148 173.151 154.93 173.281C154.711 173.411 154.544 173.576 154.43 173.773C154.315 173.966 154.258 174.193 154.258 174.453C154.258 174.719 154.318 174.961 154.438 175.18C154.557 175.398 154.737 175.573 154.977 175.703C155.221 175.828 155.521 175.891 155.875 175.891C156.318 175.891 156.708 175.797 157.047 175.609C157.385 175.422 157.654 175.193 157.852 174.922C158.055 174.651 158.164 174.388 158.18 174.133L158.797 174.828C158.76 175.047 158.661 175.289 158.5 175.555C158.339 175.82 158.122 176.076 157.852 176.32C157.586 176.56 157.268 176.76 156.898 176.922C156.534 177.078 156.122 177.156 155.664 177.156C155.091 177.156 154.589 177.044 154.156 176.82C153.729 176.596 153.396 176.297 153.156 175.922C152.922 175.542 152.805 175.117 152.805 174.648C152.805 174.195 152.893 173.797 153.07 173.453C153.247 173.104 153.503 172.815 153.836 172.586C154.169 172.352 154.57 172.174 155.039 172.055C155.508 171.935 156.031 171.875 156.609 171.875H158.289ZM163.203 170.352V177H161.758V168.547H163.125L163.203 170.352ZM162.859 172.453L162.258 172.43C162.263 171.852 162.349 171.318 162.516 170.828C162.682 170.333 162.917 169.904 163.219 169.539C163.521 169.174 163.88 168.893 164.297 168.695C164.719 168.492 165.185 168.391 165.695 168.391C166.112 168.391 166.487 168.448 166.82 168.562C167.154 168.672 167.438 168.849 167.672 169.094C167.911 169.339 168.094 169.656 168.219 170.047C168.344 170.432 168.406 170.904 168.406 171.461V177H166.953V171.445C166.953 171.003 166.888 170.648 166.758 170.383C166.628 170.112 166.438 169.917 166.188 169.797C165.938 169.672 165.63 169.609 165.266 169.609C164.906 169.609 164.578 169.685 164.281 169.836C163.99 169.987 163.737 170.195 163.523 170.461C163.315 170.727 163.151 171.031 163.031 171.375C162.917 171.714 162.859 172.073 162.859 172.453ZM175.586 175.555V171.203C175.586 170.87 175.518 170.581 175.383 170.336C175.253 170.086 175.055 169.893 174.789 169.758C174.523 169.622 174.195 169.555 173.805 169.555C173.44 169.555 173.12 169.617 172.844 169.742C172.573 169.867 172.359 170.031 172.203 170.234C172.052 170.438 171.977 170.656 171.977 170.891H170.531C170.531 170.589 170.609 170.289 170.766 169.992C170.922 169.695 171.146 169.427 171.438 169.188C171.734 168.943 172.089 168.75 172.5 168.609C172.917 168.464 173.38 168.391 173.891 168.391C174.505 168.391 175.047 168.495 175.516 168.703C175.99 168.911 176.359 169.227 176.625 169.648C176.896 170.065 177.031 170.589 177.031 171.219V175.156C177.031 175.438 177.055 175.737 177.102 176.055C177.154 176.372 177.229 176.646 177.328 176.875V177H175.82C175.747 176.833 175.69 176.612 175.648 176.336C175.607 176.055 175.586 175.794 175.586 175.555ZM175.836 171.875L175.852 172.891H174.391C173.979 172.891 173.612 172.924 173.289 172.992C172.966 173.055 172.695 173.151 172.477 173.281C172.258 173.411 172.091 173.576 171.977 173.773C171.862 173.966 171.805 174.193 171.805 174.453C171.805 174.719 171.865 174.961 171.984 175.18C172.104 175.398 172.284 175.573 172.523 175.703C172.768 175.828 173.068 175.891 173.422 175.891C173.865 175.891 174.255 175.797 174.594 175.609C174.932 175.422 175.201 175.193 175.398 174.922C175.602 174.651 175.711 174.388 175.727 174.133L176.344 174.828C176.307 175.047 176.208 175.289 176.047 175.555C175.885 175.82 175.669 176.076 175.398 176.32C175.133 176.56 174.815 176.76 174.445 176.922C174.081 177.078 173.669 177.156 173.211 177.156C172.638 177.156 172.135 177.044 171.703 176.82C171.276 176.596 170.943 176.297 170.703 175.922C170.469 175.542 170.352 175.117 170.352 174.648C170.352 174.195 170.44 173.797 170.617 173.453C170.794 173.104 171.049 172.815 171.383 172.586C171.716 172.352 172.117 172.174 172.586 172.055C173.055 171.935 173.578 171.875 174.156 171.875H175.836ZM184.781 168.547H186.094V176.82C186.094 177.565 185.943 178.201 185.641 178.727C185.339 179.253 184.917 179.651 184.375 179.922C183.839 180.198 183.219 180.336 182.516 180.336C182.224 180.336 181.88 180.289 181.484 180.195C181.094 180.107 180.708 179.953 180.328 179.734C179.953 179.521 179.638 179.232 179.383 178.867L180.141 178.008C180.495 178.435 180.865 178.732 181.25 178.898C181.641 179.065 182.026 179.148 182.406 179.148C182.865 179.148 183.26 179.062 183.594 178.891C183.927 178.719 184.185 178.464 184.367 178.125C184.555 177.792 184.648 177.38 184.648 176.891V170.406L184.781 168.547ZM178.961 172.867V172.703C178.961 172.057 179.036 171.471 179.188 170.945C179.344 170.414 179.565 169.958 179.852 169.578C180.143 169.198 180.495 168.906 180.906 168.703C181.318 168.495 181.781 168.391 182.297 168.391C182.828 168.391 183.292 168.484 183.688 168.672C184.089 168.854 184.427 169.122 184.703 169.477C184.984 169.826 185.206 170.247 185.367 170.742C185.529 171.237 185.641 171.797 185.703 172.422V173.141C185.646 173.76 185.534 174.318 185.367 174.812C185.206 175.307 184.984 175.729 184.703 176.078C184.427 176.427 184.089 176.695 183.688 176.883C183.286 177.065 182.818 177.156 182.281 177.156C181.776 177.156 181.318 177.049 180.906 176.836C180.5 176.622 180.151 176.323 179.859 175.938C179.568 175.552 179.344 175.099 179.188 174.578C179.036 174.052 178.961 173.482 178.961 172.867ZM180.406 172.703V172.867C180.406 173.289 180.448 173.685 180.531 174.055C180.62 174.424 180.753 174.75 180.93 175.031C181.112 175.312 181.344 175.534 181.625 175.695C181.906 175.852 182.242 175.93 182.633 175.93C183.112 175.93 183.508 175.828 183.82 175.625C184.133 175.422 184.38 175.154 184.562 174.82C184.75 174.487 184.896 174.125 185 173.734V171.852C184.943 171.565 184.854 171.289 184.734 171.023C184.62 170.753 184.469 170.513 184.281 170.305C184.099 170.091 183.872 169.922 183.602 169.797C183.331 169.672 183.013 169.609 182.648 169.609C182.253 169.609 181.911 169.693 181.625 169.859C181.344 170.021 181.112 170.245 180.93 170.531C180.753 170.812 180.62 171.141 180.531 171.516C180.448 171.885 180.406 172.281 180.406 172.703ZM191.797 177.156C191.208 177.156 190.674 177.057 190.195 176.859C189.721 176.656 189.312 176.372 188.969 176.008C188.63 175.643 188.37 175.211 188.188 174.711C188.005 174.211 187.914 173.664 187.914 173.07V172.742C187.914 172.055 188.016 171.443 188.219 170.906C188.422 170.365 188.698 169.906 189.047 169.531C189.396 169.156 189.792 168.872 190.234 168.68C190.677 168.487 191.135 168.391 191.609 168.391C192.214 168.391 192.734 168.495 193.172 168.703C193.615 168.911 193.977 169.203 194.258 169.578C194.539 169.948 194.747 170.385 194.883 170.891C195.018 171.391 195.086 171.938 195.086 172.531V173.18H188.773V172H193.641V171.891C193.62 171.516 193.542 171.151 193.406 170.797C193.276 170.443 193.068 170.151 192.781 169.922C192.495 169.693 192.104 169.578 191.609 169.578C191.281 169.578 190.979 169.648 190.703 169.789C190.427 169.924 190.19 170.128 189.992 170.398C189.794 170.669 189.641 171 189.531 171.391C189.422 171.781 189.367 172.232 189.367 172.742V173.07C189.367 173.471 189.422 173.849 189.531 174.203C189.646 174.552 189.81 174.859 190.023 175.125C190.242 175.391 190.505 175.599 190.812 175.75C191.125 175.901 191.479 175.977 191.875 175.977C192.385 175.977 192.818 175.872 193.172 175.664C193.526 175.456 193.836 175.177 194.102 174.828L194.977 175.523C194.794 175.799 194.562 176.062 194.281 176.312C194 176.562 193.654 176.766 193.242 176.922C192.836 177.078 192.354 177.156 191.797 177.156ZM198.211 170.227V177H196.758V168.547H198.133L198.211 170.227ZM197.914 172.453L197.242 172.43C197.247 171.852 197.323 171.318 197.469 170.828C197.615 170.333 197.831 169.904 198.117 169.539C198.404 169.174 198.76 168.893 199.188 168.695C199.615 168.492 200.109 168.391 200.672 168.391C201.068 168.391 201.432 168.448 201.766 168.562C202.099 168.672 202.388 168.846 202.633 169.086C202.878 169.326 203.068 169.633 203.203 170.008C203.339 170.383 203.406 170.836 203.406 171.367V177H201.961V171.438C201.961 170.995 201.885 170.641 201.734 170.375C201.589 170.109 201.38 169.917 201.109 169.797C200.839 169.672 200.521 169.609 200.156 169.609C199.729 169.609 199.372 169.685 199.086 169.836C198.799 169.987 198.57 170.195 198.398 170.461C198.227 170.727 198.102 171.031 198.023 171.375C197.951 171.714 197.914 172.073 197.914 172.453ZM203.391 171.656L202.422 171.953C202.427 171.49 202.503 171.044 202.648 170.617C202.799 170.19 203.016 169.81 203.297 169.477C203.583 169.143 203.935 168.88 204.352 168.688C204.768 168.49 205.245 168.391 205.781 168.391C206.234 168.391 206.635 168.451 206.984 168.57C207.339 168.69 207.635 168.875 207.875 169.125C208.12 169.37 208.305 169.685 208.43 170.07C208.555 170.456 208.617 170.914 208.617 171.445V177H207.164V171.43C207.164 170.956 207.089 170.589 206.938 170.328C206.792 170.062 206.583 169.878 206.312 169.773C206.047 169.664 205.729 169.609 205.359 169.609C205.042 169.609 204.76 169.664 204.516 169.773C204.271 169.883 204.065 170.034 203.898 170.227C203.732 170.414 203.604 170.63 203.516 170.875C203.432 171.12 203.391 171.38 203.391 171.656ZM214.312 177.156C213.724 177.156 213.19 177.057 212.711 176.859C212.237 176.656 211.828 176.372 211.484 176.008C211.146 175.643 210.885 175.211 210.703 174.711C210.521 174.211 210.43 173.664 210.43 173.07V172.742C210.43 172.055 210.531 171.443 210.734 170.906C210.938 170.365 211.214 169.906 211.562 169.531C211.911 169.156 212.307 168.872 212.75 168.68C213.193 168.487 213.651 168.391 214.125 168.391C214.729 168.391 215.25 168.495 215.688 168.703C216.13 168.911 216.492 169.203 216.773 169.578C217.055 169.948 217.263 170.385 217.398 170.891C217.534 171.391 217.602 171.938 217.602 172.531V173.18H211.289V172H216.156V171.891C216.135 171.516 216.057 171.151 215.922 170.797C215.792 170.443 215.583 170.151 215.297 169.922C215.01 169.693 214.62 169.578 214.125 169.578C213.797 169.578 213.495 169.648 213.219 169.789C212.943 169.924 212.706 170.128 212.508 170.398C212.31 170.669 212.156 171 212.047 171.391C211.938 171.781 211.883 172.232 211.883 172.742V173.07C211.883 173.471 211.938 173.849 212.047 174.203C212.161 174.552 212.326 174.859 212.539 175.125C212.758 175.391 213.021 175.599 213.328 175.75C213.641 175.901 213.995 175.977 214.391 175.977C214.901 175.977 215.333 175.872 215.688 175.664C216.042 175.456 216.352 175.177 216.617 174.828L217.492 175.523C217.31 175.799 217.078 176.062 216.797 176.312C216.516 176.562 216.169 176.766 215.758 176.922C215.352 177.078 214.87 177.156 214.312 177.156ZM220.734 170.352V177H219.289V168.547H220.656L220.734 170.352ZM220.391 172.453L219.789 172.43C219.794 171.852 219.88 171.318 220.047 170.828C220.214 170.333 220.448 169.904 220.75 169.539C221.052 169.174 221.411 168.893 221.828 168.695C222.25 168.492 222.716 168.391 223.227 168.391C223.643 168.391 224.018 168.448 224.352 168.562C224.685 168.672 224.969 168.849 225.203 169.094C225.443 169.339 225.625 169.656 225.75 170.047C225.875 170.432 225.938 170.904 225.938 171.461V177H224.484V171.445C224.484 171.003 224.419 170.648 224.289 170.383C224.159 170.112 223.969 169.917 223.719 169.797C223.469 169.672 223.161 169.609 222.797 169.609C222.438 169.609 222.109 169.685 221.812 169.836C221.521 169.987 221.268 170.195 221.055 170.461C220.846 170.727 220.682 171.031 220.562 171.375C220.448 171.714 220.391 172.073 220.391 172.453ZM231.672 168.547V169.656H227.102V168.547H231.672ZM228.648 166.492H230.094V174.906C230.094 175.193 230.138 175.409 230.227 175.555C230.315 175.701 230.43 175.797 230.57 175.844C230.711 175.891 230.862 175.914 231.023 175.914C231.143 175.914 231.268 175.904 231.398 175.883C231.534 175.857 231.635 175.836 231.703 175.82L231.711 177C231.596 177.036 231.445 177.07 231.258 177.102C231.076 177.138 230.854 177.156 230.594 177.156C230.24 177.156 229.914 177.086 229.617 176.945C229.32 176.805 229.083 176.57 228.906 176.242C228.734 175.909 228.648 175.461 228.648 174.898V166.492ZM233.391 176.234C233.391 175.99 233.466 175.784 233.617 175.617C233.773 175.445 233.997 175.359 234.289 175.359C234.581 175.359 234.802 175.445 234.953 175.617C235.109 175.784 235.188 175.99 235.188 176.234C235.188 176.474 235.109 176.677 234.953 176.844C234.802 177.01 234.581 177.094 234.289 177.094C233.997 177.094 233.773 177.01 233.617 176.844C233.466 176.677 233.391 176.474 233.391 176.234Z" fill="white"/>
<g opacity="0.6" clip-path="url(#clip0_27_184)">
<path d="M61.648 65.6667H56.4041L52.5801 72.2001L49.3029 65.6667H37.2841L52.5801 93.6667L67.8761 65.6667H61.648ZM41.1081 68.0001H44.8224L52.5801 82.4667L60.3377 68.0001H64.0521L52.5801 89.0001L41.1081 68.0001Z" fill="white"/>
</g>
<path opacity="0.6" d="M84.7363 89C83.5051 89 82.4581 88.562 81.5953 87.686C80.7324 86.81 80.302 85.748 80.304 84.5V81.5H84.7363V84.5H89.1687V71H93.601V84.5C93.601 85.75 93.1696 86.813 92.3068 87.689C91.444 88.565 90.3979 89.002 89.1687 89H84.7363ZM100.988 89C100.151 89 99.4488 88.712 98.8815 88.136C98.3141 87.56 98.0314 86.848 98.0334 86V83H102.466V84.5H108.376V81.5H100.988C100.151 81.5 99.4488 81.212 98.8815 80.636C98.3141 80.06 98.0314 79.348 98.0334 78.5V74C98.0334 73.15 98.3171 72.437 98.8844 71.861C99.4518 71.285 100.153 70.998 100.988 71H109.853C110.69 71 111.393 71.288 111.96 71.864C112.527 72.44 112.81 73.152 112.808 74V77H108.376V75.5H102.466V78.5H109.853C110.69 78.5 111.393 78.788 111.96 79.364C112.527 79.94 112.81 80.652 112.808 81.5V86C112.808 86.85 112.524 87.563 111.957 88.139C111.39 88.715 110.688 89.002 109.853 89H100.988Z" fill="white"/>
<g opacity="0.6">
<path d="M145.312 89.0243L138.687 87.088L138.217 81.6243H141.472L141.698 84.4672L145.312 85.4955L148.926 84.4672L149.299 80.0488H138.085L137.174 69.7535H153.45L153.124 73.1606H140.755L141.047 76.6386H152.83L151.936 87.088L145.312 89.0243ZM132.406 64.0833H158.218L155.891 91.8333L145.312 94.9166L134.733 91.8333L132.406 64.0833ZM135.544 67.1666L137.411 89.419L145.312 91.7223L153.213 89.419L155.08 67.1666H135.544Z" fill="white"/>
</g>
<g opacity="0.6">
<path d="M195.548 94.0589V89.8608C195.596 89.1633 195.514 88.4621 195.309 87.8038C195.104 87.1456 194.779 86.5453 194.358 86.043C198.335 85.531 202.514 83.7903 202.514 75.8036C202.514 73.7613 201.834 71.7974 200.615 70.3182C201.192 68.5315 201.151 66.5565 200.501 64.8036C200.501 64.8036 199.006 64.2916 195.548 66.9685C192.645 66.0599 189.585 66.0599 186.682 66.9685C183.224 64.2916 181.73 64.8036 181.73 64.8036C181.079 66.5565 181.038 68.5315 181.616 70.3182C180.387 71.8083 179.706 73.79 179.716 75.8475C179.716 83.7757 183.896 85.5164 187.873 86.0868C187.456 86.5841 187.135 87.1772 186.929 87.8274C186.724 88.4776 186.64 89.1704 186.682 89.8608V94.0589" stroke="white" stroke-width="3" stroke-linecap="round" stroke-linejoin="round"/>
<path d="M186.682 91.1332C182.882 92.5564 179.716 91.1332 177.816 86.7449" stroke="white" stroke-width="3" stroke-linecap="round" stroke-linejoin="round"/>
</g>
<path d="M70.9266 20.0938V23.75H60.7391V20.0938H70.9266ZM62.8798 15.8906H68.1454V31.4844C68.1454 31.9323 68.1975 32.2812 68.3016 32.5312C68.4058 32.7708 68.5829 32.9427 68.8329 33.0469C69.0933 33.1406 69.4371 33.1875 69.8641 33.1875C70.1662 33.1875 70.4162 33.1823 70.6141 33.1719C70.8121 33.151 70.9996 33.125 71.1766 33.0938V36.8594C70.7287 37.0052 70.26 37.1146 69.7704 37.1875C69.2808 37.2708 68.76 37.3125 68.2079 37.3125C67.0829 37.3125 66.1193 37.1354 65.3173 36.7812C64.5256 36.4271 63.9214 35.8698 63.5048 35.1094C63.0881 34.349 62.8798 33.3594 62.8798 32.1406V15.8906ZM71.8954 28.7188V28.3906C71.8954 27.151 72.0725 26.0104 72.4266 24.9688C72.7808 23.9167 73.3016 23.0052 73.9891 22.2344C74.6766 21.4635 75.5256 20.8646 76.536 20.4375C77.5464 20 78.7131 19.7812 80.036 19.7812C81.3693 19.7812 82.5412 20 83.5516 20.4375C84.5725 20.8646 85.4266 21.4635 86.1141 22.2344C86.8016 23.0052 87.3225 23.9167 87.6766 24.9688C88.0308 26.0104 88.2079 27.151 88.2079 28.3906V28.7188C88.2079 29.9479 88.0308 31.0885 87.6766 32.1406C87.3225 33.1823 86.8016 34.0938 86.1141 34.875C85.4266 35.6458 84.5777 36.2448 83.5673 36.6719C82.5568 37.099 81.3902 37.3125 80.0673 37.3125C78.7443 37.3125 77.5725 37.099 76.5516 36.6719C75.5308 36.2448 74.6766 35.6458 73.9891 34.875C73.3016 34.0938 72.7808 33.1823 72.4266 32.1406C72.0725 31.0885 71.8954 29.9479 71.8954 28.7188ZM77.161 28.3906V28.7188C77.161 29.3542 77.2079 29.9479 77.3016 30.5C77.3954 31.0521 77.5516 31.5365 77.7704 31.9531C77.9891 32.3594 78.286 32.6771 78.661 32.9062C79.036 33.1354 79.5048 33.25 80.0673 33.25C80.6193 33.25 81.0777 33.1354 81.4423 32.9062C81.8173 32.6771 82.1141 32.3594 82.3329 31.9531C82.5516 31.5365 82.7079 31.0521 82.8016 30.5C82.8954 29.9479 82.9423 29.3542 82.9423 28.7188V28.3906C82.9423 27.776 82.8954 27.1979 82.8016 26.6562C82.7079 26.1042 82.5516 25.6198 82.3329 25.2031C82.1141 24.776 81.8173 24.4427 81.4423 24.2031C81.0673 23.9635 80.5985 23.8438 80.036 23.8438C79.4839 23.8438 79.0204 23.9635 78.6454 24.2031C78.2808 24.4427 77.9891 24.776 77.7704 25.2031C77.5516 25.6198 77.3954 26.1042 77.3016 26.6562C77.2079 27.1979 77.161 27.776 77.161 28.3906ZM98.1923 37H93.1454L93.1766 32.7812H98.1923C99.2339 32.7812 100.114 32.5312 100.833 32.0312C101.562 31.5312 102.114 30.7865 102.489 29.7969C102.875 28.7969 103.067 27.5677 103.067 26.1094V25.125C103.067 24.0312 102.958 23.0729 102.739 22.25C102.531 21.4167 102.218 20.724 101.802 20.1719C101.385 19.6094 100.864 19.1875 100.239 18.9062C99.6246 18.625 98.9162 18.4844 98.1141 18.4844H93.0516V14.25H98.1141C99.6558 14.25 101.067 14.5156 102.349 15.0469C103.64 15.5677 104.755 16.3177 105.692 17.2969C106.64 18.2656 107.369 19.4167 107.88 20.75C108.401 22.0729 108.661 23.5417 108.661 25.1562V26.1094C108.661 27.7135 108.401 29.1823 107.88 30.5156C107.369 31.849 106.645 33 105.708 33.9688C104.77 34.9375 103.661 35.6875 102.38 36.2188C101.109 36.7396 99.7131 37 98.1923 37ZM96.286 14.25V37H90.8016V14.25H96.286ZM110.614 28.7188V28.3906C110.614 27.151 110.791 26.0104 111.145 24.9688C111.5 23.9167 112.02 23.0052 112.708 22.2344C113.395 21.4635 114.244 20.8646 115.255 20.4375C116.265 20 117.432 19.7812 118.755 19.7812C120.088 19.7812 121.26 20 122.27 20.4375C123.291 20.8646 124.145 21.4635 124.833 22.2344C125.52 23.0052 126.041 23.9167 126.395 24.9688C126.75 26.0104 126.927 27.151 126.927 28.3906V28.7188C126.927 29.9479 126.75 31.0885 126.395 32.1406C126.041 33.1823 125.52 34.0938 124.833 34.875C124.145 35.6458 123.296 36.2448 122.286 36.6719C121.276 37.099 120.109 37.3125 118.786 37.3125C117.463 37.3125 116.291 37.099 115.27 36.6719C114.25 36.2448 113.395 35.6458 112.708 34.875C112.02 34.0938 111.5 33.1823 111.145 32.1406C110.791 31.0885 110.614 29.9479 110.614 28.7188ZM115.88 28.3906V28.7188C115.88 29.3542 115.927 29.9479 116.02 30.5C116.114 31.0521 116.27 31.5365 116.489 31.9531C116.708 32.3594 117.005 32.6771 117.38 32.9062C117.755 33.1354 118.224 33.25 118.786 33.25C119.338 33.25 119.796 33.1354 120.161 32.9062C120.536 32.6771 120.833 32.3594 121.052 31.9531C121.27 31.5365 121.427 31.0521 121.52 30.5C121.614 29.9479 121.661 29.3542 121.661 28.7188V28.3906C121.661 27.776 121.614 27.1979 121.52 26.6562C121.427 26.1042 121.27 25.6198 121.052 25.2031C120.833 24.776 120.536 24.4427 120.161 24.2031C119.786 23.9635 119.317 23.8438 118.755 23.8438C118.203 23.8438 117.739 23.9635 117.364 24.2031C117 24.4427 116.708 24.776 116.489 25.2031C116.27 25.6198 116.114 26.1042 116.02 26.6562C115.927 27.1979 115.88 27.776 115.88 28.3906ZM139.161 19.0312L133.614 37H127.724L136.083 14.25H139.817L139.161 19.0312ZM143.755 37L138.192 19.0312L137.474 14.25H141.255L149.661 37H143.755ZM143.536 28.5156V32.75H131.864V28.5156H143.536ZM155.645 23.3438V43.5H150.38V20.0938H155.286L155.645 23.3438ZM166.02 28.3438V28.6719C166.02 29.901 165.88 31.0417 165.599 32.0938C165.317 33.1458 164.901 34.0625 164.349 34.8438C163.796 35.625 163.109 36.2344 162.286 36.6719C161.474 37.099 160.531 37.3125 159.458 37.3125C158.447 37.3125 157.578 37.0885 156.849 36.6406C156.119 36.1927 155.51 35.5729 155.02 34.7812C154.531 33.9896 154.135 33.0833 153.833 32.0625C153.531 31.0417 153.291 29.9635 153.114 28.8281V28.4062C153.291 27.1875 153.531 26.0573 153.833 25.0156C154.135 23.9635 154.531 23.0469 155.02 22.2656C155.51 21.4844 156.114 20.875 156.833 20.4375C157.562 20 158.432 19.7812 159.442 19.7812C160.515 19.7812 161.458 19.9844 162.27 20.3906C163.093 20.7969 163.781 21.3802 164.333 22.1406C164.895 22.8906 165.317 23.7917 165.599 24.8438C165.88 25.8958 166.02 27.0625 166.02 28.3438ZM160.755 28.6719V28.3438C160.755 27.6875 160.708 27.0885 160.614 26.5469C160.52 25.9948 160.369 25.5156 160.161 25.1094C159.963 24.7031 159.697 24.3906 159.364 24.1719C159.031 23.9531 158.619 23.8438 158.13 23.8438C157.567 23.8438 157.093 23.9323 156.708 24.1094C156.333 24.276 156.031 24.5365 155.802 24.8906C155.583 25.2344 155.427 25.6667 155.333 26.1875C155.25 26.6979 155.213 27.2969 155.224 27.9844V29.2656C155.203 30.0573 155.281 30.7552 155.458 31.3594C155.635 31.9531 155.942 32.4167 156.38 32.75C156.817 33.0833 157.411 33.25 158.161 33.25C158.661 33.25 159.078 33.1354 159.411 32.9062C159.744 32.6667 160.01 32.3385 160.208 31.9219C160.406 31.4948 160.546 31.0052 160.63 30.4531C160.713 29.901 160.755 29.3073 160.755 28.6719ZM173.677 23.3438V43.5H168.411V20.0938H173.317L173.677 23.3438ZM184.052 28.3438V28.6719C184.052 29.901 183.911 31.0417 183.63 32.0938C183.349 33.1458 182.932 34.0625 182.38 34.8438C181.828 35.625 181.14 36.2344 180.317 36.6719C179.505 37.099 178.562 37.3125 177.489 37.3125C176.479 37.3125 175.609 37.0885 174.88 36.6406C174.151 36.1927 173.541 35.5729 173.052 34.7812C172.562 33.9896 172.166 33.0833 171.864 32.0625C171.562 31.0417 171.322 29.9635 171.145 28.8281V28.4062C171.322 27.1875 171.562 26.0573 171.864 25.0156C172.166 23.9635 172.562 23.0469 173.052 22.2656C173.541 21.4844 174.145 20.875 174.864 20.4375C175.593 20 176.463 19.7812 177.474 19.7812C178.546 19.7812 179.489 19.9844 180.302 20.3906C181.125 20.7969 181.812 21.3802 182.364 22.1406C182.927 22.8906 183.349 23.7917 183.63 24.8438C183.911 25.8958 184.052 27.0625 184.052 28.3438ZM178.786 28.6719V28.3438C178.786 27.6875 178.739 27.0885 178.645 26.5469C178.552 25.9948 178.401 25.5156 178.192 25.1094C177.994 24.7031 177.729 24.3906 177.395 24.1719C177.062 23.9531 176.651 23.8438 176.161 23.8438C175.599 23.8438 175.125 23.9323 174.739 24.1094C174.364 24.276 174.062 24.5365 173.833 24.8906C173.614 25.2344 173.458 25.6667 173.364 26.1875C173.281 26.6979 173.244 27.2969 173.255 27.9844V29.2656C173.234 30.0573 173.312 30.7552 173.489 31.3594C173.666 31.9531 173.974 32.4167 174.411 32.75C174.849 33.0833 175.442 33.25 176.192 33.25C176.692 33.25 177.109 33.1354 177.442 32.9062C177.776 32.6667 178.041 32.3385 178.239 31.9219C178.437 31.4948 178.578 31.0052 178.661 30.4531C178.744 29.901 178.786 29.3073 178.786 28.6719Z" fill="white"/>
<defs>
<clipPath id="clip0_27_184">
<rect width="30.592" height="32" fill="white" transform="translate(37.2841 63)"/>
</clipPath>
</defs>
</svg>
