<svg width="347" height="110" viewBox="0 0 347 110" fill="none" xmlns="http://www.w3.org/2000/svg">
<path d="M75.4004 70.3369L71.1641 82H69.4326L74.3105 69.2031H75.4268L75.4004 70.3369ZM78.9512 82L74.7061 70.3369L74.6797 69.2031H75.7959L80.6914 82H78.9512ZM78.7314 77.2627V78.6514H71.542V77.2627H78.7314ZM92.6182 80.1543V68.5H94.2529V82H92.7588L92.6182 80.1543ZM86.2197 77.3506V77.166C86.2197 76.4395 86.3076 75.7803 86.4834 75.1885C86.665 74.5908 86.9199 74.0781 87.248 73.6504C87.582 73.2227 87.9775 72.8945 88.4346 72.666C88.8975 72.4316 89.4131 72.3145 89.9814 72.3145C90.5791 72.3145 91.1006 72.4199 91.5459 72.6309C91.9971 72.8359 92.3779 73.1377 92.6885 73.5361C93.0049 73.9287 93.2539 74.4033 93.4355 74.96C93.6172 75.5166 93.7432 76.1465 93.8135 76.8496V77.6582C93.749 78.3555 93.623 78.9824 93.4355 79.5391C93.2539 80.0957 93.0049 80.5703 92.6885 80.9629C92.3779 81.3555 91.9971 81.6572 91.5459 81.8682C91.0947 82.0732 90.5674 82.1758 89.9639 82.1758C89.4072 82.1758 88.8975 82.0557 88.4346 81.8154C87.9775 81.5752 87.582 81.2383 87.248 80.8047C86.9199 80.3711 86.665 79.8613 86.4834 79.2754C86.3076 78.6836 86.2197 78.042 86.2197 77.3506ZM87.8545 77.166V77.3506C87.8545 77.8252 87.9014 78.2705 87.9951 78.6865C88.0947 79.1025 88.2471 79.4688 88.4521 79.7852C88.6572 80.1016 88.918 80.3506 89.2344 80.5322C89.5508 80.708 89.9287 80.7959 90.3682 80.7959C90.9072 80.7959 91.3496 80.6816 91.6953 80.4531C92.0469 80.2246 92.3281 79.9229 92.5391 79.5479C92.75 79.1729 92.9141 78.7656 93.0312 78.3262V76.208C92.9609 75.8857 92.8584 75.5752 92.7236 75.2764C92.5947 74.9717 92.4248 74.7021 92.2139 74.4678C92.0088 74.2275 91.7539 74.0371 91.4492 73.8965C91.1504 73.7559 90.7959 73.6855 90.3857 73.6855C89.9404 73.6855 89.5566 73.7793 89.2344 73.9668C88.918 74.1484 88.6572 74.4004 88.4521 74.7227C88.2471 75.0391 88.0947 75.4082 87.9951 75.8301C87.9014 76.2461 87.8545 76.6914 87.8545 77.166ZM98.5508 72.4902V82H96.916V72.4902H98.5508ZM96.793 69.9678C96.793 69.7041 96.8721 69.4814 97.0303 69.2998C97.1943 69.1182 97.4346 69.0273 97.751 69.0273C98.0615 69.0273 98.2988 69.1182 98.4629 69.2998C98.6328 69.4814 98.7178 69.7041 98.7178 69.9678C98.7178 70.2197 98.6328 70.4365 98.4629 70.6182C98.2988 70.7939 98.0615 70.8818 97.751 70.8818C97.4346 70.8818 97.1943 70.7939 97.0303 70.6182C96.8721 70.4365 96.793 70.2197 96.793 69.9678ZM104.053 80.5322L106.654 72.4902H108.315L104.896 82H103.807L104.053 80.5322ZM101.882 72.4902L104.562 80.5762L104.747 82H103.657L100.212 72.4902H101.882ZM113.703 82.1758C113.041 82.1758 112.44 82.0645 111.901 81.8418C111.368 81.6133 110.908 81.2939 110.521 80.8838C110.141 80.4736 109.848 79.9873 109.643 79.4248C109.438 78.8623 109.335 78.2471 109.335 77.5791V77.21C109.335 76.4365 109.449 75.748 109.678 75.1445C109.906 74.5352 110.217 74.0195 110.609 73.5977C111.002 73.1758 111.447 72.8564 111.945 72.6396C112.443 72.4229 112.959 72.3145 113.492 72.3145C114.172 72.3145 114.758 72.4316 115.25 72.666C115.748 72.9004 116.155 73.2285 116.472 73.6504C116.788 74.0664 117.022 74.5586 117.175 75.127C117.327 75.6895 117.403 76.3047 117.403 76.9727V77.7021H110.302V76.375H115.777V76.252C115.754 75.8301 115.666 75.4199 115.514 75.0215C115.367 74.623 115.133 74.2949 114.811 74.0371C114.488 73.7793 114.049 73.6504 113.492 73.6504C113.123 73.6504 112.783 73.7295 112.473 73.8877C112.162 74.04 111.896 74.2686 111.673 74.5732C111.45 74.8779 111.277 75.25 111.154 75.6895C111.031 76.1289 110.97 76.6357 110.97 77.21V77.5791C110.97 78.0303 111.031 78.4551 111.154 78.8535C111.283 79.2461 111.468 79.5918 111.708 79.8906C111.954 80.1895 112.25 80.4238 112.596 80.5938C112.947 80.7637 113.346 80.8486 113.791 80.8486C114.365 80.8486 114.852 80.7314 115.25 80.4971C115.648 80.2627 115.997 79.9492 116.296 79.5566L117.28 80.3389C117.075 80.6494 116.814 80.9453 116.498 81.2266C116.182 81.5078 115.792 81.7363 115.329 81.9121C114.872 82.0879 114.33 82.1758 113.703 82.1758ZM120.928 73.9844V82H119.302V72.4902H120.884L120.928 73.9844ZM123.898 72.4375L123.89 73.9492C123.755 73.9199 123.626 73.9023 123.503 73.8965C123.386 73.8848 123.251 73.8789 123.099 73.8789C122.724 73.8789 122.393 73.9375 122.105 74.0547C121.818 74.1719 121.575 74.3359 121.376 74.5469C121.177 74.7578 121.019 75.0098 120.901 75.3027C120.79 75.5898 120.717 75.9062 120.682 76.252L120.225 76.5156C120.225 75.9414 120.28 75.4023 120.392 74.8984C120.509 74.3945 120.688 73.9492 120.928 73.5625C121.168 73.1699 121.473 72.8652 121.842 72.6484C122.217 72.4258 122.662 72.3145 123.178 72.3145C123.295 72.3145 123.43 72.3291 123.582 72.3584C123.734 72.3818 123.84 72.4082 123.898 72.4375ZM130.938 79.4775C130.938 79.2432 130.886 79.0264 130.78 78.8271C130.681 78.6221 130.473 78.4375 130.156 78.2734C129.846 78.1035 129.377 77.957 128.75 77.834C128.223 77.7227 127.745 77.5908 127.317 77.4385C126.896 77.2861 126.535 77.1016 126.236 76.8848C125.943 76.668 125.718 76.4131 125.56 76.1201C125.401 75.8271 125.322 75.4844 125.322 75.0918C125.322 74.7168 125.404 74.3623 125.568 74.0283C125.738 73.6943 125.976 73.3984 126.28 73.1406C126.591 72.8828 126.963 72.6807 127.396 72.5342C127.83 72.3877 128.313 72.3145 128.847 72.3145C129.608 72.3145 130.259 72.4492 130.798 72.7188C131.337 72.9883 131.75 73.3486 132.037 73.7998C132.324 74.2451 132.468 74.7402 132.468 75.2852H130.842C130.842 75.0215 130.763 74.7666 130.604 74.5205C130.452 74.2686 130.227 74.0605 129.928 73.8965C129.635 73.7324 129.274 73.6504 128.847 73.6504C128.396 73.6504 128.029 73.7207 127.748 73.8613C127.473 73.9961 127.271 74.1689 127.142 74.3799C127.019 74.5908 126.957 74.8135 126.957 75.0479C126.957 75.2236 126.986 75.3818 127.045 75.5225C127.109 75.6572 127.221 75.7832 127.379 75.9004C127.537 76.0117 127.76 76.1172 128.047 76.2168C128.334 76.3164 128.7 76.416 129.146 76.5156C129.925 76.6914 130.566 76.9023 131.07 77.1484C131.574 77.3945 131.949 77.6963 132.195 78.0537C132.441 78.4111 132.564 78.8447 132.564 79.3545C132.564 79.7705 132.477 80.1514 132.301 80.4971C132.131 80.8428 131.882 81.1416 131.554 81.3936C131.231 81.6396 130.845 81.833 130.394 81.9736C129.948 82.1084 129.447 82.1758 128.891 82.1758C128.053 82.1758 127.344 82.0264 126.764 81.7275C126.184 81.4287 125.744 81.042 125.445 80.5674C125.146 80.0928 124.997 79.5918 124.997 79.0645H126.632C126.655 79.5098 126.784 79.8643 127.019 80.1279C127.253 80.3857 127.54 80.5703 127.88 80.6816C128.22 80.7871 128.557 80.8398 128.891 80.8398C129.336 80.8398 129.708 80.7812 130.007 80.6641C130.312 80.5469 130.543 80.3857 130.701 80.1807C130.859 79.9756 130.938 79.7412 130.938 79.4775ZM138.646 82.1758C137.984 82.1758 137.384 82.0645 136.845 81.8418C136.312 81.6133 135.852 81.2939 135.465 80.8838C135.084 80.4736 134.791 79.9873 134.586 79.4248C134.381 78.8623 134.278 78.2471 134.278 77.5791V77.21C134.278 76.4365 134.393 75.748 134.621 75.1445C134.85 74.5352 135.16 74.0195 135.553 73.5977C135.945 73.1758 136.391 72.8564 136.889 72.6396C137.387 72.4229 137.902 72.3145 138.436 72.3145C139.115 72.3145 139.701 72.4316 140.193 72.666C140.691 72.9004 141.099 73.2285 141.415 73.6504C141.731 74.0664 141.966 74.5586 142.118 75.127C142.271 75.6895 142.347 76.3047 142.347 76.9727V77.7021H135.245V76.375H140.721V76.252C140.697 75.8301 140.609 75.4199 140.457 75.0215C140.311 74.623 140.076 74.2949 139.754 74.0371C139.432 73.7793 138.992 73.6504 138.436 73.6504C138.066 73.6504 137.727 73.7295 137.416 73.8877C137.105 74.04 136.839 74.2686 136.616 74.5732C136.394 74.8779 136.221 75.25 136.098 75.6895C135.975 76.1289 135.913 76.6357 135.913 77.21V77.5791C135.913 78.0303 135.975 78.4551 136.098 78.8535C136.227 79.2461 136.411 79.5918 136.651 79.8906C136.897 80.1895 137.193 80.4238 137.539 80.5938C137.891 80.7637 138.289 80.8486 138.734 80.8486C139.309 80.8486 139.795 80.7314 140.193 80.4971C140.592 80.2627 140.94 79.9492 141.239 79.5566L142.224 80.3389C142.019 80.6494 141.758 80.9453 141.441 81.2266C141.125 81.5078 140.735 81.7363 140.272 81.9121C139.815 82.0879 139.273 82.1758 138.646 82.1758ZM150.336 73.9844V82H148.71V72.4902H150.292L150.336 73.9844ZM153.307 72.4375L153.298 73.9492C153.163 73.9199 153.034 73.9023 152.911 73.8965C152.794 73.8848 152.659 73.8789 152.507 73.8789C152.132 73.8789 151.801 73.9375 151.514 74.0547C151.227 74.1719 150.983 74.3359 150.784 74.5469C150.585 74.7578 150.427 75.0098 150.31 75.3027C150.198 75.5898 150.125 75.9062 150.09 76.252L149.633 76.5156C149.633 75.9414 149.688 75.4023 149.8 74.8984C149.917 74.3945 150.096 73.9492 150.336 73.5625C150.576 73.1699 150.881 72.8652 151.25 72.6484C151.625 72.4258 152.07 72.3145 152.586 72.3145C152.703 72.3145 152.838 72.3291 152.99 72.3584C153.143 72.3818 153.248 72.4082 153.307 72.4375ZM160.065 80.374V75.4785C160.065 75.1035 159.989 74.7783 159.837 74.5029C159.69 74.2217 159.468 74.0049 159.169 73.8525C158.87 73.7002 158.501 73.624 158.062 73.624C157.651 73.624 157.291 73.6943 156.98 73.835C156.676 73.9756 156.436 74.1602 156.26 74.3887C156.09 74.6172 156.005 74.8633 156.005 75.127H154.379C154.379 74.7871 154.467 74.4502 154.643 74.1162C154.818 73.7822 155.07 73.4805 155.398 73.2109C155.732 72.9355 156.131 72.7188 156.594 72.5605C157.062 72.3965 157.584 72.3145 158.158 72.3145C158.85 72.3145 159.459 72.4316 159.986 72.666C160.52 72.9004 160.936 73.2549 161.234 73.7295C161.539 74.1982 161.691 74.7871 161.691 75.4961V79.9258C161.691 80.2422 161.718 80.5791 161.771 80.9365C161.829 81.2939 161.914 81.6016 162.025 81.8594V82H160.329C160.247 81.8125 160.183 81.5635 160.136 81.2529C160.089 80.9365 160.065 80.6436 160.065 80.374ZM160.347 76.2344L160.364 77.377H158.721C158.258 77.377 157.845 77.415 157.481 77.4912C157.118 77.5615 156.813 77.6699 156.567 77.8164C156.321 77.9629 156.134 78.1475 156.005 78.3701C155.876 78.5869 155.812 78.8418 155.812 79.1348C155.812 79.4336 155.879 79.7061 156.014 79.9521C156.148 80.1982 156.351 80.3945 156.62 80.541C156.896 80.6816 157.232 80.752 157.631 80.752C158.129 80.752 158.568 80.6465 158.949 80.4355C159.33 80.2246 159.632 79.9668 159.854 79.6621C160.083 79.3574 160.206 79.0615 160.224 78.7744L160.918 79.5566C160.877 79.8027 160.766 80.0752 160.584 80.374C160.402 80.6729 160.159 80.96 159.854 81.2354C159.556 81.5049 159.198 81.7305 158.782 81.9121C158.372 82.0879 157.909 82.1758 157.394 82.1758C156.749 82.1758 156.184 82.0498 155.697 81.7979C155.217 81.5459 154.842 81.209 154.572 80.7871C154.309 80.3594 154.177 79.8818 154.177 79.3545C154.177 78.8447 154.276 78.3965 154.476 78.0098C154.675 77.6172 154.962 77.292 155.337 77.0342C155.712 76.7705 156.163 76.5713 156.69 76.4365C157.218 76.3018 157.807 76.2344 158.457 76.2344H160.347ZM165.875 74.5205V82H164.249V72.4902H165.787L165.875 74.5205ZM165.488 76.8848L164.812 76.8584C164.817 76.208 164.914 75.6074 165.102 75.0566C165.289 74.5 165.553 74.0166 165.893 73.6064C166.232 73.1963 166.637 72.8799 167.105 72.6572C167.58 72.4287 168.104 72.3145 168.679 72.3145C169.147 72.3145 169.569 72.3789 169.944 72.5078C170.319 72.6309 170.639 72.8301 170.902 73.1055C171.172 73.3809 171.377 73.7383 171.518 74.1777C171.658 74.6113 171.729 75.1416 171.729 75.7686V82H170.094V75.751C170.094 75.2529 170.021 74.8545 169.874 74.5557C169.728 74.251 169.514 74.0312 169.232 73.8965C168.951 73.7559 168.605 73.6855 168.195 73.6855C167.791 73.6855 167.422 73.7705 167.088 73.9404C166.76 74.1104 166.476 74.3447 166.235 74.6436C166.001 74.9424 165.816 75.2852 165.682 75.6719C165.553 76.0527 165.488 76.457 165.488 76.8848ZM180.359 72.4902H181.836V81.7979C181.836 82.6357 181.666 83.3506 181.326 83.9424C180.986 84.5342 180.512 84.9824 179.902 85.2871C179.299 85.5977 178.602 85.7529 177.811 85.7529C177.482 85.7529 177.096 85.7002 176.65 85.5947C176.211 85.4951 175.777 85.3223 175.35 85.0762C174.928 84.8359 174.573 84.5107 174.286 84.1006L175.139 83.1338C175.537 83.6143 175.953 83.9482 176.387 84.1357C176.826 84.3232 177.26 84.417 177.688 84.417C178.203 84.417 178.648 84.3203 179.023 84.127C179.398 83.9336 179.688 83.6465 179.894 83.2656C180.104 82.8906 180.21 82.4277 180.21 81.877V74.582L180.359 72.4902ZM173.812 77.3506V77.166C173.812 76.4395 173.896 75.7803 174.066 75.1885C174.242 74.5908 174.491 74.0781 174.813 73.6504C175.142 73.2227 175.537 72.8945 176 72.666C176.463 72.4316 176.984 72.3145 177.564 72.3145C178.162 72.3145 178.684 72.4199 179.129 72.6309C179.58 72.8359 179.961 73.1377 180.271 73.5361C180.588 73.9287 180.837 74.4033 181.019 74.96C181.2 75.5166 181.326 76.1465 181.396 76.8496V77.6582C181.332 78.3555 181.206 78.9824 181.019 79.5391C180.837 80.0957 180.588 80.5703 180.271 80.9629C179.961 81.3555 179.58 81.6572 179.129 81.8682C178.678 82.0732 178.15 82.1758 177.547 82.1758C176.979 82.1758 176.463 82.0557 176 81.8154C175.543 81.5752 175.15 81.2383 174.822 80.8047C174.494 80.3711 174.242 79.8613 174.066 79.2754C173.896 78.6836 173.812 78.042 173.812 77.3506ZM175.438 77.166V77.3506C175.438 77.8252 175.484 78.2705 175.578 78.6865C175.678 79.1025 175.827 79.4688 176.026 79.7852C176.231 80.1016 176.492 80.3506 176.809 80.5322C177.125 80.708 177.503 80.7959 177.942 80.7959C178.481 80.7959 178.927 80.6816 179.278 80.4531C179.63 80.2246 179.908 79.9229 180.113 79.5479C180.324 79.1729 180.488 78.7656 180.605 78.3262V76.208C180.541 75.8857 180.441 75.5752 180.307 75.2764C180.178 74.9717 180.008 74.7021 179.797 74.4678C179.592 74.2275 179.337 74.0371 179.032 73.8965C178.728 73.7559 178.37 73.6855 177.96 73.6855C177.515 73.6855 177.131 73.7793 176.809 73.9668C176.492 74.1484 176.231 74.4004 176.026 74.7227C175.827 75.0391 175.678 75.4082 175.578 75.8301C175.484 76.2461 175.438 76.6914 175.438 77.166ZM188.252 82.1758C187.59 82.1758 186.989 82.0645 186.45 81.8418C185.917 81.6133 185.457 81.2939 185.07 80.8838C184.689 80.4736 184.396 79.9873 184.191 79.4248C183.986 78.8623 183.884 78.2471 183.884 77.5791V77.21C183.884 76.4365 183.998 75.748 184.227 75.1445C184.455 74.5352 184.766 74.0195 185.158 73.5977C185.551 73.1758 185.996 72.8564 186.494 72.6396C186.992 72.4229 187.508 72.3145 188.041 72.3145C188.721 72.3145 189.307 72.4316 189.799 72.666C190.297 72.9004 190.704 73.2285 191.021 73.6504C191.337 74.0664 191.571 74.5586 191.724 75.127C191.876 75.6895 191.952 76.3047 191.952 76.9727V77.7021H184.851V76.375H190.326V76.252C190.303 75.8301 190.215 75.4199 190.062 75.0215C189.916 74.623 189.682 74.2949 189.359 74.0371C189.037 73.7793 188.598 73.6504 188.041 73.6504C187.672 73.6504 187.332 73.7295 187.021 73.8877C186.711 74.04 186.444 74.2686 186.222 74.5732C185.999 74.8779 185.826 75.25 185.703 75.6895C185.58 76.1289 185.519 76.6357 185.519 77.21V77.5791C185.519 78.0303 185.58 78.4551 185.703 78.8535C185.832 79.2461 186.017 79.5918 186.257 79.8906C186.503 80.1895 186.799 80.4238 187.145 80.5938C187.496 80.7637 187.895 80.8486 188.34 80.8486C188.914 80.8486 189.4 80.7314 189.799 80.4971C190.197 80.2627 190.546 79.9492 190.845 79.5566L191.829 80.3389C191.624 80.6494 191.363 80.9453 191.047 81.2266C190.73 81.5078 190.341 81.7363 189.878 81.9121C189.421 82.0879 188.879 82.1758 188.252 82.1758ZM197.885 77.3506V77.1484C197.885 76.4629 197.984 75.8271 198.184 75.2412C198.383 74.6494 198.67 74.1367 199.045 73.7031C199.42 73.2637 199.874 72.9238 200.407 72.6836C200.94 72.4375 201.538 72.3145 202.2 72.3145C202.868 72.3145 203.469 72.4375 204.002 72.6836C204.541 72.9238 204.998 73.2637 205.373 73.7031C205.754 74.1367 206.044 74.6494 206.243 75.2412C206.442 75.8271 206.542 76.4629 206.542 77.1484V77.3506C206.542 78.0361 206.442 78.6719 206.243 79.2578C206.044 79.8438 205.754 80.3564 205.373 80.7959C204.998 81.2295 204.544 81.5693 204.011 81.8154C203.483 82.0557 202.886 82.1758 202.218 82.1758C201.55 82.1758 200.949 82.0557 200.416 81.8154C199.883 81.5693 199.426 81.2295 199.045 80.7959C198.67 80.3564 198.383 79.8438 198.184 79.2578C197.984 78.6719 197.885 78.0361 197.885 77.3506ZM199.511 77.1484V77.3506C199.511 77.8252 199.566 78.2734 199.678 78.6953C199.789 79.1113 199.956 79.4805 200.179 79.8027C200.407 80.125 200.691 80.3799 201.031 80.5674C201.371 80.749 201.767 80.8398 202.218 80.8398C202.663 80.8398 203.053 80.749 203.387 80.5674C203.727 80.3799 204.008 80.125 204.23 79.8027C204.453 79.4805 204.62 79.1113 204.731 78.6953C204.849 78.2734 204.907 77.8252 204.907 77.3506V77.1484C204.907 76.6797 204.849 76.2373 204.731 75.8213C204.62 75.3994 204.45 75.0273 204.222 74.7051C203.999 74.377 203.718 74.1191 203.378 73.9316C203.044 73.7441 202.651 73.6504 202.2 73.6504C201.755 73.6504 201.362 73.7441 201.022 73.9316C200.688 74.1191 200.407 74.377 200.179 74.7051C199.956 75.0273 199.789 75.3994 199.678 75.8213C199.566 76.2373 199.511 76.6797 199.511 77.1484ZM211.007 82H209.381V71.4883C209.381 70.8027 209.504 70.2256 209.75 69.7568C210.002 69.2822 210.362 68.9248 210.831 68.6846C211.3 68.4385 211.856 68.3154 212.501 68.3154C212.688 68.3154 212.876 68.3271 213.063 68.3506C213.257 68.374 213.444 68.4092 213.626 68.4561L213.538 69.7832C213.415 69.7539 213.274 69.7334 213.116 69.7217C212.964 69.71 212.812 69.7041 212.659 69.7041C212.313 69.7041 212.015 69.7744 211.763 69.915C211.517 70.0498 211.329 70.249 211.2 70.5127C211.071 70.7764 211.007 71.1016 211.007 71.4883V82ZM213.028 72.4902V73.7383H207.878V72.4902H213.028ZM220.93 74.3184V85.6562H219.295V72.4902H220.789L220.93 74.3184ZM227.337 77.166V77.3506C227.337 78.042 227.255 78.6836 227.091 79.2754C226.927 79.8613 226.687 80.3711 226.37 80.8047C226.06 81.2383 225.676 81.5752 225.219 81.8154C224.762 82.0557 224.237 82.1758 223.646 82.1758C223.042 82.1758 222.509 82.0762 222.046 81.877C221.583 81.6777 221.19 81.3877 220.868 81.0068C220.546 80.626 220.288 80.1689 220.095 79.6357C219.907 79.1025 219.778 78.502 219.708 77.834V76.8496C219.778 76.1465 219.91 75.5166 220.104 74.96C220.297 74.4033 220.552 73.9287 220.868 73.5361C221.19 73.1377 221.58 72.8359 222.037 72.6309C222.494 72.4199 223.021 72.3145 223.619 72.3145C224.217 72.3145 224.747 72.4316 225.21 72.666C225.673 72.8945 226.062 73.2227 226.379 73.6504C226.695 74.0781 226.933 74.5908 227.091 75.1885C227.255 75.7803 227.337 76.4395 227.337 77.166ZM225.702 77.3506V77.166C225.702 76.6914 225.652 76.2461 225.553 75.8301C225.453 75.4082 225.298 75.0391 225.087 74.7227C224.882 74.4004 224.618 74.1484 224.296 73.9668C223.974 73.7793 223.59 73.6855 223.145 73.6855C222.734 73.6855 222.377 73.7559 222.072 73.8965C221.773 74.0371 221.519 74.2275 221.308 74.4678C221.097 74.7021 220.924 74.9717 220.789 75.2764C220.66 75.5752 220.563 75.8857 220.499 76.208V78.4844C220.616 78.8945 220.78 79.2812 220.991 79.6445C221.202 80.002 221.483 80.292 221.835 80.5146C222.187 80.7314 222.629 80.8398 223.162 80.8398C223.602 80.8398 223.979 80.749 224.296 80.5674C224.618 80.3799 224.882 80.125 225.087 79.8027C225.298 79.4805 225.453 79.1113 225.553 78.6953C225.652 78.2734 225.702 77.8252 225.702 77.3506ZM231.037 73.9844V82H229.411V72.4902H230.993L231.037 73.9844ZM234.008 72.4375L233.999 73.9492C233.864 73.9199 233.735 73.9023 233.612 73.8965C233.495 73.8848 233.36 73.8789 233.208 73.8789C232.833 73.8789 232.502 73.9375 232.215 74.0547C231.928 74.1719 231.685 74.3359 231.485 74.5469C231.286 74.7578 231.128 75.0098 231.011 75.3027C230.899 75.5898 230.826 75.9062 230.791 76.252L230.334 76.5156C230.334 75.9414 230.39 75.4023 230.501 74.8984C230.618 74.3945 230.797 73.9492 231.037 73.5625C231.277 73.1699 231.582 72.8652 231.951 72.6484C232.326 72.4258 232.771 72.3145 233.287 72.3145C233.404 72.3145 233.539 72.3291 233.691 72.3584C233.844 72.3818 233.949 72.4082 234.008 72.4375ZM234.904 77.3506V77.1484C234.904 76.4629 235.004 75.8271 235.203 75.2412C235.402 74.6494 235.689 74.1367 236.064 73.7031C236.439 73.2637 236.894 72.9238 237.427 72.6836C237.96 72.4375 238.558 72.3145 239.22 72.3145C239.888 72.3145 240.488 72.4375 241.021 72.6836C241.561 72.9238 242.018 73.2637 242.393 73.7031C242.773 74.1367 243.063 74.6494 243.263 75.2412C243.462 75.8271 243.562 76.4629 243.562 77.1484V77.3506C243.562 78.0361 243.462 78.6719 243.263 79.2578C243.063 79.8438 242.773 80.3564 242.393 80.7959C242.018 81.2295 241.563 81.5693 241.03 81.8154C240.503 82.0557 239.905 82.1758 239.237 82.1758C238.569 82.1758 237.969 82.0557 237.436 81.8154C236.902 81.5693 236.445 81.2295 236.064 80.7959C235.689 80.3564 235.402 79.8438 235.203 79.2578C235.004 78.6719 234.904 78.0361 234.904 77.3506ZM236.53 77.1484V77.3506C236.53 77.8252 236.586 78.2734 236.697 78.6953C236.809 79.1113 236.976 79.4805 237.198 79.8027C237.427 80.125 237.711 80.3799 238.051 80.5674C238.391 80.749 238.786 80.8398 239.237 80.8398C239.683 80.8398 240.072 80.749 240.406 80.5674C240.746 80.3799 241.027 80.125 241.25 79.8027C241.473 79.4805 241.64 79.1113 241.751 78.6953C241.868 78.2734 241.927 77.8252 241.927 77.3506V77.1484C241.927 76.6797 241.868 76.2373 241.751 75.8213C241.64 75.3994 241.47 75.0273 241.241 74.7051C241.019 74.377 240.737 74.1191 240.397 73.9316C240.063 73.7441 239.671 73.6504 239.22 73.6504C238.774 73.6504 238.382 73.7441 238.042 73.9316C237.708 74.1191 237.427 74.377 237.198 74.7051C236.976 75.0273 236.809 75.3994 236.697 75.8213C236.586 76.2373 236.53 76.6797 236.53 77.1484ZM245.645 72.4902H247.279V83.1338C247.279 83.7139 247.186 84.2061 246.998 84.6104C246.816 85.0146 246.541 85.3193 246.172 85.5244C245.809 85.7354 245.349 85.8408 244.792 85.8408C244.646 85.8408 244.476 85.8262 244.282 85.7969C244.083 85.7676 243.916 85.7324 243.781 85.6914L243.79 84.3818C243.901 84.4053 244.027 84.4229 244.168 84.4346C244.309 84.4521 244.432 84.4609 244.537 84.4609C244.777 84.4609 244.979 84.417 245.144 84.3291C245.308 84.2412 245.431 84.1006 245.513 83.9072C245.601 83.7139 245.645 83.4561 245.645 83.1338V72.4902ZM245.478 69.9678C245.478 69.7041 245.56 69.4814 245.724 69.2998C245.888 69.1182 246.125 69.0273 246.436 69.0273C246.752 69.0273 246.992 69.1182 247.156 69.2998C247.32 69.4814 247.402 69.7041 247.402 69.9678C247.402 70.2197 247.32 70.4365 247.156 70.6182C246.992 70.7939 246.752 70.8818 246.436 70.8818C246.125 70.8818 245.888 70.7939 245.724 70.6182C245.56 70.4365 245.478 70.2197 245.478 69.9678ZM253.854 82.1758C253.191 82.1758 252.591 82.0645 252.052 81.8418C251.519 81.6133 251.059 81.2939 250.672 80.8838C250.291 80.4736 249.998 79.9873 249.793 79.4248C249.588 78.8623 249.485 78.2471 249.485 77.5791V77.21C249.485 76.4365 249.6 75.748 249.828 75.1445C250.057 74.5352 250.367 74.0195 250.76 73.5977C251.152 73.1758 251.598 72.8564 252.096 72.6396C252.594 72.4229 253.109 72.3145 253.643 72.3145C254.322 72.3145 254.908 72.4316 255.4 72.666C255.898 72.9004 256.306 73.2285 256.622 73.6504C256.938 74.0664 257.173 74.5586 257.325 75.127C257.478 75.6895 257.554 76.3047 257.554 76.9727V77.7021H250.452V76.375H255.928V76.252C255.904 75.8301 255.816 75.4199 255.664 75.0215C255.518 74.623 255.283 74.2949 254.961 74.0371C254.639 73.7793 254.199 73.6504 253.643 73.6504C253.273 73.6504 252.934 73.7295 252.623 73.8877C252.312 74.04 252.046 74.2686 251.823 74.5732C251.601 74.8779 251.428 75.25 251.305 75.6895C251.182 76.1289 251.12 76.6357 251.12 77.21V77.5791C251.12 78.0303 251.182 78.4551 251.305 78.8535C251.434 79.2461 251.618 79.5918 251.858 79.8906C252.104 80.1895 252.4 80.4238 252.746 80.5938C253.098 80.7637 253.496 80.8486 253.941 80.8486C254.516 80.8486 255.002 80.7314 255.4 80.4971C255.799 80.2627 256.147 79.9492 256.446 79.5566L257.431 80.3389C257.226 80.6494 256.965 80.9453 256.648 81.2266C256.332 81.5078 255.942 81.7363 255.479 81.9121C255.022 82.0879 254.48 82.1758 253.854 82.1758ZM263.258 80.8398C263.645 80.8398 264.002 80.7607 264.33 80.6025C264.658 80.4443 264.928 80.2275 265.139 79.9521C265.35 79.6709 265.47 79.3516 265.499 78.9941H267.046C267.017 79.5566 266.826 80.0811 266.475 80.5674C266.129 81.0479 265.675 81.4375 265.112 81.7363C264.55 82.0293 263.932 82.1758 263.258 82.1758C262.543 82.1758 261.919 82.0498 261.386 81.7979C260.858 81.5459 260.419 81.2002 260.067 80.7607C259.722 80.3213 259.461 79.8174 259.285 79.249C259.115 78.6748 259.03 78.0684 259.03 77.4297V77.0605C259.03 76.4219 259.115 75.8184 259.285 75.25C259.461 74.6758 259.722 74.1689 260.067 73.7295C260.419 73.29 260.858 72.9443 261.386 72.6924C261.919 72.4404 262.543 72.3145 263.258 72.3145C264.002 72.3145 264.652 72.4668 265.209 72.7715C265.766 73.0703 266.202 73.4805 266.519 74.002C266.841 74.5176 267.017 75.1035 267.046 75.7598H265.499C265.47 75.3672 265.358 75.0127 265.165 74.6963C264.978 74.3799 264.72 74.1279 264.392 73.9404C264.069 73.7471 263.691 73.6504 263.258 73.6504C262.76 73.6504 262.341 73.75 262.001 73.9492C261.667 74.1426 261.4 74.4062 261.201 74.7402C261.008 75.0684 260.867 75.4346 260.779 75.8389C260.697 76.2373 260.656 76.6445 260.656 77.0605V77.4297C260.656 77.8457 260.697 78.2559 260.779 78.6602C260.861 79.0645 260.999 79.4307 261.192 79.7588C261.392 80.0869 261.658 80.3506 261.992 80.5498C262.332 80.7432 262.754 80.8398 263.258 80.8398ZM272.855 72.4902V73.7383H267.714V72.4902H272.855ZM269.454 70.1787H271.08V79.6445C271.08 79.9668 271.13 80.21 271.229 80.374C271.329 80.5381 271.458 80.6465 271.616 80.6992C271.774 80.752 271.944 80.7783 272.126 80.7783C272.261 80.7783 272.401 80.7666 272.548 80.7432C272.7 80.7139 272.814 80.6904 272.891 80.6729L272.899 82C272.771 82.041 272.601 82.0791 272.39 82.1143C272.185 82.1553 271.936 82.1758 271.643 82.1758C271.244 82.1758 270.878 82.0967 270.544 81.9385C270.21 81.7803 269.943 81.5166 269.744 81.1475C269.551 80.7725 269.454 80.2686 269.454 79.6357V70.1787ZM280.3 79.4775C280.3 79.2432 280.247 79.0264 280.142 78.8271C280.042 78.6221 279.834 78.4375 279.518 78.2734C279.207 78.1035 278.738 77.957 278.111 77.834C277.584 77.7227 277.106 77.5908 276.679 77.4385C276.257 77.2861 275.896 77.1016 275.598 76.8848C275.305 76.668 275.079 76.4131 274.921 76.1201C274.763 75.8271 274.684 75.4844 274.684 75.0918C274.684 74.7168 274.766 74.3623 274.93 74.0283C275.1 73.6943 275.337 73.3984 275.642 73.1406C275.952 72.8828 276.324 72.6807 276.758 72.5342C277.191 72.3877 277.675 72.3145 278.208 72.3145C278.97 72.3145 279.62 72.4492 280.159 72.7188C280.698 72.9883 281.111 73.3486 281.398 73.7998C281.686 74.2451 281.829 74.7402 281.829 75.2852H280.203C280.203 75.0215 280.124 74.7666 279.966 74.5205C279.813 74.2686 279.588 74.0605 279.289 73.8965C278.996 73.7324 278.636 73.6504 278.208 73.6504C277.757 73.6504 277.391 73.7207 277.109 73.8613C276.834 73.9961 276.632 74.1689 276.503 74.3799C276.38 74.5908 276.318 74.8135 276.318 75.0479C276.318 75.2236 276.348 75.3818 276.406 75.5225C276.471 75.6572 276.582 75.7832 276.74 75.9004C276.898 76.0117 277.121 76.1172 277.408 76.2168C277.695 76.3164 278.062 76.416 278.507 76.5156C279.286 76.6914 279.928 76.9023 280.432 77.1484C280.936 77.3945 281.311 77.6963 281.557 78.0537C281.803 78.4111 281.926 78.8447 281.926 79.3545C281.926 79.7705 281.838 80.1514 281.662 80.4971C281.492 80.8428 281.243 81.1416 280.915 81.3936C280.593 81.6396 280.206 81.833 279.755 81.9736C279.31 82.1084 278.809 82.1758 278.252 82.1758C277.414 82.1758 276.705 82.0264 276.125 81.7275C275.545 81.4287 275.105 81.042 274.807 80.5674C274.508 80.0928 274.358 79.5918 274.358 79.0645H275.993C276.017 79.5098 276.146 79.8643 276.38 80.1279C276.614 80.3857 276.901 80.5703 277.241 80.6816C277.581 80.7871 277.918 80.8398 278.252 80.8398C278.697 80.8398 279.069 80.7812 279.368 80.6641C279.673 80.5469 279.904 80.3857 280.062 80.1807C280.221 79.9756 280.3 79.7412 280.3 79.4775ZM39.7432 96.4902V97.7383H34.6016V96.4902H39.7432ZM36.3418 94.1787H37.9678V103.645C37.9678 103.967 38.0176 104.21 38.1172 104.374C38.2168 104.538 38.3457 104.646 38.5039 104.699C38.6621 104.752 38.832 104.778 39.0137 104.778C39.1484 104.778 39.2891 104.767 39.4355 104.743C39.5879 104.714 39.7021 104.69 39.7783 104.673L39.7871 106C39.6582 106.041 39.4883 106.079 39.2773 106.114C39.0723 106.155 38.8232 106.176 38.5303 106.176C38.1318 106.176 37.7656 106.097 37.4316 105.938C37.0977 105.78 36.8311 105.517 36.6318 105.147C36.4385 104.772 36.3418 104.269 36.3418 103.636V94.1787ZM43.2764 92.5V106H41.6504V92.5H43.2764ZM42.8896 100.885L42.2129 100.858C42.2188 100.208 42.3154 99.6074 42.5029 99.0566C42.6904 98.5 42.9541 98.0166 43.2939 97.6064C43.6338 97.1963 44.0381 96.8799 44.5068 96.6572C44.9814 96.4287 45.5059 96.3145 46.0801 96.3145C46.5488 96.3145 46.9707 96.3789 47.3457 96.5078C47.7207 96.6309 48.04 96.8301 48.3037 97.1055C48.5732 97.3809 48.7783 97.7383 48.9189 98.1777C49.0596 98.6113 49.1299 99.1416 49.1299 99.7686V106H47.4951V99.751C47.4951 99.2529 47.4219 98.8545 47.2754 98.5557C47.1289 98.251 46.915 98.0312 46.6338 97.8965C46.3525 97.7559 46.0068 97.6855 45.5967 97.6855C45.1924 97.6855 44.8232 97.7705 44.4893 97.9404C44.1611 98.1104 43.877 98.3447 43.6367 98.6436C43.4023 98.9424 43.2178 99.2852 43.083 99.6719C42.9541 100.053 42.8896 100.457 42.8896 100.885ZM53.1904 97.9844V106H51.5645V96.4902H53.1465L53.1904 97.9844ZM56.1611 96.4375L56.1523 97.9492C56.0176 97.9199 55.8887 97.9023 55.7656 97.8965C55.6484 97.8848 55.5137 97.8789 55.3613 97.8789C54.9863 97.8789 54.6553 97.9375 54.3682 98.0547C54.0811 98.1719 53.8379 98.3359 53.6387 98.5469C53.4395 98.7578 53.2812 99.0098 53.1641 99.3027C53.0527 99.5898 52.9795 99.9062 52.9443 100.252L52.4873 100.516C52.4873 99.9414 52.543 99.4023 52.6543 98.8984C52.7715 98.3945 52.9502 97.9492 53.1904 97.5625C53.4307 97.1699 53.7354 96.8652 54.1045 96.6484C54.4795 96.4258 54.9248 96.3145 55.4404 96.3145C55.5576 96.3145 55.6924 96.3291 55.8447 96.3584C55.9971 96.3818 56.1025 96.4082 56.1611 96.4375ZM57.0576 101.351V101.148C57.0576 100.463 57.1572 99.8271 57.3564 99.2412C57.5557 98.6494 57.8428 98.1367 58.2178 97.7031C58.5928 97.2637 59.0469 96.9238 59.5801 96.6836C60.1133 96.4375 60.7109 96.3145 61.373 96.3145C62.041 96.3145 62.6416 96.4375 63.1748 96.6836C63.7139 96.9238 64.1709 97.2637 64.5459 97.7031C64.9268 98.1367 65.2168 98.6494 65.416 99.2412C65.6152 99.8271 65.7148 100.463 65.7148 101.148V101.351C65.7148 102.036 65.6152 102.672 65.416 103.258C65.2168 103.844 64.9268 104.356 64.5459 104.796C64.1709 105.229 63.7168 105.569 63.1836 105.815C62.6562 106.056 62.0586 106.176 61.3906 106.176C60.7227 106.176 60.1221 106.056 59.5889 105.815C59.0557 105.569 58.5986 105.229 58.2178 104.796C57.8428 104.356 57.5557 103.844 57.3564 103.258C57.1572 102.672 57.0576 102.036 57.0576 101.351ZM58.6836 101.148V101.351C58.6836 101.825 58.7393 102.273 58.8506 102.695C58.9619 103.111 59.1289 103.48 59.3516 103.803C59.5801 104.125 59.8643 104.38 60.2041 104.567C60.5439 104.749 60.9395 104.84 61.3906 104.84C61.8359 104.84 62.2256 104.749 62.5596 104.567C62.8994 104.38 63.1807 104.125 63.4033 103.803C63.626 103.48 63.793 103.111 63.9043 102.695C64.0215 102.273 64.0801 101.825 64.0801 101.351V101.148C64.0801 100.68 64.0215 100.237 63.9043 99.8213C63.793 99.3994 63.623 99.0273 63.3945 98.7051C63.1719 98.377 62.8906 98.1191 62.5508 97.9316C62.2168 97.7441 61.8242 97.6504 61.373 97.6504C60.9277 97.6504 60.5352 97.7441 60.1953 97.9316C59.8613 98.1191 59.5801 98.377 59.3516 98.7051C59.1289 99.0273 58.9619 99.3994 58.8506 99.8213C58.7393 100.237 58.6836 100.68 58.6836 101.148ZM73.5723 103.803V96.4902H75.207V106H73.6514L73.5723 103.803ZM73.8799 101.799L74.5566 101.781C74.5566 102.414 74.4893 103 74.3545 103.539C74.2256 104.072 74.0146 104.535 73.7217 104.928C73.4287 105.32 73.0449 105.628 72.5703 105.851C72.0957 106.067 71.5186 106.176 70.8389 106.176C70.376 106.176 69.9512 106.108 69.5645 105.974C69.1836 105.839 68.8555 105.631 68.5801 105.35C68.3047 105.068 68.0908 104.702 67.9385 104.251C67.792 103.8 67.7188 103.258 67.7188 102.625V96.4902H69.3447V102.643C69.3447 103.07 69.3916 103.425 69.4854 103.706C69.585 103.981 69.7168 104.201 69.8809 104.365C70.0508 104.523 70.2383 104.635 70.4434 104.699C70.6543 104.764 70.8711 104.796 71.0938 104.796C71.7852 104.796 72.333 104.664 72.7373 104.4C73.1416 104.131 73.4316 103.771 73.6074 103.319C73.7891 102.862 73.8799 102.355 73.8799 101.799ZM83.8467 96.4902H85.3232V105.798C85.3232 106.636 85.1533 107.351 84.8135 107.942C84.4736 108.534 83.999 108.982 83.3896 109.287C82.7861 109.598 82.0889 109.753 81.2979 109.753C80.9697 109.753 80.583 109.7 80.1377 109.595C79.6982 109.495 79.2646 109.322 78.8369 109.076C78.415 108.836 78.0605 108.511 77.7734 108.101L78.626 107.134C79.0244 107.614 79.4404 107.948 79.874 108.136C80.3135 108.323 80.7471 108.417 81.1748 108.417C81.6904 108.417 82.1357 108.32 82.5107 108.127C82.8857 107.934 83.1758 107.646 83.3809 107.266C83.5918 106.891 83.6973 106.428 83.6973 105.877V98.582L83.8467 96.4902ZM77.2988 101.351V101.166C77.2988 100.439 77.3838 99.7803 77.5537 99.1885C77.7295 98.5908 77.9785 98.0781 78.3008 97.6504C78.6289 97.2227 79.0244 96.8945 79.4873 96.666C79.9502 96.4316 80.4717 96.3145 81.0518 96.3145C81.6494 96.3145 82.1709 96.4199 82.6162 96.6309C83.0674 96.8359 83.4482 97.1377 83.7588 97.5361C84.0752 97.9287 84.3242 98.4033 84.5059 98.96C84.6875 99.5166 84.8135 100.146 84.8838 100.85V101.658C84.8193 102.355 84.6934 102.982 84.5059 103.539C84.3242 104.096 84.0752 104.57 83.7588 104.963C83.4482 105.355 83.0674 105.657 82.6162 105.868C82.165 106.073 81.6377 106.176 81.0342 106.176C80.4658 106.176 79.9502 106.056 79.4873 105.815C79.0303 105.575 78.6377 105.238 78.3096 104.805C77.9814 104.371 77.7295 103.861 77.5537 103.275C77.3838 102.684 77.2988 102.042 77.2988 101.351ZM78.9248 101.166V101.351C78.9248 101.825 78.9717 102.271 79.0654 102.687C79.165 103.103 79.3145 103.469 79.5137 103.785C79.7188 104.102 79.9795 104.351 80.2959 104.532C80.6123 104.708 80.9902 104.796 81.4297 104.796C81.9688 104.796 82.4141 104.682 82.7656 104.453C83.1172 104.225 83.3955 103.923 83.6006 103.548C83.8115 103.173 83.9756 102.766 84.0928 102.326V100.208C84.0283 99.8857 83.9287 99.5752 83.7939 99.2764C83.665 98.9717 83.4951 98.7021 83.2842 98.4678C83.0791 98.2275 82.8242 98.0371 82.5195 97.8965C82.2148 97.7559 81.8574 97.6855 81.4473 97.6855C81.002 97.6855 80.6182 97.7793 80.2959 97.9668C79.9795 98.1484 79.7188 98.4004 79.5137 98.7227C79.3145 99.0391 79.165 99.4082 79.0654 99.8301C78.9717 100.246 78.9248 100.691 78.9248 101.166ZM89.4189 92.5V106H87.793V92.5H89.4189ZM89.0322 100.885L88.3555 100.858C88.3613 100.208 88.458 99.6074 88.6455 99.0566C88.833 98.5 89.0967 98.0166 89.4365 97.6064C89.7764 97.1963 90.1807 96.8799 90.6494 96.6572C91.124 96.4287 91.6484 96.3145 92.2227 96.3145C92.6914 96.3145 93.1133 96.3789 93.4883 96.5078C93.8633 96.6309 94.1826 96.8301 94.4463 97.1055C94.7158 97.3809 94.9209 97.7383 95.0615 98.1777C95.2021 98.6113 95.2725 99.1416 95.2725 99.7686V106H93.6377V99.751C93.6377 99.2529 93.5645 98.8545 93.418 98.5557C93.2715 98.251 93.0576 98.0312 92.7764 97.8965C92.4951 97.7559 92.1494 97.6855 91.7393 97.6855C91.335 97.6855 90.9658 97.7705 90.6318 97.9404C90.3037 98.1104 90.0195 98.3447 89.7793 98.6436C89.5449 98.9424 89.3604 99.2852 89.2256 99.6719C89.0967 100.053 89.0322 100.457 89.0322 100.885ZM97.2764 101.351V101.148C97.2764 100.463 97.376 99.8271 97.5752 99.2412C97.7744 98.6494 98.0615 98.1367 98.4365 97.7031C98.8115 97.2637 99.2656 96.9238 99.7988 96.6836C100.332 96.4375 100.93 96.3145 101.592 96.3145C102.26 96.3145 102.86 96.4375 103.394 96.6836C103.933 96.9238 104.39 97.2637 104.765 97.7031C105.146 98.1367 105.436 98.6494 105.635 99.2412C105.834 99.8271 105.934 100.463 105.934 101.148V101.351C105.934 102.036 105.834 102.672 105.635 103.258C105.436 103.844 105.146 104.356 104.765 104.796C104.39 105.229 103.936 105.569 103.402 105.815C102.875 106.056 102.277 106.176 101.609 106.176C100.941 106.176 100.341 106.056 99.8076 105.815C99.2744 105.569 98.8174 105.229 98.4365 104.796C98.0615 104.356 97.7744 103.844 97.5752 103.258C97.376 102.672 97.2764 102.036 97.2764 101.351ZM98.9023 101.148V101.351C98.9023 101.825 98.958 102.273 99.0693 102.695C99.1807 103.111 99.3477 103.48 99.5703 103.803C99.7988 104.125 100.083 104.38 100.423 104.567C100.763 104.749 101.158 104.84 101.609 104.84C102.055 104.84 102.444 104.749 102.778 104.567C103.118 104.38 103.399 104.125 103.622 103.803C103.845 103.48 104.012 103.111 104.123 102.695C104.24 102.273 104.299 101.825 104.299 101.351V101.148C104.299 100.68 104.24 100.237 104.123 99.8213C104.012 99.3994 103.842 99.0273 103.613 98.7051C103.391 98.377 103.109 98.1191 102.77 97.9316C102.436 97.7441 102.043 97.6504 101.592 97.6504C101.146 97.6504 100.754 97.7441 100.414 97.9316C100.08 98.1191 99.7988 98.377 99.5703 98.7051C99.3477 99.0273 99.1807 99.3994 99.0693 99.8213C98.958 100.237 98.9023 100.68 98.9023 101.148ZM113.791 103.803V96.4902H115.426V106H113.87L113.791 103.803ZM114.099 101.799L114.775 101.781C114.775 102.414 114.708 103 114.573 103.539C114.444 104.072 114.233 104.535 113.94 104.928C113.647 105.32 113.264 105.628 112.789 105.851C112.314 106.067 111.737 106.176 111.058 106.176C110.595 106.176 110.17 106.108 109.783 105.974C109.402 105.839 109.074 105.631 108.799 105.35C108.523 105.068 108.31 104.702 108.157 104.251C108.011 103.8 107.938 103.258 107.938 102.625V96.4902H109.563V102.643C109.563 103.07 109.61 103.425 109.704 103.706C109.804 103.981 109.936 104.201 110.1 104.365C110.27 104.523 110.457 104.635 110.662 104.699C110.873 104.764 111.09 104.796 111.312 104.796C112.004 104.796 112.552 104.664 112.956 104.4C113.36 104.131 113.65 103.771 113.826 103.319C114.008 102.862 114.099 102.355 114.099 101.799ZM121.886 96.4902V97.7383H116.744V96.4902H121.886ZM118.484 94.1787H120.11V103.645C120.11 103.967 120.16 104.21 120.26 104.374C120.359 104.538 120.488 104.646 120.646 104.699C120.805 104.752 120.975 104.778 121.156 104.778C121.291 104.778 121.432 104.767 121.578 104.743C121.73 104.714 121.845 104.69 121.921 104.673L121.93 106C121.801 106.041 121.631 106.079 121.42 106.114C121.215 106.155 120.966 106.176 120.673 106.176C120.274 106.176 119.908 106.097 119.574 105.938C119.24 105.78 118.974 105.517 118.774 105.147C118.581 104.772 118.484 104.269 118.484 103.636V94.1787ZM129.875 98.3799V106H128.24V96.4902H129.787L129.875 98.3799ZM129.541 100.885L128.785 100.858C128.791 100.208 128.876 99.6074 129.04 99.0566C129.204 98.5 129.447 98.0166 129.77 97.6064C130.092 97.1963 130.493 96.8799 130.974 96.6572C131.454 96.4287 132.011 96.3145 132.644 96.3145C133.089 96.3145 133.499 96.3789 133.874 96.5078C134.249 96.6309 134.574 96.8271 134.85 97.0967C135.125 97.3662 135.339 97.7119 135.491 98.1338C135.644 98.5557 135.72 99.0654 135.72 99.6631V106H134.094V99.7422C134.094 99.2441 134.009 98.8457 133.839 98.5469C133.675 98.248 133.44 98.0312 133.136 97.8965C132.831 97.7559 132.474 97.6855 132.063 97.6855C131.583 97.6855 131.182 97.7705 130.859 97.9404C130.537 98.1104 130.279 98.3447 130.086 98.6436C129.893 98.9424 129.752 99.2852 129.664 99.6719C129.582 100.053 129.541 100.457 129.541 100.885ZM135.702 99.9883L134.612 100.322C134.618 99.8008 134.703 99.2998 134.867 98.8193C135.037 98.3389 135.28 97.9111 135.597 97.5361C135.919 97.1611 136.314 96.8652 136.783 96.6484C137.252 96.4258 137.788 96.3145 138.392 96.3145C138.901 96.3145 139.353 96.3818 139.745 96.5166C140.144 96.6514 140.478 96.8594 140.747 97.1406C141.022 97.416 141.23 97.7705 141.371 98.2041C141.512 98.6377 141.582 99.1533 141.582 99.751V106H139.947V99.7334C139.947 99.2002 139.862 98.7871 139.692 98.4941C139.528 98.1953 139.294 97.9873 138.989 97.8701C138.69 97.7471 138.333 97.6855 137.917 97.6855C137.56 97.6855 137.243 97.7471 136.968 97.8701C136.692 97.9932 136.461 98.1631 136.273 98.3799C136.086 98.5908 135.942 98.834 135.843 99.1094C135.749 99.3848 135.702 99.6777 135.702 99.9883ZM146.715 105.016L149.36 96.4902H151.101L147.286 107.468C147.198 107.702 147.081 107.954 146.935 108.224C146.794 108.499 146.612 108.76 146.39 109.006C146.167 109.252 145.897 109.451 145.581 109.604C145.271 109.762 144.898 109.841 144.465 109.841C144.336 109.841 144.172 109.823 143.973 109.788C143.773 109.753 143.633 109.724 143.551 109.7L143.542 108.382C143.589 108.388 143.662 108.394 143.762 108.399C143.867 108.411 143.94 108.417 143.981 108.417C144.351 108.417 144.664 108.367 144.922 108.268C145.18 108.174 145.396 108.013 145.572 107.784C145.754 107.562 145.909 107.254 146.038 106.861L146.715 105.016ZM144.772 96.4902L147.242 103.873L147.664 105.587L146.495 106.185L142.997 96.4902H144.772ZM160.839 104.84C161.226 104.84 161.583 104.761 161.911 104.603C162.239 104.444 162.509 104.228 162.72 103.952C162.931 103.671 163.051 103.352 163.08 102.994H164.627C164.598 103.557 164.407 104.081 164.056 104.567C163.71 105.048 163.256 105.438 162.693 105.736C162.131 106.029 161.513 106.176 160.839 106.176C160.124 106.176 159.5 106.05 158.967 105.798C158.439 105.546 158 105.2 157.648 104.761C157.303 104.321 157.042 103.817 156.866 103.249C156.696 102.675 156.611 102.068 156.611 101.43V101.061C156.611 100.422 156.696 99.8184 156.866 99.25C157.042 98.6758 157.303 98.1689 157.648 97.7295C158 97.29 158.439 96.9443 158.967 96.6924C159.5 96.4404 160.124 96.3145 160.839 96.3145C161.583 96.3145 162.233 96.4668 162.79 96.7715C163.347 97.0703 163.783 97.4805 164.1 98.002C164.422 98.5176 164.598 99.1035 164.627 99.7598H163.08C163.051 99.3672 162.939 99.0127 162.746 98.6963C162.559 98.3799 162.301 98.1279 161.973 97.9404C161.65 97.7471 161.272 97.6504 160.839 97.6504C160.341 97.6504 159.922 97.75 159.582 97.9492C159.248 98.1426 158.981 98.4062 158.782 98.7402C158.589 99.0684 158.448 99.4346 158.36 99.8389C158.278 100.237 158.237 100.645 158.237 101.061V101.43C158.237 101.846 158.278 102.256 158.36 102.66C158.442 103.064 158.58 103.431 158.773 103.759C158.973 104.087 159.239 104.351 159.573 104.55C159.913 104.743 160.335 104.84 160.839 104.84ZM172.062 104.374V99.4785C172.062 99.1035 171.986 98.7783 171.834 98.5029C171.688 98.2217 171.465 98.0049 171.166 97.8525C170.867 97.7002 170.498 97.624 170.059 97.624C169.648 97.624 169.288 97.6943 168.978 97.835C168.673 97.9756 168.433 98.1602 168.257 98.3887C168.087 98.6172 168.002 98.8633 168.002 99.127H166.376C166.376 98.7871 166.464 98.4502 166.64 98.1162C166.815 97.7822 167.067 97.4805 167.396 97.2109C167.729 96.9355 168.128 96.7188 168.591 96.5605C169.06 96.3965 169.581 96.3145 170.155 96.3145C170.847 96.3145 171.456 96.4316 171.983 96.666C172.517 96.9004 172.933 97.2549 173.231 97.7295C173.536 98.1982 173.688 98.7871 173.688 99.4961V103.926C173.688 104.242 173.715 104.579 173.768 104.937C173.826 105.294 173.911 105.602 174.022 105.859V106H172.326C172.244 105.812 172.18 105.563 172.133 105.253C172.086 104.937 172.062 104.644 172.062 104.374ZM172.344 100.234L172.361 101.377H170.718C170.255 101.377 169.842 101.415 169.479 101.491C169.115 101.562 168.811 101.67 168.564 101.816C168.318 101.963 168.131 102.147 168.002 102.37C167.873 102.587 167.809 102.842 167.809 103.135C167.809 103.434 167.876 103.706 168.011 103.952C168.146 104.198 168.348 104.395 168.617 104.541C168.893 104.682 169.229 104.752 169.628 104.752C170.126 104.752 170.565 104.646 170.946 104.436C171.327 104.225 171.629 103.967 171.852 103.662C172.08 103.357 172.203 103.062 172.221 102.774L172.915 103.557C172.874 103.803 172.763 104.075 172.581 104.374C172.399 104.673 172.156 104.96 171.852 105.235C171.553 105.505 171.195 105.73 170.779 105.912C170.369 106.088 169.906 106.176 169.391 106.176C168.746 106.176 168.181 106.05 167.694 105.798C167.214 105.546 166.839 105.209 166.569 104.787C166.306 104.359 166.174 103.882 166.174 103.354C166.174 102.845 166.273 102.396 166.473 102.01C166.672 101.617 166.959 101.292 167.334 101.034C167.709 100.771 168.16 100.571 168.688 100.437C169.215 100.302 169.804 100.234 170.454 100.234H172.344ZM177.872 97.9844V106H176.246V96.4902H177.828L177.872 97.9844ZM180.843 96.4375L180.834 97.9492C180.699 97.9199 180.57 97.9023 180.447 97.8965C180.33 97.8848 180.195 97.8789 180.043 97.8789C179.668 97.8789 179.337 97.9375 179.05 98.0547C178.763 98.1719 178.52 98.3359 178.32 98.5469C178.121 98.7578 177.963 99.0098 177.846 99.3027C177.734 99.5898 177.661 99.9062 177.626 100.252L177.169 100.516C177.169 99.9414 177.225 99.4023 177.336 98.8984C177.453 98.3945 177.632 97.9492 177.872 97.5625C178.112 97.1699 178.417 96.8652 178.786 96.6484C179.161 96.4258 179.606 96.3145 180.122 96.3145C180.239 96.3145 180.374 96.3291 180.526 96.3584C180.679 96.3818 180.784 96.4082 180.843 96.4375ZM186.116 106.176C185.454 106.176 184.854 106.064 184.314 105.842C183.781 105.613 183.321 105.294 182.935 104.884C182.554 104.474 182.261 103.987 182.056 103.425C181.851 102.862 181.748 102.247 181.748 101.579V101.21C181.748 100.437 181.862 99.748 182.091 99.1445C182.319 98.5352 182.63 98.0195 183.022 97.5977C183.415 97.1758 183.86 96.8564 184.358 96.6396C184.856 96.4229 185.372 96.3145 185.905 96.3145C186.585 96.3145 187.171 96.4316 187.663 96.666C188.161 96.9004 188.568 97.2285 188.885 97.6504C189.201 98.0664 189.436 98.5586 189.588 99.127C189.74 99.6895 189.816 100.305 189.816 100.973V101.702H182.715V100.375H188.19V100.252C188.167 99.8301 188.079 99.4199 187.927 99.0215C187.78 98.623 187.546 98.2949 187.224 98.0371C186.901 97.7793 186.462 97.6504 185.905 97.6504C185.536 97.6504 185.196 97.7295 184.886 97.8877C184.575 98.04 184.309 98.2686 184.086 98.5732C183.863 98.8779 183.69 99.25 183.567 99.6895C183.444 100.129 183.383 100.636 183.383 101.21V101.579C183.383 102.03 183.444 102.455 183.567 102.854C183.696 103.246 183.881 103.592 184.121 103.891C184.367 104.189 184.663 104.424 185.009 104.594C185.36 104.764 185.759 104.849 186.204 104.849C186.778 104.849 187.265 104.731 187.663 104.497C188.062 104.263 188.41 103.949 188.709 103.557L189.693 104.339C189.488 104.649 189.228 104.945 188.911 105.227C188.595 105.508 188.205 105.736 187.742 105.912C187.285 106.088 186.743 106.176 186.116 106.176ZM195.661 106.176C194.999 106.176 194.398 106.064 193.859 105.842C193.326 105.613 192.866 105.294 192.479 104.884C192.099 104.474 191.806 103.987 191.601 103.425C191.396 102.862 191.293 102.247 191.293 101.579V101.21C191.293 100.437 191.407 99.748 191.636 99.1445C191.864 98.5352 192.175 98.0195 192.567 97.5977C192.96 97.1758 193.405 96.8564 193.903 96.6396C194.401 96.4229 194.917 96.3145 195.45 96.3145C196.13 96.3145 196.716 96.4316 197.208 96.666C197.706 96.9004 198.113 97.2285 198.43 97.6504C198.746 98.0664 198.98 98.5586 199.133 99.127C199.285 99.6895 199.361 100.305 199.361 100.973V101.702H192.26V100.375H197.735V100.252C197.712 99.8301 197.624 99.4199 197.472 99.0215C197.325 98.623 197.091 98.2949 196.769 98.0371C196.446 97.7793 196.007 97.6504 195.45 97.6504C195.081 97.6504 194.741 97.7295 194.431 97.8877C194.12 98.04 193.854 98.2686 193.631 98.5732C193.408 98.8779 193.235 99.25 193.112 99.6895C192.989 100.129 192.928 100.636 192.928 101.21V101.579C192.928 102.03 192.989 102.455 193.112 102.854C193.241 103.246 193.426 103.592 193.666 103.891C193.912 104.189 194.208 104.424 194.554 104.594C194.905 104.764 195.304 104.849 195.749 104.849C196.323 104.849 196.81 104.731 197.208 104.497C197.606 104.263 197.955 103.949 198.254 103.557L199.238 104.339C199.033 104.649 198.772 104.945 198.456 105.227C198.14 105.508 197.75 105.736 197.287 105.912C196.83 106.088 196.288 106.176 195.661 106.176ZM202.886 97.9844V106H201.26V96.4902H202.842L202.886 97.9844ZM205.856 96.4375L205.848 97.9492C205.713 97.9199 205.584 97.9023 205.461 97.8965C205.344 97.8848 205.209 97.8789 205.057 97.8789C204.682 97.8789 204.351 97.9375 204.063 98.0547C203.776 98.1719 203.533 98.3359 203.334 98.5469C203.135 98.7578 202.977 99.0098 202.859 99.3027C202.748 99.5898 202.675 99.9062 202.64 100.252L202.183 100.516C202.183 99.9414 202.238 99.4023 202.35 98.8984C202.467 98.3945 202.646 97.9492 202.886 97.5625C203.126 97.1699 203.431 96.8652 203.8 96.6484C204.175 96.4258 204.62 96.3145 205.136 96.3145C205.253 96.3145 205.388 96.3291 205.54 96.3584C205.692 96.3818 205.798 96.4082 205.856 96.4375ZM217.432 104.374V99.4785C217.432 99.1035 217.355 98.7783 217.203 98.5029C217.057 98.2217 216.834 98.0049 216.535 97.8525C216.236 97.7002 215.867 97.624 215.428 97.624C215.018 97.624 214.657 97.6943 214.347 97.835C214.042 97.9756 213.802 98.1602 213.626 98.3887C213.456 98.6172 213.371 98.8633 213.371 99.127H211.745C211.745 98.7871 211.833 98.4502 212.009 98.1162C212.185 97.7822 212.437 97.4805 212.765 97.2109C213.099 96.9355 213.497 96.7188 213.96 96.5605C214.429 96.3965 214.95 96.3145 215.524 96.3145C216.216 96.3145 216.825 96.4316 217.353 96.666C217.886 96.9004 218.302 97.2549 218.601 97.7295C218.905 98.1982 219.058 98.7871 219.058 99.4961V103.926C219.058 104.242 219.084 104.579 219.137 104.937C219.195 105.294 219.28 105.602 219.392 105.859V106H217.695C217.613 105.812 217.549 105.563 217.502 105.253C217.455 104.937 217.432 104.644 217.432 104.374ZM217.713 100.234L217.73 101.377H216.087C215.624 101.377 215.211 101.415 214.848 101.491C214.484 101.562 214.18 101.67 213.934 101.816C213.688 101.963 213.5 102.147 213.371 102.37C213.242 102.587 213.178 102.842 213.178 103.135C213.178 103.434 213.245 103.706 213.38 103.952C213.515 104.198 213.717 104.395 213.986 104.541C214.262 104.682 214.599 104.752 214.997 104.752C215.495 104.752 215.935 104.646 216.315 104.436C216.696 104.225 216.998 103.967 217.221 103.662C217.449 103.357 217.572 103.062 217.59 102.774L218.284 103.557C218.243 103.803 218.132 104.075 217.95 104.374C217.769 104.673 217.525 104.96 217.221 105.235C216.922 105.505 216.564 105.73 216.148 105.912C215.738 106.088 215.275 106.176 214.76 106.176C214.115 106.176 213.55 106.05 213.063 105.798C212.583 105.546 212.208 105.209 211.938 104.787C211.675 104.359 211.543 103.882 211.543 103.354C211.543 102.845 211.643 102.396 211.842 102.01C212.041 101.617 212.328 101.292 212.703 101.034C213.078 100.771 213.529 100.571 214.057 100.437C214.584 100.302 215.173 100.234 215.823 100.234H217.713ZM227.152 103.478C227.152 103.243 227.1 103.026 226.994 102.827C226.895 102.622 226.687 102.438 226.37 102.273C226.06 102.104 225.591 101.957 224.964 101.834C224.437 101.723 223.959 101.591 223.531 101.438C223.109 101.286 222.749 101.102 222.45 100.885C222.157 100.668 221.932 100.413 221.773 100.12C221.615 99.8271 221.536 99.4844 221.536 99.0918C221.536 98.7168 221.618 98.3623 221.782 98.0283C221.952 97.6943 222.189 97.3984 222.494 97.1406C222.805 96.8828 223.177 96.6807 223.61 96.5342C224.044 96.3877 224.527 96.3145 225.061 96.3145C225.822 96.3145 226.473 96.4492 227.012 96.7188C227.551 96.9883 227.964 97.3486 228.251 97.7998C228.538 98.2451 228.682 98.7402 228.682 99.2852H227.056C227.056 99.0215 226.977 98.7666 226.818 98.5205C226.666 98.2686 226.44 98.0605 226.142 97.8965C225.849 97.7324 225.488 97.6504 225.061 97.6504C224.609 97.6504 224.243 97.7207 223.962 97.8613C223.687 97.9961 223.484 98.1689 223.355 98.3799C223.232 98.5908 223.171 98.8135 223.171 99.0479C223.171 99.2236 223.2 99.3818 223.259 99.5225C223.323 99.6572 223.435 99.7832 223.593 99.9004C223.751 100.012 223.974 100.117 224.261 100.217C224.548 100.316 224.914 100.416 225.359 100.516C226.139 100.691 226.78 100.902 227.284 101.148C227.788 101.395 228.163 101.696 228.409 102.054C228.655 102.411 228.778 102.845 228.778 103.354C228.778 103.771 228.69 104.151 228.515 104.497C228.345 104.843 228.096 105.142 227.768 105.394C227.445 105.64 227.059 105.833 226.607 105.974C226.162 106.108 225.661 106.176 225.104 106.176C224.267 106.176 223.558 106.026 222.978 105.728C222.397 105.429 221.958 105.042 221.659 104.567C221.36 104.093 221.211 103.592 221.211 103.064H222.846C222.869 103.51 222.998 103.864 223.232 104.128C223.467 104.386 223.754 104.57 224.094 104.682C224.434 104.787 224.771 104.84 225.104 104.84C225.55 104.84 225.922 104.781 226.221 104.664C226.525 104.547 226.757 104.386 226.915 104.181C227.073 103.976 227.152 103.741 227.152 103.478ZM240.986 104.374V99.4785C240.986 99.1035 240.91 98.7783 240.758 98.5029C240.611 98.2217 240.389 98.0049 240.09 97.8525C239.791 97.7002 239.422 97.624 238.982 97.624C238.572 97.624 238.212 97.6943 237.901 97.835C237.597 97.9756 237.356 98.1602 237.181 98.3887C237.011 98.6172 236.926 98.8633 236.926 99.127H235.3C235.3 98.7871 235.388 98.4502 235.563 98.1162C235.739 97.7822 235.991 97.4805 236.319 97.2109C236.653 96.9355 237.052 96.7188 237.515 96.5605C237.983 96.3965 238.505 96.3145 239.079 96.3145C239.771 96.3145 240.38 96.4316 240.907 96.666C241.44 96.9004 241.856 97.2549 242.155 97.7295C242.46 98.1982 242.612 98.7871 242.612 99.4961V103.926C242.612 104.242 242.639 104.579 242.691 104.937C242.75 105.294 242.835 105.602 242.946 105.859V106H241.25C241.168 105.812 241.104 105.563 241.057 105.253C241.01 104.937 240.986 104.644 240.986 104.374ZM241.268 100.234L241.285 101.377H239.642C239.179 101.377 238.766 101.415 238.402 101.491C238.039 101.562 237.734 101.67 237.488 101.816C237.242 101.963 237.055 102.147 236.926 102.37C236.797 102.587 236.732 102.842 236.732 103.135C236.732 103.434 236.8 103.706 236.935 103.952C237.069 104.198 237.271 104.395 237.541 104.541C237.816 104.682 238.153 104.752 238.552 104.752C239.05 104.752 239.489 104.646 239.87 104.436C240.251 104.225 240.553 103.967 240.775 103.662C241.004 103.357 241.127 103.062 241.145 102.774L241.839 103.557C241.798 103.803 241.687 104.075 241.505 104.374C241.323 104.673 241.08 104.96 240.775 105.235C240.477 105.505 240.119 105.73 239.703 105.912C239.293 106.088 238.83 106.176 238.314 106.176C237.67 106.176 237.104 106.05 236.618 105.798C236.138 105.546 235.763 105.209 235.493 104.787C235.229 104.359 235.098 103.882 235.098 103.354C235.098 102.845 235.197 102.396 235.396 102.01C235.596 101.617 235.883 101.292 236.258 101.034C236.633 100.771 237.084 100.571 237.611 100.437C238.139 100.302 238.728 100.234 239.378 100.234H241.268ZM255.629 104.154V92.5H257.264V106H255.77L255.629 104.154ZM249.23 101.351V101.166C249.23 100.439 249.318 99.7803 249.494 99.1885C249.676 98.5908 249.931 98.0781 250.259 97.6504C250.593 97.2227 250.988 96.8945 251.445 96.666C251.908 96.4316 252.424 96.3145 252.992 96.3145C253.59 96.3145 254.111 96.4199 254.557 96.6309C255.008 96.8359 255.389 97.1377 255.699 97.5361C256.016 97.9287 256.265 98.4033 256.446 98.96C256.628 99.5166 256.754 100.146 256.824 100.85V101.658C256.76 102.355 256.634 102.982 256.446 103.539C256.265 104.096 256.016 104.57 255.699 104.963C255.389 105.355 255.008 105.657 254.557 105.868C254.105 106.073 253.578 106.176 252.975 106.176C252.418 106.176 251.908 106.056 251.445 105.815C250.988 105.575 250.593 105.238 250.259 104.805C249.931 104.371 249.676 103.861 249.494 103.275C249.318 102.684 249.23 102.042 249.23 101.351ZM250.865 101.166V101.351C250.865 101.825 250.912 102.271 251.006 102.687C251.105 103.103 251.258 103.469 251.463 103.785C251.668 104.102 251.929 104.351 252.245 104.532C252.562 104.708 252.939 104.796 253.379 104.796C253.918 104.796 254.36 104.682 254.706 104.453C255.058 104.225 255.339 103.923 255.55 103.548C255.761 103.173 255.925 102.766 256.042 102.326V100.208C255.972 99.8857 255.869 99.5752 255.734 99.2764C255.605 98.9717 255.436 98.7021 255.225 98.4678C255.02 98.2275 254.765 98.0371 254.46 97.8965C254.161 97.7559 253.807 97.6855 253.396 97.6855C252.951 97.6855 252.567 97.7793 252.245 97.9668C251.929 98.1484 251.668 98.4004 251.463 98.7227C251.258 99.0391 251.105 99.4082 251.006 99.8301C250.912 100.246 250.865 100.691 250.865 101.166ZM263.741 106.176C263.079 106.176 262.479 106.064 261.939 105.842C261.406 105.613 260.946 105.294 260.56 104.884C260.179 104.474 259.886 103.987 259.681 103.425C259.476 102.862 259.373 102.247 259.373 101.579V101.21C259.373 100.437 259.487 99.748 259.716 99.1445C259.944 98.5352 260.255 98.0195 260.647 97.5977C261.04 97.1758 261.485 96.8564 261.983 96.6396C262.481 96.4229 262.997 96.3145 263.53 96.3145C264.21 96.3145 264.796 96.4316 265.288 96.666C265.786 96.9004 266.193 97.2285 266.51 97.6504C266.826 98.0664 267.061 98.5586 267.213 99.127C267.365 99.6895 267.441 100.305 267.441 100.973V101.702H260.34V100.375H265.815V100.252C265.792 99.8301 265.704 99.4199 265.552 99.0215C265.405 98.623 265.171 98.2949 264.849 98.0371C264.526 97.7793 264.087 97.6504 263.53 97.6504C263.161 97.6504 262.821 97.7295 262.511 97.8877C262.2 98.04 261.934 98.2686 261.711 98.5732C261.488 98.8779 261.315 99.25 261.192 99.6895C261.069 100.129 261.008 100.636 261.008 101.21V101.579C261.008 102.03 261.069 102.455 261.192 102.854C261.321 103.246 261.506 103.592 261.746 103.891C261.992 104.189 262.288 104.424 262.634 104.594C262.985 104.764 263.384 104.849 263.829 104.849C264.403 104.849 264.89 104.731 265.288 104.497C265.687 104.263 266.035 103.949 266.334 103.557L267.318 104.339C267.113 104.649 266.853 104.945 266.536 105.227C266.22 105.508 265.83 105.736 265.367 105.912C264.91 106.088 264.368 106.176 263.741 106.176ZM274.877 103.478C274.877 103.243 274.824 103.026 274.719 102.827C274.619 102.622 274.411 102.438 274.095 102.273C273.784 102.104 273.315 101.957 272.688 101.834C272.161 101.723 271.684 101.591 271.256 101.438C270.834 101.286 270.474 101.102 270.175 100.885C269.882 100.668 269.656 100.413 269.498 100.12C269.34 99.8271 269.261 99.4844 269.261 99.0918C269.261 98.7168 269.343 98.3623 269.507 98.0283C269.677 97.6943 269.914 97.3984 270.219 97.1406C270.529 96.8828 270.901 96.6807 271.335 96.5342C271.769 96.3877 272.252 96.3145 272.785 96.3145C273.547 96.3145 274.197 96.4492 274.736 96.7188C275.275 96.9883 275.688 97.3486 275.976 97.7998C276.263 98.2451 276.406 98.7402 276.406 99.2852H274.78C274.78 99.0215 274.701 98.7666 274.543 98.5205C274.391 98.2686 274.165 98.0605 273.866 97.8965C273.573 97.7324 273.213 97.6504 272.785 97.6504C272.334 97.6504 271.968 97.7207 271.687 97.8613C271.411 97.9961 271.209 98.1689 271.08 98.3799C270.957 98.5908 270.896 98.8135 270.896 99.0479C270.896 99.2236 270.925 99.3818 270.983 99.5225C271.048 99.6572 271.159 99.7832 271.317 99.9004C271.476 100.012 271.698 100.117 271.985 100.217C272.272 100.316 272.639 100.416 273.084 100.516C273.863 100.691 274.505 100.902 275.009 101.148C275.513 101.395 275.888 101.696 276.134 102.054C276.38 102.411 276.503 102.845 276.503 103.354C276.503 103.771 276.415 104.151 276.239 104.497C276.069 104.843 275.82 105.142 275.492 105.394C275.17 105.64 274.783 105.833 274.332 105.974C273.887 106.108 273.386 106.176 272.829 106.176C271.991 106.176 271.282 106.026 270.702 105.728C270.122 105.429 269.683 105.042 269.384 104.567C269.085 104.093 268.936 103.592 268.936 103.064H270.57C270.594 103.51 270.723 103.864 270.957 104.128C271.191 104.386 271.479 104.57 271.818 104.682C272.158 104.787 272.495 104.84 272.829 104.84C273.274 104.84 273.646 104.781 273.945 104.664C274.25 104.547 274.481 104.386 274.64 104.181C274.798 103.976 274.877 103.741 274.877 103.478ZM280.405 96.4902V106H278.771V96.4902H280.405ZM278.647 93.9678C278.647 93.7041 278.727 93.4814 278.885 93.2998C279.049 93.1182 279.289 93.0273 279.605 93.0273C279.916 93.0273 280.153 93.1182 280.317 93.2998C280.487 93.4814 280.572 93.7041 280.572 93.9678C280.572 94.2197 280.487 94.4365 280.317 94.6182C280.153 94.7939 279.916 94.8818 279.605 94.8818C279.289 94.8818 279.049 94.7939 278.885 94.6182C278.727 94.4365 278.647 94.2197 278.647 93.9678ZM289.177 96.4902H290.653V105.798C290.653 106.636 290.483 107.351 290.144 107.942C289.804 108.534 289.329 108.982 288.72 109.287C288.116 109.598 287.419 109.753 286.628 109.753C286.3 109.753 285.913 109.7 285.468 109.595C285.028 109.495 284.595 109.322 284.167 109.076C283.745 108.836 283.391 108.511 283.104 108.101L283.956 107.134C284.354 107.614 284.771 107.948 285.204 108.136C285.644 108.323 286.077 108.417 286.505 108.417C287.021 108.417 287.466 108.32 287.841 108.127C288.216 107.934 288.506 107.646 288.711 107.266C288.922 106.891 289.027 106.428 289.027 105.877V98.582L289.177 96.4902ZM282.629 101.351V101.166C282.629 100.439 282.714 99.7803 282.884 99.1885C283.06 98.5908 283.309 98.0781 283.631 97.6504C283.959 97.2227 284.354 96.8945 284.817 96.666C285.28 96.4316 285.802 96.3145 286.382 96.3145C286.979 96.3145 287.501 96.4199 287.946 96.6309C288.397 96.8359 288.778 97.1377 289.089 97.5361C289.405 97.9287 289.654 98.4033 289.836 98.96C290.018 99.5166 290.144 100.146 290.214 100.85V101.658C290.149 102.355 290.023 102.982 289.836 103.539C289.654 104.096 289.405 104.57 289.089 104.963C288.778 105.355 288.397 105.657 287.946 105.868C287.495 106.073 286.968 106.176 286.364 106.176C285.796 106.176 285.28 106.056 284.817 105.815C284.36 105.575 283.968 105.238 283.64 104.805C283.312 104.371 283.06 103.861 282.884 103.275C282.714 102.684 282.629 102.042 282.629 101.351ZM284.255 101.166V101.351C284.255 101.825 284.302 102.271 284.396 102.687C284.495 103.103 284.645 103.469 284.844 103.785C285.049 104.102 285.31 104.351 285.626 104.532C285.942 104.708 286.32 104.796 286.76 104.796C287.299 104.796 287.744 104.682 288.096 104.453C288.447 104.225 288.726 103.923 288.931 103.548C289.142 103.173 289.306 102.766 289.423 102.326V100.208C289.358 99.8857 289.259 99.5752 289.124 99.2764C288.995 98.9717 288.825 98.7021 288.614 98.4678C288.409 98.2275 288.154 98.0371 287.85 97.8965C287.545 97.7559 287.188 97.6855 286.777 97.6855C286.332 97.6855 285.948 97.7793 285.626 97.9668C285.31 98.1484 285.049 98.4004 284.844 98.7227C284.645 99.0391 284.495 99.4082 284.396 99.8301C284.302 100.246 284.255 100.691 284.255 101.166ZM294.749 98.5205V106H293.123V96.4902H294.661L294.749 98.5205ZM294.362 100.885L293.686 100.858C293.691 100.208 293.788 99.6074 293.976 99.0566C294.163 98.5 294.427 98.0166 294.767 97.6064C295.106 97.1963 295.511 96.8799 295.979 96.6572C296.454 96.4287 296.979 96.3145 297.553 96.3145C298.021 96.3145 298.443 96.3789 298.818 96.5078C299.193 96.6309 299.513 96.8301 299.776 97.1055C300.046 97.3809 300.251 97.7383 300.392 98.1777C300.532 98.6113 300.603 99.1416 300.603 99.7686V106H298.968V99.751C298.968 99.2529 298.895 98.8545 298.748 98.5557C298.602 98.251 298.388 98.0312 298.106 97.8965C297.825 97.7559 297.479 97.6855 297.069 97.6855C296.665 97.6855 296.296 97.7705 295.962 97.9404C295.634 98.1104 295.35 98.3447 295.109 98.6436C294.875 98.9424 294.69 99.2852 294.556 99.6719C294.427 100.053 294.362 100.457 294.362 100.885ZM307.019 106.176C306.356 106.176 305.756 106.064 305.217 105.842C304.684 105.613 304.224 105.294 303.837 104.884C303.456 104.474 303.163 103.987 302.958 103.425C302.753 102.862 302.65 102.247 302.65 101.579V101.21C302.65 100.437 302.765 99.748 302.993 99.1445C303.222 98.5352 303.532 98.0195 303.925 97.5977C304.317 97.1758 304.763 96.8564 305.261 96.6396C305.759 96.4229 306.274 96.3145 306.808 96.3145C307.487 96.3145 308.073 96.4316 308.565 96.666C309.063 96.9004 309.471 97.2285 309.787 97.6504C310.104 98.0664 310.338 98.5586 310.49 99.127C310.643 99.6895 310.719 100.305 310.719 100.973V101.702H303.617V100.375H309.093V100.252C309.069 99.8301 308.981 99.4199 308.829 99.0215C308.683 98.623 308.448 98.2949 308.126 98.0371C307.804 97.7793 307.364 97.6504 306.808 97.6504C306.438 97.6504 306.099 97.7295 305.788 97.8877C305.478 98.04 305.211 98.2686 304.988 98.5732C304.766 98.8779 304.593 99.25 304.47 99.6895C304.347 100.129 304.285 100.636 304.285 101.21V101.579C304.285 102.03 304.347 102.455 304.47 102.854C304.599 103.246 304.783 103.592 305.023 103.891C305.27 104.189 305.565 104.424 305.911 104.594C306.263 104.764 306.661 104.849 307.106 104.849C307.681 104.849 308.167 104.731 308.565 104.497C308.964 104.263 309.312 103.949 309.611 103.557L310.596 104.339C310.391 104.649 310.13 104.945 309.813 105.227C309.497 105.508 309.107 105.736 308.645 105.912C308.188 106.088 307.646 106.176 307.019 106.176ZM314.243 97.9844V106H312.617V96.4902H314.199L314.243 97.9844ZM317.214 96.4375L317.205 97.9492C317.07 97.9199 316.941 97.9023 316.818 97.8965C316.701 97.8848 316.566 97.8789 316.414 97.8789C316.039 97.8789 315.708 97.9375 315.421 98.0547C315.134 98.1719 314.891 98.3359 314.691 98.5469C314.492 98.7578 314.334 99.0098 314.217 99.3027C314.105 99.5898 314.032 99.9062 313.997 100.252L313.54 100.516C313.54 99.9414 313.596 99.4023 313.707 98.8984C313.824 98.3945 314.003 97.9492 314.243 97.5625C314.483 97.1699 314.788 96.8652 315.157 96.6484C315.532 96.4258 315.978 96.3145 316.493 96.3145C316.61 96.3145 316.745 96.3291 316.897 96.3584C317.05 96.3818 317.155 96.4082 317.214 96.4375Z" fill="white"/>
<path d="M19.1094 20.0938H23.8906V36.3438C23.8906 37.9062 23.5312 39.2292 22.8125 40.3125C22.0938 41.4062 21.0885 42.2344 19.7969 42.7969C18.5156 43.3698 17.0156 43.6562 15.2969 43.6562C14.5365 43.6562 13.7604 43.5573 12.9688 43.3594C12.1771 43.1719 11.4375 42.8906 10.75 42.5156C10.0625 42.1406 9.48438 41.6771 9.01562 41.125L11.2188 38.0312C11.6458 38.5104 12.1823 38.9167 12.8281 39.25C13.474 39.5938 14.2344 39.7656 15.1094 39.7656C15.8698 39.7656 16.5052 39.6302 17.0156 39.3594C17.5365 39.0885 17.9323 38.6927 18.2031 38.1719C18.474 37.6615 18.6094 37.0417 18.6094 36.3125V24.0938L19.1094 20.0938ZM7.875 28.75V28.4219C7.875 27.1406 8.03125 25.974 8.34375 24.9219C8.66667 23.8594 9.125 22.9479 9.71875 22.1875C10.3229 21.4167 11.0521 20.8229 11.9062 20.4062C12.7604 19.9896 13.724 19.7812 14.7969 19.7812C15.9531 19.7812 16.901 20.0052 17.6406 20.4531C18.3906 20.8906 18.9896 21.5052 19.4375 22.2969C19.8958 23.0885 20.25 24.0156 20.5 25.0781C20.7604 26.1302 20.9792 27.2656 21.1562 28.4844V28.875C20.9792 30.0208 20.7344 31.1042 20.4219 32.125C20.1198 33.1354 19.724 34.0312 19.2344 34.8125C18.7448 35.5938 18.1302 36.2083 17.3906 36.6562C16.6615 37.0938 15.7865 37.3125 14.7656 37.3125C13.7031 37.3125 12.7448 37.099 11.8906 36.6719C11.0469 36.2448 10.3229 35.6458 9.71875 34.875C9.125 34.1042 8.66667 33.1979 8.34375 32.1562C8.03125 31.1146 7.875 29.9792 7.875 28.75ZM13.1406 28.4219V28.75C13.1406 29.3854 13.1979 29.974 13.3125 30.5156C13.4375 31.0573 13.625 31.5365 13.875 31.9531C14.125 32.3594 14.4323 32.6771 14.7969 32.9062C15.1719 33.1354 15.6094 33.25 16.1094 33.25C16.8698 33.25 17.4844 33.0885 17.9531 32.7656C18.4219 32.4427 18.7604 31.9844 18.9688 31.3906C19.1771 30.7969 19.2656 30.099 19.2344 29.2969V28.0625C19.2552 27.375 19.2083 26.7708 19.0938 26.25C18.9792 25.7188 18.7969 25.276 18.5469 24.9219C18.3073 24.5677 17.9844 24.3021 17.5781 24.125C17.1823 23.9375 16.7031 23.8438 16.1406 23.8438C15.651 23.8438 15.2188 23.9583 14.8438 24.1875C14.4688 24.4167 14.1562 24.7396 13.9062 25.1562C13.6562 25.5625 13.4635 26.0469 13.3281 26.6094C13.2031 27.1615 13.1406 27.7656 13.1406 28.4219ZM32.2344 24.2812V37H26.9688V20.0938H31.8906L32.2344 24.2812ZM37.2344 19.9688L37.1406 24.8594C36.9323 24.8385 36.651 24.8125 36.2969 24.7812C35.9427 24.75 35.6458 24.7344 35.4062 24.7344C34.7917 24.7344 34.2604 24.8073 33.8125 24.9531C33.375 25.0885 33.0104 25.2969 32.7188 25.5781C32.4375 25.849 32.2292 26.1927 32.0938 26.6094C31.9688 27.026 31.9115 27.5104 31.9219 28.0625L30.9688 27.4375C30.9688 26.3021 31.0781 25.2708 31.2969 24.3438C31.526 23.4062 31.849 22.599 32.2656 21.9219C32.6823 21.2344 33.1875 20.7083 33.7812 20.3438C34.375 19.9688 35.0417 19.7812 35.7812 19.7812C36.0417 19.7812 36.2969 19.7969 36.5469 19.8281C36.8073 19.8594 37.0365 19.9062 37.2344 19.9688ZM47.3594 32.75V25.7812C47.3594 25.3021 47.2917 24.8906 47.1562 24.5469C47.0208 24.2031 46.8073 23.9375 46.5156 23.75C46.224 23.5521 45.8333 23.4531 45.3438 23.4531C44.9479 23.4531 44.6094 23.5208 44.3281 23.6562C44.0469 23.7917 43.8333 23.9948 43.6875 24.2656C43.5417 24.5365 43.4688 24.8802 43.4688 25.2969H38.2031C38.2031 24.5156 38.375 23.7917 38.7188 23.125C39.0729 22.4479 39.5729 21.8594 40.2188 21.3594C40.875 20.8594 41.6562 20.474 42.5625 20.2031C43.4792 19.9219 44.5 19.7812 45.625 19.7812C46.9688 19.7812 48.1667 20.0052 49.2188 20.4531C50.2812 20.901 51.1198 21.5729 51.7344 22.4688C52.349 23.3542 52.6562 24.4688 52.6562 25.8125V32.7344C52.6562 33.8385 52.7188 34.6771 52.8438 35.25C52.9688 35.8125 53.1458 36.3073 53.375 36.7344V37H48.0938C47.8438 36.4792 47.6562 35.8438 47.5312 35.0938C47.4167 34.3333 47.3594 33.5521 47.3594 32.75ZM48 26.6719L48.0312 29.4844H45.7031C45.2135 29.4844 44.7969 29.5521 44.4531 29.6875C44.1198 29.8229 43.849 30.0104 43.6406 30.25C43.4427 30.4792 43.2969 30.7396 43.2031 31.0312C43.1198 31.3229 43.0781 31.6302 43.0781 31.9531C43.0781 32.2656 43.151 32.5469 43.2969 32.7969C43.4531 33.0365 43.6615 33.224 43.9219 33.3594C44.1823 33.4948 44.474 33.5625 44.7969 33.5625C45.3802 33.5625 45.875 33.4531 46.2812 33.2344C46.6979 33.0052 47.0156 32.7292 47.2344 32.4062C47.4531 32.0833 47.5625 31.7812 47.5625 31.5L48.7188 33.6562C48.5104 34.0729 48.2708 34.4948 48 34.9219C47.7396 35.349 47.4115 35.7448 47.0156 36.1094C46.6302 36.4635 46.1562 36.7552 45.5938 36.9844C45.0312 37.2031 44.349 37.3125 43.5469 37.3125C42.5052 37.3125 41.5469 37.099 40.6719 36.6719C39.8073 36.2448 39.1146 35.651 38.5938 34.8906C38.0729 34.1198 37.8125 33.2344 37.8125 32.2344C37.8125 31.3594 37.9688 30.5781 38.2812 29.8906C38.6042 29.2031 39.0885 28.6198 39.7344 28.1406C40.3802 27.6615 41.2031 27.2969 42.2031 27.0469C43.2031 26.7969 44.3802 26.6719 45.7344 26.6719H48ZM60.8906 23.3438V43.5H55.625V20.0938H60.5312L60.8906 23.3438ZM71.2656 28.3438V28.6719C71.2656 29.901 71.125 31.0417 70.8438 32.0938C70.5625 33.1458 70.1458 34.0625 69.5938 34.8438C69.0417 35.625 68.3542 36.2344 67.5312 36.6719C66.7188 37.099 65.776 37.3125 64.7031 37.3125C63.6927 37.3125 62.8229 37.0885 62.0938 36.6406C61.3646 36.1927 60.7552 35.5729 60.2656 34.7812C59.776 33.9896 59.3802 33.0833 59.0781 32.0625C58.776 31.0417 58.5365 29.9635 58.3594 28.8281V28.4062C58.5365 27.1875 58.776 26.0573 59.0781 25.0156C59.3802 23.9635 59.776 23.0469 60.2656 22.2656C60.7552 21.4844 61.3594 20.875 62.0781 20.4375C62.8073 20 63.6771 19.7812 64.6875 19.7812C65.7604 19.7812 66.7031 19.9844 67.5156 20.3906C68.3385 20.7969 69.026 21.3802 69.5781 22.1406C70.1406 22.8906 70.5625 23.7917 70.8438 24.8438C71.125 25.8958 71.2656 27.0625 71.2656 28.3438ZM66 28.6719V28.3438C66 27.6875 65.9531 27.0885 65.8594 26.5469C65.7656 25.9948 65.6146 25.5156 65.4062 25.1094C65.2083 24.7031 64.9427 24.3906 64.6094 24.1719C64.276 23.9531 63.8646 23.8438 63.375 23.8438C62.8125 23.8438 62.3385 23.9323 61.9531 24.1094C61.5781 24.276 61.276 24.5365 61.0469 24.8906C60.8281 25.2344 60.6719 25.6667 60.5781 26.1875C60.4948 26.6979 60.4583 27.2969 60.4688 27.9844V29.2656C60.4479 30.0573 60.526 30.7552 60.7031 31.3594C60.8802 31.9531 61.1875 32.4167 61.625 32.75C62.0625 33.0833 62.6562 33.25 63.4062 33.25C63.9062 33.25 64.3229 33.1354 64.6562 32.9062C64.9896 32.6667 65.2552 32.3385 65.4531 31.9219C65.651 31.4948 65.7917 31.0052 65.875 30.4531C65.9583 29.901 66 29.3073 66 28.6719ZM78.7656 13V37H73.5V13H78.7656ZM78.1406 27.9688L76.9062 28C76.9062 26.8125 77.0521 25.7188 77.3438 24.7188C77.6354 23.7188 78.0521 22.849 78.5938 22.1094C79.1354 21.3698 79.7865 20.7969 80.5469 20.3906C81.3073 19.9844 82.151 19.7812 83.0781 19.7812C83.9115 19.7812 84.6719 19.901 85.3594 20.1406C86.0573 20.3802 86.6562 20.7656 87.1562 21.2969C87.6667 21.8281 88.0573 22.5208 88.3281 23.375C88.6094 24.2292 88.75 25.2708 88.75 26.5V37H83.4531V26.4688C83.4531 25.7812 83.3542 25.25 83.1562 24.875C82.9688 24.4896 82.6979 24.224 82.3438 24.0781C81.9896 23.9219 81.5573 23.8438 81.0469 23.8438C80.4323 23.8438 79.9323 23.9479 79.5469 24.1562C79.1615 24.3646 78.8646 24.6562 78.6562 25.0312C78.4583 25.3958 78.3229 25.8281 78.25 26.3281C78.1771 26.8281 78.1406 27.375 78.1406 27.9688ZM97.2344 20.0938V37H91.9531V20.0938H97.2344ZM91.6406 15.7344C91.6406 14.9844 91.9115 14.3698 92.4531 13.8906C92.9948 13.4115 93.6979 13.1719 94.5625 13.1719C95.4271 13.1719 96.1302 13.4115 96.6719 13.8906C97.2135 14.3698 97.4844 14.9844 97.4844 15.7344C97.4844 16.4844 97.2135 17.099 96.6719 17.5781C96.1302 18.0573 95.4271 18.2969 94.5625 18.2969C93.6979 18.2969 92.9948 18.0573 92.4531 17.5781C91.9115 17.099 91.6406 16.4844 91.6406 15.7344ZM107.625 33.25C108.115 33.25 108.531 33.1615 108.875 32.9844C109.229 32.7969 109.495 32.5365 109.672 32.2031C109.859 31.8594 109.948 31.4479 109.938 30.9688H114.891C114.901 32.2396 114.589 33.3542 113.953 34.3125C113.328 35.2604 112.474 36 111.391 36.5312C110.318 37.0521 109.104 37.3125 107.75 37.3125C106.427 37.3125 105.271 37.099 104.281 36.6719C103.292 36.2344 102.464 35.6302 101.797 34.8594C101.141 34.0781 100.646 33.1667 100.312 32.125C99.9896 31.0833 99.8281 29.9531 99.8281 28.7344V28.375C99.8281 27.1562 99.9896 26.026 100.312 24.9844C100.646 23.9323 101.141 23.0208 101.797 22.25C102.464 21.4688 103.286 20.8646 104.266 20.4375C105.255 20 106.406 19.7812 107.719 19.7812C109.125 19.7812 110.365 20.0469 111.438 20.5781C112.521 21.1094 113.37 21.8802 113.984 22.8906C114.599 23.901 114.901 25.125 114.891 26.5625H109.938C109.948 26.0521 109.87 25.5938 109.703 25.1875C109.536 24.7812 109.276 24.4583 108.922 24.2188C108.578 23.9688 108.135 23.8438 107.594 23.8438C107.052 23.8438 106.615 23.9635 106.281 24.2031C105.948 24.4427 105.693 24.776 105.516 25.2031C105.349 25.6198 105.234 26.099 105.172 26.6406C105.12 27.1823 105.094 27.7604 105.094 28.375V28.7344C105.094 29.3594 105.12 29.9479 105.172 30.5C105.234 31.0417 105.354 31.5208 105.531 31.9375C105.708 32.3438 105.964 32.6667 106.297 32.9062C106.63 33.1354 107.073 33.25 107.625 33.25ZM124.781 37H119.734L119.766 32.7812H124.781C125.823 32.7812 126.703 32.5312 127.422 32.0312C128.151 31.5312 128.703 30.7865 129.078 29.7969C129.464 28.7969 129.656 27.5677 129.656 26.1094V25.125C129.656 24.0312 129.547 23.0729 129.328 22.25C129.12 21.4167 128.807 20.724 128.391 20.1719C127.974 19.6094 127.453 19.1875 126.828 18.9062C126.214 18.625 125.505 18.4844 124.703 18.4844H119.641V14.25H124.703C126.245 14.25 127.656 14.5156 128.938 15.0469C130.229 15.5677 131.344 16.3177 132.281 17.2969C133.229 18.2656 133.958 19.4167 134.469 20.75C134.99 22.0729 135.25 23.5417 135.25 25.1562V26.1094C135.25 27.7135 134.99 29.1823 134.469 30.5156C133.958 31.849 133.234 33 132.297 33.9688C131.359 34.9375 130.25 35.6875 128.969 36.2188C127.698 36.7396 126.302 37 124.781 37ZM122.875 14.25V37H117.391V14.25H122.875ZM146.047 37.3125C144.672 37.3125 143.443 37.099 142.359 36.6719C141.276 36.2344 140.359 35.6354 139.609 34.875C138.87 34.1146 138.302 33.2396 137.906 32.25C137.521 31.2604 137.328 30.2135 137.328 29.1094V28.5156C137.328 27.276 137.5 26.1302 137.844 25.0781C138.188 24.0156 138.698 23.0885 139.375 22.2969C140.052 21.5052 140.901 20.8906 141.922 20.4531C142.943 20.0052 144.13 19.7812 145.484 19.7812C146.682 19.7812 147.755 19.974 148.703 20.3594C149.651 20.7448 150.453 21.2969 151.109 22.0156C151.776 22.7344 152.281 23.6042 152.625 24.625C152.979 25.6458 153.156 26.7917 153.156 28.0625V30.2031H139.344V26.9062H148.016V26.5C148.026 25.9375 147.927 25.4583 147.719 25.0625C147.521 24.6667 147.229 24.3646 146.844 24.1562C146.458 23.9479 145.99 23.8438 145.438 23.8438C144.865 23.8438 144.391 23.9688 144.016 24.2188C143.651 24.4688 143.365 24.8125 143.156 25.25C142.958 25.6771 142.818 26.1719 142.734 26.7344C142.651 27.2969 142.609 27.8906 142.609 28.5156V29.1094C142.609 29.7344 142.693 30.3021 142.859 30.8125C143.036 31.3229 143.286 31.7604 143.609 32.125C143.943 32.4792 144.339 32.7552 144.797 32.9531C145.266 33.151 145.797 33.25 146.391 33.25C147.109 33.25 147.818 33.1146 148.516 32.8438C149.214 32.5729 149.812 32.125 150.312 31.5L152.703 34.3438C152.359 34.8333 151.87 35.3073 151.234 35.7656C150.609 36.224 149.859 36.599 148.984 36.8906C148.109 37.1719 147.13 37.3125 146.047 37.3125ZM164.156 32.25C164.156 31.9583 164.057 31.7083 163.859 31.5C163.672 31.2812 163.339 31.0833 162.859 30.9062C162.38 30.7188 161.708 30.5312 160.844 30.3438C160.021 30.1667 159.245 29.9323 158.516 29.6406C157.797 29.349 157.167 28.9948 156.625 28.5781C156.083 28.1615 155.656 27.6667 155.344 27.0938C155.042 26.5208 154.891 25.8646 154.891 25.125C154.891 24.4062 155.042 23.7292 155.344 23.0938C155.656 22.4479 156.109 21.8802 156.703 21.3906C157.307 20.8906 158.042 20.5 158.906 20.2188C159.771 19.9271 160.755 19.7812 161.859 19.7812C163.38 19.7812 164.693 20.0156 165.797 20.4844C166.901 20.9427 167.75 21.5885 168.344 22.4219C168.948 23.2448 169.25 24.1979 169.25 25.2812H163.984C163.984 24.8542 163.911 24.4896 163.766 24.1875C163.63 23.8854 163.406 23.6562 163.094 23.5C162.781 23.3333 162.365 23.25 161.844 23.25C161.479 23.25 161.146 23.3177 160.844 23.4531C160.552 23.5885 160.318 23.776 160.141 24.0156C159.964 24.2552 159.875 24.5365 159.875 24.8594C159.875 25.0885 159.927 25.2969 160.031 25.4844C160.146 25.6615 160.318 25.8281 160.547 25.9844C160.776 26.1302 161.068 26.2656 161.422 26.3906C161.776 26.5052 162.203 26.6094 162.703 26.7031C163.839 26.9115 164.901 27.2083 165.891 27.5938C166.88 27.9792 167.682 28.526 168.297 29.2344C168.922 29.9427 169.234 30.8958 169.234 32.0938C169.234 32.8438 169.062 33.5365 168.719 34.1719C168.375 34.7969 167.88 35.349 167.234 35.8281C166.589 36.2969 165.812 36.6615 164.906 36.9219C164 37.1823 162.979 37.3125 161.844 37.3125C160.229 37.3125 158.865 37.026 157.75 36.4531C156.635 35.8698 155.792 35.1406 155.219 34.2656C154.656 33.3802 154.375 32.4844 154.375 31.5781H159.281C159.302 32.099 159.427 32.526 159.656 32.8594C159.896 33.1927 160.214 33.4375 160.609 33.5938C161.005 33.75 161.464 33.8281 161.984 33.8281C162.464 33.8281 162.859 33.7604 163.172 33.625C163.495 33.4896 163.74 33.3073 163.906 33.0781C164.073 32.8385 164.156 32.5625 164.156 32.25ZM177.266 20.0938V37H171.984V20.0938H177.266ZM171.672 15.7344C171.672 14.9844 171.943 14.3698 172.484 13.8906C173.026 13.4115 173.729 13.1719 174.594 13.1719C175.458 13.1719 176.161 13.4115 176.703 13.8906C177.245 14.3698 177.516 14.9844 177.516 15.7344C177.516 16.4844 177.245 17.099 176.703 17.5781C176.161 18.0573 175.458 18.2969 174.594 18.2969C173.729 18.2969 173.026 18.0573 172.484 17.5781C171.943 17.099 171.672 16.4844 171.672 15.7344ZM191.141 20.0938H195.922V36.3438C195.922 37.9062 195.562 39.2292 194.844 40.3125C194.125 41.4062 193.12 42.2344 191.828 42.7969C190.547 43.3698 189.047 43.6562 187.328 43.6562C186.568 43.6562 185.792 43.5573 185 43.3594C184.208 43.1719 183.469 42.8906 182.781 42.5156C182.094 42.1406 181.516 41.6771 181.047 41.125L183.25 38.0312C183.677 38.5104 184.214 38.9167 184.859 39.25C185.505 39.5938 186.266 39.7656 187.141 39.7656C187.901 39.7656 188.536 39.6302 189.047 39.3594C189.568 39.0885 189.964 38.6927 190.234 38.1719C190.505 37.6615 190.641 37.0417 190.641 36.3125V24.0938L191.141 20.0938ZM179.906 28.75V28.4219C179.906 27.1406 180.062 25.974 180.375 24.9219C180.698 23.8594 181.156 22.9479 181.75 22.1875C182.354 21.4167 183.083 20.8229 183.938 20.4062C184.792 19.9896 185.755 19.7812 186.828 19.7812C187.984 19.7812 188.932 20.0052 189.672 20.4531C190.422 20.8906 191.021 21.5052 191.469 22.2969C191.927 23.0885 192.281 24.0156 192.531 25.0781C192.792 26.1302 193.01 27.2656 193.188 28.4844V28.875C193.01 30.0208 192.766 31.1042 192.453 32.125C192.151 33.1354 191.755 34.0312 191.266 34.8125C190.776 35.5938 190.161 36.2083 189.422 36.6562C188.693 37.0938 187.818 37.3125 186.797 37.3125C185.734 37.3125 184.776 37.099 183.922 36.6719C183.078 36.2448 182.354 35.6458 181.75 34.875C181.156 34.1042 180.698 33.1979 180.375 32.1562C180.062 31.1146 179.906 29.9792 179.906 28.75ZM185.172 28.4219V28.75C185.172 29.3854 185.229 29.974 185.344 30.5156C185.469 31.0573 185.656 31.5365 185.906 31.9531C186.156 32.3594 186.464 32.6771 186.828 32.9062C187.203 33.1354 187.641 33.25 188.141 33.25C188.901 33.25 189.516 33.0885 189.984 32.7656C190.453 32.4427 190.792 31.9844 191 31.3906C191.208 30.7969 191.297 30.099 191.266 29.2969V28.0625C191.286 27.375 191.24 26.7708 191.125 26.25C191.01 25.7188 190.828 25.276 190.578 24.9219C190.339 24.5677 190.016 24.3021 189.609 24.125C189.214 23.9375 188.734 23.8438 188.172 23.8438C187.682 23.8438 187.25 23.9583 186.875 24.1875C186.5 24.4167 186.188 24.7396 185.938 25.1562C185.688 25.5625 185.495 26.0469 185.359 26.6094C185.234 27.1615 185.172 27.7656 185.172 28.4219ZM204.125 23.7031V37H198.859V20.0938H203.797L204.125 23.7031ZM203.5 27.9688L202.266 28C202.266 26.7083 202.422 25.5573 202.734 24.5469C203.047 23.526 203.49 22.6615 204.062 21.9531C204.635 21.2448 205.318 20.7083 206.109 20.3438C206.911 19.9688 207.802 19.7812 208.781 19.7812C209.562 19.7812 210.276 19.8958 210.922 20.125C211.578 20.3542 212.141 20.724 212.609 21.2344C213.089 21.7448 213.453 22.4219 213.703 23.2656C213.964 24.099 214.094 25.1302 214.094 26.3594V37H208.797V26.3438C208.797 25.6667 208.703 25.151 208.516 24.7969C208.328 24.4323 208.057 24.1823 207.703 24.0469C207.349 23.9115 206.917 23.8438 206.406 23.8438C205.865 23.8438 205.406 23.9479 205.031 24.1562C204.656 24.3646 204.354 24.6562 204.125 25.0312C203.906 25.3958 203.745 25.8281 203.641 26.3281C203.547 26.8281 203.5 27.375 203.5 27.9688ZM226.344 29.2812H220.688V25.0469H226.344C227.115 25.0469 227.74 24.9167 228.219 24.6562C228.698 24.3958 229.047 24.0365 229.266 23.5781C229.495 23.1094 229.609 22.5833 229.609 22C229.609 21.375 229.495 20.7969 229.266 20.2656C229.047 19.7344 228.698 19.3073 228.219 18.9844C227.74 18.651 227.115 18.4844 226.344 18.4844H222.75V37H217.266V14.25H226.344C228.167 14.25 229.734 14.5833 231.047 15.25C232.37 15.9167 233.385 16.8333 234.094 18C234.802 19.1562 235.156 20.4792 235.156 21.9688C235.156 23.4375 234.802 24.7188 234.094 25.8125C233.385 26.9062 232.37 27.7604 231.047 28.375C229.734 28.9792 228.167 29.2812 226.344 29.2812ZM236.984 28.7188V28.3906C236.984 27.151 237.161 26.0104 237.516 24.9688C237.87 23.9167 238.391 23.0052 239.078 22.2344C239.766 21.4635 240.615 20.8646 241.625 20.4375C242.635 20 243.802 19.7812 245.125 19.7812C246.458 19.7812 247.63 20 248.641 20.4375C249.661 20.8646 250.516 21.4635 251.203 22.2344C251.891 23.0052 252.411 23.9167 252.766 24.9688C253.12 26.0104 253.297 27.151 253.297 28.3906V28.7188C253.297 29.9479 253.12 31.0885 252.766 32.1406C252.411 33.1823 251.891 34.0938 251.203 34.875C250.516 35.6458 249.667 36.2448 248.656 36.6719C247.646 37.099 246.479 37.3125 245.156 37.3125C243.833 37.3125 242.661 37.099 241.641 36.6719C240.62 36.2448 239.766 35.6458 239.078 34.875C238.391 34.0938 237.87 33.1823 237.516 32.1406C237.161 31.0885 236.984 29.9479 236.984 28.7188ZM242.25 28.3906V28.7188C242.25 29.3542 242.297 29.9479 242.391 30.5C242.484 31.0521 242.641 31.5365 242.859 31.9531C243.078 32.3594 243.375 32.6771 243.75 32.9062C244.125 33.1354 244.594 33.25 245.156 33.25C245.708 33.25 246.167 33.1354 246.531 32.9062C246.906 32.6771 247.203 32.3594 247.422 31.9531C247.641 31.5365 247.797 31.0521 247.891 30.5C247.984 29.9479 248.031 29.3542 248.031 28.7188V28.3906C248.031 27.776 247.984 27.1979 247.891 26.6562C247.797 26.1042 247.641 25.6198 247.422 25.2031C247.203 24.776 246.906 24.4427 246.531 24.2031C246.156 23.9635 245.688 23.8438 245.125 23.8438C244.573 23.8438 244.109 23.9635 243.734 24.2031C243.37 24.4427 243.078 24.776 242.859 25.2031C242.641 25.6198 242.484 26.1042 242.391 26.6562C242.297 27.1979 242.25 27.776 242.25 28.3906ZM260.953 24.2812V37H255.688V20.0938H260.609L260.953 24.2812ZM265.953 19.9688L265.859 24.8594C265.651 24.8385 265.37 24.8125 265.016 24.7812C264.661 24.75 264.365 24.7344 264.125 24.7344C263.51 24.7344 262.979 24.8073 262.531 24.9531C262.094 25.0885 261.729 25.2969 261.438 25.5781C261.156 25.849 260.948 26.1927 260.812 26.6094C260.688 27.026 260.63 27.5104 260.641 28.0625L259.688 27.4375C259.688 26.3021 259.797 25.2708 260.016 24.3438C260.245 23.4062 260.568 22.599 260.984 21.9219C261.401 21.2344 261.906 20.7083 262.5 20.3438C263.094 19.9688 263.76 19.7812 264.5 19.7812C264.76 19.7812 265.016 19.7969 265.266 19.8281C265.526 19.8594 265.755 19.9062 265.953 19.9688ZM277.453 20.0938V23.75H267.266V20.0938H277.453ZM269.406 15.8906H274.672V31.4844C274.672 31.9323 274.724 32.2812 274.828 32.5312C274.932 32.7708 275.109 32.9427 275.359 33.0469C275.62 33.1406 275.964 33.1875 276.391 33.1875C276.693 33.1875 276.943 33.1823 277.141 33.1719C277.339 33.151 277.526 33.125 277.703 33.0938V36.8594C277.255 37.0052 276.786 37.1146 276.297 37.1875C275.807 37.2708 275.286 37.3125 274.734 37.3125C273.609 37.3125 272.646 37.1354 271.844 36.7812C271.052 36.4271 270.448 35.8698 270.031 35.1094C269.615 34.349 269.406 33.3594 269.406 32.1406V15.8906ZM286 37H280.703V18.7188C280.703 17.4062 280.969 16.3021 281.5 15.4062C282.031 14.5104 282.781 13.8333 283.75 13.375C284.719 12.9062 285.865 12.6719 287.188 12.6719C287.646 12.6719 288.078 12.7031 288.484 12.7656C288.891 12.8281 289.286 12.9062 289.672 13L289.688 16.875C289.5 16.8229 289.307 16.7865 289.109 16.7656C288.911 16.7448 288.667 16.7344 288.375 16.7344C287.865 16.7344 287.432 16.8125 287.078 16.9688C286.724 17.1146 286.453 17.3385 286.266 17.6406C286.089 17.9323 286 18.2917 286 18.7188V37ZM289.281 20.0938V23.75H278.266V20.0938H289.281ZM290.516 28.7188V28.3906C290.516 27.151 290.693 26.0104 291.047 24.9688C291.401 23.9167 291.922 23.0052 292.609 22.2344C293.297 21.4635 294.146 20.8646 295.156 20.4375C296.167 20 297.333 19.7812 298.656 19.7812C299.99 19.7812 301.161 20 302.172 20.4375C303.193 20.8646 304.047 21.4635 304.734 22.2344C305.422 23.0052 305.943 23.9167 306.297 24.9688C306.651 26.0104 306.828 27.151 306.828 28.3906V28.7188C306.828 29.9479 306.651 31.0885 306.297 32.1406C305.943 33.1823 305.422 34.0938 304.734 34.875C304.047 35.6458 303.198 36.2448 302.188 36.6719C301.177 37.099 300.01 37.3125 298.688 37.3125C297.365 37.3125 296.193 37.099 295.172 36.6719C294.151 36.2448 293.297 35.6458 292.609 34.875C291.922 34.0938 291.401 33.1823 291.047 32.1406C290.693 31.0885 290.516 29.9479 290.516 28.7188ZM295.781 28.3906V28.7188C295.781 29.3542 295.828 29.9479 295.922 30.5C296.016 31.0521 296.172 31.5365 296.391 31.9531C296.609 32.3594 296.906 32.6771 297.281 32.9062C297.656 33.1354 298.125 33.25 298.688 33.25C299.24 33.25 299.698 33.1354 300.062 32.9062C300.438 32.6771 300.734 32.3594 300.953 31.9531C301.172 31.5365 301.328 31.0521 301.422 30.5C301.516 29.9479 301.562 29.3542 301.562 28.7188V28.3906C301.562 27.776 301.516 27.1979 301.422 26.6562C301.328 26.1042 301.172 25.6198 300.953 25.2031C300.734 24.776 300.438 24.4427 300.062 24.2031C299.688 23.9635 299.219 23.8438 298.656 23.8438C298.104 23.8438 297.641 23.9635 297.266 24.2031C296.901 24.4427 296.609 24.776 296.391 25.2031C296.172 25.6198 296.016 26.1042 295.922 26.6562C295.828 27.1979 295.781 27.776 295.781 28.3906ZM314.734 13V37H309.453V13H314.734ZM323.547 20.0938V37H318.266V20.0938H323.547ZM317.953 15.7344C317.953 14.9844 318.224 14.3698 318.766 13.8906C319.307 13.4115 320.01 13.1719 320.875 13.1719C321.74 13.1719 322.443 13.4115 322.984 13.8906C323.526 14.3698 323.797 14.9844 323.797 15.7344C323.797 16.4844 323.526 17.099 322.984 17.5781C322.443 18.0573 321.74 18.2969 320.875 18.2969C320.01 18.2969 319.307 18.0573 318.766 17.5781C318.224 17.099 317.953 16.4844 317.953 15.7344ZM326.141 28.7188V28.3906C326.141 27.151 326.318 26.0104 326.672 24.9688C327.026 23.9167 327.547 23.0052 328.234 22.2344C328.922 21.4635 329.771 20.8646 330.781 20.4375C331.792 20 332.958 19.7812 334.281 19.7812C335.615 19.7812 336.786 20 337.797 20.4375C338.818 20.8646 339.672 21.4635 340.359 22.2344C341.047 23.0052 341.568 23.9167 341.922 24.9688C342.276 26.0104 342.453 27.151 342.453 28.3906V28.7188C342.453 29.9479 342.276 31.0885 341.922 32.1406C341.568 33.1823 341.047 34.0938 340.359 34.875C339.672 35.6458 338.823 36.2448 337.812 36.6719C336.802 37.099 335.635 37.3125 334.312 37.3125C332.99 37.3125 331.818 37.099 330.797 36.6719C329.776 36.2448 328.922 35.6458 328.234 34.875C327.547 34.0938 327.026 33.1823 326.672 32.1406C326.318 31.0885 326.141 29.9479 326.141 28.7188ZM331.406 28.3906V28.7188C331.406 29.3542 331.453 29.9479 331.547 30.5C331.641 31.0521 331.797 31.5365 332.016 31.9531C332.234 32.3594 332.531 32.6771 332.906 32.9062C333.281 33.1354 333.75 33.25 334.312 33.25C334.865 33.25 335.323 33.1354 335.688 32.9062C336.062 32.6771 336.359 32.3594 336.578 31.9531C336.797 31.5365 336.953 31.0521 337.047 30.5C337.141 29.9479 337.188 29.3542 337.188 28.7188V28.3906C337.188 27.776 337.141 27.1979 337.047 26.6562C336.953 26.1042 336.797 25.6198 336.578 25.2031C336.359 24.776 336.062 24.4427 335.688 24.2031C335.312 23.9635 334.844 23.8438 334.281 23.8438C333.729 23.8438 333.266 23.9635 332.891 24.2031C332.526 24.4427 332.234 24.776 332.016 25.2031C331.797 25.6198 331.641 26.1042 331.547 26.6562C331.453 27.1979 331.406 27.776 331.406 28.3906Z" fill="white"/>
</svg>
