<svg width="218" height="162" viewBox="0 0 218 162" fill="none" xmlns="http://www.w3.org/2000/svg">
<path d="M5.54688 144.625V156H4.03906V144.625H5.54688ZM10.3125 149.742V150.977H5.21875V149.742H10.3125ZM11.0859 144.625V145.859H5.21875V144.625H11.0859ZM14.2344 147.547V156H12.7812V147.547H14.2344ZM12.6719 145.305C12.6719 145.07 12.7422 144.872 12.8828 144.711C13.0286 144.549 13.2422 144.469 13.5234 144.469C13.7995 144.469 14.0104 144.549 14.1562 144.711C14.3073 144.872 14.3828 145.07 14.3828 145.305C14.3828 145.529 14.3073 145.721 14.1562 145.883C14.0104 146.039 13.7995 146.117 13.5234 146.117C13.2422 146.117 13.0286 146.039 12.8828 145.883C12.7422 145.721 12.6719 145.529 12.6719 145.305ZM22.0312 147.547H23.3438V155.82C23.3438 156.565 23.1927 157.201 22.8906 157.727C22.5885 158.253 22.1667 158.651 21.625 158.922C21.0885 159.198 20.4688 159.336 19.7656 159.336C19.474 159.336 19.1302 159.289 18.7344 159.195C18.3438 159.107 17.9583 158.953 17.5781 158.734C17.2031 158.521 16.888 158.232 16.6328 157.867L17.3906 157.008C17.7448 157.435 18.1146 157.732 18.5 157.898C18.8906 158.065 19.276 158.148 19.6562 158.148C20.1146 158.148 20.5104 158.062 20.8438 157.891C21.1771 157.719 21.4349 157.464 21.6172 157.125C21.8047 156.792 21.8984 156.38 21.8984 155.891V149.406L22.0312 147.547ZM16.2109 151.867V151.703C16.2109 151.057 16.2865 150.471 16.4375 149.945C16.5938 149.414 16.8151 148.958 17.1016 148.578C17.3932 148.198 17.7448 147.906 18.1562 147.703C18.5677 147.495 19.0312 147.391 19.5469 147.391C20.0781 147.391 20.5417 147.484 20.9375 147.672C21.3385 147.854 21.6771 148.122 21.9531 148.477C22.2344 148.826 22.4557 149.247 22.6172 149.742C22.7786 150.237 22.8906 150.797 22.9531 151.422V152.141C22.8958 152.76 22.7839 153.318 22.6172 153.812C22.4557 154.307 22.2344 154.729 21.9531 155.078C21.6771 155.427 21.3385 155.695 20.9375 155.883C20.5365 156.065 20.0677 156.156 19.5312 156.156C19.026 156.156 18.5677 156.049 18.1562 155.836C17.75 155.622 17.401 155.323 17.1094 154.938C16.8177 154.552 16.5938 154.099 16.4375 153.578C16.2865 153.052 16.2109 152.482 16.2109 151.867ZM17.6562 151.703V151.867C17.6562 152.289 17.6979 152.685 17.7812 153.055C17.8698 153.424 18.0026 153.75 18.1797 154.031C18.362 154.312 18.5938 154.534 18.875 154.695C19.1562 154.852 19.4922 154.93 19.8828 154.93C20.362 154.93 20.7578 154.828 21.0703 154.625C21.3828 154.422 21.6302 154.154 21.8125 153.82C22 153.487 22.1458 153.125 22.25 152.734V150.852C22.1927 150.565 22.1042 150.289 21.9844 150.023C21.8698 149.753 21.7188 149.513 21.5312 149.305C21.349 149.091 21.1224 148.922 20.8516 148.797C20.5807 148.672 20.263 148.609 19.8984 148.609C19.5026 148.609 19.1615 148.693 18.875 148.859C18.5938 149.021 18.362 149.245 18.1797 149.531C18.0026 149.812 17.8698 150.141 17.7812 150.516C17.6979 150.885 17.6562 151.281 17.6562 151.703ZM26.9766 149.227V156H25.5234V147.547H26.8984L26.9766 149.227ZM26.6797 151.453L26.0078 151.43C26.013 150.852 26.0885 150.318 26.2344 149.828C26.3802 149.333 26.5964 148.904 26.8828 148.539C27.1693 148.174 27.526 147.893 27.9531 147.695C28.3802 147.492 28.875 147.391 29.4375 147.391C29.8333 147.391 30.1979 147.448 30.5312 147.562C30.8646 147.672 31.1536 147.846 31.3984 148.086C31.6432 148.326 31.8333 148.633 31.9688 149.008C32.1042 149.383 32.1719 149.836 32.1719 150.367V156H30.7266V150.438C30.7266 149.995 30.651 149.641 30.5 149.375C30.3542 149.109 30.1458 148.917 29.875 148.797C29.6042 148.672 29.2865 148.609 28.9219 148.609C28.4948 148.609 28.138 148.685 27.8516 148.836C27.5651 148.987 27.3359 149.195 27.1641 149.461C26.9922 149.727 26.8672 150.031 26.7891 150.375C26.7161 150.714 26.6797 151.073 26.6797 151.453ZM32.1562 150.656L31.1875 150.953C31.1927 150.49 31.2682 150.044 31.4141 149.617C31.5651 149.19 31.7812 148.81 32.0625 148.477C32.349 148.143 32.7005 147.88 33.1172 147.688C33.5339 147.49 34.0104 147.391 34.5469 147.391C35 147.391 35.401 147.451 35.75 147.57C36.1042 147.69 36.401 147.875 36.6406 148.125C36.8854 148.37 37.0703 148.685 37.1953 149.07C37.3203 149.456 37.3828 149.914 37.3828 150.445V156H35.9297V150.43C35.9297 149.956 35.8542 149.589 35.7031 149.328C35.5573 149.062 35.349 148.878 35.0781 148.773C34.8125 148.664 34.4948 148.609 34.125 148.609C33.8073 148.609 33.526 148.664 33.2812 148.773C33.0365 148.883 32.8307 149.034 32.6641 149.227C32.4974 149.414 32.3698 149.63 32.2812 149.875C32.1979 150.12 32.1562 150.38 32.1562 150.656ZM44.5547 154.555V150.203C44.5547 149.87 44.487 149.581 44.3516 149.336C44.2214 149.086 44.0234 148.893 43.7578 148.758C43.4922 148.622 43.1641 148.555 42.7734 148.555C42.4089 148.555 42.0885 148.617 41.8125 148.742C41.5417 148.867 41.3281 149.031 41.1719 149.234C41.0208 149.438 40.9453 149.656 40.9453 149.891H39.5C39.5 149.589 39.5781 149.289 39.7344 148.992C39.8906 148.695 40.1146 148.427 40.4062 148.188C40.7031 147.943 41.0573 147.75 41.4688 147.609C41.8854 147.464 42.349 147.391 42.8594 147.391C43.474 147.391 44.0156 147.495 44.4844 147.703C44.9583 147.911 45.3281 148.227 45.5938 148.648C45.8646 149.065 46 149.589 46 150.219V154.156C46 154.438 46.0234 154.737 46.0703 155.055C46.1224 155.372 46.1979 155.646 46.2969 155.875V156H44.7891C44.7161 155.833 44.6589 155.612 44.6172 155.336C44.5755 155.055 44.5547 154.794 44.5547 154.555ZM44.8047 150.875L44.8203 151.891H43.3594C42.9479 151.891 42.5807 151.924 42.2578 151.992C41.9349 152.055 41.6641 152.151 41.4453 152.281C41.2266 152.411 41.0599 152.576 40.9453 152.773C40.8307 152.966 40.7734 153.193 40.7734 153.453C40.7734 153.719 40.8333 153.961 40.9531 154.18C41.0729 154.398 41.2526 154.573 41.4922 154.703C41.737 154.828 42.0365 154.891 42.3906 154.891C42.8333 154.891 43.224 154.797 43.5625 154.609C43.901 154.422 44.1693 154.193 44.3672 153.922C44.5703 153.651 44.6797 153.388 44.6953 153.133L45.3125 153.828C45.276 154.047 45.1771 154.289 45.0156 154.555C44.8542 154.82 44.638 155.076 44.3672 155.32C44.1016 155.56 43.7839 155.76 43.4141 155.922C43.0495 156.078 42.638 156.156 42.1797 156.156C41.6068 156.156 41.1042 156.044 40.6719 155.82C40.2448 155.596 39.9115 155.297 39.6719 154.922C39.4375 154.542 39.3203 154.117 39.3203 153.648C39.3203 153.195 39.4089 152.797 39.5859 152.453C39.763 152.104 40.0182 151.815 40.3516 151.586C40.6849 151.352 41.0859 151.174 41.5547 151.055C42.0234 150.935 42.5469 150.875 43.125 150.875H44.8047ZM53.6875 149.172V159.25H52.2344V147.547H53.5625L53.6875 149.172ZM59.3828 151.703V151.867C59.3828 152.482 59.3099 153.052 59.1641 153.578C59.0182 154.099 58.8047 154.552 58.5234 154.938C58.2474 155.323 57.9062 155.622 57.5 155.836C57.0938 156.049 56.6276 156.156 56.1016 156.156C55.5651 156.156 55.0911 156.068 54.6797 155.891C54.2682 155.714 53.9193 155.456 53.6328 155.117C53.3464 154.779 53.1172 154.372 52.9453 153.898C52.7786 153.424 52.6641 152.891 52.6016 152.297V151.422C52.6641 150.797 52.7812 150.237 52.9531 149.742C53.125 149.247 53.3516 148.826 53.6328 148.477C53.9193 148.122 54.2656 147.854 54.6719 147.672C55.0781 147.484 55.5469 147.391 56.0781 147.391C56.6094 147.391 57.0807 147.495 57.4922 147.703C57.9036 147.906 58.25 148.198 58.5312 148.578C58.8125 148.958 59.0234 149.414 59.1641 149.945C59.3099 150.471 59.3828 151.057 59.3828 151.703ZM57.9297 151.867V151.703C57.9297 151.281 57.8854 150.885 57.7969 150.516C57.7083 150.141 57.5703 149.812 57.3828 149.531C57.2005 149.245 56.9661 149.021 56.6797 148.859C56.3932 148.693 56.0521 148.609 55.6562 148.609C55.2917 148.609 54.974 148.672 54.7031 148.797C54.4375 148.922 54.2109 149.091 54.0234 149.305C53.8359 149.513 53.6823 149.753 53.5625 150.023C53.4479 150.289 53.362 150.565 53.3047 150.852V152.875C53.4089 153.24 53.5547 153.583 53.7422 153.906C53.9297 154.224 54.1797 154.482 54.4922 154.68C54.8047 154.872 55.1979 154.969 55.6719 154.969C56.0625 154.969 56.3984 154.888 56.6797 154.727C56.9661 154.56 57.2005 154.333 57.3828 154.047C57.5703 153.76 57.7083 153.432 57.7969 153.062C57.8854 152.688 57.9297 152.289 57.9297 151.867ZM62.6719 148.875V156H61.2266V147.547H62.6328L62.6719 148.875ZM65.3125 147.5L65.3047 148.844C65.1849 148.818 65.0703 148.802 64.9609 148.797C64.8568 148.786 64.737 148.781 64.6016 148.781C64.2682 148.781 63.974 148.833 63.7188 148.938C63.4635 149.042 63.2474 149.188 63.0703 149.375C62.8932 149.562 62.7526 149.786 62.6484 150.047C62.5495 150.302 62.4844 150.583 62.4531 150.891L62.0469 151.125C62.0469 150.615 62.0964 150.135 62.1953 149.688C62.2995 149.24 62.4583 148.844 62.6719 148.5C62.8854 148.151 63.1562 147.88 63.4844 147.688C63.8177 147.49 64.2135 147.391 64.6719 147.391C64.776 147.391 64.8958 147.404 65.0312 147.43C65.1667 147.451 65.2604 147.474 65.3125 147.5ZM66.1094 151.867V151.688C66.1094 151.078 66.1979 150.513 66.375 149.992C66.5521 149.466 66.8073 149.01 67.1406 148.625C67.474 148.234 67.8776 147.932 68.3516 147.719C68.8255 147.5 69.3568 147.391 69.9453 147.391C70.5391 147.391 71.0729 147.5 71.5469 147.719C72.026 147.932 72.4323 148.234 72.7656 148.625C73.1042 149.01 73.362 149.466 73.5391 149.992C73.7161 150.513 73.8047 151.078 73.8047 151.688V151.867C73.8047 152.477 73.7161 153.042 73.5391 153.562C73.362 154.083 73.1042 154.539 72.7656 154.93C72.4323 155.315 72.0286 155.617 71.5547 155.836C71.0859 156.049 70.5547 156.156 69.9609 156.156C69.3672 156.156 68.8333 156.049 68.3594 155.836C67.8854 155.617 67.4792 155.315 67.1406 154.93C66.8073 154.539 66.5521 154.083 66.375 153.562C66.1979 153.042 66.1094 152.477 66.1094 151.867ZM67.5547 151.688V151.867C67.5547 152.289 67.6042 152.688 67.7031 153.062C67.8021 153.432 67.9505 153.76 68.1484 154.047C68.3516 154.333 68.6042 154.56 68.9062 154.727C69.2083 154.888 69.5599 154.969 69.9609 154.969C70.3568 154.969 70.7031 154.888 71 154.727C71.3021 154.56 71.5521 154.333 71.75 154.047C71.9479 153.76 72.0964 153.432 72.1953 153.062C72.2995 152.688 72.3516 152.289 72.3516 151.867V151.688C72.3516 151.271 72.2995 150.878 72.1953 150.508C72.0964 150.133 71.9453 149.802 71.7422 149.516C71.5443 149.224 71.2943 148.995 70.9922 148.828C70.6953 148.661 70.3464 148.578 69.9453 148.578C69.5495 148.578 69.2005 148.661 68.8984 148.828C68.6016 148.995 68.3516 149.224 68.1484 149.516C67.9505 149.802 67.8021 150.133 67.7031 150.508C67.6042 150.878 67.5547 151.271 67.5547 151.688ZM75.6562 147.547H77.1094V157.008C77.1094 157.523 77.026 157.961 76.8594 158.32C76.6979 158.68 76.4531 158.951 76.125 159.133C75.8021 159.32 75.3932 159.414 74.8984 159.414C74.7682 159.414 74.6172 159.401 74.4453 159.375C74.2682 159.349 74.1198 159.318 74 159.281L74.0078 158.117C74.1068 158.138 74.2188 158.154 74.3438 158.164C74.4688 158.18 74.5781 158.188 74.6719 158.188C74.8854 158.188 75.0651 158.148 75.2109 158.07C75.3568 157.992 75.4661 157.867 75.5391 157.695C75.6172 157.523 75.6562 157.294 75.6562 157.008V147.547ZM75.5078 145.305C75.5078 145.07 75.5807 144.872 75.7266 144.711C75.8724 144.549 76.0833 144.469 76.3594 144.469C76.6406 144.469 76.8542 144.549 77 144.711C77.1458 144.872 77.2188 145.07 77.2188 145.305C77.2188 145.529 77.1458 145.721 77 145.883C76.8542 146.039 76.6406 146.117 76.3594 146.117C76.0833 146.117 75.8724 146.039 75.7266 145.883C75.5807 145.721 75.5078 145.529 75.5078 145.305ZM82.9531 156.156C82.3646 156.156 81.8307 156.057 81.3516 155.859C80.8776 155.656 80.4688 155.372 80.125 155.008C79.7865 154.643 79.526 154.211 79.3438 153.711C79.1615 153.211 79.0703 152.664 79.0703 152.07V151.742C79.0703 151.055 79.1719 150.443 79.375 149.906C79.5781 149.365 79.8542 148.906 80.2031 148.531C80.5521 148.156 80.9479 147.872 81.3906 147.68C81.8333 147.487 82.2917 147.391 82.7656 147.391C83.3698 147.391 83.8906 147.495 84.3281 147.703C84.7708 147.911 85.1328 148.203 85.4141 148.578C85.6953 148.948 85.9036 149.385 86.0391 149.891C86.1745 150.391 86.2422 150.938 86.2422 151.531V152.18H79.9297V151H84.7969V150.891C84.776 150.516 84.6979 150.151 84.5625 149.797C84.4323 149.443 84.224 149.151 83.9375 148.922C83.651 148.693 83.2604 148.578 82.7656 148.578C82.4375 148.578 82.1354 148.648 81.8594 148.789C81.5833 148.924 81.3464 149.128 81.1484 149.398C80.9505 149.669 80.7969 150 80.6875 150.391C80.5781 150.781 80.5234 151.232 80.5234 151.742V152.07C80.5234 152.471 80.5781 152.849 80.6875 153.203C80.8021 153.552 80.9661 153.859 81.1797 154.125C81.3984 154.391 81.6615 154.599 81.9688 154.75C82.2812 154.901 82.6354 154.977 83.0312 154.977C83.5417 154.977 83.974 154.872 84.3281 154.664C84.6823 154.456 84.9922 154.177 85.2578 153.828L86.1328 154.523C85.9505 154.799 85.7188 155.062 85.4375 155.312C85.1562 155.562 84.8099 155.766 84.3984 155.922C83.9922 156.078 83.5104 156.156 82.9531 156.156ZM91.3125 154.969C91.6562 154.969 91.974 154.898 92.2656 154.758C92.5573 154.617 92.7969 154.424 92.9844 154.18C93.1719 153.93 93.2786 153.646 93.3047 153.328H94.6797C94.6536 153.828 94.4844 154.294 94.1719 154.727C93.8646 155.154 93.4609 155.5 92.9609 155.766C92.4609 156.026 91.9115 156.156 91.3125 156.156C90.6771 156.156 90.1224 156.044 89.6484 155.82C89.1797 155.596 88.7891 155.289 88.4766 154.898C88.1693 154.508 87.9375 154.06 87.7812 153.555C87.6302 153.044 87.5547 152.505 87.5547 151.938V151.609C87.5547 151.042 87.6302 150.505 87.7812 150C87.9375 149.49 88.1693 149.039 88.4766 148.648C88.7891 148.258 89.1797 147.951 89.6484 147.727C90.1224 147.503 90.6771 147.391 91.3125 147.391C91.974 147.391 92.5521 147.526 93.0469 147.797C93.5417 148.062 93.9297 148.427 94.2109 148.891C94.4974 149.349 94.6536 149.87 94.6797 150.453H93.3047C93.2786 150.104 93.1797 149.789 93.0078 149.508C92.8411 149.227 92.612 149.003 92.3203 148.836C92.0339 148.664 91.6979 148.578 91.3125 148.578C90.8698 148.578 90.4974 148.667 90.1953 148.844C89.8984 149.016 89.6615 149.25 89.4844 149.547C89.3125 149.839 89.1875 150.164 89.1094 150.523C89.0365 150.878 89 151.24 89 151.609V151.938C89 152.307 89.0365 152.672 89.1094 153.031C89.1823 153.391 89.3047 153.716 89.4766 154.008C89.6536 154.299 89.8906 154.534 90.1875 154.711C90.4896 154.883 90.8646 154.969 91.3125 154.969ZM99.8438 147.547V148.656H95.2734V147.547H99.8438ZM96.8203 145.492H98.2656V153.906C98.2656 154.193 98.3099 154.409 98.3984 154.555C98.487 154.701 98.6016 154.797 98.7422 154.844C98.8828 154.891 99.0339 154.914 99.1953 154.914C99.3151 154.914 99.4401 154.904 99.5703 154.883C99.7057 154.857 99.8073 154.836 99.875 154.82L99.8828 156C99.7682 156.036 99.6172 156.07 99.4297 156.102C99.2474 156.138 99.026 156.156 98.7656 156.156C98.4115 156.156 98.0859 156.086 97.7891 155.945C97.4922 155.805 97.2552 155.57 97.0781 155.242C96.9062 154.909 96.8203 154.461 96.8203 153.898V145.492ZM107.664 156H106.219V146.656C106.219 146.047 106.328 145.534 106.547 145.117C106.771 144.695 107.091 144.378 107.508 144.164C107.924 143.945 108.419 143.836 108.992 143.836C109.159 143.836 109.326 143.846 109.492 143.867C109.664 143.888 109.831 143.919 109.992 143.961L109.914 145.141C109.805 145.115 109.68 145.096 109.539 145.086C109.404 145.076 109.268 145.07 109.133 145.07C108.826 145.07 108.56 145.133 108.336 145.258C108.117 145.378 107.951 145.555 107.836 145.789C107.721 146.023 107.664 146.312 107.664 146.656V156ZM109.461 147.547V148.656H104.883V147.547H109.461ZM110.688 151.867V151.688C110.688 151.078 110.776 150.513 110.953 149.992C111.13 149.466 111.385 149.01 111.719 148.625C112.052 148.234 112.456 147.932 112.93 147.719C113.404 147.5 113.935 147.391 114.523 147.391C115.117 147.391 115.651 147.5 116.125 147.719C116.604 147.932 117.01 148.234 117.344 148.625C117.682 149.01 117.94 149.466 118.117 149.992C118.294 150.513 118.383 151.078 118.383 151.688V151.867C118.383 152.477 118.294 153.042 118.117 153.562C117.94 154.083 117.682 154.539 117.344 154.93C117.01 155.315 116.607 155.617 116.133 155.836C115.664 156.049 115.133 156.156 114.539 156.156C113.945 156.156 113.411 156.049 112.938 155.836C112.464 155.617 112.057 155.315 111.719 154.93C111.385 154.539 111.13 154.083 110.953 153.562C110.776 153.042 110.688 152.477 110.688 151.867ZM112.133 151.688V151.867C112.133 152.289 112.182 152.688 112.281 153.062C112.38 153.432 112.529 153.76 112.727 154.047C112.93 154.333 113.182 154.56 113.484 154.727C113.786 154.888 114.138 154.969 114.539 154.969C114.935 154.969 115.281 154.888 115.578 154.727C115.88 154.56 116.13 154.333 116.328 154.047C116.526 153.76 116.674 153.432 116.773 153.062C116.878 152.688 116.93 152.289 116.93 151.867V151.688C116.93 151.271 116.878 150.878 116.773 150.508C116.674 150.133 116.523 149.802 116.32 149.516C116.122 149.224 115.872 148.995 115.57 148.828C115.273 148.661 114.924 148.578 114.523 148.578C114.128 148.578 113.779 148.661 113.477 148.828C113.18 148.995 112.93 149.224 112.727 149.516C112.529 149.802 112.38 150.133 112.281 150.508C112.182 150.878 112.133 151.271 112.133 151.688ZM121.641 148.875V156H120.195V147.547H121.602L121.641 148.875ZM124.281 147.5L124.273 148.844C124.154 148.818 124.039 148.802 123.93 148.797C123.826 148.786 123.706 148.781 123.57 148.781C123.237 148.781 122.943 148.833 122.688 148.938C122.432 149.042 122.216 149.188 122.039 149.375C121.862 149.562 121.721 149.786 121.617 150.047C121.518 150.302 121.453 150.583 121.422 150.891L121.016 151.125C121.016 150.615 121.065 150.135 121.164 149.688C121.268 149.24 121.427 148.844 121.641 148.5C121.854 148.151 122.125 147.88 122.453 147.688C122.786 147.49 123.182 147.391 123.641 147.391C123.745 147.391 123.865 147.404 124 147.43C124.135 147.451 124.229 147.474 124.281 147.5ZM134.57 154.555V150.203C134.57 149.87 134.503 149.581 134.367 149.336C134.237 149.086 134.039 148.893 133.773 148.758C133.508 148.622 133.18 148.555 132.789 148.555C132.424 148.555 132.104 148.617 131.828 148.742C131.557 148.867 131.344 149.031 131.188 149.234C131.036 149.438 130.961 149.656 130.961 149.891H129.516C129.516 149.589 129.594 149.289 129.75 148.992C129.906 148.695 130.13 148.427 130.422 148.188C130.719 147.943 131.073 147.75 131.484 147.609C131.901 147.464 132.365 147.391 132.875 147.391C133.49 147.391 134.031 147.495 134.5 147.703C134.974 147.911 135.344 148.227 135.609 148.648C135.88 149.065 136.016 149.589 136.016 150.219V154.156C136.016 154.438 136.039 154.737 136.086 155.055C136.138 155.372 136.214 155.646 136.312 155.875V156H134.805C134.732 155.833 134.674 155.612 134.633 155.336C134.591 155.055 134.57 154.794 134.57 154.555ZM134.82 150.875L134.836 151.891H133.375C132.964 151.891 132.596 151.924 132.273 151.992C131.951 152.055 131.68 152.151 131.461 152.281C131.242 152.411 131.076 152.576 130.961 152.773C130.846 152.966 130.789 153.193 130.789 153.453C130.789 153.719 130.849 153.961 130.969 154.18C131.089 154.398 131.268 154.573 131.508 154.703C131.753 154.828 132.052 154.891 132.406 154.891C132.849 154.891 133.24 154.797 133.578 154.609C133.917 154.422 134.185 154.193 134.383 153.922C134.586 153.651 134.695 153.388 134.711 153.133L135.328 153.828C135.292 154.047 135.193 154.289 135.031 154.555C134.87 154.82 134.654 155.076 134.383 155.32C134.117 155.56 133.799 155.76 133.43 155.922C133.065 156.078 132.654 156.156 132.195 156.156C131.622 156.156 131.12 156.044 130.688 155.82C130.26 155.596 129.927 155.297 129.688 154.922C129.453 154.542 129.336 154.117 129.336 153.648C129.336 153.195 129.424 152.797 129.602 152.453C129.779 152.104 130.034 151.815 130.367 151.586C130.701 151.352 131.102 151.174 131.57 151.055C132.039 150.935 132.562 150.875 133.141 150.875H134.82ZM143.703 148.875V156H142.258V147.547H143.664L143.703 148.875ZM146.344 147.5L146.336 148.844C146.216 148.818 146.102 148.802 145.992 148.797C145.888 148.786 145.768 148.781 145.633 148.781C145.299 148.781 145.005 148.833 144.75 148.938C144.495 149.042 144.279 149.188 144.102 149.375C143.924 149.562 143.784 149.786 143.68 150.047C143.581 150.302 143.516 150.583 143.484 150.891L143.078 151.125C143.078 150.615 143.128 150.135 143.227 149.688C143.331 149.24 143.49 148.844 143.703 148.5C143.917 148.151 144.188 147.88 144.516 147.688C144.849 147.49 145.245 147.391 145.703 147.391C145.807 147.391 145.927 147.404 146.062 147.43C146.198 147.451 146.292 147.474 146.344 147.5ZM151.031 156.156C150.443 156.156 149.909 156.057 149.43 155.859C148.956 155.656 148.547 155.372 148.203 155.008C147.865 154.643 147.604 154.211 147.422 153.711C147.24 153.211 147.148 152.664 147.148 152.07V151.742C147.148 151.055 147.25 150.443 147.453 149.906C147.656 149.365 147.932 148.906 148.281 148.531C148.63 148.156 149.026 147.872 149.469 147.68C149.911 147.487 150.37 147.391 150.844 147.391C151.448 147.391 151.969 147.495 152.406 147.703C152.849 147.911 153.211 148.203 153.492 148.578C153.773 148.948 153.982 149.385 154.117 149.891C154.253 150.391 154.32 150.938 154.32 151.531V152.18H148.008V151H152.875V150.891C152.854 150.516 152.776 150.151 152.641 149.797C152.51 149.443 152.302 149.151 152.016 148.922C151.729 148.693 151.339 148.578 150.844 148.578C150.516 148.578 150.214 148.648 149.938 148.789C149.661 148.924 149.424 149.128 149.227 149.398C149.029 149.669 148.875 150 148.766 150.391C148.656 150.781 148.602 151.232 148.602 151.742V152.07C148.602 152.471 148.656 152.849 148.766 153.203C148.88 153.552 149.044 153.859 149.258 154.125C149.477 154.391 149.74 154.599 150.047 154.75C150.359 154.901 150.714 154.977 151.109 154.977C151.62 154.977 152.052 154.872 152.406 154.664C152.76 154.456 153.07 154.177 153.336 153.828L154.211 154.523C154.029 154.799 153.797 155.062 153.516 155.312C153.234 155.562 152.888 155.766 152.477 155.922C152.07 156.078 151.589 156.156 151.031 156.156ZM159.391 154.969C159.734 154.969 160.052 154.898 160.344 154.758C160.635 154.617 160.875 154.424 161.062 154.18C161.25 153.93 161.357 153.646 161.383 153.328H162.758C162.732 153.828 162.562 154.294 162.25 154.727C161.943 155.154 161.539 155.5 161.039 155.766C160.539 156.026 159.99 156.156 159.391 156.156C158.755 156.156 158.201 156.044 157.727 155.82C157.258 155.596 156.867 155.289 156.555 154.898C156.247 154.508 156.016 154.06 155.859 153.555C155.708 153.044 155.633 152.505 155.633 151.938V151.609C155.633 151.042 155.708 150.505 155.859 150C156.016 149.49 156.247 149.039 156.555 148.648C156.867 148.258 157.258 147.951 157.727 147.727C158.201 147.503 158.755 147.391 159.391 147.391C160.052 147.391 160.63 147.526 161.125 147.797C161.62 148.062 162.008 148.427 162.289 148.891C162.576 149.349 162.732 149.87 162.758 150.453H161.383C161.357 150.104 161.258 149.789 161.086 149.508C160.919 149.227 160.69 149.003 160.398 148.836C160.112 148.664 159.776 148.578 159.391 148.578C158.948 148.578 158.576 148.667 158.273 148.844C157.977 149.016 157.74 149.25 157.562 149.547C157.391 149.839 157.266 150.164 157.188 150.523C157.115 150.878 157.078 151.24 157.078 151.609V151.938C157.078 152.307 157.115 152.672 157.188 153.031C157.26 153.391 157.383 153.716 157.555 154.008C157.732 154.299 157.969 154.534 158.266 154.711C158.568 154.883 158.943 154.969 159.391 154.969ZM165.953 147.547V156H164.5V147.547H165.953ZM164.391 145.305C164.391 145.07 164.461 144.872 164.602 144.711C164.747 144.549 164.961 144.469 165.242 144.469C165.518 144.469 165.729 144.549 165.875 144.711C166.026 144.872 166.102 145.07 166.102 145.305C166.102 145.529 166.026 145.721 165.875 145.883C165.729 146.039 165.518 146.117 165.242 146.117C164.961 146.117 164.747 146.039 164.602 145.883C164.461 145.721 164.391 145.529 164.391 145.305ZM169.719 149.172V159.25H168.266V147.547H169.594L169.719 149.172ZM175.414 151.703V151.867C175.414 152.482 175.341 153.052 175.195 153.578C175.049 154.099 174.836 154.552 174.555 154.938C174.279 155.323 173.938 155.622 173.531 155.836C173.125 156.049 172.659 156.156 172.133 156.156C171.596 156.156 171.122 156.068 170.711 155.891C170.299 155.714 169.951 155.456 169.664 155.117C169.378 154.779 169.148 154.372 168.977 153.898C168.81 153.424 168.695 152.891 168.633 152.297V151.422C168.695 150.797 168.812 150.237 168.984 149.742C169.156 149.247 169.383 148.826 169.664 148.477C169.951 148.122 170.297 147.854 170.703 147.672C171.109 147.484 171.578 147.391 172.109 147.391C172.641 147.391 173.112 147.495 173.523 147.703C173.935 147.906 174.281 148.198 174.562 148.578C174.844 148.958 175.055 149.414 175.195 149.945C175.341 150.471 175.414 151.057 175.414 151.703ZM173.961 151.867V151.703C173.961 151.281 173.917 150.885 173.828 150.516C173.74 150.141 173.602 149.812 173.414 149.531C173.232 149.245 172.997 149.021 172.711 148.859C172.424 148.693 172.083 148.609 171.688 148.609C171.323 148.609 171.005 148.672 170.734 148.797C170.469 148.922 170.242 149.091 170.055 149.305C169.867 149.513 169.714 149.753 169.594 150.023C169.479 150.289 169.393 150.565 169.336 150.852V152.875C169.44 153.24 169.586 153.583 169.773 153.906C169.961 154.224 170.211 154.482 170.523 154.68C170.836 154.872 171.229 154.969 171.703 154.969C172.094 154.969 172.43 154.888 172.711 154.727C172.997 154.56 173.232 154.333 173.414 154.047C173.602 153.76 173.74 153.432 173.828 153.062C173.917 152.688 173.961 152.289 173.961 151.867ZM180.766 156.156C180.177 156.156 179.643 156.057 179.164 155.859C178.69 155.656 178.281 155.372 177.938 155.008C177.599 154.643 177.339 154.211 177.156 153.711C176.974 153.211 176.883 152.664 176.883 152.07V151.742C176.883 151.055 176.984 150.443 177.188 149.906C177.391 149.365 177.667 148.906 178.016 148.531C178.365 148.156 178.76 147.872 179.203 147.68C179.646 147.487 180.104 147.391 180.578 147.391C181.182 147.391 181.703 147.495 182.141 147.703C182.583 147.911 182.945 148.203 183.227 148.578C183.508 148.948 183.716 149.385 183.852 149.891C183.987 150.391 184.055 150.938 184.055 151.531V152.18H177.742V151H182.609V150.891C182.589 150.516 182.51 150.151 182.375 149.797C182.245 149.443 182.036 149.151 181.75 148.922C181.464 148.693 181.073 148.578 180.578 148.578C180.25 148.578 179.948 148.648 179.672 148.789C179.396 148.924 179.159 149.128 178.961 149.398C178.763 149.669 178.609 150 178.5 150.391C178.391 150.781 178.336 151.232 178.336 151.742V152.07C178.336 152.471 178.391 152.849 178.5 153.203C178.615 153.552 178.779 153.859 178.992 154.125C179.211 154.391 179.474 154.599 179.781 154.75C180.094 154.901 180.448 154.977 180.844 154.977C181.354 154.977 181.786 154.872 182.141 154.664C182.495 154.456 182.805 154.177 183.07 153.828L183.945 154.523C183.763 154.799 183.531 155.062 183.25 155.312C182.969 155.562 182.622 155.766 182.211 155.922C181.805 156.078 181.323 156.156 180.766 156.156ZM194.695 154.555V150.203C194.695 149.87 194.628 149.581 194.492 149.336C194.362 149.086 194.164 148.893 193.898 148.758C193.633 148.622 193.305 148.555 192.914 148.555C192.549 148.555 192.229 148.617 191.953 148.742C191.682 148.867 191.469 149.031 191.312 149.234C191.161 149.438 191.086 149.656 191.086 149.891H189.641C189.641 149.589 189.719 149.289 189.875 148.992C190.031 148.695 190.255 148.427 190.547 148.188C190.844 147.943 191.198 147.75 191.609 147.609C192.026 147.464 192.49 147.391 193 147.391C193.615 147.391 194.156 147.495 194.625 147.703C195.099 147.911 195.469 148.227 195.734 148.648C196.005 149.065 196.141 149.589 196.141 150.219V154.156C196.141 154.438 196.164 154.737 196.211 155.055C196.263 155.372 196.339 155.646 196.438 155.875V156H194.93C194.857 155.833 194.799 155.612 194.758 155.336C194.716 155.055 194.695 154.794 194.695 154.555ZM194.945 150.875L194.961 151.891H193.5C193.089 151.891 192.721 151.924 192.398 151.992C192.076 152.055 191.805 152.151 191.586 152.281C191.367 152.411 191.201 152.576 191.086 152.773C190.971 152.966 190.914 153.193 190.914 153.453C190.914 153.719 190.974 153.961 191.094 154.18C191.214 154.398 191.393 154.573 191.633 154.703C191.878 154.828 192.177 154.891 192.531 154.891C192.974 154.891 193.365 154.797 193.703 154.609C194.042 154.422 194.31 154.193 194.508 153.922C194.711 153.651 194.82 153.388 194.836 153.133L195.453 153.828C195.417 154.047 195.318 154.289 195.156 154.555C194.995 154.82 194.779 155.076 194.508 155.32C194.242 155.56 193.924 155.76 193.555 155.922C193.19 156.078 192.779 156.156 192.32 156.156C191.747 156.156 191.245 156.044 190.812 155.82C190.385 155.596 190.052 155.297 189.812 154.922C189.578 154.542 189.461 154.117 189.461 153.648C189.461 153.195 189.549 152.797 189.727 152.453C189.904 152.104 190.159 151.815 190.492 151.586C190.826 151.352 191.227 151.174 191.695 151.055C192.164 150.935 192.688 150.875 193.266 150.875H194.945ZM199.859 149.172V159.25H198.406V147.547H199.734L199.859 149.172ZM205.555 151.703V151.867C205.555 152.482 205.482 153.052 205.336 153.578C205.19 154.099 204.977 154.552 204.695 154.938C204.419 155.323 204.078 155.622 203.672 155.836C203.266 156.049 202.799 156.156 202.273 156.156C201.737 156.156 201.263 156.068 200.852 155.891C200.44 155.714 200.091 155.456 199.805 155.117C199.518 154.779 199.289 154.372 199.117 153.898C198.951 153.424 198.836 152.891 198.773 152.297V151.422C198.836 150.797 198.953 150.237 199.125 149.742C199.297 149.247 199.523 148.826 199.805 148.477C200.091 148.122 200.438 147.854 200.844 147.672C201.25 147.484 201.719 147.391 202.25 147.391C202.781 147.391 203.253 147.495 203.664 147.703C204.076 147.906 204.422 148.198 204.703 148.578C204.984 148.958 205.195 149.414 205.336 149.945C205.482 150.471 205.555 151.057 205.555 151.703ZM204.102 151.867V151.703C204.102 151.281 204.057 150.885 203.969 150.516C203.88 150.141 203.742 149.812 203.555 149.531C203.372 149.245 203.138 149.021 202.852 148.859C202.565 148.693 202.224 148.609 201.828 148.609C201.464 148.609 201.146 148.672 200.875 148.797C200.609 148.922 200.383 149.091 200.195 149.305C200.008 149.513 199.854 149.753 199.734 150.023C199.62 150.289 199.534 150.565 199.477 150.852V152.875C199.581 153.24 199.727 153.583 199.914 153.906C200.102 154.224 200.352 154.482 200.664 154.68C200.977 154.872 201.37 154.969 201.844 154.969C202.234 154.969 202.57 154.888 202.852 154.727C203.138 154.56 203.372 154.333 203.555 154.047C203.742 153.76 203.88 153.432 203.969 153.062C204.057 152.688 204.102 152.289 204.102 151.867ZM208.844 149.172V159.25H207.391V147.547H208.719L208.844 149.172ZM214.539 151.703V151.867C214.539 152.482 214.466 153.052 214.32 153.578C214.174 154.099 213.961 154.552 213.68 154.938C213.404 155.323 213.062 155.622 212.656 155.836C212.25 156.049 211.784 156.156 211.258 156.156C210.721 156.156 210.247 156.068 209.836 155.891C209.424 155.714 209.076 155.456 208.789 155.117C208.503 154.779 208.273 154.372 208.102 153.898C207.935 153.424 207.82 152.891 207.758 152.297V151.422C207.82 150.797 207.938 150.237 208.109 149.742C208.281 149.247 208.508 148.826 208.789 148.477C209.076 148.122 209.422 147.854 209.828 147.672C210.234 147.484 210.703 147.391 211.234 147.391C211.766 147.391 212.237 147.495 212.648 147.703C213.06 147.906 213.406 148.198 213.688 148.578C213.969 148.958 214.18 149.414 214.32 149.945C214.466 150.471 214.539 151.057 214.539 151.703ZM213.086 151.867V151.703C213.086 151.281 213.042 150.885 212.953 150.516C212.865 150.141 212.727 149.812 212.539 149.531C212.357 149.245 212.122 149.021 211.836 148.859C211.549 148.693 211.208 148.609 210.812 148.609C210.448 148.609 210.13 148.672 209.859 148.797C209.594 148.922 209.367 149.091 209.18 149.305C208.992 149.513 208.839 149.753 208.719 150.023C208.604 150.289 208.518 150.565 208.461 150.852V152.875C208.565 153.24 208.711 153.583 208.898 153.906C209.086 154.224 209.336 154.482 209.648 154.68C209.961 154.872 210.354 154.969 210.828 154.969C211.219 154.969 211.555 154.888 211.836 154.727C212.122 154.56 212.357 154.333 212.539 154.047C212.727 153.76 212.865 153.432 212.953 153.062C213.042 152.688 213.086 152.289 213.086 151.867Z" fill="white"/>
<path d="M53.1094 20.0938H57.8906V36.3438C57.8906 37.9062 57.5312 39.2292 56.8125 40.3125C56.0938 41.4062 55.0885 42.2344 53.7969 42.7969C52.5156 43.3698 51.0156 43.6562 49.2969 43.6562C48.5365 43.6562 47.7604 43.5573 46.9688 43.3594C46.1771 43.1719 45.4375 42.8906 44.75 42.5156C44.0625 42.1406 43.4844 41.6771 43.0156 41.125L45.2188 38.0312C45.6458 38.5104 46.1823 38.9167 46.8281 39.25C47.474 39.5938 48.2344 39.7656 49.1094 39.7656C49.8698 39.7656 50.5052 39.6302 51.0156 39.3594C51.5365 39.0885 51.9323 38.6927 52.2031 38.1719C52.474 37.6615 52.6094 37.0417 52.6094 36.3125V24.0938L53.1094 20.0938ZM41.875 28.75V28.4219C41.875 27.1406 42.0312 25.974 42.3438 24.9219C42.6667 23.8594 43.125 22.9479 43.7188 22.1875C44.3229 21.4167 45.0521 20.8229 45.9062 20.4062C46.7604 19.9896 47.724 19.7812 48.7969 19.7812C49.9531 19.7812 50.901 20.0052 51.6406 20.4531C52.3906 20.8906 52.9896 21.5052 53.4375 22.2969C53.8958 23.0885 54.25 24.0156 54.5 25.0781C54.7604 26.1302 54.9792 27.2656 55.1562 28.4844V28.875C54.9792 30.0208 54.7344 31.1042 54.4219 32.125C54.1198 33.1354 53.724 34.0312 53.2344 34.8125C52.7448 35.5938 52.1302 36.2083 51.3906 36.6562C50.6615 37.0938 49.7865 37.3125 48.7656 37.3125C47.7031 37.3125 46.7448 37.099 45.8906 36.6719C45.0469 36.2448 44.3229 35.6458 43.7188 34.875C43.125 34.1042 42.6667 33.1979 42.3438 32.1562C42.0312 31.1146 41.875 29.9792 41.875 28.75ZM47.1406 28.4219V28.75C47.1406 29.3854 47.1979 29.974 47.3125 30.5156C47.4375 31.0573 47.625 31.5365 47.875 31.9531C48.125 32.3594 48.4323 32.6771 48.7969 32.9062C49.1719 33.1354 49.6094 33.25 50.1094 33.25C50.8698 33.25 51.4844 33.0885 51.9531 32.7656C52.4219 32.4427 52.7604 31.9844 52.9688 31.3906C53.1771 30.7969 53.2656 30.099 53.2344 29.2969V28.0625C53.2552 27.375 53.2083 26.7708 53.0938 26.25C52.9792 25.7188 52.7969 25.276 52.5469 24.9219C52.3073 24.5677 51.9844 24.3021 51.5781 24.125C51.1823 23.9375 50.7031 23.8438 50.1406 23.8438C49.651 23.8438 49.2188 23.9583 48.8438 24.1875C48.4688 24.4167 48.1562 24.7396 47.9062 25.1562C47.6562 25.5625 47.4635 26.0469 47.3281 26.6094C47.2031 27.1615 47.1406 27.7656 47.1406 28.4219ZM70.7969 32.8906V20.0938H76.0781V37H71.1406L70.7969 32.8906ZM71.2969 29.4531L72.6719 29.4219C72.6719 30.5573 72.5365 31.6094 72.2656 32.5781C71.9948 33.5365 71.5938 34.3698 71.0625 35.0781C70.5417 35.7865 69.8958 36.3385 69.125 36.7344C68.3646 37.1198 67.4844 37.3125 66.4844 37.3125C65.651 37.3125 64.8854 37.1979 64.1875 36.9688C63.5 36.7292 62.9062 36.3594 62.4062 35.8594C61.9062 35.349 61.5156 34.6979 61.2344 33.9062C60.9635 33.1042 60.8281 32.1458 60.8281 31.0312V20.0938H66.0938V31.0625C66.0938 31.4375 66.1406 31.7604 66.2344 32.0312C66.3281 32.3021 66.4635 32.5312 66.6406 32.7188C66.8177 32.8958 67.0365 33.0312 67.2969 33.125C67.5677 33.2083 67.875 33.25 68.2188 33.25C69.0104 33.25 69.6302 33.0833 70.0781 32.75C70.526 32.4167 70.8385 31.9635 71.0156 31.3906C71.2031 30.8177 71.2969 30.1719 71.2969 29.4531ZM84.2969 24.2812V37H79.0312V20.0938H83.9531L84.2969 24.2812ZM89.2969 19.9688L89.2031 24.8594C88.9948 24.8385 88.7135 24.8125 88.3594 24.7812C88.0052 24.75 87.7083 24.7344 87.4688 24.7344C86.8542 24.7344 86.3229 24.8073 85.875 24.9531C85.4375 25.0885 85.0729 25.2969 84.7812 25.5781C84.5 25.849 84.2917 26.1927 84.1562 26.6094C84.0312 27.026 83.974 27.5104 83.9844 28.0625L83.0312 27.4375C83.0312 26.3021 83.1406 25.2708 83.3594 24.3438C83.5885 23.4062 83.9115 22.599 84.3281 21.9219C84.7448 21.2344 85.25 20.7083 85.8438 20.3438C86.4375 19.9688 87.1042 19.7812 87.8438 19.7812C88.1042 19.7812 88.3594 19.7969 88.6094 19.8281C88.8698 19.8594 89.099 19.9062 89.2969 19.9688ZM100.984 32.8906V20.0938H106.266V37H101.328L100.984 32.8906ZM101.484 29.4531L102.859 29.4219C102.859 30.5573 102.724 31.6094 102.453 32.5781C102.182 33.5365 101.781 34.3698 101.25 35.0781C100.729 35.7865 100.083 36.3385 99.3125 36.7344C98.5521 37.1198 97.6719 37.3125 96.6719 37.3125C95.8385 37.3125 95.0729 37.1979 94.375 36.9688C93.6875 36.7292 93.0938 36.3594 92.5938 35.8594C92.0938 35.349 91.7031 34.6979 91.4219 33.9062C91.151 33.1042 91.0156 32.1458 91.0156 31.0312V20.0938H96.2812V31.0625C96.2812 31.4375 96.3281 31.7604 96.4219 32.0312C96.5156 32.3021 96.651 32.5312 96.8281 32.7188C97.0052 32.8958 97.224 33.0312 97.4844 33.125C97.7552 33.2083 98.0625 33.25 98.4062 33.25C99.1979 33.25 99.8177 33.0833 100.266 32.75C100.714 32.4167 101.026 31.9635 101.203 31.3906C101.391 30.8177 101.484 30.1719 101.484 29.4531ZM112.141 14.25H116.609L121.688 30.0781L126.766 14.25H131.234L123.5 37H119.875L112.141 14.25ZM109.422 14.25H114.047L114.906 31.6875V37H109.422V14.25ZM129.328 14.25H133.969V37H128.469V31.6875L129.328 14.25ZM145.422 37.3125C144.047 37.3125 142.818 37.099 141.734 36.6719C140.651 36.2344 139.734 35.6354 138.984 34.875C138.245 34.1146 137.677 33.2396 137.281 32.25C136.896 31.2604 136.703 30.2135 136.703 29.1094V28.5156C136.703 27.276 136.875 26.1302 137.219 25.0781C137.562 24.0156 138.073 23.0885 138.75 22.2969C139.427 21.5052 140.276 20.8906 141.297 20.4531C142.318 20.0052 143.505 19.7812 144.859 19.7812C146.057 19.7812 147.13 19.974 148.078 20.3594C149.026 20.7448 149.828 21.2969 150.484 22.0156C151.151 22.7344 151.656 23.6042 152 24.625C152.354 25.6458 152.531 26.7917 152.531 28.0625V30.2031H138.719V26.9062H147.391V26.5C147.401 25.9375 147.302 25.4583 147.094 25.0625C146.896 24.6667 146.604 24.3646 146.219 24.1562C145.833 23.9479 145.365 23.8438 144.812 23.8438C144.24 23.8438 143.766 23.9688 143.391 24.2188C143.026 24.4688 142.74 24.8125 142.531 25.25C142.333 25.6771 142.193 26.1719 142.109 26.7344C142.026 27.2969 141.984 27.8906 141.984 28.5156V29.1094C141.984 29.7344 142.068 30.3021 142.234 30.8125C142.411 31.3229 142.661 31.7604 142.984 32.125C143.318 32.4792 143.714 32.7552 144.172 32.9531C144.641 33.151 145.172 33.25 145.766 33.25C146.484 33.25 147.193 33.1146 147.891 32.8438C148.589 32.5729 149.188 32.125 149.688 31.5L152.078 34.3438C151.734 34.8333 151.245 35.3073 150.609 35.7656C149.984 36.224 149.234 36.599 148.359 36.8906C147.484 37.1719 146.505 37.3125 145.422 37.3125ZM163.578 20.0938V23.75H153.391V20.0938H163.578ZM155.531 15.8906H160.797V31.4844C160.797 31.9323 160.849 32.2812 160.953 32.5312C161.057 32.7708 161.234 32.9427 161.484 33.0469C161.745 33.1406 162.089 33.1875 162.516 33.1875C162.818 33.1875 163.068 33.1823 163.266 33.1719C163.464 33.151 163.651 33.125 163.828 33.0938V36.8594C163.38 37.0052 162.911 37.1146 162.422 37.1875C161.932 37.2708 161.411 37.3125 160.859 37.3125C159.734 37.3125 158.771 37.1354 157.969 36.7812C157.177 36.4271 156.573 35.8698 156.156 35.1094C155.74 34.349 155.531 33.3594 155.531 32.1406V15.8906Z" fill="white"/>
<g opacity="0.6">
<path d="M62.1781 74.2883V83.6541H60.0182V74.2883H62.1781ZM59.8978 71.6728C59.8978 70.942 60.384 70.3843 61.0981 70.3843C61.8313 70.3843 62.2826 70.942 62.3016 71.6728C62.3016 72.3844 61.8297 72.9421 61.0823 72.9421C60.3681 72.9421 59.8978 72.3844 59.8978 71.6728Z" fill="white"/>
<path fill-rule="evenodd" clip-rule="evenodd" d="M56.9556 83.6543L55.893 79.981H52.1654L51.1551 83.6543H48.9429L52.7054 70.6921H55.4401L59.2549 83.6543H56.9556ZM53.4195 75L52.5137 78.1925H55.5272L54.604 75C54.4203 74.3619 54.2604 73.6608 54.1131 73.0192C54.0796 72.8716 54.0458 72.7242 54.0118 72.5768H53.9769C53.9168 72.8338 53.8582 73.1083 53.7964 73.3898C53.6792 73.9318 53.5573 74.4948 53.4195 75Z" fill="white"/>
<path fill-rule="evenodd" clip-rule="evenodd" d="M64.2779 61.508C58.7441 60.8307 53.1593 60.8307 47.6255 61.508C44.4394 61.9014 41.8661 64.6725 41.4924 68.2076C40.8359 74.4047 40.8359 80.6652 41.4924 86.8623C41.8661 90.3975 44.4378 93.1686 47.6255 93.5619C53.1594 94.2386 58.744 94.2386 64.2779 93.5619C67.464 93.1686 70.0373 90.3975 70.411 86.8623C71.0675 80.6652 71.0675 74.4047 70.411 68.2076C70.0373 64.6725 67.4656 61.9014 64.2779 61.508ZM47.8883 64.113C53.2475 63.4572 58.6559 63.4572 64.0151 64.113C66.1212 64.3753 67.8076 66.2093 68.0531 68.5136C68.688 74.5074 68.688 80.5625 68.0531 86.5564C67.9261 87.6841 67.4585 88.7317 66.7258 89.5298C65.9931 90.328 65.0381 90.8302 64.0151 90.9552C58.6559 91.6111 53.2475 91.6111 47.8883 90.9552C46.8653 90.8302 45.9102 90.328 45.1775 89.5298C44.4449 88.7317 43.9773 87.6841 43.8503 86.5564C43.2154 80.5625 43.2154 74.5074 43.8503 68.5136C43.9773 67.3858 44.4449 66.3382 45.1775 65.5401C45.9102 64.7419 46.8653 64.238 47.8883 64.113Z" fill="white"/>
</g>
<g opacity="0.6">
<path fill-rule="evenodd" clip-rule="evenodd" d="M97.1497 83.5733H95.0718V71.0684C95.8212 70.918 96.8601 70.8052 98.2738 70.8052C99.8066 70.8052 100.931 71.1625 101.665 71.8394C102.346 72.46 102.787 73.4566 102.787 74.6413C102.787 75.8447 102.447 76.8414 101.799 77.5183C100.965 78.4397 99.6533 78.8722 98.1716 78.8722C97.7798 78.8722 97.4222 78.8534 97.1497 78.797V83.5733ZM98.3589 72.5728C97.7798 72.5728 97.3711 72.6292 97.1512 72.6856V76.973C97.4051 77.0482 97.7458 77.067 98.1731 77.067C99.7385 77.067 100.692 76.2208 100.692 74.7353C100.692 73.325 99.8066 72.5728 98.3589 72.5728Z" fill="white"/>
<path d="M105.464 83.7799C104.458 83.7799 103.557 83.4978 102.943 83.1217L103.352 81.4482C103.829 81.7678 104.73 82.1063 105.481 82.1063C106.401 82.1063 106.81 81.6926 106.81 81.0909C106.81 80.4703 106.469 80.1507 105.447 79.7558C103.829 79.1352 103.148 78.1574 103.165 77.0856C103.165 75.4684 104.373 74.2085 106.299 74.2085C107.218 74.2085 108.017 74.4718 108.496 74.7538L108.087 76.3898C107.551 76.057 106.948 75.8761 106.333 75.8633C105.583 75.8633 105.175 76.2582 105.175 76.8223C105.175 77.4052 105.566 77.6873 106.622 78.101C108.121 78.7027 108.819 79.5489 108.836 80.9028C108.836 82.5576 107.66 83.7799 105.464 83.7799Z" fill="white"/>
<path fill-rule="evenodd" clip-rule="evenodd" d="M109.789 61.9191C104.378 61.2568 98.9173 61.2568 93.5064 61.9191C90.3911 62.3037 87.8751 65.0132 87.5097 68.4698C86.8677 74.5292 86.8677 80.6506 87.5097 86.71C87.8751 90.1665 90.3896 92.8761 93.5064 93.2607C98.9173 93.9223 104.378 93.9223 109.789 93.2607C112.904 92.8761 115.42 90.1665 115.786 86.71C116.428 80.6506 116.428 74.5292 115.786 68.4698C115.42 65.0132 112.906 62.3037 109.789 61.9191ZM93.7634 64.4662C99.0035 63.8249 104.292 63.8249 109.532 64.4662C111.591 64.7226 113.24 66.5159 113.48 68.769C114.101 74.6296 114.101 80.5502 113.48 86.4108C113.356 87.5135 112.899 88.5378 112.182 89.3182C111.466 90.0986 110.532 90.5896 109.532 90.7119C104.292 91.3532 99.0035 91.3532 93.7634 90.7119C92.7631 90.5896 91.8293 90.0986 91.1129 89.3182C90.3965 88.5378 89.9393 87.5135 89.8151 86.4108C89.1943 80.5502 89.1943 74.6296 89.8151 68.769C89.9393 67.6663 90.3965 66.642 91.1129 65.8616C91.8293 65.0811 92.7631 64.5884 93.7634 64.4662Z" fill="white"/>
</g>
<g opacity="0.6">
<path opacity="0.5" d="M144.105 66.4897H138.159C136.582 66.4897 135.069 67.1815 133.954 68.4129C132.838 69.6444 132.212 71.3145 132.212 73.056C132.212 74.7974 132.838 76.4676 133.954 77.699C135.069 78.9304 136.582 79.6222 138.159 79.6222H144.105V66.4897Z" stroke="white" stroke-width="4"/>
<path d="M144.105 79.6204H138.159C136.582 79.6204 135.069 80.3122 133.954 81.5436C132.838 82.775 132.212 84.4451 132.212 86.1866C132.212 87.9281 132.838 89.5982 133.954 90.8296C135.069 92.061 136.582 92.7528 138.159 92.7528H144.105V79.6204Z" stroke="white" stroke-width="4"/>
<path opacity="0.5" d="M156 86.1873C156 87.9288 155.373 89.5989 154.258 90.8303C153.143 92.0617 151.63 92.7535 150.053 92.7535C148.475 92.7535 146.963 92.0617 145.847 90.8303C144.732 89.5989 144.105 87.9288 144.105 86.1873C144.105 84.4458 144.732 82.7757 145.847 81.5443C146.963 80.3129 148.475 79.6211 150.053 79.6211C151.63 79.6211 153.143 80.3129 154.258 81.5443C155.373 82.7757 156 84.4458 156 86.1873ZM138.159 92.7545H144.105V99.3198C144.105 100.618 143.756 101.887 143.102 102.967C142.449 104.046 141.52 104.887 140.433 105.384C139.347 105.88 138.151 106.01 136.998 105.757C135.844 105.503 134.785 104.878 133.954 103.959C133.122 103.041 132.556 101.871 132.327 100.598C132.097 99.3244 132.215 98.0045 132.665 96.8049C133.115 95.6054 133.878 94.5802 134.855 93.8589C135.833 93.1375 136.983 92.7545 138.159 92.7545Z" stroke="white" stroke-width="4"/>
<path d="M144.105 66.4897H150.052C151.629 66.4897 153.142 67.1815 154.257 68.4129C155.372 69.6444 155.999 71.3145 155.999 73.056C155.999 74.7974 155.372 76.4676 154.257 77.699C153.142 78.9304 151.629 79.6222 150.052 79.6222H144.105V66.4897Z" stroke="white" stroke-width="4"/>
</g>
</svg>
