<svg width="290" height="210" viewBox="0 0 290 210" fill="none" xmlns="http://www.w3.org/2000/svg">
<path d="M73.6943 151.628V156.312C73.5361 156.547 73.2842 156.811 72.9385 157.104C72.5928 157.391 72.1152 157.643 71.5059 157.859C70.9023 158.07 70.123 158.176 69.168 158.176C68.3887 158.176 67.6709 158.041 67.0146 157.771C66.3643 157.496 65.7988 157.098 65.3184 156.576C64.8438 156.049 64.4746 155.41 64.2109 154.66C63.9531 153.904 63.8242 153.049 63.8242 152.094V151.101C63.8242 150.146 63.9355 149.293 64.1582 148.543C64.3867 147.793 64.7207 147.157 65.1602 146.636C65.5996 146.108 66.1387 145.71 66.7773 145.44C67.416 145.165 68.1484 145.027 68.9746 145.027C69.9531 145.027 70.7705 145.197 71.4268 145.537C72.0889 145.871 72.6045 146.334 72.9736 146.926C73.3486 147.518 73.5889 148.191 73.6943 148.947H71.998C71.9219 148.484 71.7695 148.062 71.541 147.682C71.3184 147.301 70.999 146.996 70.583 146.768C70.167 146.533 69.6309 146.416 68.9746 146.416C68.3828 146.416 67.8701 146.524 67.4365 146.741C67.0029 146.958 66.6455 147.269 66.3643 147.673C66.083 148.077 65.8721 148.566 65.7314 149.141C65.5967 149.715 65.5293 150.362 65.5293 151.083V152.094C65.5293 152.832 65.6143 153.491 65.7842 154.071C65.96 154.651 66.209 155.146 66.5312 155.557C66.8535 155.961 67.2373 156.269 67.6826 156.479C68.1338 156.69 68.6318 156.796 69.1768 156.796C69.7803 156.796 70.2695 156.746 70.6445 156.646C71.0195 156.541 71.3125 156.418 71.5234 156.277C71.7344 156.131 71.8955 155.993 72.0068 155.864V152.999H69.0449V151.628H73.6943ZM82.0791 155.803V148.49H83.7139V158H82.1582L82.0791 155.803ZM82.3867 153.799L83.0635 153.781C83.0635 154.414 82.9961 155 82.8613 155.539C82.7324 156.072 82.5215 156.535 82.2285 156.928C81.9355 157.32 81.5518 157.628 81.0771 157.851C80.6025 158.067 80.0254 158.176 79.3457 158.176C78.8828 158.176 78.458 158.108 78.0713 157.974C77.6904 157.839 77.3623 157.631 77.0869 157.35C76.8115 157.068 76.5977 156.702 76.4453 156.251C76.2988 155.8 76.2256 155.258 76.2256 154.625V148.49H77.8516V154.643C77.8516 155.07 77.8984 155.425 77.9922 155.706C78.0918 155.981 78.2236 156.201 78.3877 156.365C78.5576 156.523 78.7451 156.635 78.9502 156.699C79.1611 156.764 79.3779 156.796 79.6006 156.796C80.292 156.796 80.8398 156.664 81.2441 156.4C81.6484 156.131 81.9385 155.771 82.1143 155.319C82.2959 154.862 82.3867 154.355 82.3867 153.799ZM87.959 148.49V158H86.3242V148.49H87.959ZM86.2012 145.968C86.2012 145.704 86.2803 145.481 86.4385 145.3C86.6025 145.118 86.8428 145.027 87.1592 145.027C87.4697 145.027 87.707 145.118 87.8711 145.3C88.041 145.481 88.126 145.704 88.126 145.968C88.126 146.22 88.041 146.437 87.8711 146.618C87.707 146.794 87.4697 146.882 87.1592 146.882C86.8428 146.882 86.6025 146.794 86.4385 146.618C86.2803 146.437 86.2012 146.22 86.2012 145.968ZM96.5635 156.154V144.5H98.1982V158H96.7041L96.5635 156.154ZM90.165 153.351V153.166C90.165 152.439 90.2529 151.78 90.4287 151.188C90.6104 150.591 90.8652 150.078 91.1934 149.65C91.5273 149.223 91.9229 148.895 92.3799 148.666C92.8428 148.432 93.3584 148.314 93.9268 148.314C94.5244 148.314 95.0459 148.42 95.4912 148.631C95.9424 148.836 96.3232 149.138 96.6338 149.536C96.9502 149.929 97.1992 150.403 97.3809 150.96C97.5625 151.517 97.6885 152.146 97.7588 152.85V153.658C97.6943 154.355 97.5684 154.982 97.3809 155.539C97.1992 156.096 96.9502 156.57 96.6338 156.963C96.3232 157.355 95.9424 157.657 95.4912 157.868C95.04 158.073 94.5127 158.176 93.9092 158.176C93.3525 158.176 92.8428 158.056 92.3799 157.815C91.9229 157.575 91.5273 157.238 91.1934 156.805C90.8652 156.371 90.6104 155.861 90.4287 155.275C90.2529 154.684 90.165 154.042 90.165 153.351ZM91.7998 153.166V153.351C91.7998 153.825 91.8467 154.271 91.9404 154.687C92.04 155.103 92.1924 155.469 92.3975 155.785C92.6025 156.102 92.8633 156.351 93.1797 156.532C93.4961 156.708 93.874 156.796 94.3135 156.796C94.8525 156.796 95.2949 156.682 95.6406 156.453C95.9922 156.225 96.2734 155.923 96.4844 155.548C96.6953 155.173 96.8594 154.766 96.9766 154.326V152.208C96.9062 151.886 96.8037 151.575 96.6689 151.276C96.54 150.972 96.3701 150.702 96.1592 150.468C95.9541 150.228 95.6992 150.037 95.3945 149.896C95.0957 149.756 94.7412 149.686 94.3311 149.686C93.8857 149.686 93.502 149.779 93.1797 149.967C92.8633 150.148 92.6025 150.4 92.3975 150.723C92.1924 151.039 92.04 151.408 91.9404 151.83C91.8467 152.246 91.7998 152.691 91.7998 153.166ZM104.676 158.176C104.014 158.176 103.413 158.064 102.874 157.842C102.341 157.613 101.881 157.294 101.494 156.884C101.113 156.474 100.82 155.987 100.615 155.425C100.41 154.862 100.308 154.247 100.308 153.579V153.21C100.308 152.437 100.422 151.748 100.65 151.145C100.879 150.535 101.189 150.02 101.582 149.598C101.975 149.176 102.42 148.856 102.918 148.64C103.416 148.423 103.932 148.314 104.465 148.314C105.145 148.314 105.73 148.432 106.223 148.666C106.721 148.9 107.128 149.229 107.444 149.65C107.761 150.066 107.995 150.559 108.147 151.127C108.3 151.689 108.376 152.305 108.376 152.973V153.702H101.274V152.375H106.75V152.252C106.727 151.83 106.639 151.42 106.486 151.021C106.34 150.623 106.105 150.295 105.783 150.037C105.461 149.779 105.021 149.65 104.465 149.65C104.096 149.65 103.756 149.729 103.445 149.888C103.135 150.04 102.868 150.269 102.646 150.573C102.423 150.878 102.25 151.25 102.127 151.689C102.004 152.129 101.942 152.636 101.942 153.21V153.579C101.942 154.03 102.004 154.455 102.127 154.854C102.256 155.246 102.44 155.592 102.681 155.891C102.927 156.189 103.223 156.424 103.568 156.594C103.92 156.764 104.318 156.849 104.764 156.849C105.338 156.849 105.824 156.731 106.223 156.497C106.621 156.263 106.97 155.949 107.269 155.557L108.253 156.339C108.048 156.649 107.787 156.945 107.471 157.227C107.154 157.508 106.765 157.736 106.302 157.912C105.845 158.088 105.303 158.176 104.676 158.176ZM116.269 156.154V144.5H117.903V158H116.409L116.269 156.154ZM109.87 153.351V153.166C109.87 152.439 109.958 151.78 110.134 151.188C110.315 150.591 110.57 150.078 110.898 149.65C111.232 149.223 111.628 148.895 112.085 148.666C112.548 148.432 113.063 148.314 113.632 148.314C114.229 148.314 114.751 148.42 115.196 148.631C115.647 148.836 116.028 149.138 116.339 149.536C116.655 149.929 116.904 150.403 117.086 150.96C117.268 151.517 117.394 152.146 117.464 152.85V153.658C117.399 154.355 117.273 154.982 117.086 155.539C116.904 156.096 116.655 156.57 116.339 156.963C116.028 157.355 115.647 157.657 115.196 157.868C114.745 158.073 114.218 158.176 113.614 158.176C113.058 158.176 112.548 158.056 112.085 157.815C111.628 157.575 111.232 157.238 110.898 156.805C110.57 156.371 110.315 155.861 110.134 155.275C109.958 154.684 109.87 154.042 109.87 153.351ZM111.505 153.166V153.351C111.505 153.825 111.552 154.271 111.646 154.687C111.745 155.103 111.897 155.469 112.103 155.785C112.308 156.102 112.568 156.351 112.885 156.532C113.201 156.708 113.579 156.796 114.019 156.796C114.558 156.796 115 156.682 115.346 156.453C115.697 156.225 115.979 155.923 116.189 155.548C116.4 155.173 116.564 154.766 116.682 154.326V152.208C116.611 151.886 116.509 151.575 116.374 151.276C116.245 150.972 116.075 150.702 115.864 150.468C115.659 150.228 115.404 150.037 115.1 149.896C114.801 149.756 114.446 149.686 114.036 149.686C113.591 149.686 113.207 149.779 112.885 149.967C112.568 150.148 112.308 150.4 112.103 150.723C111.897 151.039 111.745 151.408 111.646 151.83C111.552 152.246 111.505 152.691 111.505 153.166ZM126.525 150.318V161.656H124.891V148.49H126.385L126.525 150.318ZM132.933 153.166V153.351C132.933 154.042 132.851 154.684 132.687 155.275C132.522 155.861 132.282 156.371 131.966 156.805C131.655 157.238 131.271 157.575 130.814 157.815C130.357 158.056 129.833 158.176 129.241 158.176C128.638 158.176 128.104 158.076 127.642 157.877C127.179 157.678 126.786 157.388 126.464 157.007C126.142 156.626 125.884 156.169 125.69 155.636C125.503 155.103 125.374 154.502 125.304 153.834V152.85C125.374 152.146 125.506 151.517 125.699 150.96C125.893 150.403 126.147 149.929 126.464 149.536C126.786 149.138 127.176 148.836 127.633 148.631C128.09 148.42 128.617 148.314 129.215 148.314C129.812 148.314 130.343 148.432 130.806 148.666C131.269 148.895 131.658 149.223 131.975 149.65C132.291 150.078 132.528 150.591 132.687 151.188C132.851 151.78 132.933 152.439 132.933 153.166ZM131.298 153.351V153.166C131.298 152.691 131.248 152.246 131.148 151.83C131.049 151.408 130.894 151.039 130.683 150.723C130.478 150.4 130.214 150.148 129.892 149.967C129.569 149.779 129.186 149.686 128.74 149.686C128.33 149.686 127.973 149.756 127.668 149.896C127.369 150.037 127.114 150.228 126.903 150.468C126.692 150.702 126.52 150.972 126.385 151.276C126.256 151.575 126.159 151.886 126.095 152.208V154.484C126.212 154.895 126.376 155.281 126.587 155.645C126.798 156.002 127.079 156.292 127.431 156.515C127.782 156.731 128.225 156.84 128.758 156.84C129.197 156.84 129.575 156.749 129.892 156.567C130.214 156.38 130.478 156.125 130.683 155.803C130.894 155.48 131.049 155.111 131.148 154.695C131.248 154.273 131.298 153.825 131.298 153.351ZM136.633 149.984V158H135.007V148.49H136.589L136.633 149.984ZM139.604 148.438L139.595 149.949C139.46 149.92 139.331 149.902 139.208 149.896C139.091 149.885 138.956 149.879 138.804 149.879C138.429 149.879 138.098 149.938 137.811 150.055C137.523 150.172 137.28 150.336 137.081 150.547C136.882 150.758 136.724 151.01 136.606 151.303C136.495 151.59 136.422 151.906 136.387 152.252L135.93 152.516C135.93 151.941 135.985 151.402 136.097 150.898C136.214 150.395 136.393 149.949 136.633 149.562C136.873 149.17 137.178 148.865 137.547 148.648C137.922 148.426 138.367 148.314 138.883 148.314C139 148.314 139.135 148.329 139.287 148.358C139.439 148.382 139.545 148.408 139.604 148.438ZM140.5 153.351V153.148C140.5 152.463 140.6 151.827 140.799 151.241C140.998 150.649 141.285 150.137 141.66 149.703C142.035 149.264 142.489 148.924 143.022 148.684C143.556 148.438 144.153 148.314 144.815 148.314C145.483 148.314 146.084 148.438 146.617 148.684C147.156 148.924 147.613 149.264 147.988 149.703C148.369 150.137 148.659 150.649 148.858 151.241C149.058 151.827 149.157 152.463 149.157 153.148V153.351C149.157 154.036 149.058 154.672 148.858 155.258C148.659 155.844 148.369 156.356 147.988 156.796C147.613 157.229 147.159 157.569 146.626 157.815C146.099 158.056 145.501 158.176 144.833 158.176C144.165 158.176 143.564 158.056 143.031 157.815C142.498 157.569 142.041 157.229 141.66 156.796C141.285 156.356 140.998 155.844 140.799 155.258C140.6 154.672 140.5 154.036 140.5 153.351ZM142.126 153.148V153.351C142.126 153.825 142.182 154.273 142.293 154.695C142.404 155.111 142.571 155.48 142.794 155.803C143.022 156.125 143.307 156.38 143.646 156.567C143.986 156.749 144.382 156.84 144.833 156.84C145.278 156.84 145.668 156.749 146.002 156.567C146.342 156.38 146.623 156.125 146.846 155.803C147.068 155.48 147.235 155.111 147.347 154.695C147.464 154.273 147.522 153.825 147.522 153.351V153.148C147.522 152.68 147.464 152.237 147.347 151.821C147.235 151.399 147.065 151.027 146.837 150.705C146.614 150.377 146.333 150.119 145.993 149.932C145.659 149.744 145.267 149.65 144.815 149.65C144.37 149.65 143.978 149.744 143.638 149.932C143.304 150.119 143.022 150.377 142.794 150.705C142.571 151.027 142.404 151.399 142.293 151.821C142.182 152.237 142.126 152.68 142.126 153.148ZM151.24 148.49H152.875V159.134C152.875 159.714 152.781 160.206 152.594 160.61C152.412 161.015 152.137 161.319 151.768 161.524C151.404 161.735 150.944 161.841 150.388 161.841C150.241 161.841 150.071 161.826 149.878 161.797C149.679 161.768 149.512 161.732 149.377 161.691L149.386 160.382C149.497 160.405 149.623 160.423 149.764 160.435C149.904 160.452 150.027 160.461 150.133 160.461C150.373 160.461 150.575 160.417 150.739 160.329C150.903 160.241 151.026 160.101 151.108 159.907C151.196 159.714 151.24 159.456 151.24 159.134V148.49ZM151.073 145.968C151.073 145.704 151.155 145.481 151.319 145.3C151.483 145.118 151.721 145.027 152.031 145.027C152.348 145.027 152.588 145.118 152.752 145.3C152.916 145.481 152.998 145.704 152.998 145.968C152.998 146.22 152.916 146.437 152.752 146.618C152.588 146.794 152.348 146.882 152.031 146.882C151.721 146.882 151.483 146.794 151.319 146.618C151.155 146.437 151.073 146.22 151.073 145.968ZM159.449 158.176C158.787 158.176 158.187 158.064 157.647 157.842C157.114 157.613 156.654 157.294 156.268 156.884C155.887 156.474 155.594 155.987 155.389 155.425C155.184 154.862 155.081 154.247 155.081 153.579V153.21C155.081 152.437 155.195 151.748 155.424 151.145C155.652 150.535 155.963 150.02 156.355 149.598C156.748 149.176 157.193 148.856 157.691 148.64C158.189 148.423 158.705 148.314 159.238 148.314C159.918 148.314 160.504 148.432 160.996 148.666C161.494 148.9 161.901 149.229 162.218 149.65C162.534 150.066 162.769 150.559 162.921 151.127C163.073 151.689 163.149 152.305 163.149 152.973V153.702H156.048V152.375H161.523V152.252C161.5 151.83 161.412 151.42 161.26 151.021C161.113 150.623 160.879 150.295 160.557 150.037C160.234 149.779 159.795 149.65 159.238 149.65C158.869 149.65 158.529 149.729 158.219 149.888C157.908 150.04 157.642 150.269 157.419 150.573C157.196 150.878 157.023 151.25 156.9 151.689C156.777 152.129 156.716 152.636 156.716 153.21V153.579C156.716 154.03 156.777 154.455 156.9 154.854C157.029 155.246 157.214 155.592 157.454 155.891C157.7 156.189 157.996 156.424 158.342 156.594C158.693 156.764 159.092 156.849 159.537 156.849C160.111 156.849 160.598 156.731 160.996 156.497C161.395 156.263 161.743 155.949 162.042 155.557L163.026 156.339C162.821 156.649 162.561 156.945 162.244 157.227C161.928 157.508 161.538 157.736 161.075 157.912C160.618 158.088 160.076 158.176 159.449 158.176ZM168.854 156.84C169.24 156.84 169.598 156.761 169.926 156.603C170.254 156.444 170.523 156.228 170.734 155.952C170.945 155.671 171.065 155.352 171.095 154.994H172.642C172.612 155.557 172.422 156.081 172.07 156.567C171.725 157.048 171.271 157.438 170.708 157.736C170.146 158.029 169.527 158.176 168.854 158.176C168.139 158.176 167.515 158.05 166.981 157.798C166.454 157.546 166.015 157.2 165.663 156.761C165.317 156.321 165.057 155.817 164.881 155.249C164.711 154.675 164.626 154.068 164.626 153.43V153.061C164.626 152.422 164.711 151.818 164.881 151.25C165.057 150.676 165.317 150.169 165.663 149.729C166.015 149.29 166.454 148.944 166.981 148.692C167.515 148.44 168.139 148.314 168.854 148.314C169.598 148.314 170.248 148.467 170.805 148.771C171.361 149.07 171.798 149.48 172.114 150.002C172.437 150.518 172.612 151.104 172.642 151.76H171.095C171.065 151.367 170.954 151.013 170.761 150.696C170.573 150.38 170.315 150.128 169.987 149.94C169.665 149.747 169.287 149.65 168.854 149.65C168.355 149.65 167.937 149.75 167.597 149.949C167.263 150.143 166.996 150.406 166.797 150.74C166.604 151.068 166.463 151.435 166.375 151.839C166.293 152.237 166.252 152.645 166.252 153.061V153.43C166.252 153.846 166.293 154.256 166.375 154.66C166.457 155.064 166.595 155.431 166.788 155.759C166.987 156.087 167.254 156.351 167.588 156.55C167.928 156.743 168.35 156.84 168.854 156.84ZM178.451 148.49V149.738H173.31V148.49H178.451ZM175.05 146.179H176.676V155.645C176.676 155.967 176.726 156.21 176.825 156.374C176.925 156.538 177.054 156.646 177.212 156.699C177.37 156.752 177.54 156.778 177.722 156.778C177.856 156.778 177.997 156.767 178.144 156.743C178.296 156.714 178.41 156.69 178.486 156.673L178.495 158C178.366 158.041 178.196 158.079 177.985 158.114C177.78 158.155 177.531 158.176 177.238 158.176C176.84 158.176 176.474 158.097 176.14 157.938C175.806 157.78 175.539 157.517 175.34 157.147C175.146 156.772 175.05 156.269 175.05 155.636V146.179ZM190.642 155.803V148.49H192.276V158H190.721L190.642 155.803ZM190.949 153.799L191.626 153.781C191.626 154.414 191.559 155 191.424 155.539C191.295 156.072 191.084 156.535 190.791 156.928C190.498 157.32 190.114 157.628 189.64 157.851C189.165 158.067 188.588 158.176 187.908 158.176C187.445 158.176 187.021 158.108 186.634 157.974C186.253 157.839 185.925 157.631 185.649 157.35C185.374 157.068 185.16 156.702 185.008 156.251C184.861 155.8 184.788 155.258 184.788 154.625V148.49H186.414V154.643C186.414 155.07 186.461 155.425 186.555 155.706C186.654 155.981 186.786 156.201 186.95 156.365C187.12 156.523 187.308 156.635 187.513 156.699C187.724 156.764 187.94 156.796 188.163 156.796C188.854 156.796 189.402 156.664 189.807 156.4C190.211 156.131 190.501 155.771 190.677 155.319C190.858 154.862 190.949 154.355 190.949 153.799ZM200.292 155.478C200.292 155.243 200.239 155.026 200.134 154.827C200.034 154.622 199.826 154.438 199.51 154.273C199.199 154.104 198.73 153.957 198.104 153.834C197.576 153.723 197.099 153.591 196.671 153.438C196.249 153.286 195.889 153.102 195.59 152.885C195.297 152.668 195.071 152.413 194.913 152.12C194.755 151.827 194.676 151.484 194.676 151.092C194.676 150.717 194.758 150.362 194.922 150.028C195.092 149.694 195.329 149.398 195.634 149.141C195.944 148.883 196.316 148.681 196.75 148.534C197.184 148.388 197.667 148.314 198.2 148.314C198.962 148.314 199.612 148.449 200.151 148.719C200.69 148.988 201.104 149.349 201.391 149.8C201.678 150.245 201.821 150.74 201.821 151.285H200.195C200.195 151.021 200.116 150.767 199.958 150.521C199.806 150.269 199.58 150.061 199.281 149.896C198.988 149.732 198.628 149.65 198.2 149.65C197.749 149.65 197.383 149.721 197.102 149.861C196.826 149.996 196.624 150.169 196.495 150.38C196.372 150.591 196.311 150.813 196.311 151.048C196.311 151.224 196.34 151.382 196.398 151.522C196.463 151.657 196.574 151.783 196.732 151.9C196.891 152.012 197.113 152.117 197.4 152.217C197.688 152.316 198.054 152.416 198.499 152.516C199.278 152.691 199.92 152.902 200.424 153.148C200.928 153.395 201.303 153.696 201.549 154.054C201.795 154.411 201.918 154.845 201.918 155.354C201.918 155.771 201.83 156.151 201.654 156.497C201.484 156.843 201.235 157.142 200.907 157.394C200.585 157.64 200.198 157.833 199.747 157.974C199.302 158.108 198.801 158.176 198.244 158.176C197.406 158.176 196.697 158.026 196.117 157.728C195.537 157.429 195.098 157.042 194.799 156.567C194.5 156.093 194.351 155.592 194.351 155.064H195.985C196.009 155.51 196.138 155.864 196.372 156.128C196.606 156.386 196.894 156.57 197.233 156.682C197.573 156.787 197.91 156.84 198.244 156.84C198.689 156.84 199.062 156.781 199.36 156.664C199.665 156.547 199.896 156.386 200.055 156.181C200.213 155.976 200.292 155.741 200.292 155.478ZM205.82 148.49V158H204.186V148.49H205.82ZM204.062 145.968C204.062 145.704 204.142 145.481 204.3 145.3C204.464 145.118 204.704 145.027 205.021 145.027C205.331 145.027 205.568 145.118 205.732 145.3C205.902 145.481 205.987 145.704 205.987 145.968C205.987 146.22 205.902 146.437 205.732 146.618C205.568 146.794 205.331 146.882 205.021 146.882C204.704 146.882 204.464 146.794 204.3 146.618C204.142 146.437 204.062 146.22 204.062 145.968ZM210.057 150.521V158H208.431V148.49H209.969L210.057 150.521ZM209.67 152.885L208.993 152.858C208.999 152.208 209.096 151.607 209.283 151.057C209.471 150.5 209.734 150.017 210.074 149.606C210.414 149.196 210.818 148.88 211.287 148.657C211.762 148.429 212.286 148.314 212.86 148.314C213.329 148.314 213.751 148.379 214.126 148.508C214.501 148.631 214.82 148.83 215.084 149.105C215.354 149.381 215.559 149.738 215.699 150.178C215.84 150.611 215.91 151.142 215.91 151.769V158H214.275V151.751C214.275 151.253 214.202 150.854 214.056 150.556C213.909 150.251 213.695 150.031 213.414 149.896C213.133 149.756 212.787 149.686 212.377 149.686C211.973 149.686 211.604 149.771 211.27 149.94C210.941 150.11 210.657 150.345 210.417 150.644C210.183 150.942 209.998 151.285 209.863 151.672C209.734 152.053 209.67 152.457 209.67 152.885ZM224.541 148.49H226.018V157.798C226.018 158.636 225.848 159.351 225.508 159.942C225.168 160.534 224.693 160.982 224.084 161.287C223.48 161.598 222.783 161.753 221.992 161.753C221.664 161.753 221.277 161.7 220.832 161.595C220.393 161.495 219.959 161.322 219.531 161.076C219.109 160.836 218.755 160.511 218.468 160.101L219.32 159.134C219.719 159.614 220.135 159.948 220.568 160.136C221.008 160.323 221.441 160.417 221.869 160.417C222.385 160.417 222.83 160.32 223.205 160.127C223.58 159.934 223.87 159.646 224.075 159.266C224.286 158.891 224.392 158.428 224.392 157.877V150.582L224.541 148.49ZM217.993 153.351V153.166C217.993 152.439 218.078 151.78 218.248 151.188C218.424 150.591 218.673 150.078 218.995 149.65C219.323 149.223 219.719 148.895 220.182 148.666C220.645 148.432 221.166 148.314 221.746 148.314C222.344 148.314 222.865 148.42 223.311 148.631C223.762 148.836 224.143 149.138 224.453 149.536C224.77 149.929 225.019 150.403 225.2 150.96C225.382 151.517 225.508 152.146 225.578 152.85V153.658C225.514 154.355 225.388 154.982 225.2 155.539C225.019 156.096 224.77 156.57 224.453 156.963C224.143 157.355 223.762 157.657 223.311 157.868C222.859 158.073 222.332 158.176 221.729 158.176C221.16 158.176 220.645 158.056 220.182 157.815C219.725 157.575 219.332 157.238 219.004 156.805C218.676 156.371 218.424 155.861 218.248 155.275C218.078 154.684 217.993 154.042 217.993 153.351ZM219.619 153.166V153.351C219.619 153.825 219.666 154.271 219.76 154.687C219.859 155.103 220.009 155.469 220.208 155.785C220.413 156.102 220.674 156.351 220.99 156.532C221.307 156.708 221.685 156.796 222.124 156.796C222.663 156.796 223.108 156.682 223.46 156.453C223.812 156.225 224.09 155.923 224.295 155.548C224.506 155.173 224.67 154.766 224.787 154.326V152.208C224.723 151.886 224.623 151.575 224.488 151.276C224.359 150.972 224.189 150.702 223.979 150.468C223.773 150.228 223.519 150.037 223.214 149.896C222.909 149.756 222.552 149.686 222.142 149.686C221.696 149.686 221.312 149.779 220.99 149.967C220.674 150.148 220.413 150.4 220.208 150.723C220.009 151.039 219.859 151.408 219.76 151.83C219.666 152.246 219.619 152.691 219.619 153.166ZM9.73633 168.5V169.695L9.47266 172.833H8.49707V169.774V168.5H9.73633ZM12.1094 168.5V169.695L11.8457 172.833H10.8701V169.713V168.5H12.1094ZM18.2793 172.49V173.738H13.1377V172.49H18.2793ZM14.8779 170.179H16.5039V179.645C16.5039 179.967 16.5537 180.21 16.6533 180.374C16.7529 180.538 16.8818 180.646 17.04 180.699C17.1982 180.752 17.3682 180.778 17.5498 180.778C17.6846 180.778 17.8252 180.767 17.9717 180.743C18.124 180.714 18.2383 180.69 18.3145 180.673L18.3232 182C18.1943 182.041 18.0244 182.079 17.8135 182.114C17.6084 182.155 17.3594 182.176 17.0664 182.176C16.668 182.176 16.3018 182.097 15.9678 181.938C15.6338 181.78 15.3672 181.517 15.168 181.147C14.9746 180.772 14.8779 180.269 14.8779 179.636V170.179ZM21.8125 168.5V182H20.1865V168.5H21.8125ZM21.4258 176.885L20.749 176.858C20.7549 176.208 20.8516 175.607 21.0391 175.057C21.2266 174.5 21.4902 174.017 21.8301 173.606C22.1699 173.196 22.5742 172.88 23.043 172.657C23.5176 172.429 24.042 172.314 24.6162 172.314C25.085 172.314 25.5068 172.379 25.8818 172.508C26.2568 172.631 26.5762 172.83 26.8398 173.105C27.1094 173.381 27.3145 173.738 27.4551 174.178C27.5957 174.611 27.666 175.142 27.666 175.769V182H26.0312V175.751C26.0312 175.253 25.958 174.854 25.8115 174.556C25.665 174.251 25.4512 174.031 25.1699 173.896C24.8887 173.756 24.543 173.686 24.1328 173.686C23.7285 173.686 23.3594 173.771 23.0254 173.94C22.6973 174.11 22.4131 174.345 22.1729 174.644C21.9385 174.942 21.7539 175.285 21.6191 175.672C21.4902 176.053 21.4258 176.457 21.4258 176.885ZM34.0469 182.176C33.3848 182.176 32.7842 182.064 32.2451 181.842C31.7119 181.613 31.252 181.294 30.8652 180.884C30.4844 180.474 30.1914 179.987 29.9863 179.425C29.7812 178.862 29.6787 178.247 29.6787 177.579V177.21C29.6787 176.437 29.793 175.748 30.0215 175.145C30.25 174.535 30.5605 174.02 30.9531 173.598C31.3457 173.176 31.791 172.856 32.2891 172.64C32.7871 172.423 33.3027 172.314 33.8359 172.314C34.5156 172.314 35.1016 172.432 35.5938 172.666C36.0918 172.9 36.499 173.229 36.8154 173.65C37.1318 174.066 37.3662 174.559 37.5186 175.127C37.6709 175.689 37.7471 176.305 37.7471 176.973V177.702H30.6455V176.375H36.1211V176.252C36.0977 175.83 36.0098 175.42 35.8574 175.021C35.7109 174.623 35.4766 174.295 35.1543 174.037C34.832 173.779 34.3926 173.65 33.8359 173.65C33.4668 173.65 33.127 173.729 32.8164 173.888C32.5059 174.04 32.2393 174.269 32.0166 174.573C31.7939 174.878 31.6211 175.25 31.498 175.689C31.375 176.129 31.3135 176.636 31.3135 177.21V177.579C31.3135 178.03 31.375 178.455 31.498 178.854C31.627 179.246 31.8115 179.592 32.0518 179.891C32.2979 180.189 32.5938 180.424 32.9395 180.594C33.291 180.764 33.6895 180.849 34.1348 180.849C34.709 180.849 35.1953 180.731 35.5938 180.497C35.9922 180.263 36.3408 179.949 36.6396 179.557L37.624 180.339C37.4189 180.649 37.1582 180.945 36.8418 181.227C36.5254 181.508 36.1357 181.736 35.6729 181.912C35.2158 182.088 34.6738 182.176 34.0469 182.176ZM41.2627 174.38V182H39.6279V172.49H41.1748L41.2627 174.38ZM40.9287 176.885L40.1729 176.858C40.1787 176.208 40.2637 175.607 40.4277 175.057C40.5918 174.5 40.835 174.017 41.1572 173.606C41.4795 173.196 41.8809 172.88 42.3613 172.657C42.8418 172.429 43.3984 172.314 44.0312 172.314C44.4766 172.314 44.8867 172.379 45.2617 172.508C45.6367 172.631 45.9619 172.827 46.2373 173.097C46.5127 173.366 46.7266 173.712 46.8789 174.134C47.0312 174.556 47.1074 175.065 47.1074 175.663V182H45.4814V175.742C45.4814 175.244 45.3965 174.846 45.2266 174.547C45.0625 174.248 44.8281 174.031 44.5234 173.896C44.2188 173.756 43.8613 173.686 43.4512 173.686C42.9707 173.686 42.5693 173.771 42.2471 173.94C41.9248 174.11 41.667 174.345 41.4736 174.644C41.2803 174.942 41.1396 175.285 41.0518 175.672C40.9697 176.053 40.9287 176.457 40.9287 176.885ZM47.0898 175.988L46 176.322C46.0059 175.801 46.0908 175.3 46.2549 174.819C46.4248 174.339 46.668 173.911 46.9844 173.536C47.3066 173.161 47.7021 172.865 48.1709 172.648C48.6396 172.426 49.1758 172.314 49.7793 172.314C50.2891 172.314 50.7402 172.382 51.1328 172.517C51.5312 172.651 51.8652 172.859 52.1348 173.141C52.4102 173.416 52.6182 173.771 52.7588 174.204C52.8994 174.638 52.9697 175.153 52.9697 175.751V182H51.335V175.733C51.335 175.2 51.25 174.787 51.0801 174.494C50.916 174.195 50.6816 173.987 50.377 173.87C50.0781 173.747 49.7207 173.686 49.3047 173.686C48.9473 173.686 48.6309 173.747 48.3555 173.87C48.0801 173.993 47.8486 174.163 47.6611 174.38C47.4736 174.591 47.3301 174.834 47.2305 175.109C47.1367 175.385 47.0898 175.678 47.0898 175.988ZM55 177.351V177.148C55 176.463 55.0996 175.827 55.2988 175.241C55.498 174.649 55.7852 174.137 56.1602 173.703C56.5352 173.264 56.9893 172.924 57.5225 172.684C58.0557 172.438 58.6533 172.314 59.3154 172.314C59.9834 172.314 60.584 172.438 61.1172 172.684C61.6562 172.924 62.1133 173.264 62.4883 173.703C62.8691 174.137 63.1592 174.649 63.3584 175.241C63.5576 175.827 63.6572 176.463 63.6572 177.148V177.351C63.6572 178.036 63.5576 178.672 63.3584 179.258C63.1592 179.844 62.8691 180.356 62.4883 180.796C62.1133 181.229 61.6592 181.569 61.126 181.815C60.5986 182.056 60.001 182.176 59.333 182.176C58.665 182.176 58.0645 182.056 57.5312 181.815C56.998 181.569 56.541 181.229 56.1602 180.796C55.7852 180.356 55.498 179.844 55.2988 179.258C55.0996 178.672 55 178.036 55 177.351ZM56.626 177.148V177.351C56.626 177.825 56.6816 178.273 56.793 178.695C56.9043 179.111 57.0713 179.48 57.2939 179.803C57.5225 180.125 57.8066 180.38 58.1465 180.567C58.4863 180.749 58.8818 180.84 59.333 180.84C59.7783 180.84 60.168 180.749 60.502 180.567C60.8418 180.38 61.123 180.125 61.3457 179.803C61.5684 179.48 61.7354 179.111 61.8467 178.695C61.9639 178.273 62.0225 177.825 62.0225 177.351V177.148C62.0225 176.68 61.9639 176.237 61.8467 175.821C61.7354 175.399 61.5654 175.027 61.3369 174.705C61.1143 174.377 60.833 174.119 60.4932 173.932C60.1592 173.744 59.7666 173.65 59.3154 173.65C58.8701 173.65 58.4775 173.744 58.1377 173.932C57.8037 174.119 57.5225 174.377 57.2939 174.705C57.0713 175.027 56.9043 175.399 56.793 175.821C56.6816 176.237 56.626 176.68 56.626 177.148ZM68.4473 180.532L71.0488 172.49H72.71L69.291 182H68.2012L68.4473 180.532ZM66.2764 172.49L68.957 180.576L69.1416 182H68.0518L64.6064 172.49H66.2764ZM76.041 172.49V182H74.4062V172.49H76.041ZM74.2832 169.968C74.2832 169.704 74.3623 169.481 74.5205 169.3C74.6846 169.118 74.9248 169.027 75.2412 169.027C75.5518 169.027 75.7891 169.118 75.9531 169.3C76.123 169.481 76.208 169.704 76.208 169.968C76.208 170.22 76.123 170.437 75.9531 170.618C75.7891 170.794 75.5518 170.882 75.2412 170.882C74.9248 170.882 74.6846 170.794 74.5205 170.618C74.3623 170.437 74.2832 170.22 74.2832 169.968ZM82.5977 182.176C81.9355 182.176 81.335 182.064 80.7959 181.842C80.2627 181.613 79.8027 181.294 79.416 180.884C79.0352 180.474 78.7422 179.987 78.5371 179.425C78.332 178.862 78.2295 178.247 78.2295 177.579V177.21C78.2295 176.437 78.3438 175.748 78.5723 175.145C78.8008 174.535 79.1113 174.02 79.5039 173.598C79.8965 173.176 80.3418 172.856 80.8398 172.64C81.3379 172.423 81.8535 172.314 82.3867 172.314C83.0664 172.314 83.6523 172.432 84.1445 172.666C84.6426 172.9 85.0498 173.229 85.3662 173.65C85.6826 174.066 85.917 174.559 86.0693 175.127C86.2217 175.689 86.2979 176.305 86.2979 176.973V177.702H79.1963V176.375H84.6719V176.252C84.6484 175.83 84.5605 175.42 84.4082 175.021C84.2617 174.623 84.0273 174.295 83.7051 174.037C83.3828 173.779 82.9434 173.65 82.3867 173.65C82.0176 173.65 81.6777 173.729 81.3672 173.888C81.0566 174.04 80.79 174.269 80.5674 174.573C80.3447 174.878 80.1719 175.25 80.0488 175.689C79.9258 176.129 79.8643 176.636 79.8643 177.21V177.579C79.8643 178.03 79.9258 178.455 80.0488 178.854C80.1777 179.246 80.3623 179.592 80.6025 179.891C80.8486 180.189 81.1445 180.424 81.4902 180.594C81.8418 180.764 82.2402 180.849 82.6855 180.849C83.2598 180.849 83.7461 180.731 84.1445 180.497C84.543 180.263 84.8916 179.949 85.1904 179.557L86.1748 180.339C85.9697 180.649 85.709 180.945 85.3926 181.227C85.0762 181.508 84.6865 181.736 84.2236 181.912C83.7666 182.088 83.2246 182.176 82.5977 182.176ZM94.1904 180.154V168.5H95.8252V182H94.3311L94.1904 180.154ZM87.792 177.351V177.166C87.792 176.439 87.8799 175.78 88.0557 175.188C88.2373 174.591 88.4922 174.078 88.8203 173.65C89.1543 173.223 89.5498 172.895 90.0068 172.666C90.4697 172.432 90.9854 172.314 91.5537 172.314C92.1514 172.314 92.6729 172.42 93.1182 172.631C93.5693 172.836 93.9502 173.138 94.2607 173.536C94.5771 173.929 94.8262 174.403 95.0078 174.96C95.1895 175.517 95.3154 176.146 95.3857 176.85V177.658C95.3213 178.355 95.1953 178.982 95.0078 179.539C94.8262 180.096 94.5771 180.57 94.2607 180.963C93.9502 181.355 93.5693 181.657 93.1182 181.868C92.667 182.073 92.1396 182.176 91.5361 182.176C90.9795 182.176 90.4697 182.056 90.0068 181.815C89.5498 181.575 89.1543 181.238 88.8203 180.805C88.4922 180.371 88.2373 179.861 88.0557 179.275C87.8799 178.684 87.792 178.042 87.792 177.351ZM89.4268 177.166V177.351C89.4268 177.825 89.4736 178.271 89.5674 178.687C89.667 179.103 89.8193 179.469 90.0244 179.785C90.2295 180.102 90.4902 180.351 90.8066 180.532C91.123 180.708 91.501 180.796 91.9404 180.796C92.4795 180.796 92.9219 180.682 93.2676 180.453C93.6191 180.225 93.9004 179.923 94.1113 179.548C94.3223 179.173 94.4863 178.766 94.6035 178.326V176.208C94.5332 175.886 94.4307 175.575 94.2959 175.276C94.167 174.972 93.9971 174.702 93.7861 174.468C93.5811 174.228 93.3262 174.037 93.0215 173.896C92.7227 173.756 92.3682 173.686 91.958 173.686C91.5127 173.686 91.1289 173.779 90.8066 173.967C90.4902 174.148 90.2295 174.4 90.0244 174.723C89.8193 175.039 89.667 175.408 89.5674 175.83C89.4736 176.246 89.4268 176.691 89.4268 177.166ZM103.964 180.374V175.479C103.964 175.104 103.888 174.778 103.735 174.503C103.589 174.222 103.366 174.005 103.067 173.853C102.769 173.7 102.399 173.624 101.96 173.624C101.55 173.624 101.189 173.694 100.879 173.835C100.574 173.976 100.334 174.16 100.158 174.389C99.9883 174.617 99.9033 174.863 99.9033 175.127H98.2773C98.2773 174.787 98.3652 174.45 98.541 174.116C98.7168 173.782 98.9688 173.48 99.2969 173.211C99.6309 172.936 100.029 172.719 100.492 172.561C100.961 172.396 101.482 172.314 102.057 172.314C102.748 172.314 103.357 172.432 103.885 172.666C104.418 172.9 104.834 173.255 105.133 173.729C105.438 174.198 105.59 174.787 105.59 175.496V179.926C105.59 180.242 105.616 180.579 105.669 180.937C105.728 181.294 105.812 181.602 105.924 181.859V182H104.228C104.146 181.812 104.081 181.563 104.034 181.253C103.987 180.937 103.964 180.644 103.964 180.374ZM104.245 176.234L104.263 177.377H102.619C102.156 177.377 101.743 177.415 101.38 177.491C101.017 177.562 100.712 177.67 100.466 177.816C100.22 177.963 100.032 178.147 99.9033 178.37C99.7744 178.587 99.71 178.842 99.71 179.135C99.71 179.434 99.7773 179.706 99.9121 179.952C100.047 180.198 100.249 180.395 100.519 180.541C100.794 180.682 101.131 180.752 101.529 180.752C102.027 180.752 102.467 180.646 102.848 180.436C103.229 180.225 103.53 179.967 103.753 179.662C103.981 179.357 104.104 179.062 104.122 178.774L104.816 179.557C104.775 179.803 104.664 180.075 104.482 180.374C104.301 180.673 104.058 180.96 103.753 181.235C103.454 181.505 103.097 181.73 102.681 181.912C102.271 182.088 101.808 182.176 101.292 182.176C100.647 182.176 100.082 182.05 99.5957 181.798C99.1152 181.546 98.7402 181.209 98.4707 180.787C98.207 180.359 98.0752 179.882 98.0752 179.354C98.0752 178.845 98.1748 178.396 98.374 178.01C98.5732 177.617 98.8604 177.292 99.2354 177.034C99.6104 176.771 100.062 176.571 100.589 176.437C101.116 176.302 101.705 176.234 102.355 176.234H104.245ZM112.129 172.49V173.738H106.987V172.49H112.129ZM108.728 170.179H110.354V179.645C110.354 179.967 110.403 180.21 110.503 180.374C110.603 180.538 110.731 180.646 110.89 180.699C111.048 180.752 111.218 180.778 111.399 180.778C111.534 180.778 111.675 180.767 111.821 180.743C111.974 180.714 112.088 180.69 112.164 180.673L112.173 182C112.044 182.041 111.874 182.079 111.663 182.114C111.458 182.155 111.209 182.176 110.916 182.176C110.518 182.176 110.151 182.097 109.817 181.938C109.483 181.78 109.217 181.517 109.018 181.147C108.824 180.772 108.728 180.269 108.728 179.636V170.179ZM119.644 180.374V175.479C119.644 175.104 119.567 174.778 119.415 174.503C119.269 174.222 119.046 174.005 118.747 173.853C118.448 173.7 118.079 173.624 117.64 173.624C117.229 173.624 116.869 173.694 116.559 173.835C116.254 173.976 116.014 174.16 115.838 174.389C115.668 174.617 115.583 174.863 115.583 175.127H113.957C113.957 174.787 114.045 174.45 114.221 174.116C114.396 173.782 114.648 173.48 114.977 173.211C115.311 172.936 115.709 172.719 116.172 172.561C116.641 172.396 117.162 172.314 117.736 172.314C118.428 172.314 119.037 172.432 119.564 172.666C120.098 172.9 120.514 173.255 120.812 173.729C121.117 174.198 121.27 174.787 121.27 175.496V179.926C121.27 180.242 121.296 180.579 121.349 180.937C121.407 181.294 121.492 181.602 121.604 181.859V182H119.907C119.825 181.812 119.761 181.563 119.714 181.253C119.667 180.937 119.644 180.644 119.644 180.374ZM119.925 176.234L119.942 177.377H118.299C117.836 177.377 117.423 177.415 117.06 177.491C116.696 177.562 116.392 177.67 116.146 177.816C115.899 177.963 115.712 178.147 115.583 178.37C115.454 178.587 115.39 178.842 115.39 179.135C115.39 179.434 115.457 179.706 115.592 179.952C115.727 180.198 115.929 180.395 116.198 180.541C116.474 180.682 116.811 180.752 117.209 180.752C117.707 180.752 118.146 180.646 118.527 180.436C118.908 180.225 119.21 179.967 119.433 179.662C119.661 179.357 119.784 179.062 119.802 178.774L120.496 179.557C120.455 179.803 120.344 180.075 120.162 180.374C119.98 180.673 119.737 180.96 119.433 181.235C119.134 181.505 118.776 181.73 118.36 181.912C117.95 182.088 117.487 182.176 116.972 182.176C116.327 182.176 115.762 182.05 115.275 181.798C114.795 181.546 114.42 181.209 114.15 180.787C113.887 180.359 113.755 179.882 113.755 179.354C113.755 178.845 113.854 178.396 114.054 178.01C114.253 177.617 114.54 177.292 114.915 177.034C115.29 176.771 115.741 176.571 116.269 176.437C116.796 176.302 117.385 176.234 118.035 176.234H119.925ZM123.818 168.5H125.453V180.154L125.312 182H123.818V168.5ZM131.878 177.166V177.351C131.878 178.042 131.796 178.684 131.632 179.275C131.468 179.861 131.228 180.371 130.911 180.805C130.595 181.238 130.208 181.575 129.751 181.815C129.294 182.056 128.77 182.176 128.178 182.176C127.574 182.176 127.044 182.073 126.587 181.868C126.136 181.657 125.755 181.355 125.444 180.963C125.134 180.57 124.885 180.096 124.697 179.539C124.516 178.982 124.39 178.355 124.319 177.658V176.85C124.39 176.146 124.516 175.517 124.697 174.96C124.885 174.403 125.134 173.929 125.444 173.536C125.755 173.138 126.136 172.836 126.587 172.631C127.038 172.42 127.562 172.314 128.16 172.314C128.758 172.314 129.288 172.432 129.751 172.666C130.214 172.895 130.601 173.223 130.911 173.65C131.228 174.078 131.468 174.591 131.632 175.188C131.796 175.78 131.878 176.439 131.878 177.166ZM130.243 177.351V177.166C130.243 176.691 130.199 176.246 130.111 175.83C130.023 175.408 129.883 175.039 129.689 174.723C129.496 174.4 129.241 174.148 128.925 173.967C128.608 173.779 128.219 173.686 127.756 173.686C127.346 173.686 126.988 173.756 126.684 173.896C126.385 174.037 126.13 174.228 125.919 174.468C125.708 174.702 125.535 174.972 125.4 175.276C125.271 175.575 125.175 175.886 125.11 176.208V178.326C125.204 178.736 125.356 179.132 125.567 179.513C125.784 179.888 126.071 180.195 126.429 180.436C126.792 180.676 127.24 180.796 127.773 180.796C128.213 180.796 128.588 180.708 128.898 180.532C129.215 180.351 129.47 180.102 129.663 179.785C129.862 179.469 130.009 179.103 130.103 178.687C130.196 178.271 130.243 177.825 130.243 177.351ZM139.542 180.374V175.479C139.542 175.104 139.466 174.778 139.313 174.503C139.167 174.222 138.944 174.005 138.646 173.853C138.347 173.7 137.978 173.624 137.538 173.624C137.128 173.624 136.768 173.694 136.457 173.835C136.152 173.976 135.912 174.16 135.736 174.389C135.566 174.617 135.481 174.863 135.481 175.127H133.855C133.855 174.787 133.943 174.45 134.119 174.116C134.295 173.782 134.547 173.48 134.875 173.211C135.209 172.936 135.607 172.719 136.07 172.561C136.539 172.396 137.061 172.314 137.635 172.314C138.326 172.314 138.936 172.432 139.463 172.666C139.996 172.9 140.412 173.255 140.711 173.729C141.016 174.198 141.168 174.787 141.168 175.496V179.926C141.168 180.242 141.194 180.579 141.247 180.937C141.306 181.294 141.391 181.602 141.502 181.859V182H139.806C139.724 181.812 139.659 181.563 139.612 181.253C139.565 180.937 139.542 180.644 139.542 180.374ZM139.823 176.234L139.841 177.377H138.197C137.734 177.377 137.321 177.415 136.958 177.491C136.595 177.562 136.29 177.67 136.044 177.816C135.798 177.963 135.61 178.147 135.481 178.37C135.353 178.587 135.288 178.842 135.288 179.135C135.288 179.434 135.355 179.706 135.49 179.952C135.625 180.198 135.827 180.395 136.097 180.541C136.372 180.682 136.709 180.752 137.107 180.752C137.605 180.752 138.045 180.646 138.426 180.436C138.807 180.225 139.108 179.967 139.331 179.662C139.56 179.357 139.683 179.062 139.7 178.774L140.395 179.557C140.354 179.803 140.242 180.075 140.061 180.374C139.879 180.673 139.636 180.96 139.331 181.235C139.032 181.505 138.675 181.73 138.259 181.912C137.849 182.088 137.386 182.176 136.87 182.176C136.226 182.176 135.66 182.05 135.174 181.798C134.693 181.546 134.318 181.209 134.049 180.787C133.785 180.359 133.653 179.882 133.653 179.354C133.653 178.845 133.753 178.396 133.952 178.01C134.151 177.617 134.438 177.292 134.813 177.034C135.188 176.771 135.64 176.571 136.167 176.437C136.694 176.302 137.283 176.234 137.934 176.234H139.823ZM149.263 179.478C149.263 179.243 149.21 179.026 149.104 178.827C149.005 178.622 148.797 178.438 148.48 178.273C148.17 178.104 147.701 177.957 147.074 177.834C146.547 177.723 146.069 177.591 145.642 177.438C145.22 177.286 144.859 177.102 144.561 176.885C144.268 176.668 144.042 176.413 143.884 176.12C143.726 175.827 143.646 175.484 143.646 175.092C143.646 174.717 143.729 174.362 143.893 174.028C144.062 173.694 144.3 173.398 144.604 173.141C144.915 172.883 145.287 172.681 145.721 172.534C146.154 172.388 146.638 172.314 147.171 172.314C147.933 172.314 148.583 172.449 149.122 172.719C149.661 172.988 150.074 173.349 150.361 173.8C150.648 174.245 150.792 174.74 150.792 175.285H149.166C149.166 175.021 149.087 174.767 148.929 174.521C148.776 174.269 148.551 174.061 148.252 173.896C147.959 173.732 147.599 173.65 147.171 173.65C146.72 173.65 146.354 173.721 146.072 173.861C145.797 173.996 145.595 174.169 145.466 174.38C145.343 174.591 145.281 174.813 145.281 175.048C145.281 175.224 145.311 175.382 145.369 175.522C145.434 175.657 145.545 175.783 145.703 175.9C145.861 176.012 146.084 176.117 146.371 176.217C146.658 176.316 147.024 176.416 147.47 176.516C148.249 176.691 148.891 176.902 149.395 177.148C149.898 177.395 150.273 177.696 150.52 178.054C150.766 178.411 150.889 178.845 150.889 179.354C150.889 179.771 150.801 180.151 150.625 180.497C150.455 180.843 150.206 181.142 149.878 181.394C149.556 181.64 149.169 181.833 148.718 181.974C148.272 182.108 147.771 182.176 147.215 182.176C146.377 182.176 145.668 182.026 145.088 181.728C144.508 181.429 144.068 181.042 143.77 180.567C143.471 180.093 143.321 179.592 143.321 179.064H144.956C144.979 179.51 145.108 179.864 145.343 180.128C145.577 180.386 145.864 180.57 146.204 180.682C146.544 180.787 146.881 180.84 147.215 180.84C147.66 180.84 148.032 180.781 148.331 180.664C148.636 180.547 148.867 180.386 149.025 180.181C149.184 179.976 149.263 179.741 149.263 179.478ZM156.971 182.176C156.309 182.176 155.708 182.064 155.169 181.842C154.636 181.613 154.176 181.294 153.789 180.884C153.408 180.474 153.115 179.987 152.91 179.425C152.705 178.862 152.603 178.247 152.603 177.579V177.21C152.603 176.437 152.717 175.748 152.945 175.145C153.174 174.535 153.484 174.02 153.877 173.598C154.27 173.176 154.715 172.856 155.213 172.64C155.711 172.423 156.227 172.314 156.76 172.314C157.439 172.314 158.025 172.432 158.518 172.666C159.016 172.9 159.423 173.229 159.739 173.65C160.056 174.066 160.29 174.559 160.442 175.127C160.595 175.689 160.671 176.305 160.671 176.973V177.702H153.569V176.375H159.045V176.252C159.021 175.83 158.934 175.42 158.781 175.021C158.635 174.623 158.4 174.295 158.078 174.037C157.756 173.779 157.316 173.65 156.76 173.65C156.391 173.65 156.051 173.729 155.74 173.888C155.43 174.04 155.163 174.269 154.94 174.573C154.718 174.878 154.545 175.25 154.422 175.689C154.299 176.129 154.237 176.636 154.237 177.21V177.579C154.237 178.03 154.299 178.455 154.422 178.854C154.551 179.246 154.735 179.592 154.976 179.891C155.222 180.189 155.518 180.424 155.863 180.594C156.215 180.764 156.613 180.849 157.059 180.849C157.633 180.849 158.119 180.731 158.518 180.497C158.916 180.263 159.265 179.949 159.563 179.557L160.548 180.339C160.343 180.649 160.082 180.945 159.766 181.227C159.449 181.508 159.06 181.736 158.597 181.912C158.14 182.088 157.598 182.176 156.971 182.176ZM163.65 168.5V169.695L163.387 172.833H162.411V169.774V168.5H163.65ZM166.023 168.5V169.695L165.76 172.833H164.784V169.713V168.5H166.023ZM176.658 172.49V173.738H171.517V172.49H176.658ZM173.257 170.179H174.883V179.645C174.883 179.967 174.933 180.21 175.032 180.374C175.132 180.538 175.261 180.646 175.419 180.699C175.577 180.752 175.747 180.778 175.929 180.778C176.063 180.778 176.204 180.767 176.351 180.743C176.503 180.714 176.617 180.69 176.693 180.673L176.702 182C176.573 182.041 176.403 182.079 176.192 182.114C175.987 182.155 175.738 182.176 175.445 182.176C175.047 182.176 174.681 182.097 174.347 181.938C174.013 181.78 173.746 181.517 173.547 181.147C173.354 180.772 173.257 180.269 173.257 179.636V170.179ZM177.959 177.351V177.148C177.959 176.463 178.059 175.827 178.258 175.241C178.457 174.649 178.744 174.137 179.119 173.703C179.494 173.264 179.948 172.924 180.481 172.684C181.015 172.438 181.612 172.314 182.274 172.314C182.942 172.314 183.543 172.438 184.076 172.684C184.615 172.924 185.072 173.264 185.447 173.703C185.828 174.137 186.118 174.649 186.317 175.241C186.517 175.827 186.616 176.463 186.616 177.148V177.351C186.616 178.036 186.517 178.672 186.317 179.258C186.118 179.844 185.828 180.356 185.447 180.796C185.072 181.229 184.618 181.569 184.085 181.815C183.558 182.056 182.96 182.176 182.292 182.176C181.624 182.176 181.023 182.056 180.49 181.815C179.957 181.569 179.5 181.229 179.119 180.796C178.744 180.356 178.457 179.844 178.258 179.258C178.059 178.672 177.959 178.036 177.959 177.351ZM179.585 177.148V177.351C179.585 177.825 179.641 178.273 179.752 178.695C179.863 179.111 180.03 179.48 180.253 179.803C180.481 180.125 180.766 180.38 181.105 180.567C181.445 180.749 181.841 180.84 182.292 180.84C182.737 180.84 183.127 180.749 183.461 180.567C183.801 180.38 184.082 180.125 184.305 179.803C184.527 179.48 184.694 179.111 184.806 178.695C184.923 178.273 184.981 177.825 184.981 177.351V177.148C184.981 176.68 184.923 176.237 184.806 175.821C184.694 175.399 184.524 175.027 184.296 174.705C184.073 174.377 183.792 174.119 183.452 173.932C183.118 173.744 182.726 173.65 182.274 173.65C181.829 173.65 181.437 173.744 181.097 173.932C180.763 174.119 180.481 174.377 180.253 174.705C180.03 175.027 179.863 175.399 179.752 175.821C179.641 176.237 179.585 176.68 179.585 177.148ZM196.926 180.84C197.312 180.84 197.67 180.761 197.998 180.603C198.326 180.444 198.596 180.228 198.807 179.952C199.018 179.671 199.138 179.352 199.167 178.994H200.714C200.685 179.557 200.494 180.081 200.143 180.567C199.797 181.048 199.343 181.438 198.78 181.736C198.218 182.029 197.6 182.176 196.926 182.176C196.211 182.176 195.587 182.05 195.054 181.798C194.526 181.546 194.087 181.2 193.735 180.761C193.39 180.321 193.129 179.817 192.953 179.249C192.783 178.675 192.698 178.068 192.698 177.43V177.061C192.698 176.422 192.783 175.818 192.953 175.25C193.129 174.676 193.39 174.169 193.735 173.729C194.087 173.29 194.526 172.944 195.054 172.692C195.587 172.44 196.211 172.314 196.926 172.314C197.67 172.314 198.32 172.467 198.877 172.771C199.434 173.07 199.87 173.48 200.187 174.002C200.509 174.518 200.685 175.104 200.714 175.76H199.167C199.138 175.367 199.026 175.013 198.833 174.696C198.646 174.38 198.388 174.128 198.06 173.94C197.737 173.747 197.359 173.65 196.926 173.65C196.428 173.65 196.009 173.75 195.669 173.949C195.335 174.143 195.068 174.406 194.869 174.74C194.676 175.068 194.535 175.435 194.447 175.839C194.365 176.237 194.324 176.645 194.324 177.061V177.43C194.324 177.846 194.365 178.256 194.447 178.66C194.529 179.064 194.667 179.431 194.86 179.759C195.06 180.087 195.326 180.351 195.66 180.55C196 180.743 196.422 180.84 196.926 180.84ZM204.168 173.984V182H202.542V172.49H204.124L204.168 173.984ZM207.139 172.438L207.13 173.949C206.995 173.92 206.866 173.902 206.743 173.896C206.626 173.885 206.491 173.879 206.339 173.879C205.964 173.879 205.633 173.938 205.346 174.055C205.059 174.172 204.815 174.336 204.616 174.547C204.417 174.758 204.259 175.01 204.142 175.303C204.03 175.59 203.957 175.906 203.922 176.252L203.465 176.516C203.465 175.941 203.521 175.402 203.632 174.898C203.749 174.395 203.928 173.949 204.168 173.562C204.408 173.17 204.713 172.865 205.082 172.648C205.457 172.426 205.902 172.314 206.418 172.314C206.535 172.314 206.67 172.329 206.822 172.358C206.975 172.382 207.08 172.408 207.139 172.438ZM212.412 182.176C211.75 182.176 211.149 182.064 210.61 181.842C210.077 181.613 209.617 181.294 209.23 180.884C208.85 180.474 208.557 179.987 208.352 179.425C208.146 178.862 208.044 178.247 208.044 177.579V177.21C208.044 176.437 208.158 175.748 208.387 175.145C208.615 174.535 208.926 174.02 209.318 173.598C209.711 173.176 210.156 172.856 210.654 172.64C211.152 172.423 211.668 172.314 212.201 172.314C212.881 172.314 213.467 172.432 213.959 172.666C214.457 172.9 214.864 173.229 215.181 173.65C215.497 174.066 215.731 174.559 215.884 175.127C216.036 175.689 216.112 176.305 216.112 176.973V177.702H209.011V176.375H214.486V176.252C214.463 175.83 214.375 175.42 214.223 175.021C214.076 174.623 213.842 174.295 213.52 174.037C213.197 173.779 212.758 173.65 212.201 173.65C211.832 173.65 211.492 173.729 211.182 173.888C210.871 174.04 210.604 174.269 210.382 174.573C210.159 174.878 209.986 175.25 209.863 175.689C209.74 176.129 209.679 176.636 209.679 177.21V177.579C209.679 178.03 209.74 178.455 209.863 178.854C209.992 179.246 210.177 179.592 210.417 179.891C210.663 180.189 210.959 180.424 211.305 180.594C211.656 180.764 212.055 180.849 212.5 180.849C213.074 180.849 213.561 180.731 213.959 180.497C214.357 180.263 214.706 179.949 215.005 179.557L215.989 180.339C215.784 180.649 215.523 180.945 215.207 181.227C214.891 181.508 214.501 181.736 214.038 181.912C213.581 182.088 213.039 182.176 212.412 182.176ZM223.618 180.374V175.479C223.618 175.104 223.542 174.778 223.39 174.503C223.243 174.222 223.021 174.005 222.722 173.853C222.423 173.7 222.054 173.624 221.614 173.624C221.204 173.624 220.844 173.694 220.533 173.835C220.229 173.976 219.988 174.16 219.812 174.389C219.643 174.617 219.558 174.863 219.558 175.127H217.932C217.932 174.787 218.02 174.45 218.195 174.116C218.371 173.782 218.623 173.48 218.951 173.211C219.285 172.936 219.684 172.719 220.146 172.561C220.615 172.396 221.137 172.314 221.711 172.314C222.402 172.314 223.012 172.432 223.539 172.666C224.072 172.9 224.488 173.255 224.787 173.729C225.092 174.198 225.244 174.787 225.244 175.496V179.926C225.244 180.242 225.271 180.579 225.323 180.937C225.382 181.294 225.467 181.602 225.578 181.859V182H223.882C223.8 181.812 223.735 181.563 223.688 181.253C223.642 180.937 223.618 180.644 223.618 180.374ZM223.899 176.234L223.917 177.377H222.273C221.811 177.377 221.397 177.415 221.034 177.491C220.671 177.562 220.366 177.67 220.12 177.816C219.874 177.963 219.687 178.147 219.558 178.37C219.429 178.587 219.364 178.842 219.364 179.135C219.364 179.434 219.432 179.706 219.566 179.952C219.701 180.198 219.903 180.395 220.173 180.541C220.448 180.682 220.785 180.752 221.184 180.752C221.682 180.752 222.121 180.646 222.502 180.436C222.883 180.225 223.185 179.967 223.407 179.662C223.636 179.357 223.759 179.062 223.776 178.774L224.471 179.557C224.43 179.803 224.318 180.075 224.137 180.374C223.955 180.673 223.712 180.96 223.407 181.235C223.108 181.505 222.751 181.73 222.335 181.912C221.925 182.088 221.462 182.176 220.946 182.176C220.302 182.176 219.736 182.05 219.25 181.798C218.77 181.546 218.395 181.209 218.125 180.787C217.861 180.359 217.729 179.882 217.729 179.354C217.729 178.845 217.829 178.396 218.028 178.01C218.228 177.617 218.515 177.292 218.89 177.034C219.265 176.771 219.716 176.571 220.243 176.437C220.771 176.302 221.359 176.234 222.01 176.234H223.899ZM231.783 172.49V173.738H226.642V172.49H231.783ZM228.382 170.179H230.008V179.645C230.008 179.967 230.058 180.21 230.157 180.374C230.257 180.538 230.386 180.646 230.544 180.699C230.702 180.752 230.872 180.778 231.054 180.778C231.188 180.778 231.329 180.767 231.476 180.743C231.628 180.714 231.742 180.69 231.818 180.673L231.827 182C231.698 182.041 231.528 182.079 231.317 182.114C231.112 182.155 230.863 182.176 230.57 182.176C230.172 182.176 229.806 182.097 229.472 181.938C229.138 181.78 228.871 181.517 228.672 181.147C228.479 180.772 228.382 180.269 228.382 179.636V170.179ZM237.637 182.176C236.975 182.176 236.374 182.064 235.835 181.842C235.302 181.613 234.842 181.294 234.455 180.884C234.074 180.474 233.781 179.987 233.576 179.425C233.371 178.862 233.269 178.247 233.269 177.579V177.21C233.269 176.437 233.383 175.748 233.611 175.145C233.84 174.535 234.15 174.02 234.543 173.598C234.936 173.176 235.381 172.856 235.879 172.64C236.377 172.423 236.893 172.314 237.426 172.314C238.105 172.314 238.691 172.432 239.184 172.666C239.682 172.9 240.089 173.229 240.405 173.65C240.722 174.066 240.956 174.559 241.108 175.127C241.261 175.689 241.337 176.305 241.337 176.973V177.702H234.235V176.375H239.711V176.252C239.688 175.83 239.6 175.42 239.447 175.021C239.301 174.623 239.066 174.295 238.744 174.037C238.422 173.779 237.982 173.65 237.426 173.65C237.057 173.65 236.717 173.729 236.406 173.888C236.096 174.04 235.829 174.269 235.606 174.573C235.384 174.878 235.211 175.25 235.088 175.689C234.965 176.129 234.903 176.636 234.903 177.21V177.579C234.903 178.03 234.965 178.455 235.088 178.854C235.217 179.246 235.401 179.592 235.642 179.891C235.888 180.189 236.184 180.424 236.529 180.594C236.881 180.764 237.279 180.849 237.725 180.849C238.299 180.849 238.785 180.731 239.184 180.497C239.582 180.263 239.931 179.949 240.229 179.557L241.214 180.339C241.009 180.649 240.748 180.945 240.432 181.227C240.115 181.508 239.726 181.736 239.263 181.912C238.806 182.088 238.264 182.176 237.637 182.176ZM253.308 180.374V175.479C253.308 175.104 253.231 174.778 253.079 174.503C252.933 174.222 252.71 174.005 252.411 173.853C252.112 173.7 251.743 173.624 251.304 173.624C250.894 173.624 250.533 173.694 250.223 173.835C249.918 173.976 249.678 174.16 249.502 174.389C249.332 174.617 249.247 174.863 249.247 175.127H247.621C247.621 174.787 247.709 174.45 247.885 174.116C248.061 173.782 248.312 173.48 248.641 173.211C248.975 172.936 249.373 172.719 249.836 172.561C250.305 172.396 250.826 172.314 251.4 172.314C252.092 172.314 252.701 172.432 253.229 172.666C253.762 172.9 254.178 173.255 254.477 173.729C254.781 174.198 254.934 174.787 254.934 175.496V179.926C254.934 180.242 254.96 180.579 255.013 180.937C255.071 181.294 255.156 181.602 255.268 181.859V182H253.571C253.489 181.812 253.425 181.563 253.378 181.253C253.331 180.937 253.308 180.644 253.308 180.374ZM253.589 176.234L253.606 177.377H251.963C251.5 177.377 251.087 177.415 250.724 177.491C250.36 177.562 250.056 177.67 249.81 177.816C249.563 177.963 249.376 178.147 249.247 178.37C249.118 178.587 249.054 178.842 249.054 179.135C249.054 179.434 249.121 179.706 249.256 179.952C249.391 180.198 249.593 180.395 249.862 180.541C250.138 180.682 250.475 180.752 250.873 180.752C251.371 180.752 251.811 180.646 252.191 180.436C252.572 180.225 252.874 179.967 253.097 179.662C253.325 179.357 253.448 179.062 253.466 178.774L254.16 179.557C254.119 179.803 254.008 180.075 253.826 180.374C253.645 180.673 253.401 180.96 253.097 181.235C252.798 181.505 252.44 181.73 252.024 181.912C251.614 182.088 251.151 182.176 250.636 182.176C249.991 182.176 249.426 182.05 248.939 181.798C248.459 181.546 248.084 181.209 247.814 180.787C247.551 180.359 247.419 179.882 247.419 179.354C247.419 178.845 247.519 178.396 247.718 178.01C247.917 177.617 248.204 177.292 248.579 177.034C248.954 176.771 249.405 176.571 249.933 176.437C250.46 176.302 251.049 176.234 251.699 176.234H253.589ZM266.579 169.203V182H264.909V169.203H266.579ZM270.692 169.203V170.592H260.805V169.203H270.692ZM276.862 180.058L280.633 169.203H282.47L277.732 182H276.423L276.862 180.058ZM273.338 169.203L277.073 180.058L277.539 182H276.229L271.501 169.203H273.338ZM67.1729 203.478C67.1729 203.243 67.1201 203.026 67.0146 202.827C66.915 202.622 66.707 202.438 66.3906 202.273C66.0801 202.104 65.6113 201.957 64.9844 201.834C64.457 201.723 63.9795 201.591 63.5518 201.438C63.1299 201.286 62.7695 201.102 62.4707 200.885C62.1777 200.668 61.9521 200.413 61.7939 200.12C61.6357 199.827 61.5566 199.484 61.5566 199.092C61.5566 198.717 61.6387 198.362 61.8027 198.028C61.9727 197.694 62.21 197.398 62.5146 197.141C62.8252 196.883 63.1973 196.681 63.6309 196.534C64.0645 196.388 64.5479 196.314 65.0811 196.314C65.8428 196.314 66.4932 196.449 67.0322 196.719C67.5713 196.988 67.9844 197.349 68.2715 197.8C68.5586 198.245 68.7021 198.74 68.7021 199.285H67.0762C67.0762 199.021 66.9971 198.767 66.8389 198.521C66.6865 198.269 66.4609 198.061 66.1621 197.896C65.8691 197.732 65.5088 197.65 65.0811 197.65C64.6299 197.65 64.2637 197.721 63.9824 197.861C63.707 197.996 63.5049 198.169 63.376 198.38C63.2529 198.591 63.1914 198.813 63.1914 199.048C63.1914 199.224 63.2207 199.382 63.2793 199.522C63.3438 199.657 63.4551 199.783 63.6133 199.9C63.7715 200.012 63.9941 200.117 64.2812 200.217C64.5684 200.316 64.9346 200.416 65.3799 200.516C66.1592 200.691 66.8008 200.902 67.3047 201.148C67.8086 201.395 68.1836 201.696 68.4297 202.054C68.6758 202.411 68.7988 202.845 68.7988 203.354C68.7988 203.771 68.7109 204.151 68.5352 204.497C68.3652 204.843 68.1162 205.142 67.7881 205.394C67.4658 205.64 67.0791 205.833 66.6279 205.974C66.1826 206.108 65.6816 206.176 65.125 206.176C64.2871 206.176 63.5781 206.026 62.998 205.728C62.418 205.429 61.9785 205.042 61.6797 204.567C61.3809 204.093 61.2314 203.592 61.2314 203.064H62.8662C62.8896 203.51 63.0186 203.864 63.2529 204.128C63.4873 204.386 63.7744 204.57 64.1143 204.682C64.4541 204.787 64.791 204.84 65.125 204.84C65.5703 204.84 65.9424 204.781 66.2412 204.664C66.5459 204.547 66.7773 204.386 66.9355 204.181C67.0938 203.976 67.1729 203.741 67.1729 203.478ZM74.8809 206.176C74.2188 206.176 73.6182 206.064 73.0791 205.842C72.5459 205.613 72.0859 205.294 71.6992 204.884C71.3184 204.474 71.0254 203.987 70.8203 203.425C70.6152 202.862 70.5127 202.247 70.5127 201.579V201.21C70.5127 200.437 70.627 199.748 70.8555 199.145C71.084 198.535 71.3945 198.02 71.7871 197.598C72.1797 197.176 72.625 196.856 73.123 196.64C73.6211 196.423 74.1367 196.314 74.6699 196.314C75.3496 196.314 75.9355 196.432 76.4277 196.666C76.9258 196.9 77.333 197.229 77.6494 197.65C77.9658 198.066 78.2002 198.559 78.3525 199.127C78.5049 199.689 78.5811 200.305 78.5811 200.973V201.702H71.4795V200.375H76.9551V200.252C76.9316 199.83 76.8438 199.42 76.6914 199.021C76.5449 198.623 76.3105 198.295 75.9883 198.037C75.666 197.779 75.2266 197.65 74.6699 197.65C74.3008 197.65 73.9609 197.729 73.6504 197.888C73.3398 198.04 73.0732 198.269 72.8506 198.573C72.6279 198.878 72.4551 199.25 72.332 199.689C72.209 200.129 72.1475 200.636 72.1475 201.21V201.579C72.1475 202.03 72.209 202.455 72.332 202.854C72.4609 203.246 72.6455 203.592 72.8857 203.891C73.1318 204.189 73.4277 204.424 73.7734 204.594C74.125 204.764 74.5234 204.849 74.9688 204.849C75.543 204.849 76.0293 204.731 76.4277 204.497C76.8262 204.263 77.1748 203.949 77.4736 203.557L78.458 204.339C78.2529 204.649 77.9922 204.945 77.6758 205.227C77.3594 205.508 76.9697 205.736 76.5068 205.912C76.0498 206.088 75.5078 206.176 74.8809 206.176ZM82.1055 197.984V206H80.4795V196.49H82.0615L82.1055 197.984ZM85.0762 196.438L85.0674 197.949C84.9326 197.92 84.8037 197.902 84.6807 197.896C84.5635 197.885 84.4287 197.879 84.2764 197.879C83.9014 197.879 83.5703 197.938 83.2832 198.055C82.9961 198.172 82.7529 198.336 82.5537 198.547C82.3545 198.758 82.1963 199.01 82.0791 199.303C81.9678 199.59 81.8945 199.906 81.8594 200.252L81.4023 200.516C81.4023 199.941 81.458 199.402 81.5693 198.898C81.6865 198.395 81.8652 197.949 82.1055 197.562C82.3457 197.17 82.6504 196.865 83.0195 196.648C83.3945 196.426 83.8398 196.314 84.3555 196.314C84.4727 196.314 84.6074 196.329 84.7598 196.358C84.9121 196.382 85.0176 196.408 85.0762 196.438ZM88.3457 196.49V206H86.7109V196.49H88.3457ZM86.5879 193.968C86.5879 193.704 86.667 193.481 86.8252 193.3C86.9893 193.118 87.2295 193.027 87.5459 193.027C87.8564 193.027 88.0938 193.118 88.2578 193.3C88.4277 193.481 88.5127 193.704 88.5127 193.968C88.5127 194.22 88.4277 194.437 88.2578 194.618C88.0938 194.794 87.8564 194.882 87.5459 194.882C87.2295 194.882 86.9893 194.794 86.8252 194.618C86.667 194.437 86.5879 194.22 86.5879 193.968ZM94.9023 206.176C94.2402 206.176 93.6396 206.064 93.1006 205.842C92.5674 205.613 92.1074 205.294 91.7207 204.884C91.3398 204.474 91.0469 203.987 90.8418 203.425C90.6367 202.862 90.5342 202.247 90.5342 201.579V201.21C90.5342 200.437 90.6484 199.748 90.877 199.145C91.1055 198.535 91.416 198.02 91.8086 197.598C92.2012 197.176 92.6465 196.856 93.1445 196.64C93.6426 196.423 94.1582 196.314 94.6914 196.314C95.3711 196.314 95.957 196.432 96.4492 196.666C96.9473 196.9 97.3545 197.229 97.6709 197.65C97.9873 198.066 98.2217 198.559 98.374 199.127C98.5264 199.689 98.6025 200.305 98.6025 200.973V201.702H91.501V200.375H96.9766V200.252C96.9531 199.83 96.8652 199.42 96.7129 199.021C96.5664 198.623 96.332 198.295 96.0098 198.037C95.6875 197.779 95.248 197.65 94.6914 197.65C94.3223 197.65 93.9824 197.729 93.6719 197.888C93.3613 198.04 93.0947 198.269 92.8721 198.573C92.6494 198.878 92.4766 199.25 92.3535 199.689C92.2305 200.129 92.1689 200.636 92.1689 201.21V201.579C92.1689 202.03 92.2305 202.455 92.3535 202.854C92.4824 203.246 92.667 203.592 92.9072 203.891C93.1533 204.189 93.4492 204.424 93.7949 204.594C94.1465 204.764 94.5449 204.849 94.9902 204.849C95.5645 204.849 96.0508 204.731 96.4492 204.497C96.8477 204.263 97.1963 203.949 97.4951 203.557L98.4795 204.339C98.2744 204.649 98.0137 204.945 97.6973 205.227C97.3809 205.508 96.9912 205.736 96.5283 205.912C96.0713 206.088 95.5293 206.176 94.9023 206.176ZM106.038 203.478C106.038 203.243 105.985 203.026 105.88 202.827C105.78 202.622 105.572 202.438 105.256 202.273C104.945 202.104 104.477 201.957 103.85 201.834C103.322 201.723 102.845 201.591 102.417 201.438C101.995 201.286 101.635 201.102 101.336 200.885C101.043 200.668 100.817 200.413 100.659 200.12C100.501 199.827 100.422 199.484 100.422 199.092C100.422 198.717 100.504 198.362 100.668 198.028C100.838 197.694 101.075 197.398 101.38 197.141C101.69 196.883 102.062 196.681 102.496 196.534C102.93 196.388 103.413 196.314 103.946 196.314C104.708 196.314 105.358 196.449 105.897 196.719C106.437 196.988 106.85 197.349 107.137 197.8C107.424 198.245 107.567 198.74 107.567 199.285H105.941C105.941 199.021 105.862 198.767 105.704 198.521C105.552 198.269 105.326 198.061 105.027 197.896C104.734 197.732 104.374 197.65 103.946 197.65C103.495 197.65 103.129 197.721 102.848 197.861C102.572 197.996 102.37 198.169 102.241 198.38C102.118 198.591 102.057 198.813 102.057 199.048C102.057 199.224 102.086 199.382 102.145 199.522C102.209 199.657 102.32 199.783 102.479 199.9C102.637 200.012 102.859 200.117 103.146 200.217C103.434 200.316 103.8 200.416 104.245 200.516C105.024 200.691 105.666 200.902 106.17 201.148C106.674 201.395 107.049 201.696 107.295 202.054C107.541 202.411 107.664 202.845 107.664 203.354C107.664 203.771 107.576 204.151 107.4 204.497C107.23 204.843 106.981 205.142 106.653 205.394C106.331 205.64 105.944 205.833 105.493 205.974C105.048 206.108 104.547 206.176 103.99 206.176C103.152 206.176 102.443 206.026 101.863 205.728C101.283 205.429 100.844 205.042 100.545 204.567C100.246 204.093 100.097 203.592 100.097 203.064H101.731C101.755 203.51 101.884 203.864 102.118 204.128C102.353 204.386 102.64 204.57 102.979 204.682C103.319 204.787 103.656 204.84 103.99 204.84C104.436 204.84 104.808 204.781 105.106 204.664C105.411 204.547 105.643 204.386 105.801 204.181C105.959 203.976 106.038 203.741 106.038 203.478ZM119.802 203.478C119.802 203.243 119.749 203.026 119.644 202.827C119.544 202.622 119.336 202.438 119.02 202.273C118.709 202.104 118.24 201.957 117.613 201.834C117.086 201.723 116.608 201.591 116.181 201.438C115.759 201.286 115.398 201.102 115.1 200.885C114.807 200.668 114.581 200.413 114.423 200.12C114.265 199.827 114.186 199.484 114.186 199.092C114.186 198.717 114.268 198.362 114.432 198.028C114.602 197.694 114.839 197.398 115.144 197.141C115.454 196.883 115.826 196.681 116.26 196.534C116.693 196.388 117.177 196.314 117.71 196.314C118.472 196.314 119.122 196.449 119.661 196.719C120.2 196.988 120.613 197.349 120.9 197.8C121.188 198.245 121.331 198.74 121.331 199.285H119.705C119.705 199.021 119.626 198.767 119.468 198.521C119.315 198.269 119.09 198.061 118.791 197.896C118.498 197.732 118.138 197.65 117.71 197.65C117.259 197.65 116.893 197.721 116.611 197.861C116.336 197.996 116.134 198.169 116.005 198.38C115.882 198.591 115.82 198.813 115.82 199.048C115.82 199.224 115.85 199.382 115.908 199.522C115.973 199.657 116.084 199.783 116.242 199.9C116.4 200.012 116.623 200.117 116.91 200.217C117.197 200.316 117.563 200.416 118.009 200.516C118.788 200.691 119.43 200.902 119.934 201.148C120.438 201.395 120.812 201.696 121.059 202.054C121.305 202.411 121.428 202.845 121.428 203.354C121.428 203.771 121.34 204.151 121.164 204.497C120.994 204.843 120.745 205.142 120.417 205.394C120.095 205.64 119.708 205.833 119.257 205.974C118.812 206.108 118.311 206.176 117.754 206.176C116.916 206.176 116.207 206.026 115.627 205.728C115.047 205.429 114.607 205.042 114.309 204.567C114.01 204.093 113.86 203.592 113.86 203.064H115.495C115.519 203.51 115.647 203.864 115.882 204.128C116.116 204.386 116.403 204.57 116.743 204.682C117.083 204.787 117.42 204.84 117.754 204.84C118.199 204.84 118.571 204.781 118.87 204.664C119.175 204.547 119.406 204.386 119.564 204.181C119.723 203.976 119.802 203.741 119.802 203.478ZM127.51 206.176C126.848 206.176 126.247 206.064 125.708 205.842C125.175 205.613 124.715 205.294 124.328 204.884C123.947 204.474 123.654 203.987 123.449 203.425C123.244 202.862 123.142 202.247 123.142 201.579V201.21C123.142 200.437 123.256 199.748 123.484 199.145C123.713 198.535 124.023 198.02 124.416 197.598C124.809 197.176 125.254 196.856 125.752 196.64C126.25 196.423 126.766 196.314 127.299 196.314C127.979 196.314 128.564 196.432 129.057 196.666C129.555 196.9 129.962 197.229 130.278 197.65C130.595 198.066 130.829 198.559 130.981 199.127C131.134 199.689 131.21 200.305 131.21 200.973V201.702H124.108V200.375H129.584V200.252C129.561 199.83 129.473 199.42 129.32 199.021C129.174 198.623 128.939 198.295 128.617 198.037C128.295 197.779 127.855 197.65 127.299 197.65C126.93 197.65 126.59 197.729 126.279 197.888C125.969 198.04 125.702 198.269 125.479 198.573C125.257 198.878 125.084 199.25 124.961 199.689C124.838 200.129 124.776 200.636 124.776 201.21V201.579C124.776 202.03 124.838 202.455 124.961 202.854C125.09 203.246 125.274 203.592 125.515 203.891C125.761 204.189 126.057 204.424 126.402 204.594C126.754 204.764 127.152 204.849 127.598 204.849C128.172 204.849 128.658 204.731 129.057 204.497C129.455 204.263 129.804 203.949 130.103 203.557L131.087 204.339C130.882 204.649 130.621 204.945 130.305 205.227C129.988 205.508 129.599 205.736 129.136 205.912C128.679 206.088 128.137 206.176 127.51 206.176ZM138.716 204.374V199.479C138.716 199.104 138.64 198.778 138.487 198.503C138.341 198.222 138.118 198.005 137.819 197.853C137.521 197.7 137.151 197.624 136.712 197.624C136.302 197.624 135.941 197.694 135.631 197.835C135.326 197.976 135.086 198.16 134.91 198.389C134.74 198.617 134.655 198.863 134.655 199.127H133.029C133.029 198.787 133.117 198.45 133.293 198.116C133.469 197.782 133.721 197.48 134.049 197.211C134.383 196.936 134.781 196.719 135.244 196.561C135.713 196.396 136.234 196.314 136.809 196.314C137.5 196.314 138.109 196.432 138.637 196.666C139.17 196.9 139.586 197.255 139.885 197.729C140.189 198.198 140.342 198.787 140.342 199.496V203.926C140.342 204.242 140.368 204.579 140.421 204.937C140.479 205.294 140.564 205.602 140.676 205.859V206H138.979C138.897 205.812 138.833 205.563 138.786 205.253C138.739 204.937 138.716 204.644 138.716 204.374ZM138.997 200.234L139.015 201.377H137.371C136.908 201.377 136.495 201.415 136.132 201.491C135.769 201.562 135.464 201.67 135.218 201.816C134.972 201.963 134.784 202.147 134.655 202.37C134.526 202.587 134.462 202.842 134.462 203.135C134.462 203.434 134.529 203.706 134.664 203.952C134.799 204.198 135.001 204.395 135.271 204.541C135.546 204.682 135.883 204.752 136.281 204.752C136.779 204.752 137.219 204.646 137.6 204.436C137.98 204.225 138.282 203.967 138.505 203.662C138.733 203.357 138.856 203.062 138.874 202.774L139.568 203.557C139.527 203.803 139.416 204.075 139.234 204.374C139.053 204.673 138.81 204.96 138.505 205.235C138.206 205.505 137.849 205.73 137.433 205.912C137.022 206.088 136.56 206.176 136.044 206.176C135.399 206.176 134.834 206.05 134.348 205.798C133.867 205.546 133.492 205.209 133.223 204.787C132.959 204.359 132.827 203.882 132.827 203.354C132.827 202.845 132.927 202.396 133.126 202.01C133.325 201.617 133.612 201.292 133.987 201.034C134.362 200.771 134.813 200.571 135.341 200.437C135.868 200.302 136.457 200.234 137.107 200.234H138.997ZM144.525 197.984V206H142.899V196.49H144.481L144.525 197.984ZM147.496 196.438L147.487 197.949C147.353 197.92 147.224 197.902 147.101 197.896C146.983 197.885 146.849 197.879 146.696 197.879C146.321 197.879 145.99 197.938 145.703 198.055C145.416 198.172 145.173 198.336 144.974 198.547C144.774 198.758 144.616 199.01 144.499 199.303C144.388 199.59 144.314 199.906 144.279 200.252L143.822 200.516C143.822 199.941 143.878 199.402 143.989 198.898C144.106 198.395 144.285 197.949 144.525 197.562C144.766 197.17 145.07 196.865 145.439 196.648C145.814 196.426 146.26 196.314 146.775 196.314C146.893 196.314 147.027 196.329 147.18 196.358C147.332 196.382 147.438 196.408 147.496 196.438ZM152.629 204.84C153.016 204.84 153.373 204.761 153.701 204.603C154.029 204.444 154.299 204.228 154.51 203.952C154.721 203.671 154.841 203.352 154.87 202.994H156.417C156.388 203.557 156.197 204.081 155.846 204.567C155.5 205.048 155.046 205.438 154.483 205.736C153.921 206.029 153.303 206.176 152.629 206.176C151.914 206.176 151.29 206.05 150.757 205.798C150.229 205.546 149.79 205.2 149.438 204.761C149.093 204.321 148.832 203.817 148.656 203.249C148.486 202.675 148.401 202.068 148.401 201.43V201.061C148.401 200.422 148.486 199.818 148.656 199.25C148.832 198.676 149.093 198.169 149.438 197.729C149.79 197.29 150.229 196.944 150.757 196.692C151.29 196.44 151.914 196.314 152.629 196.314C153.373 196.314 154.023 196.467 154.58 196.771C155.137 197.07 155.573 197.48 155.89 198.002C156.212 198.518 156.388 199.104 156.417 199.76H154.87C154.841 199.367 154.729 199.013 154.536 198.696C154.349 198.38 154.091 198.128 153.763 197.94C153.44 197.747 153.062 197.65 152.629 197.65C152.131 197.65 151.712 197.75 151.372 197.949C151.038 198.143 150.771 198.406 150.572 198.74C150.379 199.068 150.238 199.435 150.15 199.839C150.068 200.237 150.027 200.645 150.027 201.061V201.43C150.027 201.846 150.068 202.256 150.15 202.66C150.232 203.064 150.37 203.431 150.563 203.759C150.763 204.087 151.029 204.351 151.363 204.55C151.703 204.743 152.125 204.84 152.629 204.84ZM159.871 192.5V206H158.245V192.5H159.871ZM159.484 200.885L158.808 200.858C158.813 200.208 158.91 199.607 159.098 199.057C159.285 198.5 159.549 198.017 159.889 197.606C160.229 197.196 160.633 196.88 161.102 196.657C161.576 196.429 162.101 196.314 162.675 196.314C163.144 196.314 163.565 196.379 163.94 196.508C164.315 196.631 164.635 196.83 164.898 197.105C165.168 197.381 165.373 197.738 165.514 198.178C165.654 198.611 165.725 199.142 165.725 199.769V206H164.09V199.751C164.09 199.253 164.017 198.854 163.87 198.556C163.724 198.251 163.51 198.031 163.229 197.896C162.947 197.756 162.602 197.686 162.191 197.686C161.787 197.686 161.418 197.771 161.084 197.94C160.756 198.11 160.472 198.345 160.231 198.644C159.997 198.942 159.812 199.285 159.678 199.672C159.549 200.053 159.484 200.457 159.484 200.885ZM176.57 206.176C175.908 206.176 175.308 206.064 174.769 205.842C174.235 205.613 173.775 205.294 173.389 204.884C173.008 204.474 172.715 203.987 172.51 203.425C172.305 202.862 172.202 202.247 172.202 201.579V201.21C172.202 200.437 172.316 199.748 172.545 199.145C172.773 198.535 173.084 198.02 173.477 197.598C173.869 197.176 174.314 196.856 174.812 196.64C175.311 196.423 175.826 196.314 176.359 196.314C177.039 196.314 177.625 196.432 178.117 196.666C178.615 196.9 179.022 197.229 179.339 197.65C179.655 198.066 179.89 198.559 180.042 199.127C180.194 199.689 180.271 200.305 180.271 200.973V201.702H173.169V200.375H178.645V200.252C178.621 199.83 178.533 199.42 178.381 199.021C178.234 198.623 178 198.295 177.678 198.037C177.355 197.779 176.916 197.65 176.359 197.65C175.99 197.65 175.65 197.729 175.34 197.888C175.029 198.04 174.763 198.269 174.54 198.573C174.317 198.878 174.145 199.25 174.021 199.689C173.898 200.129 173.837 200.636 173.837 201.21V201.579C173.837 202.03 173.898 202.455 174.021 202.854C174.15 203.246 174.335 203.592 174.575 203.891C174.821 204.189 175.117 204.424 175.463 204.594C175.814 204.764 176.213 204.849 176.658 204.849C177.232 204.849 177.719 204.731 178.117 204.497C178.516 204.263 178.864 203.949 179.163 203.557L180.147 204.339C179.942 204.649 179.682 204.945 179.365 205.227C179.049 205.508 178.659 205.736 178.196 205.912C177.739 206.088 177.197 206.176 176.57 206.176ZM183.795 198.521V206H182.169V196.49H183.707L183.795 198.521ZM183.408 200.885L182.731 200.858C182.737 200.208 182.834 199.607 183.021 199.057C183.209 198.5 183.473 198.017 183.812 197.606C184.152 197.196 184.557 196.88 185.025 196.657C185.5 196.429 186.024 196.314 186.599 196.314C187.067 196.314 187.489 196.379 187.864 196.508C188.239 196.631 188.559 196.83 188.822 197.105C189.092 197.381 189.297 197.738 189.438 198.178C189.578 198.611 189.648 199.142 189.648 199.769V206H188.014V199.751C188.014 199.253 187.94 198.854 187.794 198.556C187.647 198.251 187.434 198.031 187.152 197.896C186.871 197.756 186.525 197.686 186.115 197.686C185.711 197.686 185.342 197.771 185.008 197.94C184.68 198.11 184.396 198.345 184.155 198.644C183.921 198.942 183.736 199.285 183.602 199.672C183.473 200.053 183.408 200.457 183.408 200.885ZM198.279 196.49H199.756V205.798C199.756 206.636 199.586 207.351 199.246 207.942C198.906 208.534 198.432 208.982 197.822 209.287C197.219 209.598 196.521 209.753 195.73 209.753C195.402 209.753 195.016 209.7 194.57 209.595C194.131 209.495 193.697 209.322 193.27 209.076C192.848 208.836 192.493 208.511 192.206 208.101L193.059 207.134C193.457 207.614 193.873 207.948 194.307 208.136C194.746 208.323 195.18 208.417 195.607 208.417C196.123 208.417 196.568 208.32 196.943 208.127C197.318 207.934 197.608 207.646 197.813 207.266C198.024 206.891 198.13 206.428 198.13 205.877V198.582L198.279 196.49ZM191.731 201.351V201.166C191.731 200.439 191.816 199.78 191.986 199.188C192.162 198.591 192.411 198.078 192.733 197.65C193.062 197.223 193.457 196.895 193.92 196.666C194.383 196.432 194.904 196.314 195.484 196.314C196.082 196.314 196.604 196.42 197.049 196.631C197.5 196.836 197.881 197.138 198.191 197.536C198.508 197.929 198.757 198.403 198.938 198.96C199.12 199.517 199.246 200.146 199.316 200.85V201.658C199.252 202.355 199.126 202.982 198.938 203.539C198.757 204.096 198.508 204.57 198.191 204.963C197.881 205.355 197.5 205.657 197.049 205.868C196.598 206.073 196.07 206.176 195.467 206.176C194.898 206.176 194.383 206.056 193.92 205.815C193.463 205.575 193.07 205.238 192.742 204.805C192.414 204.371 192.162 203.861 191.986 203.275C191.816 202.684 191.731 202.042 191.731 201.351ZM193.357 201.166V201.351C193.357 201.825 193.404 202.271 193.498 202.687C193.598 203.103 193.747 203.469 193.946 203.785C194.151 204.102 194.412 204.351 194.729 204.532C195.045 204.708 195.423 204.796 195.862 204.796C196.401 204.796 196.847 204.682 197.198 204.453C197.55 204.225 197.828 203.923 198.033 203.548C198.244 203.173 198.408 202.766 198.525 202.326V200.208C198.461 199.886 198.361 199.575 198.227 199.276C198.098 198.972 197.928 198.702 197.717 198.468C197.512 198.228 197.257 198.037 196.952 197.896C196.647 197.756 196.29 197.686 195.88 197.686C195.435 197.686 195.051 197.779 194.729 197.967C194.412 198.148 194.151 198.4 193.946 198.723C193.747 199.039 193.598 199.408 193.498 199.83C193.404 200.246 193.357 200.691 193.357 201.166ZM203.992 196.49V206H202.357V196.49H203.992ZM202.234 193.968C202.234 193.704 202.313 193.481 202.472 193.3C202.636 193.118 202.876 193.027 203.192 193.027C203.503 193.027 203.74 193.118 203.904 193.3C204.074 193.481 204.159 193.704 204.159 193.968C204.159 194.22 204.074 194.437 203.904 194.618C203.74 194.794 203.503 194.882 203.192 194.882C202.876 194.882 202.636 194.794 202.472 194.618C202.313 194.437 202.234 194.22 202.234 193.968ZM208.229 198.521V206H206.603V196.49H208.141L208.229 198.521ZM207.842 200.885L207.165 200.858C207.171 200.208 207.268 199.607 207.455 199.057C207.643 198.5 207.906 198.017 208.246 197.606C208.586 197.196 208.99 196.88 209.459 196.657C209.934 196.429 210.458 196.314 211.032 196.314C211.501 196.314 211.923 196.379 212.298 196.508C212.673 196.631 212.992 196.83 213.256 197.105C213.525 197.381 213.73 197.738 213.871 198.178C214.012 198.611 214.082 199.142 214.082 199.769V206H212.447V199.751C212.447 199.253 212.374 198.854 212.228 198.556C212.081 198.251 211.867 198.031 211.586 197.896C211.305 197.756 210.959 197.686 210.549 197.686C210.145 197.686 209.775 197.771 209.441 197.94C209.113 198.11 208.829 198.345 208.589 198.644C208.354 198.942 208.17 199.285 208.035 199.672C207.906 200.053 207.842 200.457 207.842 200.885ZM220.498 206.176C219.836 206.176 219.235 206.064 218.696 205.842C218.163 205.613 217.703 205.294 217.316 204.884C216.936 204.474 216.643 203.987 216.438 203.425C216.232 202.862 216.13 202.247 216.13 201.579V201.21C216.13 200.437 216.244 199.748 216.473 199.145C216.701 198.535 217.012 198.02 217.404 197.598C217.797 197.176 218.242 196.856 218.74 196.64C219.238 196.423 219.754 196.314 220.287 196.314C220.967 196.314 221.553 196.432 222.045 196.666C222.543 196.9 222.95 197.229 223.267 197.65C223.583 198.066 223.817 198.559 223.97 199.127C224.122 199.689 224.198 200.305 224.198 200.973V201.702H217.097V200.375H222.572V200.252C222.549 199.83 222.461 199.42 222.309 199.021C222.162 198.623 221.928 198.295 221.605 198.037C221.283 197.779 220.844 197.65 220.287 197.65C219.918 197.65 219.578 197.729 219.268 197.888C218.957 198.04 218.69 198.269 218.468 198.573C218.245 198.878 218.072 199.25 217.949 199.689C217.826 200.129 217.765 200.636 217.765 201.21V201.579C217.765 202.03 217.826 202.455 217.949 202.854C218.078 203.246 218.263 203.592 218.503 203.891C218.749 204.189 219.045 204.424 219.391 204.594C219.742 204.764 220.141 204.849 220.586 204.849C221.16 204.849 221.646 204.731 222.045 204.497C222.443 204.263 222.792 203.949 223.091 203.557L224.075 204.339C223.87 204.649 223.609 204.945 223.293 205.227C222.977 205.508 222.587 205.736 222.124 205.912C221.667 206.088 221.125 206.176 220.498 206.176ZM226.123 205.139C226.123 204.863 226.208 204.632 226.378 204.444C226.554 204.251 226.806 204.154 227.134 204.154C227.462 204.154 227.711 204.251 227.881 204.444C228.057 204.632 228.145 204.863 228.145 205.139C228.145 205.408 228.057 205.637 227.881 205.824C227.711 206.012 227.462 206.105 227.134 206.105C226.806 206.105 226.554 206.012 226.378 205.824C226.208 205.637 226.123 205.408 226.123 205.139Z" fill="white"/>
<path opacity="0.6" d="M113.636 89C112.348 89 111.253 88.562 110.351 87.686C109.448 86.81 108.998 85.748 109 84.5V81.5H113.636V84.5H118.273V71H122.909V84.5C122.909 85.75 122.458 86.813 121.555 87.689C120.653 88.565 119.559 89.002 118.273 89H113.636ZM130.636 89C129.761 89 129.026 88.712 128.433 88.136C127.839 87.56 127.543 86.848 127.545 86V83H132.182V84.5H138.364V81.5H130.636C129.761 81.5 129.026 81.212 128.433 80.636C127.839 80.06 127.543 79.348 127.545 78.5V74C127.545 73.15 127.842 72.437 128.436 71.861C129.029 71.285 129.763 70.998 130.636 71H139.909C140.785 71 141.519 71.288 142.113 71.864C142.706 72.44 143.002 73.152 143 74V77H138.364V75.5H132.182V78.5H139.909C140.785 78.5 141.519 78.788 142.113 79.364C142.706 79.94 143.002 80.652 143 81.5V86C143 86.85 142.703 87.563 142.11 88.139C141.516 88.715 140.783 89.002 139.909 89H130.636Z" fill="white"/>
<g opacity="0.6">
<path d="M76 77.0074C77.6308 77.0074 78.9608 78.3374 78.9608 79.9999C78.9608 81.5833 77.6308 82.9291 76 82.9291C74.3691 82.9291 73.0391 81.5833 73.0391 79.9999C73.0391 78.3374 74.3691 77.0074 76 77.0074ZM68.6691 92.6666C69.6666 93.2683 71.8516 92.3499 74.3691 89.9749C73.5458 89.0408 72.7383 88.0274 71.9783 86.9666C70.7024 86.8445 69.4339 86.6542 68.1783 86.3966C67.3708 89.7849 67.6716 92.1124 68.6691 92.6666ZM69.7933 83.5783L69.3341 82.7708C69.16 83.2299 68.9858 83.6891 68.875 84.1324C69.3025 84.2274 69.7775 84.3066 70.2683 84.3858L69.7933 83.5783ZM80.1483 82.3749L81.4308 79.9999L80.1483 77.6249C79.6733 76.7858 79.1666 76.0416 78.7075 75.2974C77.8525 75.2499 76.95 75.2499 76 75.2499C75.05 75.2499 74.1475 75.2499 73.2925 75.2974C72.8333 76.0416 72.3266 76.7858 71.8516 77.6249L70.5691 79.9999L71.8516 82.3749C72.3266 83.2141 72.8333 83.9583 73.2925 84.7024C74.1475 84.7499 75.05 84.7499 76 84.7499C76.95 84.7499 77.8525 84.7499 78.7075 84.7024C79.1666 83.9583 79.6733 83.2141 80.1483 82.3749ZM76 71.7349C75.6991 72.0833 75.3825 72.4474 75.0658 72.8749H76.9341C76.6175 72.4474 76.3008 72.0833 76 71.7349ZM76 88.2649C76.3008 87.9166 76.6175 87.5524 76.9341 87.1249H75.0658C75.3825 87.5524 75.6991 87.9166 76 88.2649ZM83.315 67.3333C82.3333 66.7316 80.1483 67.6499 77.6308 70.0249C78.4541 70.9591 79.2616 71.9724 80.0216 73.0333C81.32 73.1599 82.6025 73.3499 83.8216 73.6033C84.6291 70.2149 84.3283 67.8874 83.315 67.3333ZM82.2066 76.4216L82.6658 77.2291C82.84 76.7699 83.0141 76.3108 83.125 75.8674C82.6975 75.7724 82.2225 75.6933 81.7316 75.6141L82.2066 76.4216ZM84.5025 65.2591C86.83 66.5891 87.0833 70.0883 86.1016 74.1733C90.1233 75.3608 93.0208 77.3241 93.0208 79.9999C93.0208 82.6758 90.1233 84.6391 86.1016 85.8266C87.0833 89.9116 86.83 93.4108 84.5025 94.7408C82.1908 96.0708 79.04 94.5508 76 91.6533C72.96 94.5508 69.8091 96.0708 67.4816 94.7408C65.17 93.4108 64.9166 89.9116 65.8983 85.8266C61.8766 84.6391 58.9791 82.6758 58.9791 79.9999C58.9791 77.3241 61.8766 75.3608 65.8983 74.1733C64.9166 70.0883 65.17 66.5891 67.4816 65.2591C69.8091 63.9291 72.96 65.4491 76 68.3466C79.04 65.4491 82.1908 63.9291 84.5025 65.2591ZM84.0433 79.9999C84.5816 81.1874 85.0566 82.3749 85.4525 83.5783C88.7775 82.5808 90.6458 81.1558 90.6458 79.9999C90.6458 78.8441 88.7775 77.4191 85.4525 76.4216C85.0566 77.6249 84.5816 78.8124 84.0433 79.9999ZM67.9566 79.9999C67.4183 78.8124 66.9433 77.6249 66.5475 76.4216C63.2225 77.4191 61.3541 78.8441 61.3541 79.9999C61.3541 81.1558 63.2225 82.5808 66.5475 83.5783C66.9433 82.3749 67.4183 81.1874 67.9566 79.9999ZM82.2066 83.5783L81.7316 84.3858C82.2225 84.3066 82.6975 84.2274 83.125 84.1324C83.0141 83.6891 82.84 83.2299 82.6658 82.7708L82.2066 83.5783ZM77.6308 89.9749C80.1483 92.3499 82.3333 93.2683 83.315 92.6666C84.3283 92.1124 84.6291 89.7849 83.8216 86.3966C82.6025 86.6499 81.32 86.8399 80.0216 86.9666C79.2616 88.0274 78.4541 89.0408 77.6308 89.9749ZM69.7933 76.4216L70.2683 75.6141C69.7775 75.6933 69.3025 75.7724 68.875 75.8674C68.9858 76.3108 69.16 76.7699 69.3341 77.2291L69.7933 76.4216ZM74.3691 70.0249C71.8516 67.6499 69.6666 66.7316 68.6691 67.3333C67.6716 67.8874 67.3708 70.2149 68.1783 73.6033C69.4339 73.3456 70.7024 73.1554 71.9783 73.0333C72.7383 71.9724 73.5458 70.9591 74.3691 70.0249Z" fill="#F8F8F8"/>
</g>
<g opacity="0.6">
<path d="M175 89.0243L168.07 87.088L167.578 81.6243H170.983L171.22 84.4672L175 85.4955L178.78 84.4672L179.17 80.0488H167.44L166.487 69.7535H183.512L183.172 73.1606H170.233L170.539 76.6386H182.865L181.928 87.088L175 89.0243ZM161.5 64.0833H188.5L186.066 91.8333L175 94.9166L163.935 91.8333L161.5 64.0833ZM164.782 67.1666L166.735 89.419L175 91.7223L183.265 89.419L185.218 67.1666H164.782Z" fill="white"/>
</g>
<g opacity="0.6">
<path d="M225.548 94.0589V89.8608C225.598 89.1633 225.513 88.4621 225.298 87.8038C225.083 87.1456 224.744 86.5453 224.303 86.043C228.463 85.531 232.835 83.7903 232.835 75.8036C232.835 73.7613 232.123 71.7974 230.848 70.3182C231.452 68.5315 231.409 66.5565 230.729 64.8036C230.729 64.8036 229.165 64.2916 225.548 66.9685C222.512 66.0599 219.311 66.0599 216.274 66.9685C212.657 64.2916 211.094 64.8036 211.094 64.8036C210.413 66.5565 210.371 68.5315 210.975 70.3182C209.69 71.8083 208.977 73.79 208.987 75.8475C208.987 83.7757 213.359 85.5164 217.52 86.0868C217.084 86.5841 216.747 87.1772 216.533 87.8274C216.318 88.4776 216.23 89.1704 216.274 89.8608V94.0589" stroke="white" stroke-width="3" stroke-linecap="round" stroke-linejoin="round"/>
<path d="M216.274 91.1332C212.3 92.5564 208.987 91.1332 207 86.7449" stroke="white" stroke-width="3" stroke-linecap="round" stroke-linejoin="round"/>
</g>
<path d="M38.7969 23.6719V37H33.5312V20.0938H38.4688L38.7969 23.6719ZM38.1562 27.9688L36.9531 28C36.9531 26.8125 37.0938 25.7188 37.375 24.7188C37.6562 23.7188 38.0729 22.849 38.625 22.1094C39.1771 21.3698 39.8542 20.7969 40.6562 20.3906C41.4688 19.9844 42.4062 19.7812 43.4688 19.7812C44.2083 19.7812 44.8802 19.8958 45.4844 20.125C46.0885 20.3438 46.6094 20.6927 47.0469 21.1719C47.4844 21.6406 47.8177 22.2552 48.0469 23.0156C48.2865 23.7656 48.4062 24.6667 48.4062 25.7188V37H43.1406V26.3906C43.1406 25.6719 43.0573 25.1302 42.8906 24.7656C42.7344 24.401 42.5052 24.1562 42.2031 24.0312C41.901 23.9062 41.5312 23.8438 41.0938 23.8438C40.6354 23.8438 40.224 23.9479 39.8594 24.1562C39.4948 24.3646 39.1823 24.6562 38.9219 25.0312C38.6719 25.3958 38.4792 25.8281 38.3438 26.3281C38.2188 26.8281 38.1562 27.375 38.1562 27.9688ZM47.8125 27.9688L46.3438 28C46.3438 26.8125 46.474 25.7188 46.7344 24.7188C47.0052 23.7188 47.4062 22.849 47.9375 22.1094C48.4792 21.3698 49.151 20.7969 49.9531 20.3906C50.7552 19.9844 51.6875 19.7812 52.75 19.7812C53.5208 19.7812 54.2292 19.8958 54.875 20.125C55.5208 20.3542 56.0781 20.724 56.5469 21.2344C57.0156 21.7448 57.3802 22.4219 57.6406 23.2656C57.901 24.099 58.0312 25.1302 58.0312 26.3594V37H52.75V26.3594C52.75 25.6615 52.6667 25.1354 52.5 24.7812C52.3438 24.4167 52.1146 24.1719 51.8125 24.0469C51.5104 23.9115 51.151 23.8438 50.7344 23.8438C50.2344 23.8438 49.8021 23.9479 49.4375 24.1562C49.0729 24.3646 48.7656 24.6562 48.5156 25.0312C48.276 25.3958 48.099 25.8281 47.9844 26.3281C47.8698 26.8281 47.8125 27.375 47.8125 27.9688ZM60.3906 28.7188V28.3906C60.3906 27.151 60.5677 26.0104 60.9219 24.9688C61.276 23.9167 61.7969 23.0052 62.4844 22.2344C63.1719 21.4635 64.0208 20.8646 65.0312 20.4375C66.0417 20 67.2083 19.7812 68.5312 19.7812C69.8646 19.7812 71.0365 20 72.0469 20.4375C73.0677 20.8646 73.9219 21.4635 74.6094 22.2344C75.2969 23.0052 75.8177 23.9167 76.1719 24.9688C76.526 26.0104 76.7031 27.151 76.7031 28.3906V28.7188C76.7031 29.9479 76.526 31.0885 76.1719 32.1406C75.8177 33.1823 75.2969 34.0938 74.6094 34.875C73.9219 35.6458 73.0729 36.2448 72.0625 36.6719C71.0521 37.099 69.8854 37.3125 68.5625 37.3125C67.2396 37.3125 66.0677 37.099 65.0469 36.6719C64.026 36.2448 63.1719 35.6458 62.4844 34.875C61.7969 34.0938 61.276 33.1823 60.9219 32.1406C60.5677 31.0885 60.3906 29.9479 60.3906 28.7188ZM65.6562 28.3906V28.7188C65.6562 29.3542 65.7031 29.9479 65.7969 30.5C65.8906 31.0521 66.0469 31.5365 66.2656 31.9531C66.4844 32.3594 66.7812 32.6771 67.1562 32.9062C67.5312 33.1354 68 33.25 68.5625 33.25C69.1146 33.25 69.5729 33.1354 69.9375 32.9062C70.3125 32.6771 70.6094 32.3594 70.8281 31.9531C71.0469 31.5365 71.2031 31.0521 71.2969 30.5C71.3906 29.9479 71.4375 29.3542 71.4375 28.7188V28.3906C71.4375 27.776 71.3906 27.1979 71.2969 26.6562C71.2031 26.1042 71.0469 25.6198 70.8281 25.2031C70.6094 24.776 70.3125 24.4427 69.9375 24.2031C69.5625 23.9635 69.0938 23.8438 68.5312 23.8438C67.9792 23.8438 67.5156 23.9635 67.1406 24.2031C66.776 24.4427 66.4844 24.776 66.2656 25.2031C66.0469 25.6198 65.8906 26.1042 65.7969 26.6562C65.7031 27.1979 65.6562 27.776 65.6562 28.3906ZM84.8906 33.3906L88.2188 20.0938H93.7656L88.2344 37H84.9531L84.8906 33.3906ZM82.9219 20.0938L86.2031 33.3906L86.1719 37H82.875L77.3594 20.0938H82.9219ZM100.891 20.0938V37H95.6094V20.0938H100.891ZM95.2969 15.7344C95.2969 14.9844 95.5677 14.3698 96.1094 13.8906C96.651 13.4115 97.3542 13.1719 98.2188 13.1719C99.0833 13.1719 99.7865 13.4115 100.328 13.8906C100.87 14.3698 101.141 14.9844 101.141 15.7344C101.141 16.4844 100.87 17.099 100.328 17.5781C99.7865 18.0573 99.0833 18.2969 98.2188 18.2969C97.3542 18.2969 96.651 18.0573 96.1094 17.5781C95.5677 17.099 95.2969 16.4844 95.2969 15.7344ZM112.328 37.3125C110.953 37.3125 109.724 37.099 108.641 36.6719C107.557 36.2344 106.641 35.6354 105.891 34.875C105.151 34.1146 104.583 33.2396 104.188 32.25C103.802 31.2604 103.609 30.2135 103.609 29.1094V28.5156C103.609 27.276 103.781 26.1302 104.125 25.0781C104.469 24.0156 104.979 23.0885 105.656 22.2969C106.333 21.5052 107.182 20.8906 108.203 20.4531C109.224 20.0052 110.411 19.7812 111.766 19.7812C112.964 19.7812 114.036 19.974 114.984 20.3594C115.932 20.7448 116.734 21.2969 117.391 22.0156C118.057 22.7344 118.562 23.6042 118.906 24.625C119.26 25.6458 119.438 26.7917 119.438 28.0625V30.2031H105.625V26.9062H114.297V26.5C114.307 25.9375 114.208 25.4583 114 25.0625C113.802 24.6667 113.51 24.3646 113.125 24.1562C112.74 23.9479 112.271 23.8438 111.719 23.8438C111.146 23.8438 110.672 23.9688 110.297 24.2188C109.932 24.4688 109.646 24.8125 109.438 25.25C109.24 25.6771 109.099 26.1719 109.016 26.7344C108.932 27.2969 108.891 27.8906 108.891 28.5156V29.1094C108.891 29.7344 108.974 30.3021 109.141 30.8125C109.318 31.3229 109.568 31.7604 109.891 32.125C110.224 32.4792 110.62 32.7552 111.078 32.9531C111.547 33.151 112.078 33.25 112.672 33.25C113.391 33.25 114.099 33.1146 114.797 32.8438C115.495 32.5729 116.094 32.125 116.594 31.5L118.984 34.3438C118.641 34.8333 118.151 35.3073 117.516 35.7656C116.891 36.224 116.141 36.599 115.266 36.8906C114.391 37.1719 113.411 37.3125 112.328 37.3125ZM129.219 37H124.172L124.203 32.7812H129.219C130.26 32.7812 131.141 32.5312 131.859 32.0312C132.589 31.5312 133.141 30.7865 133.516 29.7969C133.901 28.7969 134.094 27.5677 134.094 26.1094V25.125C134.094 24.0312 133.984 23.0729 133.766 22.25C133.557 21.4167 133.245 20.724 132.828 20.1719C132.411 19.6094 131.891 19.1875 131.266 18.9062C130.651 18.625 129.943 18.4844 129.141 18.4844H124.078V14.25H129.141C130.682 14.25 132.094 14.5156 133.375 15.0469C134.667 15.5677 135.781 16.3177 136.719 17.2969C137.667 18.2656 138.396 19.4167 138.906 20.75C139.427 22.0729 139.688 23.5417 139.688 25.1562V26.1094C139.688 27.7135 139.427 29.1823 138.906 30.5156C138.396 31.849 137.672 33 136.734 33.9688C135.797 34.9375 134.688 35.6875 133.406 36.2188C132.135 36.7396 130.74 37 129.219 37ZM127.312 14.25V37H121.828V14.25H127.312ZM151.078 32.75V25.7812C151.078 25.3021 151.01 24.8906 150.875 24.5469C150.74 24.2031 150.526 23.9375 150.234 23.75C149.943 23.5521 149.552 23.4531 149.062 23.4531C148.667 23.4531 148.328 23.5208 148.047 23.6562C147.766 23.7917 147.552 23.9948 147.406 24.2656C147.26 24.5365 147.188 24.8802 147.188 25.2969H141.922C141.922 24.5156 142.094 23.7917 142.438 23.125C142.792 22.4479 143.292 21.8594 143.938 21.3594C144.594 20.8594 145.375 20.474 146.281 20.2031C147.198 19.9219 148.219 19.7812 149.344 19.7812C150.688 19.7812 151.885 20.0052 152.938 20.4531C154 20.901 154.839 21.5729 155.453 22.4688C156.068 23.3542 156.375 24.4688 156.375 25.8125V32.7344C156.375 33.8385 156.438 34.6771 156.562 35.25C156.688 35.8125 156.865 36.3073 157.094 36.7344V37H151.812C151.562 36.4792 151.375 35.8438 151.25 35.0938C151.135 34.3333 151.078 33.5521 151.078 32.75ZM151.719 26.6719L151.75 29.4844H149.422C148.932 29.4844 148.516 29.5521 148.172 29.6875C147.839 29.8229 147.568 30.0104 147.359 30.25C147.161 30.4792 147.016 30.7396 146.922 31.0312C146.839 31.3229 146.797 31.6302 146.797 31.9531C146.797 32.2656 146.87 32.5469 147.016 32.7969C147.172 33.0365 147.38 33.224 147.641 33.3594C147.901 33.4948 148.193 33.5625 148.516 33.5625C149.099 33.5625 149.594 33.4531 150 33.2344C150.417 33.0052 150.734 32.7292 150.953 32.4062C151.172 32.0833 151.281 31.7812 151.281 31.5L152.438 33.6562C152.229 34.0729 151.99 34.4948 151.719 34.9219C151.458 35.349 151.13 35.7448 150.734 36.1094C150.349 36.4635 149.875 36.7552 149.312 36.9844C148.75 37.2031 148.068 37.3125 147.266 37.3125C146.224 37.3125 145.266 37.099 144.391 36.6719C143.526 36.2448 142.833 35.651 142.312 34.8906C141.792 34.1198 141.531 33.2344 141.531 32.2344C141.531 31.3594 141.688 30.5781 142 29.8906C142.323 29.2031 142.807 28.6198 143.453 28.1406C144.099 27.6615 144.922 27.2969 145.922 27.0469C146.922 26.7969 148.099 26.6719 149.453 26.6719H151.719ZM168.203 20.0938V23.75H158.016V20.0938H168.203ZM160.156 15.8906H165.422V31.4844C165.422 31.9323 165.474 32.2812 165.578 32.5312C165.682 32.7708 165.859 32.9427 166.109 33.0469C166.37 33.1406 166.714 33.1875 167.141 33.1875C167.443 33.1875 167.693 33.1823 167.891 33.1719C168.089 33.151 168.276 33.125 168.453 33.0938V36.8594C168.005 37.0052 167.536 37.1146 167.047 37.1875C166.557 37.2708 166.036 37.3125 165.484 37.3125C164.359 37.3125 163.396 37.1354 162.594 36.7812C161.802 36.4271 161.198 35.8698 160.781 35.1094C160.365 34.349 160.156 33.3594 160.156 32.1406V15.8906ZM179.078 32.75V25.7812C179.078 25.3021 179.01 24.8906 178.875 24.5469C178.74 24.2031 178.526 23.9375 178.234 23.75C177.943 23.5521 177.552 23.4531 177.062 23.4531C176.667 23.4531 176.328 23.5208 176.047 23.6562C175.766 23.7917 175.552 23.9948 175.406 24.2656C175.26 24.5365 175.188 24.8802 175.188 25.2969H169.922C169.922 24.5156 170.094 23.7917 170.438 23.125C170.792 22.4479 171.292 21.8594 171.938 21.3594C172.594 20.8594 173.375 20.474 174.281 20.2031C175.198 19.9219 176.219 19.7812 177.344 19.7812C178.688 19.7812 179.885 20.0052 180.938 20.4531C182 20.901 182.839 21.5729 183.453 22.4688C184.068 23.3542 184.375 24.4688 184.375 25.8125V32.7344C184.375 33.8385 184.438 34.6771 184.562 35.25C184.688 35.8125 184.865 36.3073 185.094 36.7344V37H179.812C179.562 36.4792 179.375 35.8438 179.25 35.0938C179.135 34.3333 179.078 33.5521 179.078 32.75ZM179.719 26.6719L179.75 29.4844H177.422C176.932 29.4844 176.516 29.5521 176.172 29.6875C175.839 29.8229 175.568 30.0104 175.359 30.25C175.161 30.4792 175.016 30.7396 174.922 31.0312C174.839 31.3229 174.797 31.6302 174.797 31.9531C174.797 32.2656 174.87 32.5469 175.016 32.7969C175.172 33.0365 175.38 33.224 175.641 33.3594C175.901 33.4948 176.193 33.5625 176.516 33.5625C177.099 33.5625 177.594 33.4531 178 33.2344C178.417 33.0052 178.734 32.7292 178.953 32.4062C179.172 32.0833 179.281 31.7812 179.281 31.5L180.438 33.6562C180.229 34.0729 179.99 34.4948 179.719 34.9219C179.458 35.349 179.13 35.7448 178.734 36.1094C178.349 36.4635 177.875 36.7552 177.312 36.9844C176.75 37.2031 176.068 37.3125 175.266 37.3125C174.224 37.3125 173.266 37.099 172.391 36.6719C171.526 36.2448 170.833 35.651 170.312 34.8906C169.792 34.1198 169.531 33.2344 169.531 32.2344C169.531 31.3594 169.688 30.5781 170 29.8906C170.323 29.2031 170.807 28.6198 171.453 28.1406C172.099 27.6615 172.922 27.2969 173.922 27.0469C174.922 26.7969 176.099 26.6719 177.453 26.6719H179.719ZM196.828 27.3281H190.969L190.938 23.7344H195.688C196.542 23.7344 197.224 23.6406 197.734 23.4531C198.245 23.2552 198.615 22.9688 198.844 22.5938C199.083 22.2188 199.203 21.75 199.203 21.1875C199.203 20.5417 199.083 20.0208 198.844 19.625C198.604 19.2292 198.224 18.9427 197.703 18.7656C197.193 18.5781 196.531 18.4844 195.719 18.4844H193.031V37H187.547V14.25H195.719C197.125 14.25 198.38 14.3802 199.484 14.6406C200.589 14.8906 201.526 15.276 202.297 15.7969C203.078 16.3177 203.672 16.974 204.078 17.7656C204.484 18.5469 204.688 19.4688 204.688 20.5312C204.688 21.4583 204.49 22.3281 204.094 23.1406C203.698 23.9531 203.036 24.6146 202.109 25.125C201.193 25.625 199.938 25.8854 198.344 25.9062L196.828 27.3281ZM196.609 37H189.641L191.516 32.7812H196.609C197.359 32.7812 197.958 32.6667 198.406 32.4375C198.865 32.1979 199.193 31.8854 199.391 31.5C199.599 31.1042 199.703 30.6667 199.703 30.1875C199.703 29.6042 199.604 29.099 199.406 28.6719C199.219 28.2448 198.917 27.9167 198.5 27.6875C198.083 27.4479 197.526 27.3281 196.828 27.3281H192.219L192.25 23.7344H197.766L199.047 25.1719C200.568 25.1094 201.771 25.3229 202.656 25.8125C203.552 26.3021 204.193 26.9479 204.578 27.75C204.964 28.5521 205.156 29.3906 205.156 30.2656C205.156 31.7552 204.833 33 204.188 34C203.552 35 202.599 35.75 201.328 36.25C200.057 36.75 198.484 37 196.609 37ZM216.734 32.75V25.7812C216.734 25.3021 216.667 24.8906 216.531 24.5469C216.396 24.2031 216.182 23.9375 215.891 23.75C215.599 23.5521 215.208 23.4531 214.719 23.4531C214.323 23.4531 213.984 23.5208 213.703 23.6562C213.422 23.7917 213.208 23.9948 213.062 24.2656C212.917 24.5365 212.844 24.8802 212.844 25.2969H207.578C207.578 24.5156 207.75 23.7917 208.094 23.125C208.448 22.4479 208.948 21.8594 209.594 21.3594C210.25 20.8594 211.031 20.474 211.938 20.2031C212.854 19.9219 213.875 19.7812 215 19.7812C216.344 19.7812 217.542 20.0052 218.594 20.4531C219.656 20.901 220.495 21.5729 221.109 22.4688C221.724 23.3542 222.031 24.4688 222.031 25.8125V32.7344C222.031 33.8385 222.094 34.6771 222.219 35.25C222.344 35.8125 222.521 36.3073 222.75 36.7344V37H217.469C217.219 36.4792 217.031 35.8438 216.906 35.0938C216.792 34.3333 216.734 33.5521 216.734 32.75ZM217.375 26.6719L217.406 29.4844H215.078C214.589 29.4844 214.172 29.5521 213.828 29.6875C213.495 29.8229 213.224 30.0104 213.016 30.25C212.818 30.4792 212.672 30.7396 212.578 31.0312C212.495 31.3229 212.453 31.6302 212.453 31.9531C212.453 32.2656 212.526 32.5469 212.672 32.7969C212.828 33.0365 213.036 33.224 213.297 33.3594C213.557 33.4948 213.849 33.5625 214.172 33.5625C214.755 33.5625 215.25 33.4531 215.656 33.2344C216.073 33.0052 216.391 32.7292 216.609 32.4062C216.828 32.0833 216.938 31.7812 216.938 31.5L218.094 33.6562C217.885 34.0729 217.646 34.4948 217.375 34.9219C217.115 35.349 216.786 35.7448 216.391 36.1094C216.005 36.4635 215.531 36.7552 214.969 36.9844C214.406 37.2031 213.724 37.3125 212.922 37.3125C211.88 37.3125 210.922 37.099 210.047 36.6719C209.182 36.2448 208.49 35.651 207.969 34.8906C207.448 34.1198 207.188 33.2344 207.188 32.2344C207.188 31.3594 207.344 30.5781 207.656 29.8906C207.979 29.2031 208.464 28.6198 209.109 28.1406C209.755 27.6615 210.578 27.2969 211.578 27.0469C212.578 26.7969 213.755 26.6719 215.109 26.6719H217.375ZM233.812 32.25C233.812 31.9583 233.714 31.7083 233.516 31.5C233.328 31.2812 232.995 31.0833 232.516 30.9062C232.036 30.7188 231.365 30.5312 230.5 30.3438C229.677 30.1667 228.901 29.9323 228.172 29.6406C227.453 29.349 226.823 28.9948 226.281 28.5781C225.74 28.1615 225.312 27.6667 225 27.0938C224.698 26.5208 224.547 25.8646 224.547 25.125C224.547 24.4062 224.698 23.7292 225 23.0938C225.312 22.4479 225.766 21.8802 226.359 21.3906C226.964 20.8906 227.698 20.5 228.562 20.2188C229.427 19.9271 230.411 19.7812 231.516 19.7812C233.036 19.7812 234.349 20.0156 235.453 20.4844C236.557 20.9427 237.406 21.5885 238 22.4219C238.604 23.2448 238.906 24.1979 238.906 25.2812H233.641C233.641 24.8542 233.568 24.4896 233.422 24.1875C233.286 23.8854 233.062 23.6562 232.75 23.5C232.438 23.3333 232.021 23.25 231.5 23.25C231.135 23.25 230.802 23.3177 230.5 23.4531C230.208 23.5885 229.974 23.776 229.797 24.0156C229.62 24.2552 229.531 24.5365 229.531 24.8594C229.531 25.0885 229.583 25.2969 229.688 25.4844C229.802 25.6615 229.974 25.8281 230.203 25.9844C230.432 26.1302 230.724 26.2656 231.078 26.3906C231.432 26.5052 231.859 26.6094 232.359 26.7031C233.495 26.9115 234.557 27.2083 235.547 27.5938C236.536 27.9792 237.339 28.526 237.953 29.2344C238.578 29.9427 238.891 30.8958 238.891 32.0938C238.891 32.8438 238.719 33.5365 238.375 34.1719C238.031 34.7969 237.536 35.349 236.891 35.8281C236.245 36.2969 235.469 36.6615 234.562 36.9219C233.656 37.1823 232.635 37.3125 231.5 37.3125C229.885 37.3125 228.521 37.026 227.406 36.4531C226.292 35.8698 225.448 35.1406 224.875 34.2656C224.312 33.3802 224.031 32.4844 224.031 31.5781H228.938C228.958 32.099 229.083 32.526 229.312 32.8594C229.552 33.1927 229.87 33.4375 230.266 33.5938C230.661 33.75 231.12 33.8281 231.641 33.8281C232.12 33.8281 232.516 33.7604 232.828 33.625C233.151 33.4896 233.396 33.3073 233.562 33.0781C233.729 32.8385 233.812 32.5625 233.812 32.25ZM249.547 37.3125C248.172 37.3125 246.943 37.099 245.859 36.6719C244.776 36.2344 243.859 35.6354 243.109 34.875C242.37 34.1146 241.802 33.2396 241.406 32.25C241.021 31.2604 240.828 30.2135 240.828 29.1094V28.5156C240.828 27.276 241 26.1302 241.344 25.0781C241.688 24.0156 242.198 23.0885 242.875 22.2969C243.552 21.5052 244.401 20.8906 245.422 20.4531C246.443 20.0052 247.63 19.7812 248.984 19.7812C250.182 19.7812 251.255 19.974 252.203 20.3594C253.151 20.7448 253.953 21.2969 254.609 22.0156C255.276 22.7344 255.781 23.6042 256.125 24.625C256.479 25.6458 256.656 26.7917 256.656 28.0625V30.2031H242.844V26.9062H251.516V26.5C251.526 25.9375 251.427 25.4583 251.219 25.0625C251.021 24.6667 250.729 24.3646 250.344 24.1562C249.958 23.9479 249.49 23.8438 248.938 23.8438C248.365 23.8438 247.891 23.9688 247.516 24.2188C247.151 24.4688 246.865 24.8125 246.656 25.25C246.458 25.6771 246.318 26.1719 246.234 26.7344C246.151 27.2969 246.109 27.8906 246.109 28.5156V29.1094C246.109 29.7344 246.193 30.3021 246.359 30.8125C246.536 31.3229 246.786 31.7604 247.109 32.125C247.443 32.4792 247.839 32.7552 248.297 32.9531C248.766 33.151 249.297 33.25 249.891 33.25C250.609 33.25 251.318 33.1146 252.016 32.8438C252.714 32.5729 253.312 32.125 253.812 31.5L256.203 34.3438C255.859 34.8333 255.37 35.3073 254.734 35.7656C254.109 36.224 253.359 36.599 252.484 36.8906C251.609 37.1719 250.63 37.3125 249.547 37.3125Z" fill="white"/>
</svg>
