<svg width="268" height="205" viewBox="0 0 268 205" fill="none" xmlns="http://www.w3.org/2000/svg">
<path d="M20.3311 144.523V157.32H18.6348V144.523H20.3311ZM25.6924 150.28V151.669H19.9619V150.28H25.6924ZM26.5625 144.523V145.912H19.9619V144.523H26.5625ZM30.1045 147.811V157.32H28.4697V147.811H30.1045ZM28.3467 145.288C28.3467 145.024 28.4258 144.802 28.584 144.62C28.748 144.438 28.9883 144.348 29.3047 144.348C29.6152 144.348 29.8525 144.438 30.0166 144.62C30.1865 144.802 30.2715 145.024 30.2715 145.288C30.2715 145.54 30.1865 145.757 30.0166 145.938C29.8525 146.114 29.6152 146.202 29.3047 146.202C28.9883 146.202 28.748 146.114 28.584 145.938C28.4258 145.757 28.3467 145.54 28.3467 145.288ZM38.876 147.811H40.3525V157.118C40.3525 157.956 40.1826 158.671 39.8428 159.263C39.5029 159.854 39.0283 160.303 38.4189 160.607C37.8154 160.918 37.1182 161.073 36.3271 161.073C35.999 161.073 35.6123 161.021 35.167 160.915C34.7275 160.815 34.2939 160.643 33.8662 160.396C33.4443 160.156 33.0898 159.831 32.8027 159.421L33.6553 158.454C34.0537 158.935 34.4697 159.269 34.9033 159.456C35.3428 159.644 35.7764 159.737 36.2041 159.737C36.7197 159.737 37.165 159.641 37.54 159.447C37.915 159.254 38.2051 158.967 38.4102 158.586C38.6211 158.211 38.7266 157.748 38.7266 157.197V149.902L38.876 147.811ZM32.3281 152.671V152.486C32.3281 151.76 32.4131 151.101 32.583 150.509C32.7588 149.911 33.0078 149.398 33.3301 148.971C33.6582 148.543 34.0537 148.215 34.5166 147.986C34.9795 147.752 35.501 147.635 36.0811 147.635C36.6787 147.635 37.2002 147.74 37.6455 147.951C38.0967 148.156 38.4775 148.458 38.7881 148.856C39.1045 149.249 39.3535 149.724 39.5352 150.28C39.7168 150.837 39.8428 151.467 39.9131 152.17V152.979C39.8486 153.676 39.7227 154.303 39.5352 154.859C39.3535 155.416 39.1045 155.891 38.7881 156.283C38.4775 156.676 38.0967 156.978 37.6455 157.188C37.1943 157.394 36.667 157.496 36.0635 157.496C35.4951 157.496 34.9795 157.376 34.5166 157.136C34.0596 156.896 33.667 156.559 33.3389 156.125C33.0107 155.691 32.7588 155.182 32.583 154.596C32.4131 154.004 32.3281 153.362 32.3281 152.671ZM33.9541 152.486V152.671C33.9541 153.146 34.001 153.591 34.0947 154.007C34.1943 154.423 34.3438 154.789 34.543 155.105C34.748 155.422 35.0088 155.671 35.3252 155.853C35.6416 156.028 36.0195 156.116 36.459 156.116C36.998 156.116 37.4434 156.002 37.7949 155.773C38.1465 155.545 38.4248 155.243 38.6299 154.868C38.8408 154.493 39.0049 154.086 39.1221 153.646V151.528C39.0576 151.206 38.958 150.896 38.8232 150.597C38.6943 150.292 38.5244 150.022 38.3135 149.788C38.1084 149.548 37.8535 149.357 37.5488 149.217C37.2441 149.076 36.8867 149.006 36.4766 149.006C36.0312 149.006 35.6475 149.1 35.3252 149.287C35.0088 149.469 34.748 149.721 34.543 150.043C34.3438 150.359 34.1943 150.729 34.0947 151.15C34.001 151.566 33.9541 152.012 33.9541 152.486ZM44.4395 149.7V157.32H42.8047V147.811H44.3516L44.4395 149.7ZM44.1055 152.205L43.3496 152.179C43.3555 151.528 43.4404 150.928 43.6045 150.377C43.7686 149.82 44.0117 149.337 44.334 148.927C44.6562 148.517 45.0576 148.2 45.5381 147.978C46.0186 147.749 46.5752 147.635 47.208 147.635C47.6533 147.635 48.0635 147.699 48.4385 147.828C48.8135 147.951 49.1387 148.147 49.4141 148.417C49.6895 148.687 49.9033 149.032 50.0557 149.454C50.208 149.876 50.2842 150.386 50.2842 150.983V157.32H48.6582V151.062C48.6582 150.564 48.5732 150.166 48.4033 149.867C48.2393 149.568 48.0049 149.352 47.7002 149.217C47.3955 149.076 47.0381 149.006 46.6279 149.006C46.1475 149.006 45.7461 149.091 45.4238 149.261C45.1016 149.431 44.8438 149.665 44.6504 149.964C44.457 150.263 44.3164 150.605 44.2285 150.992C44.1465 151.373 44.1055 151.777 44.1055 152.205ZM50.2666 151.309L49.1768 151.643C49.1826 151.121 49.2676 150.62 49.4316 150.14C49.6016 149.659 49.8447 149.231 50.1611 148.856C50.4834 148.481 50.8789 148.186 51.3477 147.969C51.8164 147.746 52.3525 147.635 52.9561 147.635C53.4658 147.635 53.917 147.702 54.3096 147.837C54.708 147.972 55.042 148.18 55.3115 148.461C55.5869 148.736 55.7949 149.091 55.9355 149.524C56.0762 149.958 56.1465 150.474 56.1465 151.071V157.32H54.5117V151.054C54.5117 150.521 54.4268 150.107 54.2568 149.814C54.0928 149.516 53.8584 149.308 53.5537 149.19C53.2549 149.067 52.8975 149.006 52.4814 149.006C52.124 149.006 51.8076 149.067 51.5322 149.19C51.2568 149.313 51.0254 149.483 50.8379 149.7C50.6504 149.911 50.5068 150.154 50.4072 150.43C50.3135 150.705 50.2666 150.998 50.2666 151.309ZM64.2148 155.694V150.799C64.2148 150.424 64.1387 150.099 63.9863 149.823C63.8398 149.542 63.6172 149.325 63.3184 149.173C63.0195 149.021 62.6504 148.944 62.2109 148.944C61.8008 148.944 61.4404 149.015 61.1299 149.155C60.8252 149.296 60.585 149.48 60.4092 149.709C60.2393 149.938 60.1543 150.184 60.1543 150.447H58.5283C58.5283 150.107 58.6162 149.771 58.792 149.437C58.9678 149.103 59.2197 148.801 59.5479 148.531C59.8818 148.256 60.2803 148.039 60.7432 147.881C61.2119 147.717 61.7334 147.635 62.3076 147.635C62.999 147.635 63.6084 147.752 64.1357 147.986C64.6689 148.221 65.085 148.575 65.3838 149.05C65.6885 149.519 65.8408 150.107 65.8408 150.816V155.246C65.8408 155.562 65.8672 155.899 65.9199 156.257C65.9785 156.614 66.0635 156.922 66.1748 157.18V157.32H64.4785C64.3965 157.133 64.332 156.884 64.2852 156.573C64.2383 156.257 64.2148 155.964 64.2148 155.694ZM64.4961 151.555L64.5137 152.697H62.8701C62.4072 152.697 61.9941 152.735 61.6309 152.812C61.2676 152.882 60.9629 152.99 60.7168 153.137C60.4707 153.283 60.2832 153.468 60.1543 153.69C60.0254 153.907 59.9609 154.162 59.9609 154.455C59.9609 154.754 60.0283 155.026 60.1631 155.272C60.2979 155.519 60.5 155.715 60.7695 155.861C61.0449 156.002 61.3818 156.072 61.7803 156.072C62.2783 156.072 62.7178 155.967 63.0986 155.756C63.4795 155.545 63.7812 155.287 64.0039 154.982C64.2324 154.678 64.3555 154.382 64.373 154.095L65.0674 154.877C65.0264 155.123 64.915 155.396 64.7334 155.694C64.5518 155.993 64.3086 156.28 64.0039 156.556C63.7051 156.825 63.3477 157.051 62.9316 157.232C62.5215 157.408 62.0586 157.496 61.543 157.496C60.8984 157.496 60.333 157.37 59.8467 157.118C59.3662 156.866 58.9912 156.529 58.7217 156.107C58.458 155.68 58.3262 155.202 58.3262 154.675C58.3262 154.165 58.4258 153.717 58.625 153.33C58.8242 152.938 59.1113 152.612 59.4863 152.354C59.8613 152.091 60.3125 151.892 60.8398 151.757C61.3672 151.622 61.9561 151.555 62.6064 151.555H64.4961ZM74.4893 149.639V160.977H72.8545V147.811H74.3486L74.4893 149.639ZM80.8965 152.486V152.671C80.8965 153.362 80.8145 154.004 80.6504 154.596C80.4863 155.182 80.2461 155.691 79.9297 156.125C79.6191 156.559 79.2354 156.896 78.7783 157.136C78.3213 157.376 77.7969 157.496 77.2051 157.496C76.6016 157.496 76.0684 157.396 75.6055 157.197C75.1426 156.998 74.75 156.708 74.4277 156.327C74.1055 155.946 73.8477 155.489 73.6543 154.956C73.4668 154.423 73.3379 153.822 73.2676 153.154V152.17C73.3379 151.467 73.4697 150.837 73.6631 150.28C73.8564 149.724 74.1113 149.249 74.4277 148.856C74.75 148.458 75.1396 148.156 75.5967 147.951C76.0537 147.74 76.5811 147.635 77.1787 147.635C77.7764 147.635 78.3066 147.752 78.7695 147.986C79.2324 148.215 79.6221 148.543 79.9385 148.971C80.2549 149.398 80.4922 149.911 80.6504 150.509C80.8145 151.101 80.8965 151.76 80.8965 152.486ZM79.2617 152.671V152.486C79.2617 152.012 79.2119 151.566 79.1123 151.15C79.0127 150.729 78.8574 150.359 78.6465 150.043C78.4414 149.721 78.1777 149.469 77.8555 149.287C77.5332 149.1 77.1494 149.006 76.7041 149.006C76.2939 149.006 75.9365 149.076 75.6318 149.217C75.333 149.357 75.0781 149.548 74.8672 149.788C74.6562 150.022 74.4834 150.292 74.3486 150.597C74.2197 150.896 74.123 151.206 74.0586 151.528V153.805C74.1758 154.215 74.3398 154.602 74.5508 154.965C74.7617 155.322 75.043 155.612 75.3945 155.835C75.7461 156.052 76.1885 156.16 76.7217 156.16C77.1611 156.16 77.5391 156.069 77.8555 155.888C78.1777 155.7 78.4414 155.445 78.6465 155.123C78.8574 154.801 79.0127 154.432 79.1123 154.016C79.2119 153.594 79.2617 153.146 79.2617 152.671ZM84.5967 149.305V157.32H82.9707V147.811H84.5527L84.5967 149.305ZM87.5674 147.758L87.5586 149.27C87.4238 149.24 87.2949 149.223 87.1719 149.217C87.0547 149.205 86.9199 149.199 86.7676 149.199C86.3926 149.199 86.0615 149.258 85.7744 149.375C85.4873 149.492 85.2441 149.656 85.0449 149.867C84.8457 150.078 84.6875 150.33 84.5703 150.623C84.459 150.91 84.3857 151.227 84.3506 151.572L83.8936 151.836C83.8936 151.262 83.9492 150.723 84.0605 150.219C84.1777 149.715 84.3564 149.27 84.5967 148.883C84.8369 148.49 85.1416 148.186 85.5107 147.969C85.8857 147.746 86.3311 147.635 86.8467 147.635C86.9639 147.635 87.0986 147.649 87.251 147.679C87.4033 147.702 87.5088 147.729 87.5674 147.758ZM88.4639 152.671V152.469C88.4639 151.783 88.5635 151.147 88.7627 150.562C88.9619 149.97 89.249 149.457 89.624 149.023C89.999 148.584 90.4531 148.244 90.9863 148.004C91.5195 147.758 92.1172 147.635 92.7793 147.635C93.4473 147.635 94.0479 147.758 94.5811 148.004C95.1201 148.244 95.5771 148.584 95.9521 149.023C96.333 149.457 96.623 149.97 96.8223 150.562C97.0215 151.147 97.1211 151.783 97.1211 152.469V152.671C97.1211 153.356 97.0215 153.992 96.8223 154.578C96.623 155.164 96.333 155.677 95.9521 156.116C95.5771 156.55 95.123 156.89 94.5898 157.136C94.0625 157.376 93.4648 157.496 92.7969 157.496C92.1289 157.496 91.5283 157.376 90.9951 157.136C90.4619 156.89 90.0049 156.55 89.624 156.116C89.249 155.677 88.9619 155.164 88.7627 154.578C88.5635 153.992 88.4639 153.356 88.4639 152.671ZM90.0898 152.469V152.671C90.0898 153.146 90.1455 153.594 90.2568 154.016C90.3682 154.432 90.5352 154.801 90.7578 155.123C90.9863 155.445 91.2705 155.7 91.6104 155.888C91.9502 156.069 92.3457 156.16 92.7969 156.16C93.2422 156.16 93.6318 156.069 93.9658 155.888C94.3057 155.7 94.5869 155.445 94.8096 155.123C95.0322 154.801 95.1992 154.432 95.3105 154.016C95.4277 153.594 95.4863 153.146 95.4863 152.671V152.469C95.4863 152 95.4277 151.558 95.3105 151.142C95.1992 150.72 95.0293 150.348 94.8008 150.025C94.5781 149.697 94.2969 149.439 93.957 149.252C93.623 149.064 93.2305 148.971 92.7793 148.971C92.334 148.971 91.9414 149.064 91.6016 149.252C91.2676 149.439 90.9863 149.697 90.7578 150.025C90.5352 150.348 90.3682 150.72 90.2568 151.142C90.1455 151.558 90.0898 152 90.0898 152.469ZM99.2041 147.811H100.839V158.454C100.839 159.034 100.745 159.526 100.558 159.931C100.376 160.335 100.101 160.64 99.7314 160.845C99.3682 161.056 98.9082 161.161 98.3516 161.161C98.2051 161.161 98.0352 161.146 97.8418 161.117C97.6426 161.088 97.4756 161.053 97.3408 161.012L97.3496 159.702C97.4609 159.726 97.5869 159.743 97.7275 159.755C97.8682 159.772 97.9912 159.781 98.0967 159.781C98.3369 159.781 98.5391 159.737 98.7031 159.649C98.8672 159.562 98.9902 159.421 99.0723 159.228C99.1602 159.034 99.2041 158.776 99.2041 158.454V147.811ZM99.0371 145.288C99.0371 145.024 99.1191 144.802 99.2832 144.62C99.4473 144.438 99.6846 144.348 99.9951 144.348C100.312 144.348 100.552 144.438 100.716 144.62C100.88 144.802 100.962 145.024 100.962 145.288C100.962 145.54 100.88 145.757 100.716 145.938C100.552 146.114 100.312 146.202 99.9951 146.202C99.6846 146.202 99.4473 146.114 99.2832 145.938C99.1191 145.757 99.0371 145.54 99.0371 145.288ZM107.413 157.496C106.751 157.496 106.15 157.385 105.611 157.162C105.078 156.934 104.618 156.614 104.231 156.204C103.851 155.794 103.558 155.308 103.353 154.745C103.147 154.183 103.045 153.567 103.045 152.899V152.53C103.045 151.757 103.159 151.068 103.388 150.465C103.616 149.855 103.927 149.34 104.319 148.918C104.712 148.496 105.157 148.177 105.655 147.96C106.153 147.743 106.669 147.635 107.202 147.635C107.882 147.635 108.468 147.752 108.96 147.986C109.458 148.221 109.865 148.549 110.182 148.971C110.498 149.387 110.732 149.879 110.885 150.447C111.037 151.01 111.113 151.625 111.113 152.293V153.022H104.012V151.695H109.487V151.572C109.464 151.15 109.376 150.74 109.224 150.342C109.077 149.943 108.843 149.615 108.521 149.357C108.198 149.1 107.759 148.971 107.202 148.971C106.833 148.971 106.493 149.05 106.183 149.208C105.872 149.36 105.605 149.589 105.383 149.894C105.16 150.198 104.987 150.57 104.864 151.01C104.741 151.449 104.68 151.956 104.68 152.53V152.899C104.68 153.351 104.741 153.775 104.864 154.174C104.993 154.566 105.178 154.912 105.418 155.211C105.664 155.51 105.96 155.744 106.306 155.914C106.657 156.084 107.056 156.169 107.501 156.169C108.075 156.169 108.562 156.052 108.96 155.817C109.358 155.583 109.707 155.27 110.006 154.877L110.99 155.659C110.785 155.97 110.524 156.266 110.208 156.547C109.892 156.828 109.502 157.057 109.039 157.232C108.582 157.408 108.04 157.496 107.413 157.496ZM116.817 156.16C117.204 156.16 117.562 156.081 117.89 155.923C118.218 155.765 118.487 155.548 118.698 155.272C118.909 154.991 119.029 154.672 119.059 154.314H120.605C120.576 154.877 120.386 155.401 120.034 155.888C119.688 156.368 119.234 156.758 118.672 157.057C118.109 157.35 117.491 157.496 116.817 157.496C116.103 157.496 115.479 157.37 114.945 157.118C114.418 156.866 113.979 156.521 113.627 156.081C113.281 155.642 113.021 155.138 112.845 154.569C112.675 153.995 112.59 153.389 112.59 152.75V152.381C112.59 151.742 112.675 151.139 112.845 150.57C113.021 149.996 113.281 149.489 113.627 149.05C113.979 148.61 114.418 148.265 114.945 148.013C115.479 147.761 116.103 147.635 116.817 147.635C117.562 147.635 118.212 147.787 118.769 148.092C119.325 148.391 119.762 148.801 120.078 149.322C120.4 149.838 120.576 150.424 120.605 151.08H119.059C119.029 150.688 118.918 150.333 118.725 150.017C118.537 149.7 118.279 149.448 117.951 149.261C117.629 149.067 117.251 148.971 116.817 148.971C116.319 148.971 115.9 149.07 115.561 149.27C115.227 149.463 114.96 149.727 114.761 150.061C114.567 150.389 114.427 150.755 114.339 151.159C114.257 151.558 114.216 151.965 114.216 152.381V152.75C114.216 153.166 114.257 153.576 114.339 153.98C114.421 154.385 114.559 154.751 114.752 155.079C114.951 155.407 115.218 155.671 115.552 155.87C115.892 156.063 116.313 156.16 116.817 156.16ZM126.415 147.811V149.059H121.273V147.811H126.415ZM123.014 145.499H124.64V154.965C124.64 155.287 124.689 155.53 124.789 155.694C124.889 155.858 125.018 155.967 125.176 156.02C125.334 156.072 125.504 156.099 125.686 156.099C125.82 156.099 125.961 156.087 126.107 156.063C126.26 156.034 126.374 156.011 126.45 155.993L126.459 157.32C126.33 157.361 126.16 157.399 125.949 157.435C125.744 157.476 125.495 157.496 125.202 157.496C124.804 157.496 124.438 157.417 124.104 157.259C123.77 157.101 123.503 156.837 123.304 156.468C123.11 156.093 123.014 155.589 123.014 154.956V145.499ZM135.213 157.32H133.587V146.809C133.587 146.123 133.71 145.546 133.956 145.077C134.208 144.603 134.568 144.245 135.037 144.005C135.506 143.759 136.062 143.636 136.707 143.636C136.895 143.636 137.082 143.647 137.27 143.671C137.463 143.694 137.65 143.729 137.832 143.776L137.744 145.104C137.621 145.074 137.48 145.054 137.322 145.042C137.17 145.03 137.018 145.024 136.865 145.024C136.52 145.024 136.221 145.095 135.969 145.235C135.723 145.37 135.535 145.569 135.406 145.833C135.277 146.097 135.213 146.422 135.213 146.809V157.32ZM137.234 147.811V149.059H132.084V147.811H137.234ZM138.614 152.671V152.469C138.614 151.783 138.714 151.147 138.913 150.562C139.112 149.97 139.399 149.457 139.774 149.023C140.149 148.584 140.604 148.244 141.137 148.004C141.67 147.758 142.268 147.635 142.93 147.635C143.598 147.635 144.198 147.758 144.731 148.004C145.271 148.244 145.728 148.584 146.103 149.023C146.483 149.457 146.773 149.97 146.973 150.562C147.172 151.147 147.271 151.783 147.271 152.469V152.671C147.271 153.356 147.172 153.992 146.973 154.578C146.773 155.164 146.483 155.677 146.103 156.116C145.728 156.55 145.273 156.89 144.74 157.136C144.213 157.376 143.615 157.496 142.947 157.496C142.279 157.496 141.679 157.376 141.146 157.136C140.612 156.89 140.155 156.55 139.774 156.116C139.399 155.677 139.112 155.164 138.913 154.578C138.714 153.992 138.614 153.356 138.614 152.671ZM140.24 152.469V152.671C140.24 153.146 140.296 153.594 140.407 154.016C140.519 154.432 140.686 154.801 140.908 155.123C141.137 155.445 141.421 155.7 141.761 155.888C142.101 156.069 142.496 156.16 142.947 156.16C143.393 156.16 143.782 156.069 144.116 155.888C144.456 155.7 144.737 155.445 144.96 155.123C145.183 154.801 145.35 154.432 145.461 154.016C145.578 153.594 145.637 153.146 145.637 152.671V152.469C145.637 152 145.578 151.558 145.461 151.142C145.35 150.72 145.18 150.348 144.951 150.025C144.729 149.697 144.447 149.439 144.107 149.252C143.773 149.064 143.381 148.971 142.93 148.971C142.484 148.971 142.092 149.064 141.752 149.252C141.418 149.439 141.137 149.697 140.908 150.025C140.686 150.348 140.519 150.72 140.407 151.142C140.296 151.558 140.24 152 140.24 152.469ZM150.937 149.305V157.32H149.311V147.811H150.893L150.937 149.305ZM153.907 147.758L153.898 149.27C153.764 149.24 153.635 149.223 153.512 149.217C153.395 149.205 153.26 149.199 153.107 149.199C152.732 149.199 152.401 149.258 152.114 149.375C151.827 149.492 151.584 149.656 151.385 149.867C151.186 150.078 151.027 150.33 150.91 150.623C150.799 150.91 150.726 151.227 150.69 151.572L150.233 151.836C150.233 151.262 150.289 150.723 150.4 150.219C150.518 149.715 150.696 149.27 150.937 148.883C151.177 148.49 151.481 148.186 151.851 147.969C152.226 147.746 152.671 147.635 153.187 147.635C153.304 147.635 153.438 147.649 153.591 147.679C153.743 147.702 153.849 147.729 153.907 147.758ZM165.482 155.694V150.799C165.482 150.424 165.406 150.099 165.254 149.823C165.107 149.542 164.885 149.325 164.586 149.173C164.287 149.021 163.918 148.944 163.479 148.944C163.068 148.944 162.708 149.015 162.397 149.155C162.093 149.296 161.853 149.48 161.677 149.709C161.507 149.938 161.422 150.184 161.422 150.447H159.796C159.796 150.107 159.884 149.771 160.06 149.437C160.235 149.103 160.487 148.801 160.815 148.531C161.149 148.256 161.548 148.039 162.011 147.881C162.479 147.717 163.001 147.635 163.575 147.635C164.267 147.635 164.876 147.752 165.403 147.986C165.937 148.221 166.353 148.575 166.651 149.05C166.956 149.519 167.108 150.107 167.108 150.816V155.246C167.108 155.562 167.135 155.899 167.188 156.257C167.246 156.614 167.331 156.922 167.442 157.18V157.32H165.746C165.664 157.133 165.6 156.884 165.553 156.573C165.506 156.257 165.482 155.964 165.482 155.694ZM165.764 151.555L165.781 152.697H164.138C163.675 152.697 163.262 152.735 162.898 152.812C162.535 152.882 162.23 152.99 161.984 153.137C161.738 153.283 161.551 153.468 161.422 153.69C161.293 153.907 161.229 154.162 161.229 154.455C161.229 154.754 161.296 155.026 161.431 155.272C161.565 155.519 161.768 155.715 162.037 155.861C162.312 156.002 162.649 156.072 163.048 156.072C163.546 156.072 163.985 155.967 164.366 155.756C164.747 155.545 165.049 155.287 165.271 154.982C165.5 154.678 165.623 154.382 165.641 154.095L166.335 154.877C166.294 155.123 166.183 155.396 166.001 155.694C165.819 155.993 165.576 156.28 165.271 156.556C164.973 156.825 164.615 157.051 164.199 157.232C163.789 157.408 163.326 157.496 162.811 157.496C162.166 157.496 161.601 157.37 161.114 157.118C160.634 156.866 160.259 156.529 159.989 156.107C159.726 155.68 159.594 155.202 159.594 154.675C159.594 154.165 159.693 153.717 159.893 153.33C160.092 152.938 160.379 152.612 160.754 152.354C161.129 152.091 161.58 151.892 162.107 151.757C162.635 151.622 163.224 151.555 163.874 151.555H165.764ZM179.747 153.585V144.523H181.435V153.585C181.435 154.429 181.262 155.141 180.916 155.721C180.57 156.301 180.093 156.743 179.483 157.048C178.88 157.347 178.186 157.496 177.4 157.496C176.615 157.496 175.918 157.361 175.309 157.092C174.699 156.822 174.222 156.412 173.876 155.861C173.53 155.311 173.357 154.616 173.357 153.778H175.054C175.054 154.317 175.153 154.76 175.353 155.105C175.552 155.451 175.827 155.706 176.179 155.87C176.536 156.034 176.943 156.116 177.4 156.116C177.846 156.116 178.244 156.022 178.596 155.835C178.953 155.642 179.234 155.357 179.439 154.982C179.645 154.602 179.747 154.136 179.747 153.585ZM189.67 155.694V150.799C189.67 150.424 189.594 150.099 189.441 149.823C189.295 149.542 189.072 149.325 188.773 149.173C188.475 149.021 188.105 148.944 187.666 148.944C187.256 148.944 186.896 149.015 186.585 149.155C186.28 149.296 186.04 149.48 185.864 149.709C185.694 149.938 185.609 150.184 185.609 150.447H183.983C183.983 150.107 184.071 149.771 184.247 149.437C184.423 149.103 184.675 148.801 185.003 148.531C185.337 148.256 185.735 148.039 186.198 147.881C186.667 147.717 187.188 147.635 187.763 147.635C188.454 147.635 189.063 147.752 189.591 147.986C190.124 148.221 190.54 148.575 190.839 149.05C191.144 149.519 191.296 150.107 191.296 150.816V155.246C191.296 155.562 191.322 155.899 191.375 156.257C191.434 156.614 191.519 156.922 191.63 157.18V157.32H189.934C189.852 157.133 189.787 156.884 189.74 156.573C189.693 156.257 189.67 155.964 189.67 155.694ZM189.951 151.555L189.969 152.697H188.325C187.862 152.697 187.449 152.735 187.086 152.812C186.723 152.882 186.418 152.99 186.172 153.137C185.926 153.283 185.738 153.468 185.609 153.69C185.48 153.907 185.416 154.162 185.416 154.455C185.416 154.754 185.483 155.026 185.618 155.272C185.753 155.519 185.955 155.715 186.225 155.861C186.5 156.002 186.837 156.072 187.235 156.072C187.733 156.072 188.173 155.967 188.554 155.756C188.935 155.545 189.236 155.287 189.459 154.982C189.688 154.678 189.811 154.382 189.828 154.095L190.522 154.877C190.481 155.123 190.37 155.396 190.188 155.694C190.007 155.993 189.764 156.28 189.459 156.556C189.16 156.825 188.803 157.051 188.387 157.232C187.977 157.408 187.514 157.496 186.998 157.496C186.354 157.496 185.788 157.37 185.302 157.118C184.821 156.866 184.446 156.529 184.177 156.107C183.913 155.68 183.781 155.202 183.781 154.675C183.781 154.165 183.881 153.717 184.08 153.33C184.279 152.938 184.566 152.612 184.941 152.354C185.316 152.091 185.768 151.892 186.295 151.757C186.822 151.622 187.411 151.555 188.062 151.555H189.951ZM195.479 149.639V160.977H193.845V147.811H195.339L195.479 149.639ZM201.887 152.486V152.671C201.887 153.362 201.805 154.004 201.641 154.596C201.477 155.182 201.236 155.691 200.92 156.125C200.609 156.559 200.226 156.896 199.769 157.136C199.312 157.376 198.787 157.496 198.195 157.496C197.592 157.496 197.059 157.396 196.596 157.197C196.133 156.998 195.74 156.708 195.418 156.327C195.096 155.946 194.838 155.489 194.645 154.956C194.457 154.423 194.328 153.822 194.258 153.154V152.17C194.328 151.467 194.46 150.837 194.653 150.28C194.847 149.724 195.102 149.249 195.418 148.856C195.74 148.458 196.13 148.156 196.587 147.951C197.044 147.74 197.571 147.635 198.169 147.635C198.767 147.635 199.297 147.752 199.76 147.986C200.223 148.215 200.612 148.543 200.929 148.971C201.245 149.398 201.482 149.911 201.641 150.509C201.805 151.101 201.887 151.76 201.887 152.486ZM200.252 152.671V152.486C200.252 152.012 200.202 151.566 200.103 151.15C200.003 150.729 199.848 150.359 199.637 150.043C199.432 149.721 199.168 149.469 198.846 149.287C198.523 149.1 198.14 149.006 197.694 149.006C197.284 149.006 196.927 149.076 196.622 149.217C196.323 149.357 196.068 149.548 195.857 149.788C195.646 150.022 195.474 150.292 195.339 150.597C195.21 150.896 195.113 151.206 195.049 151.528V153.805C195.166 154.215 195.33 154.602 195.541 154.965C195.752 155.322 196.033 155.612 196.385 155.835C196.736 156.052 197.179 156.16 197.712 156.16C198.151 156.16 198.529 156.069 198.846 155.888C199.168 155.7 199.432 155.445 199.637 155.123C199.848 154.801 200.003 154.432 200.103 154.016C200.202 153.594 200.252 153.146 200.252 152.671ZM209.568 155.694V150.799C209.568 150.424 209.492 150.099 209.34 149.823C209.193 149.542 208.971 149.325 208.672 149.173C208.373 149.021 208.004 148.944 207.564 148.944C207.154 148.944 206.794 149.015 206.483 149.155C206.179 149.296 205.938 149.48 205.763 149.709C205.593 149.938 205.508 150.184 205.508 150.447H203.882C203.882 150.107 203.97 149.771 204.146 149.437C204.321 149.103 204.573 148.801 204.901 148.531C205.235 148.256 205.634 148.039 206.097 147.881C206.565 147.717 207.087 147.635 207.661 147.635C208.353 147.635 208.962 147.752 209.489 147.986C210.022 148.221 210.438 148.575 210.737 149.05C211.042 149.519 211.194 150.107 211.194 150.816V155.246C211.194 155.562 211.221 155.899 211.273 156.257C211.332 156.614 211.417 156.922 211.528 157.18V157.32H209.832C209.75 157.133 209.686 156.884 209.639 156.573C209.592 156.257 209.568 155.964 209.568 155.694ZM209.85 151.555L209.867 152.697H208.224C207.761 152.697 207.348 152.735 206.984 152.812C206.621 152.882 206.316 152.99 206.07 153.137C205.824 153.283 205.637 153.468 205.508 153.69C205.379 153.907 205.314 154.162 205.314 154.455C205.314 154.754 205.382 155.026 205.517 155.272C205.651 155.519 205.854 155.715 206.123 155.861C206.398 156.002 206.735 156.072 207.134 156.072C207.632 156.072 208.071 155.967 208.452 155.756C208.833 155.545 209.135 155.287 209.357 154.982C209.586 154.678 209.709 154.382 209.727 154.095L210.421 154.877C210.38 155.123 210.269 155.396 210.087 155.694C209.905 155.993 209.662 156.28 209.357 156.556C209.059 156.825 208.701 157.051 208.285 157.232C207.875 157.408 207.412 157.496 206.896 157.496C206.252 157.496 205.687 157.37 205.2 157.118C204.72 156.866 204.345 156.529 204.075 156.107C203.812 155.68 203.68 155.202 203.68 154.675C203.68 154.165 203.779 153.717 203.979 153.33C204.178 152.938 204.465 152.612 204.84 152.354C205.215 152.091 205.666 151.892 206.193 151.757C206.721 151.622 207.31 151.555 207.96 151.555H209.85ZM215.378 149.841V157.32H213.752V147.811H215.29L215.378 149.841ZM214.991 152.205L214.314 152.179C214.32 151.528 214.417 150.928 214.604 150.377C214.792 149.82 215.056 149.337 215.396 148.927C215.735 148.517 216.14 148.2 216.608 147.978C217.083 147.749 217.607 147.635 218.182 147.635C218.65 147.635 219.072 147.699 219.447 147.828C219.822 147.951 220.142 148.15 220.405 148.426C220.675 148.701 220.88 149.059 221.021 149.498C221.161 149.932 221.231 150.462 221.231 151.089V157.32H219.597V151.071C219.597 150.573 219.523 150.175 219.377 149.876C219.23 149.571 219.017 149.352 218.735 149.217C218.454 149.076 218.108 149.006 217.698 149.006C217.294 149.006 216.925 149.091 216.591 149.261C216.263 149.431 215.979 149.665 215.738 149.964C215.504 150.263 215.319 150.605 215.185 150.992C215.056 151.373 214.991 151.777 214.991 152.205ZM227.647 157.496C226.985 157.496 226.385 157.385 225.846 157.162C225.312 156.934 224.853 156.614 224.466 156.204C224.085 155.794 223.792 155.308 223.587 154.745C223.382 154.183 223.279 153.567 223.279 152.899V152.53C223.279 151.757 223.394 151.068 223.622 150.465C223.851 149.855 224.161 149.34 224.554 148.918C224.946 148.496 225.392 148.177 225.89 147.96C226.388 147.743 226.903 147.635 227.437 147.635C228.116 147.635 228.702 147.752 229.194 147.986C229.692 148.221 230.1 148.549 230.416 148.971C230.732 149.387 230.967 149.879 231.119 150.447C231.271 151.01 231.348 151.625 231.348 152.293V153.022H224.246V151.695H229.722V151.572C229.698 151.15 229.61 150.74 229.458 150.342C229.312 149.943 229.077 149.615 228.755 149.357C228.433 149.1 227.993 148.971 227.437 148.971C227.067 148.971 226.728 149.05 226.417 149.208C226.106 149.36 225.84 149.589 225.617 149.894C225.395 150.198 225.222 150.57 225.099 151.01C224.976 151.449 224.914 151.956 224.914 152.53V152.899C224.914 153.351 224.976 153.775 225.099 154.174C225.228 154.566 225.412 154.912 225.652 155.211C225.898 155.51 226.194 155.744 226.54 155.914C226.892 156.084 227.29 156.169 227.735 156.169C228.31 156.169 228.796 156.052 229.194 155.817C229.593 155.583 229.941 155.27 230.24 154.877L231.225 155.659C231.02 155.97 230.759 156.266 230.442 156.547C230.126 156.828 229.736 157.057 229.273 157.232C228.816 157.408 228.274 157.496 227.647 157.496ZM238.783 154.798C238.783 154.563 238.73 154.347 238.625 154.147C238.525 153.942 238.317 153.758 238.001 153.594C237.69 153.424 237.222 153.277 236.595 153.154C236.067 153.043 235.59 152.911 235.162 152.759C234.74 152.606 234.38 152.422 234.081 152.205C233.788 151.988 233.562 151.733 233.404 151.44C233.246 151.147 233.167 150.805 233.167 150.412C233.167 150.037 233.249 149.683 233.413 149.349C233.583 149.015 233.82 148.719 234.125 148.461C234.436 148.203 234.808 148.001 235.241 147.854C235.675 147.708 236.158 147.635 236.691 147.635C237.453 147.635 238.104 147.77 238.643 148.039C239.182 148.309 239.595 148.669 239.882 149.12C240.169 149.565 240.312 150.061 240.312 150.605H238.687C238.687 150.342 238.607 150.087 238.449 149.841C238.297 149.589 238.071 149.381 237.772 149.217C237.479 149.053 237.119 148.971 236.691 148.971C236.24 148.971 235.874 149.041 235.593 149.182C235.317 149.316 235.115 149.489 234.986 149.7C234.863 149.911 234.802 150.134 234.802 150.368C234.802 150.544 234.831 150.702 234.89 150.843C234.954 150.978 235.065 151.104 235.224 151.221C235.382 151.332 235.604 151.438 235.892 151.537C236.179 151.637 236.545 151.736 236.99 151.836C237.77 152.012 238.411 152.223 238.915 152.469C239.419 152.715 239.794 153.017 240.04 153.374C240.286 153.731 240.409 154.165 240.409 154.675C240.409 155.091 240.321 155.472 240.146 155.817C239.976 156.163 239.727 156.462 239.398 156.714C239.076 156.96 238.689 157.153 238.238 157.294C237.793 157.429 237.292 157.496 236.735 157.496C235.897 157.496 235.188 157.347 234.608 157.048C234.028 156.749 233.589 156.362 233.29 155.888C232.991 155.413 232.842 154.912 232.842 154.385H234.477C234.5 154.83 234.629 155.185 234.863 155.448C235.098 155.706 235.385 155.891 235.725 156.002C236.064 156.107 236.401 156.16 236.735 156.16C237.181 156.16 237.553 156.102 237.852 155.984C238.156 155.867 238.388 155.706 238.546 155.501C238.704 155.296 238.783 155.062 238.783 154.798ZM246.491 157.496C245.829 157.496 245.229 157.385 244.689 157.162C244.156 156.934 243.696 156.614 243.31 156.204C242.929 155.794 242.636 155.308 242.431 154.745C242.226 154.183 242.123 153.567 242.123 152.899V152.53C242.123 151.757 242.237 151.068 242.466 150.465C242.694 149.855 243.005 149.34 243.397 148.918C243.79 148.496 244.235 148.177 244.733 147.96C245.231 147.743 245.747 147.635 246.28 147.635C246.96 147.635 247.546 147.752 248.038 147.986C248.536 148.221 248.943 148.549 249.26 148.971C249.576 149.387 249.811 149.879 249.963 150.447C250.115 151.01 250.191 151.625 250.191 152.293V153.022H243.09V151.695H248.565V151.572C248.542 151.15 248.454 150.74 248.302 150.342C248.155 149.943 247.921 149.615 247.599 149.357C247.276 149.1 246.837 148.971 246.28 148.971C245.911 148.971 245.571 149.05 245.261 149.208C244.95 149.36 244.684 149.589 244.461 149.894C244.238 150.198 244.065 150.57 243.942 151.01C243.819 151.449 243.758 151.956 243.758 152.53V152.899C243.758 153.351 243.819 153.775 243.942 154.174C244.071 154.566 244.256 154.912 244.496 155.211C244.742 155.51 245.038 155.744 245.384 155.914C245.735 156.084 246.134 156.169 246.579 156.169C247.153 156.169 247.64 156.052 248.038 155.817C248.437 155.583 248.785 155.27 249.084 154.877L250.068 155.659C249.863 155.97 249.603 156.266 249.286 156.547C248.97 156.828 248.58 157.057 248.117 157.232C247.66 157.408 247.118 157.496 246.491 157.496ZM69.0312 181.32H67.4053V170.809C67.4053 170.123 67.5283 169.546 67.7744 169.077C68.0264 168.603 68.3867 168.245 68.8555 168.005C69.3242 167.759 69.8809 167.636 70.5254 167.636C70.7129 167.636 70.9004 167.647 71.0879 167.671C71.2812 167.694 71.4688 167.729 71.6504 167.776L71.5625 169.104C71.4395 169.074 71.2988 169.054 71.1406 169.042C70.9883 169.03 70.8359 169.024 70.6836 169.024C70.3379 169.024 70.0391 169.095 69.7871 169.235C69.541 169.37 69.3535 169.569 69.2246 169.833C69.0957 170.097 69.0312 170.422 69.0312 170.809V181.32ZM71.0527 171.811V173.059H65.9023V171.811H71.0527ZM72.4326 176.671V176.469C72.4326 175.783 72.5322 175.147 72.7314 174.562C72.9307 173.97 73.2178 173.457 73.5928 173.023C73.9678 172.584 74.4219 172.244 74.9551 172.004C75.4883 171.758 76.0859 171.635 76.748 171.635C77.416 171.635 78.0166 171.758 78.5498 172.004C79.0889 172.244 79.5459 172.584 79.9209 173.023C80.3018 173.457 80.5918 173.97 80.791 174.562C80.9902 175.147 81.0898 175.783 81.0898 176.469V176.671C81.0898 177.356 80.9902 177.992 80.791 178.578C80.5918 179.164 80.3018 179.677 79.9209 180.116C79.5459 180.55 79.0918 180.89 78.5586 181.136C78.0312 181.376 77.4336 181.496 76.7656 181.496C76.0977 181.496 75.4971 181.376 74.9639 181.136C74.4307 180.89 73.9736 180.55 73.5928 180.116C73.2178 179.677 72.9307 179.164 72.7314 178.578C72.5322 177.992 72.4326 177.356 72.4326 176.671ZM74.0586 176.469V176.671C74.0586 177.146 74.1143 177.594 74.2256 178.016C74.3369 178.432 74.5039 178.801 74.7266 179.123C74.9551 179.445 75.2393 179.7 75.5791 179.888C75.9189 180.069 76.3145 180.16 76.7656 180.16C77.2109 180.16 77.6006 180.069 77.9346 179.888C78.2744 179.7 78.5557 179.445 78.7783 179.123C79.001 178.801 79.168 178.432 79.2793 178.016C79.3965 177.594 79.4551 177.146 79.4551 176.671V176.469C79.4551 176 79.3965 175.558 79.2793 175.142C79.168 174.72 78.998 174.348 78.7695 174.025C78.5469 173.697 78.2656 173.439 77.9258 173.252C77.5918 173.064 77.1992 172.971 76.748 172.971C76.3027 172.971 75.9102 173.064 75.5703 173.252C75.2363 173.439 74.9551 173.697 74.7266 174.025C74.5039 174.348 74.3369 174.72 74.2256 175.142C74.1143 175.558 74.0586 176 74.0586 176.469ZM82.6982 176.671V176.469C82.6982 175.783 82.7979 175.147 82.9971 174.562C83.1963 173.97 83.4834 173.457 83.8584 173.023C84.2334 172.584 84.6875 172.244 85.2207 172.004C85.7539 171.758 86.3516 171.635 87.0137 171.635C87.6816 171.635 88.2822 171.758 88.8154 172.004C89.3545 172.244 89.8115 172.584 90.1865 173.023C90.5674 173.457 90.8574 173.97 91.0566 174.562C91.2559 175.147 91.3555 175.783 91.3555 176.469V176.671C91.3555 177.356 91.2559 177.992 91.0566 178.578C90.8574 179.164 90.5674 179.677 90.1865 180.116C89.8115 180.55 89.3574 180.89 88.8242 181.136C88.2969 181.376 87.6992 181.496 87.0312 181.496C86.3633 181.496 85.7627 181.376 85.2295 181.136C84.6963 180.89 84.2393 180.55 83.8584 180.116C83.4834 179.677 83.1963 179.164 82.9971 178.578C82.7979 177.992 82.6982 177.356 82.6982 176.671ZM84.3242 176.469V176.671C84.3242 177.146 84.3799 177.594 84.4912 178.016C84.6025 178.432 84.7695 178.801 84.9922 179.123C85.2207 179.445 85.5049 179.7 85.8447 179.888C86.1846 180.069 86.5801 180.16 87.0312 180.16C87.4766 180.16 87.8662 180.069 88.2002 179.888C88.54 179.7 88.8213 179.445 89.0439 179.123C89.2666 178.801 89.4336 178.432 89.5449 178.016C89.6621 177.594 89.7207 177.146 89.7207 176.671V176.469C89.7207 176 89.6621 175.558 89.5449 175.142C89.4336 174.72 89.2637 174.348 89.0352 174.025C88.8125 173.697 88.5312 173.439 88.1914 173.252C87.8574 173.064 87.4648 172.971 87.0137 172.971C86.5684 172.971 86.1758 173.064 85.8359 173.252C85.502 173.439 85.2207 173.697 84.9922 174.025C84.7695 174.348 84.6025 174.72 84.4912 175.142C84.3799 175.558 84.3242 176 84.3242 176.469ZM99.3887 179.475V167.82H101.023V181.32H99.5293L99.3887 179.475ZM92.9902 176.671V176.486C92.9902 175.76 93.0781 175.101 93.2539 174.509C93.4355 173.911 93.6904 173.398 94.0186 172.971C94.3525 172.543 94.748 172.215 95.2051 171.986C95.668 171.752 96.1836 171.635 96.752 171.635C97.3496 171.635 97.8711 171.74 98.3164 171.951C98.7676 172.156 99.1484 172.458 99.459 172.856C99.7754 173.249 100.024 173.724 100.206 174.28C100.388 174.837 100.514 175.467 100.584 176.17V176.979C100.52 177.676 100.394 178.303 100.206 178.859C100.024 179.416 99.7754 179.891 99.459 180.283C99.1484 180.676 98.7676 180.978 98.3164 181.188C97.8652 181.394 97.3379 181.496 96.7344 181.496C96.1777 181.496 95.668 181.376 95.2051 181.136C94.748 180.896 94.3525 180.559 94.0186 180.125C93.6904 179.691 93.4355 179.182 93.2539 178.596C93.0781 178.004 92.9902 177.362 92.9902 176.671ZM94.625 176.486V176.671C94.625 177.146 94.6719 177.591 94.7656 178.007C94.8652 178.423 95.0176 178.789 95.2227 179.105C95.4277 179.422 95.6885 179.671 96.0049 179.853C96.3213 180.028 96.6992 180.116 97.1387 180.116C97.6777 180.116 98.1201 180.002 98.4658 179.773C98.8174 179.545 99.0986 179.243 99.3096 178.868C99.5205 178.493 99.6846 178.086 99.8018 177.646V175.528C99.7314 175.206 99.6289 174.896 99.4941 174.597C99.3652 174.292 99.1953 174.022 98.9844 173.788C98.7793 173.548 98.5244 173.357 98.2197 173.217C97.9209 173.076 97.5664 173.006 97.1562 173.006C96.7109 173.006 96.3271 173.1 96.0049 173.287C95.6885 173.469 95.4277 173.721 95.2227 174.043C95.0176 174.359 94.8652 174.729 94.7656 175.15C94.6719 175.566 94.625 176.012 94.625 176.486ZM114.014 179.475V167.82H115.648V181.32H114.154L114.014 179.475ZM107.615 176.671V176.486C107.615 175.76 107.703 175.101 107.879 174.509C108.061 173.911 108.315 173.398 108.644 172.971C108.978 172.543 109.373 172.215 109.83 171.986C110.293 171.752 110.809 171.635 111.377 171.635C111.975 171.635 112.496 171.74 112.941 171.951C113.393 172.156 113.773 172.458 114.084 172.856C114.4 173.249 114.649 173.724 114.831 174.28C115.013 174.837 115.139 175.467 115.209 176.17V176.979C115.145 177.676 115.019 178.303 114.831 178.859C114.649 179.416 114.4 179.891 114.084 180.283C113.773 180.676 113.393 180.978 112.941 181.188C112.49 181.394 111.963 181.496 111.359 181.496C110.803 181.496 110.293 181.376 109.83 181.136C109.373 180.896 108.978 180.559 108.644 180.125C108.315 179.691 108.061 179.182 107.879 178.596C107.703 178.004 107.615 177.362 107.615 176.671ZM109.25 176.486V176.671C109.25 177.146 109.297 177.591 109.391 178.007C109.49 178.423 109.643 178.789 109.848 179.105C110.053 179.422 110.313 179.671 110.63 179.853C110.946 180.028 111.324 180.116 111.764 180.116C112.303 180.116 112.745 180.002 113.091 179.773C113.442 179.545 113.724 179.243 113.935 178.868C114.146 178.493 114.31 178.086 114.427 177.646V175.528C114.356 175.206 114.254 174.896 114.119 174.597C113.99 174.292 113.82 174.022 113.609 173.788C113.404 173.548 113.149 173.357 112.845 173.217C112.546 173.076 112.191 173.006 111.781 173.006C111.336 173.006 110.952 173.1 110.63 173.287C110.313 173.469 110.053 173.721 109.848 174.043C109.643 174.359 109.49 174.729 109.391 175.15C109.297 175.566 109.25 176.012 109.25 176.486ZM122.126 181.496C121.464 181.496 120.863 181.385 120.324 181.162C119.791 180.934 119.331 180.614 118.944 180.204C118.563 179.794 118.271 179.308 118.065 178.745C117.86 178.183 117.758 177.567 117.758 176.899V176.53C117.758 175.757 117.872 175.068 118.101 174.465C118.329 173.855 118.64 173.34 119.032 172.918C119.425 172.496 119.87 172.177 120.368 171.96C120.866 171.743 121.382 171.635 121.915 171.635C122.595 171.635 123.181 171.752 123.673 171.986C124.171 172.221 124.578 172.549 124.895 172.971C125.211 173.387 125.445 173.879 125.598 174.447C125.75 175.01 125.826 175.625 125.826 176.293V177.022H118.725V175.695H124.2V175.572C124.177 175.15 124.089 174.74 123.937 174.342C123.79 173.943 123.556 173.615 123.233 173.357C122.911 173.1 122.472 172.971 121.915 172.971C121.546 172.971 121.206 173.05 120.896 173.208C120.585 173.36 120.318 173.589 120.096 173.894C119.873 174.198 119.7 174.57 119.577 175.01C119.454 175.449 119.393 175.956 119.393 176.53V176.899C119.393 177.351 119.454 177.775 119.577 178.174C119.706 178.566 119.891 178.912 120.131 179.211C120.377 179.51 120.673 179.744 121.019 179.914C121.37 180.084 121.769 180.169 122.214 180.169C122.788 180.169 123.274 180.052 123.673 179.817C124.071 179.583 124.42 179.27 124.719 178.877L125.703 179.659C125.498 179.97 125.237 180.266 124.921 180.547C124.604 180.828 124.215 181.057 123.752 181.232C123.295 181.408 122.753 181.496 122.126 181.496ZM129.491 167.82V181.32H127.856V167.82H129.491ZM133.868 171.811V181.32H132.233V171.811H133.868ZM132.11 169.288C132.11 169.024 132.189 168.802 132.348 168.62C132.512 168.438 132.752 168.348 133.068 168.348C133.379 168.348 133.616 168.438 133.78 168.62C133.95 168.802 134.035 169.024 134.035 169.288C134.035 169.54 133.95 169.757 133.78 169.938C133.616 170.114 133.379 170.202 133.068 170.202C132.752 170.202 132.512 170.114 132.348 169.938C132.189 169.757 132.11 169.54 132.11 169.288ZM139.37 179.853L141.972 171.811H143.633L140.214 181.32H139.124L139.37 179.853ZM137.199 171.811L139.88 179.896L140.064 181.32H138.975L135.529 171.811H137.199ZM149.021 181.496C148.358 181.496 147.758 181.385 147.219 181.162C146.686 180.934 146.226 180.614 145.839 180.204C145.458 179.794 145.165 179.308 144.96 178.745C144.755 178.183 144.652 177.567 144.652 176.899V176.53C144.652 175.757 144.767 175.068 144.995 174.465C145.224 173.855 145.534 173.34 145.927 172.918C146.319 172.496 146.765 172.177 147.263 171.96C147.761 171.743 148.276 171.635 148.81 171.635C149.489 171.635 150.075 171.752 150.567 171.986C151.065 172.221 151.473 172.549 151.789 172.971C152.105 173.387 152.34 173.879 152.492 174.447C152.645 175.01 152.721 175.625 152.721 176.293V177.022H145.619V175.695H151.095V175.572C151.071 175.15 150.983 174.74 150.831 174.342C150.685 173.943 150.45 173.615 150.128 173.357C149.806 173.1 149.366 172.971 148.81 172.971C148.44 172.971 148.101 173.05 147.79 173.208C147.479 173.36 147.213 173.589 146.99 173.894C146.768 174.198 146.595 174.57 146.472 175.01C146.349 175.449 146.287 175.956 146.287 176.53V176.899C146.287 177.351 146.349 177.775 146.472 178.174C146.601 178.566 146.785 178.912 147.025 179.211C147.271 179.51 147.567 179.744 147.913 179.914C148.265 180.084 148.663 180.169 149.108 180.169C149.683 180.169 150.169 180.052 150.567 179.817C150.966 179.583 151.314 179.27 151.613 178.877L152.598 179.659C152.393 179.97 152.132 180.266 151.815 180.547C151.499 180.828 151.109 181.057 150.646 181.232C150.189 181.408 149.647 181.496 149.021 181.496ZM156.245 173.305V181.32H154.619V171.811H156.201L156.245 173.305ZM159.216 171.758L159.207 173.27C159.072 173.24 158.943 173.223 158.82 173.217C158.703 173.205 158.568 173.199 158.416 173.199C158.041 173.199 157.71 173.258 157.423 173.375C157.136 173.492 156.893 173.656 156.693 173.867C156.494 174.078 156.336 174.33 156.219 174.623C156.107 174.91 156.034 175.227 155.999 175.572L155.542 175.836C155.542 175.262 155.598 174.723 155.709 174.219C155.826 173.715 156.005 173.27 156.245 172.883C156.485 172.49 156.79 172.186 157.159 171.969C157.534 171.746 157.979 171.635 158.495 171.635C158.612 171.635 158.747 171.649 158.899 171.679C159.052 171.702 159.157 171.729 159.216 171.758ZM163.549 180.336L166.194 171.811H167.935L164.12 182.788C164.032 183.022 163.915 183.274 163.769 183.544C163.628 183.819 163.446 184.08 163.224 184.326C163.001 184.572 162.731 184.771 162.415 184.924C162.104 185.082 161.732 185.161 161.299 185.161C161.17 185.161 161.006 185.144 160.807 185.108C160.607 185.073 160.467 185.044 160.385 185.021L160.376 183.702C160.423 183.708 160.496 183.714 160.596 183.72C160.701 183.731 160.774 183.737 160.815 183.737C161.185 183.737 161.498 183.688 161.756 183.588C162.014 183.494 162.23 183.333 162.406 183.104C162.588 182.882 162.743 182.574 162.872 182.182L163.549 180.336ZM161.606 171.811L164.076 179.193L164.498 180.907L163.329 181.505L159.831 171.811H161.606ZM179.475 179.694V174.799C179.475 174.424 179.398 174.099 179.246 173.823C179.1 173.542 178.877 173.325 178.578 173.173C178.279 173.021 177.91 172.944 177.471 172.944C177.061 172.944 176.7 173.015 176.39 173.155C176.085 173.296 175.845 173.48 175.669 173.709C175.499 173.938 175.414 174.184 175.414 174.447H173.788C173.788 174.107 173.876 173.771 174.052 173.437C174.228 173.103 174.479 172.801 174.808 172.531C175.142 172.256 175.54 172.039 176.003 171.881C176.472 171.717 176.993 171.635 177.567 171.635C178.259 171.635 178.868 171.752 179.396 171.986C179.929 172.221 180.345 172.575 180.644 173.05C180.948 173.519 181.101 174.107 181.101 174.816V179.246C181.101 179.562 181.127 179.899 181.18 180.257C181.238 180.614 181.323 180.922 181.435 181.18V181.32H179.738C179.656 181.133 179.592 180.884 179.545 180.573C179.498 180.257 179.475 179.964 179.475 179.694ZM179.756 175.555L179.773 176.697H178.13C177.667 176.697 177.254 176.735 176.891 176.812C176.527 176.882 176.223 176.99 175.977 177.137C175.73 177.283 175.543 177.468 175.414 177.69C175.285 177.907 175.221 178.162 175.221 178.455C175.221 178.754 175.288 179.026 175.423 179.272C175.558 179.519 175.76 179.715 176.029 179.861C176.305 180.002 176.642 180.072 177.04 180.072C177.538 180.072 177.978 179.967 178.358 179.756C178.739 179.545 179.041 179.287 179.264 178.982C179.492 178.678 179.615 178.382 179.633 178.095L180.327 178.877C180.286 179.123 180.175 179.396 179.993 179.694C179.812 179.993 179.568 180.28 179.264 180.556C178.965 180.825 178.607 181.051 178.191 181.232C177.781 181.408 177.318 181.496 176.803 181.496C176.158 181.496 175.593 181.37 175.106 181.118C174.626 180.866 174.251 180.529 173.981 180.107C173.718 179.68 173.586 179.202 173.586 178.675C173.586 178.165 173.686 177.717 173.885 177.33C174.084 176.938 174.371 176.612 174.746 176.354C175.121 176.091 175.572 175.892 176.1 175.757C176.627 175.622 177.216 175.555 177.866 175.555H179.756ZM185.284 173.639V184.977H183.649V171.811H185.144L185.284 173.639ZM191.691 176.486V176.671C191.691 177.362 191.609 178.004 191.445 178.596C191.281 179.182 191.041 179.691 190.725 180.125C190.414 180.559 190.03 180.896 189.573 181.136C189.116 181.376 188.592 181.496 188 181.496C187.396 181.496 186.863 181.396 186.4 181.197C185.938 180.998 185.545 180.708 185.223 180.327C184.9 179.946 184.643 179.489 184.449 178.956C184.262 178.423 184.133 177.822 184.062 177.154V176.17C184.133 175.467 184.265 174.837 184.458 174.28C184.651 173.724 184.906 173.249 185.223 172.856C185.545 172.458 185.935 172.156 186.392 171.951C186.849 171.74 187.376 171.635 187.974 171.635C188.571 171.635 189.102 171.752 189.564 171.986C190.027 172.215 190.417 172.543 190.733 172.971C191.05 173.398 191.287 173.911 191.445 174.509C191.609 175.101 191.691 175.76 191.691 176.486ZM190.057 176.671V176.486C190.057 176.012 190.007 175.566 189.907 175.15C189.808 174.729 189.652 174.359 189.441 174.043C189.236 173.721 188.973 173.469 188.65 173.287C188.328 173.1 187.944 173.006 187.499 173.006C187.089 173.006 186.731 173.076 186.427 173.217C186.128 173.357 185.873 173.548 185.662 173.788C185.451 174.022 185.278 174.292 185.144 174.597C185.015 174.896 184.918 175.206 184.854 175.528V177.805C184.971 178.215 185.135 178.602 185.346 178.965C185.557 179.322 185.838 179.612 186.189 179.835C186.541 180.052 186.983 180.16 187.517 180.16C187.956 180.16 188.334 180.069 188.65 179.888C188.973 179.7 189.236 179.445 189.441 179.123C189.652 178.801 189.808 178.432 189.907 178.016C190.007 177.594 190.057 177.146 190.057 176.671ZM195.392 173.639V184.977H193.757V171.811H195.251L195.392 173.639ZM201.799 176.486V176.671C201.799 177.362 201.717 178.004 201.553 178.596C201.389 179.182 201.148 179.691 200.832 180.125C200.521 180.559 200.138 180.896 199.681 181.136C199.224 181.376 198.699 181.496 198.107 181.496C197.504 181.496 196.971 181.396 196.508 181.197C196.045 180.998 195.652 180.708 195.33 180.327C195.008 179.946 194.75 179.489 194.557 178.956C194.369 178.423 194.24 177.822 194.17 177.154V176.17C194.24 175.467 194.372 174.837 194.565 174.28C194.759 173.724 195.014 173.249 195.33 172.856C195.652 172.458 196.042 172.156 196.499 171.951C196.956 171.74 197.483 171.635 198.081 171.635C198.679 171.635 199.209 171.752 199.672 171.986C200.135 172.215 200.524 172.543 200.841 172.971C201.157 173.398 201.395 173.911 201.553 174.509C201.717 175.101 201.799 175.76 201.799 176.486ZM200.164 176.671V176.486C200.164 176.012 200.114 175.566 200.015 175.15C199.915 174.729 199.76 174.359 199.549 174.043C199.344 173.721 199.08 173.469 198.758 173.287C198.436 173.1 198.052 173.006 197.606 173.006C197.196 173.006 196.839 173.076 196.534 173.217C196.235 173.357 195.98 173.548 195.77 173.788C195.559 174.022 195.386 174.292 195.251 174.597C195.122 174.896 195.025 175.206 194.961 175.528V177.805C195.078 178.215 195.242 178.602 195.453 178.965C195.664 179.322 195.945 179.612 196.297 179.835C196.648 180.052 197.091 180.16 197.624 180.16C198.063 180.16 198.441 180.069 198.758 179.888C199.08 179.7 199.344 179.445 199.549 179.123C199.76 178.801 199.915 178.432 200.015 178.016C200.114 177.594 200.164 177.146 200.164 176.671Z" fill="white"/>
<path d="M76.6562 23.7031V37H71.3906V20.0938H76.3281L76.6562 23.7031ZM76.0312 27.9688L74.7969 28C74.7969 26.7083 74.9531 25.5573 75.2656 24.5469C75.5781 23.526 76.0208 22.6615 76.5938 21.9531C77.1667 21.2448 77.849 20.7083 78.6406 20.3438C79.4427 19.9688 80.3333 19.7812 81.3125 19.7812C82.0938 19.7812 82.8073 19.8958 83.4531 20.125C84.1094 20.3542 84.6719 20.724 85.1406 21.2344C85.6198 21.7448 85.9844 22.4219 86.2344 23.2656C86.4948 24.099 86.625 25.1302 86.625 26.3594V37H81.3281V26.3438C81.3281 25.6667 81.2344 25.151 81.0469 24.7969C80.8594 24.4323 80.5885 24.1823 80.2344 24.0469C79.8802 23.9115 79.4479 23.8438 78.9375 23.8438C78.3958 23.8438 77.9375 23.9479 77.5625 24.1562C77.1875 24.3646 76.8854 24.6562 76.6562 25.0312C76.4375 25.3958 76.276 25.8281 76.1719 26.3281C76.0781 26.8281 76.0312 27.375 76.0312 27.9688ZM95.1094 20.0938V37H89.8281V20.0938H95.1094ZM89.5156 15.7344C89.5156 14.9844 89.7865 14.3698 90.3281 13.8906C90.8698 13.4115 91.5729 13.1719 92.4375 13.1719C93.3021 13.1719 94.0052 13.4115 94.5469 13.8906C95.0885 14.3698 95.3594 14.9844 95.3594 15.7344C95.3594 16.4844 95.0885 17.099 94.5469 17.5781C94.0052 18.0573 93.3021 18.2969 92.4375 18.2969C91.5729 18.2969 90.8698 18.0573 90.3281 17.5781C89.7865 17.099 89.5156 16.4844 89.5156 15.7344ZM103.531 23.7031V37H98.2656V20.0938H103.203L103.531 23.7031ZM102.906 27.9688L101.672 28C101.672 26.7083 101.828 25.5573 102.141 24.5469C102.453 23.526 102.896 22.6615 103.469 21.9531C104.042 21.2448 104.724 20.7083 105.516 20.3438C106.318 19.9688 107.208 19.7812 108.188 19.7812C108.969 19.7812 109.682 19.8958 110.328 20.125C110.984 20.3542 111.547 20.724 112.016 21.2344C112.495 21.7448 112.859 22.4219 113.109 23.2656C113.37 24.099 113.5 25.1302 113.5 26.3594V37H108.203V26.3438C108.203 25.6667 108.109 25.151 107.922 24.7969C107.734 24.4323 107.464 24.1823 107.109 24.0469C106.755 23.9115 106.323 23.8438 105.812 23.8438C105.271 23.8438 104.812 23.9479 104.438 24.1562C104.062 24.3646 103.76 24.6562 103.531 25.0312C103.312 25.3958 103.151 25.8281 103.047 26.3281C102.953 26.8281 102.906 27.375 102.906 27.9688ZM116.812 20.0938H122.094V37.5469C122.094 38.901 121.833 40.0417 121.312 40.9688C120.792 41.9062 120.047 42.6146 119.078 43.0938C118.109 43.5833 116.953 43.8281 115.609 43.8281C115.161 43.8281 114.75 43.8073 114.375 43.7656C113.99 43.7344 113.568 43.6667 113.109 43.5625V39.5781C113.38 39.6198 113.63 39.651 113.859 39.6719C114.089 39.7031 114.339 39.7188 114.609 39.7188C115.089 39.7188 115.49 39.6406 115.812 39.4844C116.135 39.3281 116.38 39.0885 116.547 38.7656C116.724 38.4427 116.812 38.0365 116.812 37.5469V20.0938ZM116.422 15.7344C116.422 14.9844 116.693 14.3698 117.234 13.8906C117.776 13.4115 118.479 13.1719 119.344 13.1719C120.208 13.1719 120.911 13.4115 121.453 13.8906C121.995 14.3698 122.266 14.9844 122.266 15.7344C122.266 16.4844 121.995 17.099 121.453 17.5781C120.911 18.0573 120.208 18.2969 119.344 18.2969C118.479 18.2969 117.776 18.0573 117.234 17.5781C116.693 17.099 116.422 16.4844 116.422 15.7344ZM133.859 32.75V25.7812C133.859 25.3021 133.792 24.8906 133.656 24.5469C133.521 24.2031 133.307 23.9375 133.016 23.75C132.724 23.5521 132.333 23.4531 131.844 23.4531C131.448 23.4531 131.109 23.5208 130.828 23.6562C130.547 23.7917 130.333 23.9948 130.188 24.2656C130.042 24.5365 129.969 24.8802 129.969 25.2969H124.703C124.703 24.5156 124.875 23.7917 125.219 23.125C125.573 22.4479 126.073 21.8594 126.719 21.3594C127.375 20.8594 128.156 20.474 129.062 20.2031C129.979 19.9219 131 19.7812 132.125 19.7812C133.469 19.7812 134.667 20.0052 135.719 20.4531C136.781 20.901 137.62 21.5729 138.234 22.4688C138.849 23.3542 139.156 24.4688 139.156 25.8125V32.7344C139.156 33.8385 139.219 34.6771 139.344 35.25C139.469 35.8125 139.646 36.3073 139.875 36.7344V37H134.594C134.344 36.4792 134.156 35.8438 134.031 35.0938C133.917 34.3333 133.859 33.5521 133.859 32.75ZM134.5 26.6719L134.531 29.4844H132.203C131.714 29.4844 131.297 29.5521 130.953 29.6875C130.62 29.8229 130.349 30.0104 130.141 30.25C129.943 30.4792 129.797 30.7396 129.703 31.0312C129.62 31.3229 129.578 31.6302 129.578 31.9531C129.578 32.2656 129.651 32.5469 129.797 32.7969C129.953 33.0365 130.161 33.224 130.422 33.3594C130.682 33.4948 130.974 33.5625 131.297 33.5625C131.88 33.5625 132.375 33.4531 132.781 33.2344C133.198 33.0052 133.516 32.7292 133.734 32.4062C133.953 32.0833 134.062 31.7812 134.062 31.5L135.219 33.6562C135.01 34.0729 134.771 34.4948 134.5 34.9219C134.24 35.349 133.911 35.7448 133.516 36.1094C133.13 36.4635 132.656 36.7552 132.094 36.9844C131.531 37.2031 130.849 37.3125 130.047 37.3125C129.005 37.3125 128.047 37.099 127.172 36.6719C126.307 36.2448 125.615 35.651 125.094 34.8906C124.573 34.1198 124.312 33.2344 124.312 32.2344C124.312 31.3594 124.469 30.5781 124.781 29.8906C125.104 29.2031 125.589 28.6198 126.234 28.1406C126.88 27.6615 127.703 27.2969 128.703 27.0469C129.703 26.7969 130.88 26.6719 132.234 26.6719H134.5ZM142.328 14.25H151.281C153.031 14.25 154.552 14.5104 155.844 15.0312C157.135 15.5521 158.13 16.3229 158.828 17.3438C159.536 18.3646 159.891 19.625 159.891 21.125C159.891 22.4271 159.688 23.5156 159.281 24.3906C158.875 25.2656 158.307 25.9896 157.578 26.5625C156.859 27.125 156.021 27.5885 155.062 27.9531L153.266 28.9688H145.75L145.719 24.7344H151.281C151.979 24.7344 152.557 24.6094 153.016 24.3594C153.474 24.1094 153.818 23.7552 154.047 23.2969C154.286 22.8281 154.406 22.2708 154.406 21.625C154.406 20.9688 154.286 20.4062 154.047 19.9375C153.807 19.4688 153.453 19.1094 152.984 18.8594C152.526 18.6094 151.958 18.4844 151.281 18.4844H147.812V37H142.328V14.25ZM154.781 37L149.75 26.9375L155.562 26.9062L160.656 36.7656V37H154.781ZM162.297 28.7188V28.3906C162.297 27.151 162.474 26.0104 162.828 24.9688C163.182 23.9167 163.703 23.0052 164.391 22.2344C165.078 21.4635 165.927 20.8646 166.938 20.4375C167.948 20 169.115 19.7812 170.438 19.7812C171.771 19.7812 172.943 20 173.953 20.4375C174.974 20.8646 175.828 21.4635 176.516 22.2344C177.203 23.0052 177.724 23.9167 178.078 24.9688C178.432 26.0104 178.609 27.151 178.609 28.3906V28.7188C178.609 29.9479 178.432 31.0885 178.078 32.1406C177.724 33.1823 177.203 34.0938 176.516 34.875C175.828 35.6458 174.979 36.2448 173.969 36.6719C172.958 37.099 171.792 37.3125 170.469 37.3125C169.146 37.3125 167.974 37.099 166.953 36.6719C165.932 36.2448 165.078 35.6458 164.391 34.875C163.703 34.0938 163.182 33.1823 162.828 32.1406C162.474 31.0885 162.297 29.9479 162.297 28.7188ZM167.562 28.3906V28.7188C167.562 29.3542 167.609 29.9479 167.703 30.5C167.797 31.0521 167.953 31.5365 168.172 31.9531C168.391 32.3594 168.688 32.6771 169.062 32.9062C169.438 33.1354 169.906 33.25 170.469 33.25C171.021 33.25 171.479 33.1354 171.844 32.9062C172.219 32.6771 172.516 32.3594 172.734 31.9531C172.953 31.5365 173.109 31.0521 173.203 30.5C173.297 29.9479 173.344 29.3542 173.344 28.7188V28.3906C173.344 27.776 173.297 27.1979 173.203 26.6562C173.109 26.1042 172.953 25.6198 172.734 25.2031C172.516 24.776 172.219 24.4427 171.844 24.2031C171.469 23.9635 171 23.8438 170.438 23.8438C169.885 23.8438 169.422 23.9635 169.047 24.2031C168.682 24.4427 168.391 24.776 168.172 25.2031C167.953 25.6198 167.797 26.1042 167.703 26.6562C167.609 27.1979 167.562 27.776 167.562 28.3906ZM186.516 13V37H181.234V13H186.516ZM195.328 13V37H190.047V13H195.328Z" fill="white"/>
<g opacity="0.6">
<path d="M95.1782 73.9278V83.2482H93.0183V73.9278H95.1782ZM92.8979 71.325C92.8979 70.5977 93.3841 70.0427 94.0983 70.0427C94.8314 70.0427 95.2828 70.5977 95.3018 71.325C95.3018 72.0331 94.8299 72.5881 94.0824 72.5881C93.3683 72.5881 92.8979 72.0331 92.8979 71.325Z" fill="white"/>
<path fill-rule="evenodd" clip-rule="evenodd" d="M89.9556 83.2481L88.893 79.5927H85.1654L84.1551 83.2481H81.9429L85.7054 70.3489H88.4401L92.2549 83.2481H89.9556ZM86.4195 74.6359L85.5137 77.8128H88.5272L87.604 74.6359C87.4203 74.0008 87.2604 73.3031 87.1131 72.6646C87.0796 72.5178 87.0458 72.3711 87.0118 72.2244H86.9769C86.9168 72.4802 86.8582 72.7533 86.7964 73.0335C86.6792 73.5728 86.5573 74.133 86.4195 74.6359Z" fill="white"/>
<path fill-rule="evenodd" clip-rule="evenodd" d="M97.2779 61.2094C91.7441 60.5354 86.1593 60.5354 80.6255 61.2094C77.4394 61.6008 74.8661 64.3585 74.4924 67.8765C73.8359 74.0435 73.8359 80.2736 74.4924 86.4406C74.8661 89.9586 77.4378 92.7163 80.6255 93.1077C86.1594 93.7811 91.744 93.7811 97.2779 93.1077C100.464 92.7163 103.037 89.9586 103.411 86.4406C104.067 80.2736 104.067 74.0435 103.411 67.8765C103.037 64.3585 100.466 61.6008 97.2779 61.2094ZM80.8883 63.8017C86.2475 63.1491 91.6559 63.1491 97.0151 63.8017C99.1212 64.0627 100.808 65.8878 101.053 68.1809C101.688 74.1457 101.688 80.1714 101.053 86.1362C100.926 87.2584 100.459 88.3009 99.7258 89.0952C98.9931 89.8895 98.0381 90.3892 97.0151 90.5136C91.6559 91.1663 86.2475 91.1663 80.8883 90.5136C79.8653 90.3892 78.9102 89.8895 78.1775 89.0952C77.4449 88.3009 76.9773 87.2584 76.8503 86.1362C76.2154 80.1714 76.2154 74.1457 76.8503 68.1809C76.9773 67.0587 77.4449 66.0162 78.1775 65.2219C78.9102 64.4276 79.8653 63.9262 80.8883 63.8017Z" fill="white"/>
</g>
<g opacity="0.6">
<path fill-rule="evenodd" clip-rule="evenodd" d="M130.15 83.1676H128.072V70.7234C128.821 70.5737 129.86 70.4614 131.274 70.4614C132.807 70.4614 133.931 70.817 134.665 71.4906C135.346 72.1082 135.787 73.1 135.787 74.2789C135.787 75.4765 135.447 76.4683 134.799 77.142C133.965 78.0589 132.653 78.4893 131.172 78.4893C130.78 78.4893 130.422 78.4706 130.15 78.4145V83.1676ZM131.359 72.2204C130.78 72.2204 130.371 72.2766 130.151 72.3327V76.5993C130.405 76.6741 130.746 76.6929 131.173 76.6929C132.738 76.6929 133.692 75.8508 133.692 74.3724C133.692 72.969 132.807 72.2204 131.359 72.2204Z" fill="white"/>
<path d="M138.464 83.3731C137.458 83.3731 136.557 83.0924 135.944 82.7181L136.352 81.0527C136.829 81.3708 137.73 81.7076 138.481 81.7076C139.401 81.7076 139.81 81.2959 139.81 80.6971C139.81 80.0796 139.469 79.7615 138.447 79.3685C136.829 78.751 136.148 77.7779 136.165 76.7112C136.165 75.1019 137.373 73.8481 139.299 73.8481C140.219 73.8481 141.018 74.1101 141.496 74.3908L141.087 76.0189C140.551 75.6877 139.948 75.5077 139.333 75.4949C138.584 75.4949 138.175 75.8879 138.175 76.4493C138.175 77.0294 138.567 77.3101 139.622 77.7217C141.121 78.3206 141.82 79.1626 141.837 80.51C141.837 82.1567 140.66 83.3731 138.464 83.3731Z" fill="white"/>
<path fill-rule="evenodd" clip-rule="evenodd" d="M142.789 61.6186C137.378 60.9595 131.917 60.9595 126.507 61.6186C123.391 62.0013 120.875 64.6977 120.51 68.1375C119.868 74.1675 119.868 80.2591 120.51 86.2891C120.875 89.7289 123.39 92.4253 126.507 92.8081C131.917 93.4664 137.378 93.4664 142.789 92.8081C145.904 92.4253 148.42 89.7289 148.786 86.2891C149.428 80.2591 149.428 74.1675 148.786 68.1375C148.42 64.6977 145.906 62.0013 142.789 61.6186ZM126.764 64.1533C132.004 63.5152 137.292 63.5152 142.532 64.1533C144.591 64.4085 146.24 66.193 146.48 68.4352C147.101 74.2674 147.101 80.1592 146.48 85.9914C146.356 87.0888 145.899 88.1081 145.182 88.8847C144.466 89.6613 143.532 90.15 142.532 90.2716C137.292 90.9098 132.004 90.9098 126.764 90.2716C125.763 90.15 124.829 89.6613 124.113 88.8847C123.397 88.1081 122.939 87.0888 122.815 85.9914C122.194 80.1592 122.194 74.2674 122.815 68.4352C122.939 67.3379 123.397 66.3185 124.113 65.5419C124.829 64.7653 125.763 64.275 126.764 64.1533Z" fill="white"/>
</g>
<g opacity="0.6">
<path opacity="0.5" d="M177.105 66.167H171.159C169.582 66.167 168.069 66.8554 166.954 68.0809C165.838 69.3063 165.212 70.9683 165.212 72.7013C165.212 74.4344 165.838 76.0964 166.954 77.3218C168.069 78.5472 169.582 79.2357 171.159 79.2357H177.105V66.167Z" stroke="white" stroke-width="4"/>
<path d="M177.106 79.2339H171.159C169.582 79.2339 168.069 79.9223 166.954 81.1478C165.839 82.3732 165.212 84.0352 165.212 85.7682C165.212 87.5012 165.839 89.1633 166.954 90.3887C168.069 91.6141 169.582 92.3026 171.159 92.3026H177.106V79.2339Z" stroke="white" stroke-width="4"/>
<path opacity="0.5" d="M189 85.769C189 87.502 188.373 89.164 187.258 90.3894C186.143 91.6149 184.63 92.3033 183.053 92.3033C181.475 92.3033 179.962 91.6149 178.847 90.3894C177.732 89.164 177.105 87.502 177.105 85.769C177.105 84.0359 177.732 82.3739 178.847 81.1485C179.962 79.9231 181.475 79.2346 183.053 79.2346C184.63 79.2346 186.143 79.9231 187.258 81.1485C188.373 82.3739 189 84.0359 189 85.769ZM171.159 92.3043H177.105V98.8377C177.105 100.13 176.756 101.393 176.102 102.467C175.449 103.541 174.52 104.378 173.433 104.872C172.347 105.366 171.151 105.496 169.998 105.243C168.844 104.991 167.785 104.369 166.953 103.455C166.122 102.541 165.556 101.377 165.327 100.11C165.097 98.8423 165.215 97.5287 165.665 96.335C166.115 95.1413 166.878 94.1211 167.855 93.4033C168.833 92.6855 169.983 92.3043 171.159 92.3043Z" stroke="white" stroke-width="4"/>
<path d="M177.105 66.167H183.052C184.629 66.167 186.142 66.8554 187.257 68.0809C188.373 69.3063 188.999 70.9683 188.999 72.7013C188.999 74.4344 188.373 76.0964 187.257 77.3218C186.142 78.5472 184.629 79.2357 183.052 79.2357H177.105V66.167Z" stroke="white" stroke-width="4"/>
</g>
</svg>
