<?xml version="1.0" encoding="utf-8"?>
<!-- Generator: Adobe Illustrator 24.0.1, SVG Export Plug-In . SVG Version: 6.00 Build 0)  -->
<svg version="1.1" id="Layer_1" xmlns="http://www.w3.org/2000/svg" xmlns:xlink="http://www.w3.org/1999/xlink" x="0px" y="0px"
	 viewBox="0 0 51.1 28.6" style="enable-background:new 0 0 51.1 28.6;" xml:space="preserve">
<style type="text/css">
	.st0{fill:#FFFFFF;}
	.st1{fill-rule:evenodd;clip-rule:evenodd;fill:#FFFFFF;}
</style>
<polygon class="st0" points="0.5,24.7 23.1,2.1 24.2,1 25.4,2 50.5,23.1 48.3,25.7 24.4,5.7 2.9,27.1 "/>
<path class="st1" d="M29.7,23.9V27c0,0.5-0.4,0.9-0.9,0.9h-3.2v-4.1H29.7z M25.6,18.5h3.2c0.5,0,0.9,0.4,0.9,0.9v3.2h-4.1V18.5z
	 M24.3,23.9V28h-3.2c-0.5,0-0.9-0.4-0.9-0.9v-3.2H24.3z M21.2,18.5h3.2v4.1h-4.1v-3.2C20.2,18.9,20.6,18.5,21.2,18.5z"/>
</svg>
