<?xml version="1.0" encoding="utf-8"?>
<!-- Generator: Adobe Illustrator 24.0.1, SVG Export Plug-In . SVG Version: 6.00 Build 0)  -->
<svg version="1.1" xmlns="http://www.w3.org/2000/svg" xmlns:xlink="http://www.w3.org/1999/xlink" x="0px" y="0px"
	 viewBox="0 0 756 236" style="enable-background:new 0 0 756 236;" xml:space="preserve">
<style type="text/css">
	.st0{display:none;}
	.st1{display:inline;}
	.st2{filter:url(#Adobe_OpacityMaskFilter);}
	.st3{fill:url(#SVGID_2_);}
	.st4{mask:url(#SVGID_1_);}
	.st5{fill:#FFFFFF;}
</style>
<g id="Capa_2" class="st0">
	<rect x="-83" y="-198" class="st1" width="891" height="460"/>
</g>
<g id="Capa_1">
	<defs>
		<filter id="Adobe_OpacityMaskFilter" filterUnits="userSpaceOnUse" x="14.9" y="5.4" width="741.8" height="198">
			<feColorMatrix  type="matrix" values="1 0 0 0 0  0 1 0 0 0  0 0 1 0 0  0 0 0 1 0"/>
		</filter>
	</defs>
	<mask maskUnits="userSpaceOnUse" x="14.9" y="5.4" width="741.8" height="198" id="SVGID_1_">
		<g class="st2">
			<linearGradient id="SVGID_2_" gradientUnits="userSpaceOnUse" x1="377.869" y1="175.7368" x2="377.869" y2="15.238">
				<stop  offset="2.833283e-02" style="stop-color:#000000"/>
				<stop  offset="1" style="stop-color:#FFFFFF"/>
			</linearGradient>
			<rect x="-0.3" class="st3" width="756.3" height="194.1"/>
		</g>
	</mask>
	<g class="st4">
		<path class="st5" d="M93.8,85.4c-7.7,7.4-19.4,11.2-35.2,11.2h-26V153H14.9V17.8h43.6c15.3,0,26.9,3.7,34.8,11.1
			c8,7.4,11.9,16.9,11.9,28.5C105.3,68.7,101.5,78,93.8,85.4z M80.3,75.6c4.7-4.3,7-10.3,7-18.2c0-16.7-9.6-25-28.7-25h-26V82h26
			C68.4,82,75.6,79.9,80.3,75.6z"/>
		<path class="st5" d="M158.1,49.8c5.8-3.4,12.8-5,21-5V63h-4.7c-19.8,0-29.7,10.7-29.7,32.2V153h-17.6V46.7h17.6V64
			C148,57.9,152.4,53.2,158.1,49.8z"/>
		<path class="st5" d="M218.8,148c-8.1-4.5-14.4-11-19-19.3c-4.6-8.3-6.9-18-6.9-29c0-10.9,2.4-20.5,7.1-28.8
			c4.7-8.3,11.2-14.7,19.3-19.2c8.1-4.5,17.3-6.7,27.3-6.7c10.1,0,19.2,2.2,27.3,6.7c8.1,4.5,14.6,10.8,19.3,19.1
			c4.7,8.3,7.1,17.9,7.1,28.9c0,11-2.4,20.7-7.3,29c-4.8,8.3-11.4,14.8-19.7,19.3c-8.3,4.5-17.5,6.8-27.5,6.8
			C235.9,154.8,226.9,152.5,218.8,148z M263.7,134.8c5.6-3,10.1-7.4,13.5-13.4c3.4-5.9,5.1-13.2,5.1-21.7c0-8.5-1.7-15.8-5-21.7
			c-3.4-5.9-7.8-10.4-13.2-13.3c-5.4-2.9-11.3-4.4-17.6-4.4c-6.5,0-12.4,1.5-17.7,4.4c-5.4,2.9-9.7,7.3-12.9,13.3
			c-3.2,5.9-4.8,13.2-4.8,21.7c0,8.7,1.6,16,4.8,21.9c3.2,5.9,7.4,10.4,12.7,13.3c5.3,2.9,11.1,4.4,17.5,4.4
			C252.2,139.2,258.2,137.8,263.7,134.8z"/>
		<path class="st5" d="M341.9,176.1c0,9.4-2.4,16.4-7.2,20.8c-4.8,4.4-11.8,6.6-20.9,6.6h-10.3v-14.9h7.4c4.9,0,8.4-1,10.4-2.9
			c2-1.9,3-5.2,3-9.9v-129h17.6V176.1z M324.7,26c-2.3-2.3-3.4-5.2-3.4-8.5c0-3.4,1.1-6.2,3.4-8.5c2.3-2.3,5.1-3.5,8.4-3.5
			c3.4,0,6.2,1.2,8.4,3.5c2.3,2.3,3.4,5.2,3.4,8.5c0,3.4-1.1,6.2-3.4,8.5c-2.3,2.3-5.1,3.5-8.4,3.5C329.8,29.5,327,28.3,324.7,26z"
			/>
		<path class="st5" d="M468.1,106.5h-84.9c0.6,10.5,4.2,18.7,10.8,24.5c6.5,5.9,14.4,8.8,23.8,8.8c7.6,0,14-1.8,19.1-5.3
			c5.1-3.6,8.7-8.3,10.8-14.3h19c-2.8,10.2-8.5,18.5-17.1,24.9c-8.5,6.4-19.1,9.6-31.8,9.6c-10.1,0-19.1-2.3-27.1-6.8
			c-8-4.5-14.2-11-18.7-19.3c-4.5-8.3-6.8-18-6.8-29c0-11,2.2-20.6,6.6-28.9c4.4-8.3,10.6-14.6,18.5-19.1s17.1-6.7,27.4-6.7
			c10.1,0,19,2.2,26.8,6.6c7.8,4.4,13.7,10.4,17.9,18.1c4.2,7.7,6.3,16.4,6.3,26.1C468.7,99.2,468.5,102.7,468.1,106.5z M446,74.8
			c-3-4.8-7-8.5-12.1-11.1c-5.1-2.5-10.8-3.8-17-3.8c-8.9,0-16.5,2.8-22.8,8.5c-6.3,5.7-9.9,13.6-10.8,23.7h67.1
			C450.5,85.4,449,79.6,446,74.8z"/>
		<path class="st5" d="M492,70.9c4.4-8.2,10.5-14.6,18.3-19.1c7.8-4.5,16.8-6.8,26.9-6.8c13.1,0,23.8,3.2,32.3,9.5
			c8.5,6.3,14.1,15.1,16.8,26.4h-19c-1.8-6.5-5.3-11.6-10.6-15.3c-5.2-3.7-11.7-5.6-19.5-5.6c-10.1,0-18.2,3.5-24.4,10.4
			c-6.2,6.9-9.3,16.7-9.3,29.4c0,12.8,3.1,22.7,9.3,29.7c6.2,7,14.4,10.5,24.4,10.5c7.8,0,14.2-1.8,19.4-5.4
			c5.2-3.6,8.7-8.8,10.7-15.5h19c-2.8,10.9-8.5,19.6-17.1,26.1c-8.5,6.5-19.2,9.8-32,9.8c-10.1,0-19-2.3-26.9-6.8
			c-7.8-4.5-13.9-10.9-18.3-19.2c-4.4-8.3-6.6-18-6.6-29.1C485.4,88.7,487.6,79.1,492,70.9z"/>
		<path class="st5" d="M631.2,61.3v62.6c0,5.2,1.1,8.8,3.3,11c2.2,2.1,6,3.2,11.4,3.2h13V153h-15.9c-9.8,0-17.2-2.3-22.1-6.8
			c-4.9-4.5-7.4-12-7.4-22.3V61.3h-13.8V46.7h13.8V20h17.6v26.8H659v14.5H631.2z"/>
		<path class="st5" d="M696,150.6c-6.5-2.8-11.6-6.7-15.3-11.6c-3.8-5-5.8-10.7-6.2-17.2h18.2c0.5,5.3,3,9.6,7.5,13
			c4.5,3.4,10.3,5,17.6,5c6.7,0,12-1.5,15.9-4.5c3.9-3,5.8-6.7,5.8-11.2c0-4.7-2.1-8.1-6.2-10.4c-4.1-2.3-10.5-4.5-19.2-6.7
			c-7.9-2.1-14.3-4.2-19.3-6.3c-5-2.1-9.2-5.3-12.8-9.5c-3.6-4.2-5.3-9.7-5.3-16.6c0-5.4,1.6-10.4,4.8-14.9
			c3.2-4.5,7.8-8.1,13.8-10.8c5.9-2.6,12.7-4,20.4-4c11.8,0,21.3,3,28.5,8.9c7.2,5.9,11.1,14.1,11.6,24.4h-17.6
			c-0.4-5.6-2.6-10-6.7-13.4c-4.1-3.4-9.5-5-16.4-5c-6.3,0-11.4,1.4-15.1,4.1c-3.8,2.7-5.6,6.3-5.6,10.7c0,3.5,1.1,6.4,3.4,8.6
			c2.3,2.3,5.1,4.1,8.5,5.4c3.4,1.4,8.2,2.9,14.3,4.6c7.6,2.1,13.8,4.1,18.6,6.1c4.8,2,8.9,5,12.3,9c3.4,4,5.2,9.2,5.3,15.7
			c0,5.8-1.6,11.1-4.8,15.7c-3.2,4.7-7.8,8.3-13.7,11c-5.9,2.6-12.6,4-20.3,4C709.8,154.8,702.5,153.4,696,150.6z"/>
	</g>
</g>
</svg>
