<svg width="336" height="32" viewBox="0 0 336 32" fill="none" xmlns="http://www.w3.org/2000/svg">
<path d="M12.1094 8.09375H16.8906V24.3438C16.8906 25.9062 16.5312 27.2292 15.8125 28.3125C15.0938 29.4062 14.0885 30.2344 12.7969 30.7969C11.5156 31.3698 10.0156 31.6562 8.29688 31.6562C7.53646 31.6562 6.76042 31.5573 5.96875 31.3594C5.17708 31.1719 4.4375 30.8906 3.75 30.5156C3.0625 30.1406 2.48438 29.6771 2.01562 29.125L4.21875 26.0312C4.64583 26.5104 5.18229 26.9167 5.82812 27.25C6.47396 27.5938 7.23438 27.7656 8.10938 27.7656C8.86979 27.7656 9.50521 27.6302 10.0156 27.3594C10.5365 27.0885 10.9323 26.6927 11.2031 26.1719C11.474 25.6615 11.6094 25.0417 11.6094 24.3125V12.0938L12.1094 8.09375ZM0.875 16.75V16.4219C0.875 15.1406 1.03125 13.974 1.34375 12.9219C1.66667 11.8594 2.125 10.9479 2.71875 10.1875C3.32292 9.41667 4.05208 8.82292 4.90625 8.40625C5.76042 7.98958 6.72396 7.78125 7.79688 7.78125C8.95312 7.78125 9.90104 8.00521 10.6406 8.45312C11.3906 8.89062 11.9896 9.50521 12.4375 10.2969C12.8958 11.0885 13.25 12.0156 13.5 13.0781C13.7604 14.1302 13.9792 15.2656 14.1562 16.4844V16.875C13.9792 18.0208 13.7344 19.1042 13.4219 20.125C13.1198 21.1354 12.724 22.0312 12.2344 22.8125C11.7448 23.5938 11.1302 24.2083 10.3906 24.6562C9.66146 25.0938 8.78646 25.3125 7.76562 25.3125C6.70312 25.3125 5.74479 25.099 4.89062 24.6719C4.04688 24.2448 3.32292 23.6458 2.71875 22.875C2.125 22.1042 1.66667 21.1979 1.34375 20.1562C1.03125 19.1146 0.875 17.9792 0.875 16.75ZM6.14062 16.4219V16.75C6.14062 17.3854 6.19792 17.974 6.3125 18.5156C6.4375 19.0573 6.625 19.5365 6.875 19.9531C7.125 20.3594 7.43229 20.6771 7.79688 20.9062C8.17188 21.1354 8.60938 21.25 9.10938 21.25C9.86979 21.25 10.4844 21.0885 10.9531 20.7656C11.4219 20.4427 11.7604 19.9844 11.9688 19.3906C12.1771 18.7969 12.2656 18.099 12.2344 17.2969V16.0625C12.2552 15.375 12.2083 14.7708 12.0938 14.25C11.9792 13.7188 11.7969 13.276 11.5469 12.9219C11.3073 12.5677 10.9844 12.3021 10.5781 12.125C10.1823 11.9375 9.70312 11.8438 9.14062 11.8438C8.65104 11.8438 8.21875 11.9583 7.84375 12.1875C7.46875 12.4167 7.15625 12.7396 6.90625 13.1562C6.65625 13.5625 6.46354 14.0469 6.32812 14.6094C6.20312 15.1615 6.14062 15.7656 6.14062 16.4219ZM25.2344 12.2812V25H19.9688V8.09375H24.8906L25.2344 12.2812ZM30.2344 7.96875L30.1406 12.8594C29.9323 12.8385 29.651 12.8125 29.2969 12.7812C28.9427 12.75 28.6458 12.7344 28.4062 12.7344C27.7917 12.7344 27.2604 12.8073 26.8125 12.9531C26.375 13.0885 26.0104 13.2969 25.7188 13.5781C25.4375 13.849 25.2292 14.1927 25.0938 14.6094C24.9688 15.026 24.9115 15.5104 24.9219 16.0625L23.9688 15.4375C23.9688 14.3021 24.0781 13.2708 24.2969 12.3438C24.526 11.4062 24.849 10.599 25.2656 9.92188C25.6823 9.23438 26.1875 8.70833 26.7812 8.34375C27.375 7.96875 28.0417 7.78125 28.7812 7.78125C29.0417 7.78125 29.2969 7.79688 29.5469 7.82812C29.8073 7.85938 30.0365 7.90625 30.2344 7.96875ZM40.3594 20.75V13.7812C40.3594 13.3021 40.2917 12.8906 40.1562 12.5469C40.0208 12.2031 39.8073 11.9375 39.5156 11.75C39.224 11.5521 38.8333 11.4531 38.3438 11.4531C37.9479 11.4531 37.6094 11.5208 37.3281 11.6562C37.0469 11.7917 36.8333 11.9948 36.6875 12.2656C36.5417 12.5365 36.4688 12.8802 36.4688 13.2969H31.2031C31.2031 12.5156 31.375 11.7917 31.7188 11.125C32.0729 10.4479 32.5729 9.85938 33.2188 9.35938C33.875 8.85938 34.6562 8.47396 35.5625 8.20312C36.4792 7.92188 37.5 7.78125 38.625 7.78125C39.9688 7.78125 41.1667 8.00521 42.2188 8.45312C43.2812 8.90104 44.1198 9.57292 44.7344 10.4688C45.349 11.3542 45.6562 12.4688 45.6562 13.8125V20.7344C45.6562 21.8385 45.7188 22.6771 45.8438 23.25C45.9688 23.8125 46.1458 24.3073 46.375 24.7344V25H41.0938C40.8438 24.4792 40.6562 23.8438 40.5312 23.0938C40.4167 22.3333 40.3594 21.5521 40.3594 20.75ZM41 14.6719L41.0312 17.4844H38.7031C38.2135 17.4844 37.7969 17.5521 37.4531 17.6875C37.1198 17.8229 36.849 18.0104 36.6406 18.25C36.4427 18.4792 36.2969 18.7396 36.2031 19.0312C36.1198 19.3229 36.0781 19.6302 36.0781 19.9531C36.0781 20.2656 36.151 20.5469 36.2969 20.7969C36.4531 21.0365 36.6615 21.224 36.9219 21.3594C37.1823 21.4948 37.474 21.5625 37.7969 21.5625C38.3802 21.5625 38.875 21.4531 39.2812 21.2344C39.6979 21.0052 40.0156 20.7292 40.2344 20.4062C40.4531 20.0833 40.5625 19.7812 40.5625 19.5L41.7188 21.6562C41.5104 22.0729 41.2708 22.4948 41 22.9219C40.7396 23.349 40.4115 23.7448 40.0156 24.1094C39.6302 24.4635 39.1562 24.7552 38.5938 24.9844C38.0312 25.2031 37.349 25.3125 36.5469 25.3125C35.5052 25.3125 34.5469 25.099 33.6719 24.6719C32.8073 24.2448 32.1146 23.651 31.5938 22.8906C31.0729 22.1198 30.8125 21.2344 30.8125 20.2344C30.8125 19.3594 30.9688 18.5781 31.2812 17.8906C31.6042 17.2031 32.0885 16.6198 32.7344 16.1406C33.3802 15.6615 34.2031 15.2969 35.2031 15.0469C36.2031 14.7969 37.3802 14.6719 38.7344 14.6719H41ZM53.8906 11.3438V31.5H48.625V8.09375H53.5312L53.8906 11.3438ZM64.2656 16.3438V16.6719C64.2656 17.901 64.125 19.0417 63.8438 20.0938C63.5625 21.1458 63.1458 22.0625 62.5938 22.8438C62.0417 23.625 61.3542 24.2344 60.5312 24.6719C59.7188 25.099 58.776 25.3125 57.7031 25.3125C56.6927 25.3125 55.8229 25.0885 55.0938 24.6406C54.3646 24.1927 53.7552 23.5729 53.2656 22.7812C52.776 21.9896 52.3802 21.0833 52.0781 20.0625C51.776 19.0417 51.5365 17.9635 51.3594 16.8281V16.4062C51.5365 15.1875 51.776 14.0573 52.0781 13.0156C52.3802 11.9635 52.776 11.0469 53.2656 10.2656C53.7552 9.48438 54.3594 8.875 55.0781 8.4375C55.8073 8 56.6771 7.78125 57.6875 7.78125C58.7604 7.78125 59.7031 7.98438 60.5156 8.39062C61.3385 8.79688 62.026 9.38021 62.5781 10.1406C63.1406 10.8906 63.5625 11.7917 63.8438 12.8438C64.125 13.8958 64.2656 15.0625 64.2656 16.3438ZM59 16.6719V16.3438C59 15.6875 58.9531 15.0885 58.8594 14.5469C58.7656 13.9948 58.6146 13.5156 58.4062 13.1094C58.2083 12.7031 57.9427 12.3906 57.6094 12.1719C57.276 11.9531 56.8646 11.8438 56.375 11.8438C55.8125 11.8438 55.3385 11.9323 54.9531 12.1094C54.5781 12.276 54.276 12.5365 54.0469 12.8906C53.8281 13.2344 53.6719 13.6667 53.5781 14.1875C53.4948 14.6979 53.4583 15.2969 53.4688 15.9844V17.2656C53.4479 18.0573 53.526 18.7552 53.7031 19.3594C53.8802 19.9531 54.1875 20.4167 54.625 20.75C55.0625 21.0833 55.6562 21.25 56.4062 21.25C56.9062 21.25 57.3229 21.1354 57.6562 20.9062C57.9896 20.6667 58.2552 20.3385 58.4531 19.9219C58.651 19.4948 58.7917 19.0052 58.875 18.4531C58.9583 17.901 59 17.3073 59 16.6719ZM71.7656 1V25H66.5V1H71.7656ZM71.1406 15.9688L69.9062 16C69.9062 14.8125 70.0521 13.7188 70.3438 12.7188C70.6354 11.7188 71.0521 10.849 71.5938 10.1094C72.1354 9.36979 72.7865 8.79688 73.5469 8.39062C74.3073 7.98438 75.151 7.78125 76.0781 7.78125C76.9115 7.78125 77.6719 7.90104 78.3594 8.14062C79.0573 8.38021 79.6562 8.76562 80.1562 9.29688C80.6667 9.82812 81.0573 10.5208 81.3281 11.375C81.6094 12.2292 81.75 13.2708 81.75 14.5V25H76.4531V14.4688C76.4531 13.7812 76.3542 13.25 76.1562 12.875C75.9688 12.4896 75.6979 12.224 75.3438 12.0781C74.9896 11.9219 74.5573 11.8438 74.0469 11.8438C73.4323 11.8438 72.9323 11.9479 72.5469 12.1562C72.1615 12.3646 71.8646 12.6562 71.6562 13.0312C71.4583 13.3958 71.3229 13.8281 71.25 14.3281C71.1771 14.8281 71.1406 15.375 71.1406 15.9688ZM90.2344 8.09375V25H84.9531V8.09375H90.2344ZM84.6406 3.73438C84.6406 2.98438 84.9115 2.36979 85.4531 1.89062C85.9948 1.41146 86.6979 1.17188 87.5625 1.17188C88.4271 1.17188 89.1302 1.41146 89.6719 1.89062C90.2135 2.36979 90.4844 2.98438 90.4844 3.73438C90.4844 4.48438 90.2135 5.09896 89.6719 5.57812C89.1302 6.05729 88.4271 6.29688 87.5625 6.29688C86.6979 6.29688 85.9948 6.05729 85.4531 5.57812C84.9115 5.09896 84.6406 4.48438 84.6406 3.73438ZM100.625 21.25C101.115 21.25 101.531 21.1615 101.875 20.9844C102.229 20.7969 102.495 20.5365 102.672 20.2031C102.859 19.8594 102.948 19.4479 102.938 18.9688H107.891C107.901 20.2396 107.589 21.3542 106.953 22.3125C106.328 23.2604 105.474 24 104.391 24.5312C103.318 25.0521 102.104 25.3125 100.75 25.3125C99.4271 25.3125 98.2708 25.099 97.2812 24.6719C96.2917 24.2344 95.4635 23.6302 94.7969 22.8594C94.1406 22.0781 93.6458 21.1667 93.3125 20.125C92.9896 19.0833 92.8281 17.9531 92.8281 16.7344V16.375C92.8281 15.1562 92.9896 14.026 93.3125 12.9844C93.6458 11.9323 94.1406 11.0208 94.7969 10.25C95.4635 9.46875 96.2865 8.86458 97.2656 8.4375C98.2552 8 99.4062 7.78125 100.719 7.78125C102.125 7.78125 103.365 8.04688 104.438 8.57812C105.521 9.10938 106.37 9.88021 106.984 10.8906C107.599 11.901 107.901 13.125 107.891 14.5625H102.938C102.948 14.0521 102.87 13.5938 102.703 13.1875C102.536 12.7812 102.276 12.4583 101.922 12.2188C101.578 11.9688 101.135 11.8438 100.594 11.8438C100.052 11.8438 99.6146 11.9635 99.2812 12.2031C98.9479 12.4427 98.6927 12.776 98.5156 13.2031C98.349 13.6198 98.2344 14.099 98.1719 14.6406C98.1198 15.1823 98.0938 15.7604 98.0938 16.375V16.7344C98.0938 17.3594 98.1198 17.9479 98.1719 18.5C98.2344 19.0417 98.3542 19.5208 98.5312 19.9375C98.7083 20.3438 98.9635 20.6667 99.2969 20.9062C99.6302 21.1354 100.073 21.25 100.625 21.25ZM117.781 25H112.734L112.766 20.7812H117.781C118.823 20.7812 119.703 20.5312 120.422 20.0312C121.151 19.5312 121.703 18.7865 122.078 17.7969C122.464 16.7969 122.656 15.5677 122.656 14.1094V13.125C122.656 12.0312 122.547 11.0729 122.328 10.25C122.12 9.41667 121.807 8.72396 121.391 8.17188C120.974 7.60938 120.453 7.1875 119.828 6.90625C119.214 6.625 118.505 6.48438 117.703 6.48438H112.641V2.25H117.703C119.245 2.25 120.656 2.51562 121.938 3.04688C123.229 3.56771 124.344 4.31771 125.281 5.29688C126.229 6.26562 126.958 7.41667 127.469 8.75C127.99 10.0729 128.25 11.5417 128.25 13.1562V14.1094C128.25 15.7135 127.99 17.1823 127.469 18.5156C126.958 19.849 126.234 21 125.297 21.9688C124.359 22.9375 123.25 23.6875 121.969 24.2188C120.698 24.7396 119.302 25 117.781 25ZM115.875 2.25V25H110.391V2.25H115.875ZM139.047 25.3125C137.672 25.3125 136.443 25.099 135.359 24.6719C134.276 24.2344 133.359 23.6354 132.609 22.875C131.87 22.1146 131.302 21.2396 130.906 20.25C130.521 19.2604 130.328 18.2135 130.328 17.1094V16.5156C130.328 15.276 130.5 14.1302 130.844 13.0781C131.188 12.0156 131.698 11.0885 132.375 10.2969C133.052 9.50521 133.901 8.89062 134.922 8.45312C135.943 8.00521 137.13 7.78125 138.484 7.78125C139.682 7.78125 140.755 7.97396 141.703 8.35938C142.651 8.74479 143.453 9.29688 144.109 10.0156C144.776 10.7344 145.281 11.6042 145.625 12.625C145.979 13.6458 146.156 14.7917 146.156 16.0625V18.2031H132.344V14.9062H141.016V14.5C141.026 13.9375 140.927 13.4583 140.719 13.0625C140.521 12.6667 140.229 12.3646 139.844 12.1562C139.458 11.9479 138.99 11.8438 138.438 11.8438C137.865 11.8438 137.391 11.9688 137.016 12.2188C136.651 12.4688 136.365 12.8125 136.156 13.25C135.958 13.6771 135.818 14.1719 135.734 14.7344C135.651 15.2969 135.609 15.8906 135.609 16.5156V17.1094C135.609 17.7344 135.693 18.3021 135.859 18.8125C136.036 19.3229 136.286 19.7604 136.609 20.125C136.943 20.4792 137.339 20.7552 137.797 20.9531C138.266 21.151 138.797 21.25 139.391 21.25C140.109 21.25 140.818 21.1146 141.516 20.8438C142.214 20.5729 142.812 20.125 143.312 19.5L145.703 22.3438C145.359 22.8333 144.87 23.3073 144.234 23.7656C143.609 24.224 142.859 24.599 141.984 24.8906C141.109 25.1719 140.13 25.3125 139.047 25.3125ZM157.156 20.25C157.156 19.9583 157.057 19.7083 156.859 19.5C156.672 19.2812 156.339 19.0833 155.859 18.9062C155.38 18.7188 154.708 18.5312 153.844 18.3438C153.021 18.1667 152.245 17.9323 151.516 17.6406C150.797 17.349 150.167 16.9948 149.625 16.5781C149.083 16.1615 148.656 15.6667 148.344 15.0938C148.042 14.5208 147.891 13.8646 147.891 13.125C147.891 12.4062 148.042 11.7292 148.344 11.0938C148.656 10.4479 149.109 9.88021 149.703 9.39062C150.307 8.89062 151.042 8.5 151.906 8.21875C152.771 7.92708 153.755 7.78125 154.859 7.78125C156.38 7.78125 157.693 8.01562 158.797 8.48438C159.901 8.94271 160.75 9.58854 161.344 10.4219C161.948 11.2448 162.25 12.1979 162.25 13.2812H156.984C156.984 12.8542 156.911 12.4896 156.766 12.1875C156.63 11.8854 156.406 11.6562 156.094 11.5C155.781 11.3333 155.365 11.25 154.844 11.25C154.479 11.25 154.146 11.3177 153.844 11.4531C153.552 11.5885 153.318 11.776 153.141 12.0156C152.964 12.2552 152.875 12.5365 152.875 12.8594C152.875 13.0885 152.927 13.2969 153.031 13.4844C153.146 13.6615 153.318 13.8281 153.547 13.9844C153.776 14.1302 154.068 14.2656 154.422 14.3906C154.776 14.5052 155.203 14.6094 155.703 14.7031C156.839 14.9115 157.901 15.2083 158.891 15.5938C159.88 15.9792 160.682 16.526 161.297 17.2344C161.922 17.9427 162.234 18.8958 162.234 20.0938C162.234 20.8438 162.062 21.5365 161.719 22.1719C161.375 22.7969 160.88 23.349 160.234 23.8281C159.589 24.2969 158.812 24.6615 157.906 24.9219C157 25.1823 155.979 25.3125 154.844 25.3125C153.229 25.3125 151.865 25.026 150.75 24.4531C149.635 23.8698 148.792 23.1406 148.219 22.2656C147.656 21.3802 147.375 20.4844 147.375 19.5781H152.281C152.302 20.099 152.427 20.526 152.656 20.8594C152.896 21.1927 153.214 21.4375 153.609 21.5938C154.005 21.75 154.464 21.8281 154.984 21.8281C155.464 21.8281 155.859 21.7604 156.172 21.625C156.495 21.4896 156.74 21.3073 156.906 21.0781C157.073 20.8385 157.156 20.5625 157.156 20.25ZM170.266 8.09375V25H164.984V8.09375H170.266ZM164.672 3.73438C164.672 2.98438 164.943 2.36979 165.484 1.89062C166.026 1.41146 166.729 1.17188 167.594 1.17188C168.458 1.17188 169.161 1.41146 169.703 1.89062C170.245 2.36979 170.516 2.98438 170.516 3.73438C170.516 4.48438 170.245 5.09896 169.703 5.57812C169.161 6.05729 168.458 6.29688 167.594 6.29688C166.729 6.29688 166.026 6.05729 165.484 5.57812C164.943 5.09896 164.672 4.48438 164.672 3.73438ZM184.141 8.09375H188.922V24.3438C188.922 25.9062 188.562 27.2292 187.844 28.3125C187.125 29.4062 186.12 30.2344 184.828 30.7969C183.547 31.3698 182.047 31.6562 180.328 31.6562C179.568 31.6562 178.792 31.5573 178 31.3594C177.208 31.1719 176.469 30.8906 175.781 30.5156C175.094 30.1406 174.516 29.6771 174.047 29.125L176.25 26.0312C176.677 26.5104 177.214 26.9167 177.859 27.25C178.505 27.5938 179.266 27.7656 180.141 27.7656C180.901 27.7656 181.536 27.6302 182.047 27.3594C182.568 27.0885 182.964 26.6927 183.234 26.1719C183.505 25.6615 183.641 25.0417 183.641 24.3125V12.0938L184.141 8.09375ZM172.906 16.75V16.4219C172.906 15.1406 173.062 13.974 173.375 12.9219C173.698 11.8594 174.156 10.9479 174.75 10.1875C175.354 9.41667 176.083 8.82292 176.938 8.40625C177.792 7.98958 178.755 7.78125 179.828 7.78125C180.984 7.78125 181.932 8.00521 182.672 8.45312C183.422 8.89062 184.021 9.50521 184.469 10.2969C184.927 11.0885 185.281 12.0156 185.531 13.0781C185.792 14.1302 186.01 15.2656 186.188 16.4844V16.875C186.01 18.0208 185.766 19.1042 185.453 20.125C185.151 21.1354 184.755 22.0312 184.266 22.8125C183.776 23.5938 183.161 24.2083 182.422 24.6562C181.693 25.0938 180.818 25.3125 179.797 25.3125C178.734 25.3125 177.776 25.099 176.922 24.6719C176.078 24.2448 175.354 23.6458 174.75 22.875C174.156 22.1042 173.698 21.1979 173.375 20.1562C173.062 19.1146 172.906 17.9792 172.906 16.75ZM178.172 16.4219V16.75C178.172 17.3854 178.229 17.974 178.344 18.5156C178.469 19.0573 178.656 19.5365 178.906 19.9531C179.156 20.3594 179.464 20.6771 179.828 20.9062C180.203 21.1354 180.641 21.25 181.141 21.25C181.901 21.25 182.516 21.0885 182.984 20.7656C183.453 20.4427 183.792 19.9844 184 19.3906C184.208 18.7969 184.297 18.099 184.266 17.2969V16.0625C184.286 15.375 184.24 14.7708 184.125 14.25C184.01 13.7188 183.828 13.276 183.578 12.9219C183.339 12.5677 183.016 12.3021 182.609 12.125C182.214 11.9375 181.734 11.8438 181.172 11.8438C180.682 11.8438 180.25 11.9583 179.875 12.1875C179.5 12.4167 179.188 12.7396 178.938 13.1562C178.688 13.5625 178.495 14.0469 178.359 14.6094C178.234 15.1615 178.172 15.7656 178.172 16.4219ZM197.125 11.7031V25H191.859V8.09375H196.797L197.125 11.7031ZM196.5 15.9688L195.266 16C195.266 14.7083 195.422 13.5573 195.734 12.5469C196.047 11.526 196.49 10.6615 197.062 9.95312C197.635 9.24479 198.318 8.70833 199.109 8.34375C199.911 7.96875 200.802 7.78125 201.781 7.78125C202.562 7.78125 203.276 7.89583 203.922 8.125C204.578 8.35417 205.141 8.72396 205.609 9.23438C206.089 9.74479 206.453 10.4219 206.703 11.2656C206.964 12.099 207.094 13.1302 207.094 14.3594V25H201.797V14.3438C201.797 13.6667 201.703 13.151 201.516 12.7969C201.328 12.4323 201.057 12.1823 200.703 12.0469C200.349 11.9115 199.917 11.8438 199.406 11.8438C198.865 11.8438 198.406 11.9479 198.031 12.1562C197.656 12.3646 197.354 12.6562 197.125 13.0312C196.906 13.3958 196.745 13.8281 196.641 14.3281C196.547 14.8281 196.5 15.375 196.5 15.9688ZM219.344 17.2812H213.688V13.0469H219.344C220.115 13.0469 220.74 12.9167 221.219 12.6562C221.698 12.3958 222.047 12.0365 222.266 11.5781C222.495 11.1094 222.609 10.5833 222.609 10C222.609 9.375 222.495 8.79688 222.266 8.26562C222.047 7.73438 221.698 7.30729 221.219 6.98438C220.74 6.65104 220.115 6.48438 219.344 6.48438H215.75V25H210.266V2.25H219.344C221.167 2.25 222.734 2.58333 224.047 3.25C225.37 3.91667 226.385 4.83333 227.094 6C227.802 7.15625 228.156 8.47917 228.156 9.96875C228.156 11.4375 227.802 12.7188 227.094 13.8125C226.385 14.9062 225.37 15.7604 224.047 16.375C222.734 16.9792 221.167 17.2812 219.344 17.2812ZM229.984 16.7188V16.3906C229.984 15.151 230.161 14.0104 230.516 12.9688C230.87 11.9167 231.391 11.0052 232.078 10.2344C232.766 9.46354 233.615 8.86458 234.625 8.4375C235.635 8 236.802 7.78125 238.125 7.78125C239.458 7.78125 240.63 8 241.641 8.4375C242.661 8.86458 243.516 9.46354 244.203 10.2344C244.891 11.0052 245.411 11.9167 245.766 12.9688C246.12 14.0104 246.297 15.151 246.297 16.3906V16.7188C246.297 17.9479 246.12 19.0885 245.766 20.1406C245.411 21.1823 244.891 22.0938 244.203 22.875C243.516 23.6458 242.667 24.2448 241.656 24.6719C240.646 25.099 239.479 25.3125 238.156 25.3125C236.833 25.3125 235.661 25.099 234.641 24.6719C233.62 24.2448 232.766 23.6458 232.078 22.875C231.391 22.0938 230.87 21.1823 230.516 20.1406C230.161 19.0885 229.984 17.9479 229.984 16.7188ZM235.25 16.3906V16.7188C235.25 17.3542 235.297 17.9479 235.391 18.5C235.484 19.0521 235.641 19.5365 235.859 19.9531C236.078 20.3594 236.375 20.6771 236.75 20.9062C237.125 21.1354 237.594 21.25 238.156 21.25C238.708 21.25 239.167 21.1354 239.531 20.9062C239.906 20.6771 240.203 20.3594 240.422 19.9531C240.641 19.5365 240.797 19.0521 240.891 18.5C240.984 17.9479 241.031 17.3542 241.031 16.7188V16.3906C241.031 15.776 240.984 15.1979 240.891 14.6562C240.797 14.1042 240.641 13.6198 240.422 13.2031C240.203 12.776 239.906 12.4427 239.531 12.2031C239.156 11.9635 238.688 11.8438 238.125 11.8438C237.573 11.8438 237.109 11.9635 236.734 12.2031C236.37 12.4427 236.078 12.776 235.859 13.2031C235.641 13.6198 235.484 14.1042 235.391 14.6562C235.297 15.1979 235.25 15.776 235.25 16.3906ZM253.953 12.2812V25H248.688V8.09375H253.609L253.953 12.2812ZM258.953 7.96875L258.859 12.8594C258.651 12.8385 258.37 12.8125 258.016 12.7812C257.661 12.75 257.365 12.7344 257.125 12.7344C256.51 12.7344 255.979 12.8073 255.531 12.9531C255.094 13.0885 254.729 13.2969 254.438 13.5781C254.156 13.849 253.948 14.1927 253.812 14.6094C253.688 15.026 253.63 15.5104 253.641 16.0625L252.688 15.4375C252.688 14.3021 252.797 13.2708 253.016 12.3438C253.245 11.4062 253.568 10.599 253.984 9.92188C254.401 9.23438 254.906 8.70833 255.5 8.34375C256.094 7.96875 256.76 7.78125 257.5 7.78125C257.76 7.78125 258.016 7.79688 258.266 7.82812C258.526 7.85938 258.755 7.90625 258.953 7.96875ZM270.453 8.09375V11.75H260.266V8.09375H270.453ZM262.406 3.89062H267.672V19.4844C267.672 19.9323 267.724 20.2812 267.828 20.5312C267.932 20.7708 268.109 20.9427 268.359 21.0469C268.62 21.1406 268.964 21.1875 269.391 21.1875C269.693 21.1875 269.943 21.1823 270.141 21.1719C270.339 21.151 270.526 21.125 270.703 21.0938V24.8594C270.255 25.0052 269.786 25.1146 269.297 25.1875C268.807 25.2708 268.286 25.3125 267.734 25.3125C266.609 25.3125 265.646 25.1354 264.844 24.7812C264.052 24.4271 263.448 23.8698 263.031 23.1094C262.615 22.349 262.406 21.3594 262.406 20.1406V3.89062ZM279 25H273.703V6.71875C273.703 5.40625 273.969 4.30208 274.5 3.40625C275.031 2.51042 275.781 1.83333 276.75 1.375C277.719 0.90625 278.865 0.671875 280.188 0.671875C280.646 0.671875 281.078 0.703125 281.484 0.765625C281.891 0.828125 282.286 0.90625 282.672 1L282.688 4.875C282.5 4.82292 282.307 4.78646 282.109 4.76562C281.911 4.74479 281.667 4.73438 281.375 4.73438C280.865 4.73438 280.432 4.8125 280.078 4.96875C279.724 5.11458 279.453 5.33854 279.266 5.64062C279.089 5.93229 279 6.29167 279 6.71875V25ZM282.281 8.09375V11.75H271.266V8.09375H282.281ZM283.516 16.7188V16.3906C283.516 15.151 283.693 14.0104 284.047 12.9688C284.401 11.9167 284.922 11.0052 285.609 10.2344C286.297 9.46354 287.146 8.86458 288.156 8.4375C289.167 8 290.333 7.78125 291.656 7.78125C292.99 7.78125 294.161 8 295.172 8.4375C296.193 8.86458 297.047 9.46354 297.734 10.2344C298.422 11.0052 298.943 11.9167 299.297 12.9688C299.651 14.0104 299.828 15.151 299.828 16.3906V16.7188C299.828 17.9479 299.651 19.0885 299.297 20.1406C298.943 21.1823 298.422 22.0938 297.734 22.875C297.047 23.6458 296.198 24.2448 295.188 24.6719C294.177 25.099 293.01 25.3125 291.688 25.3125C290.365 25.3125 289.193 25.099 288.172 24.6719C287.151 24.2448 286.297 23.6458 285.609 22.875C284.922 22.0938 284.401 21.1823 284.047 20.1406C283.693 19.0885 283.516 17.9479 283.516 16.7188ZM288.781 16.3906V16.7188C288.781 17.3542 288.828 17.9479 288.922 18.5C289.016 19.0521 289.172 19.5365 289.391 19.9531C289.609 20.3594 289.906 20.6771 290.281 20.9062C290.656 21.1354 291.125 21.25 291.688 21.25C292.24 21.25 292.698 21.1354 293.062 20.9062C293.438 20.6771 293.734 20.3594 293.953 19.9531C294.172 19.5365 294.328 19.0521 294.422 18.5C294.516 17.9479 294.562 17.3542 294.562 16.7188V16.3906C294.562 15.776 294.516 15.1979 294.422 14.6562C294.328 14.1042 294.172 13.6198 293.953 13.2031C293.734 12.776 293.438 12.4427 293.062 12.2031C292.688 11.9635 292.219 11.8438 291.656 11.8438C291.104 11.8438 290.641 11.9635 290.266 12.2031C289.901 12.4427 289.609 12.776 289.391 13.2031C289.172 13.6198 289.016 14.1042 288.922 14.6562C288.828 15.1979 288.781 15.776 288.781 16.3906ZM307.734 1V25H302.453V1H307.734ZM316.547 8.09375V25H311.266V8.09375H316.547ZM310.953 3.73438C310.953 2.98438 311.224 2.36979 311.766 1.89062C312.307 1.41146 313.01 1.17188 313.875 1.17188C314.74 1.17188 315.443 1.41146 315.984 1.89062C316.526 2.36979 316.797 2.98438 316.797 3.73438C316.797 4.48438 316.526 5.09896 315.984 5.57812C315.443 6.05729 314.74 6.29688 313.875 6.29688C313.01 6.29688 312.307 6.05729 311.766 5.57812C311.224 5.09896 310.953 4.48438 310.953 3.73438ZM319.141 16.7188V16.3906C319.141 15.151 319.318 14.0104 319.672 12.9688C320.026 11.9167 320.547 11.0052 321.234 10.2344C321.922 9.46354 322.771 8.86458 323.781 8.4375C324.792 8 325.958 7.78125 327.281 7.78125C328.615 7.78125 329.786 8 330.797 8.4375C331.818 8.86458 332.672 9.46354 333.359 10.2344C334.047 11.0052 334.568 11.9167 334.922 12.9688C335.276 14.0104 335.453 15.151 335.453 16.3906V16.7188C335.453 17.9479 335.276 19.0885 334.922 20.1406C334.568 21.1823 334.047 22.0938 333.359 22.875C332.672 23.6458 331.823 24.2448 330.812 24.6719C329.802 25.099 328.635 25.3125 327.312 25.3125C325.99 25.3125 324.818 25.099 323.797 24.6719C322.776 24.2448 321.922 23.6458 321.234 22.875C320.547 22.0938 320.026 21.1823 319.672 20.1406C319.318 19.0885 319.141 17.9479 319.141 16.7188ZM324.406 16.3906V16.7188C324.406 17.3542 324.453 17.9479 324.547 18.5C324.641 19.0521 324.797 19.5365 325.016 19.9531C325.234 20.3594 325.531 20.6771 325.906 20.9062C326.281 21.1354 326.75 21.25 327.312 21.25C327.865 21.25 328.323 21.1354 328.688 20.9062C329.062 20.6771 329.359 20.3594 329.578 19.9531C329.797 19.5365 329.953 19.0521 330.047 18.5C330.141 17.9479 330.188 17.3542 330.188 16.7188V16.3906C330.188 15.776 330.141 15.1979 330.047 14.6562C329.953 14.1042 329.797 13.6198 329.578 13.2031C329.359 12.776 329.062 12.4427 328.688 12.2031C328.312 11.9635 327.844 11.8438 327.281 11.8438C326.729 11.8438 326.266 11.9635 325.891 12.2031C325.526 12.4427 325.234 12.776 325.016 13.2031C324.797 13.6198 324.641 14.1042 324.547 14.6562C324.453 15.1979 324.406 15.776 324.406 16.3906Z" fill="white"/>
</svg>
